<svg xmlns="http://www.w3.org/2000/svg" id="Layer_1" data-name="Layer 1" viewBox="0 0 64 64" width="512px" height="512px"><g><path d="M60,0H11A4.00458,4.00458,0,0,0,7,4V36H4a4.00458,4.00458,0,0,0-4,4v4a3.95376,3.95376,0,0,0,.55646,2A3.95376,3.95376,0,0,0,0,48v4a3.95376,3.95376,0,0,0,.55646,2A3.95376,3.95376,0,0,0,0,56v4a4.00458,4.00458,0,0,0,4,4H18a4.00458,4.00458,0,0,0,4-4V57H60a4.00458,4.00458,0,0,0,4-4V4A4.00458,4.00458,0,0,0,60,0ZM4,40H18l.00244,4H4Zm0,8H18l.00244,4H4ZM4,60V56H18l.00244,4Zm56-7H21.858A3.95382,3.95382,0,0,0,22,52V48a3.95376,3.95376,0,0,0-.55646-2A3.95376,3.95376,0,0,0,22,44V40a4.00458,4.00458,0,0,0-4-4H11V4H60Z" data-original="#000000" class="active-path" data-old_color="#000000" fill="#5CD9D8"/><path d="M28,38a1.99265,1.99265,0,0,0,1.41406-.58594L52,14.82813V18a2,2,0,0,0,4,0V10a2.0001,2.0001,0,0,0-2-2H46a2,2,0,0,0,0,4h3.17188L26.58594,34.58594A2,2,0,0,0,28,38Z" data-original="#000000" class="active-path" data-old_color="#000000" fill="#5CD9D8"/><circle cx="17" cy="10" r="2" data-original="#000000" class="active-path" data-old_color="#000000" fill="#5CD9D8"/></g> </svg>
