<svg xmlns="http://www.w3.org/2000/svg" xmlns:xlink="http://www.w3.org/1999/xlink" version="1.1" id="Capa_1" x="0px" y="0px" viewBox="0 0 512 512" style="enable-background:new 0 0 512 512;" xml:space="preserve" width="512px" height="512px" class="hovered-paths"><g><g>
	<g>
		<path d="M255.852,2.816C134.778,2.22,51.076,124.768,92.453,228.862    c14.834,37.362,30.653,74.71,50.157,109.74c30.18,54.213,63.663,106.651,96.262,159.615c8.893,14.418,24.624,14.592,33.767,0.706    c48.975-74.423,96.316-149.69,132.268-231.428c12.586-28.745,24.661-57.786,25.229-89.75    C431.537,81.603,352.666,2.757,255.852,2.816z M263.065,310.203c-81.172,3.916-141.245-58.939-142.252-134.083    c-1.137-72.206,59.257-134.373,131.756-135.7c74.887-1.348,138.418,58.346,138.491,132.254    C391.184,254.243,330.889,307.024,263.065,310.203z" data-original="#3C3D3F" class="hovered-path active-path" data-old_color="#3C3D3F" fill="#5CD9D8"/>
	</g>
</g><g>
	<g>
		<g>
			<path d="M252.519,37.607c-74.077,1.356-135.678,64.808-134.516,138.55c0.509,38.158,16.407,74.713,43.61,100.288     c25.353,23.839,58.63,36.74,94.369,36.74c2.391,0,4.805-0.056,7.219-0.169c65.038-3.049,130.811-52.236,130.676-140.342     c-0.037-35.59-14.401-69.267-40.448-94.825C326.68,51.603,289.965,37.008,252.519,37.607z M262.933,307.39h-0.003     c-36.94,1.775-71.534-10.662-97.466-35.044c-26.098-24.537-41.348-59.623-41.838-96.271     c-1.114-70.707,57.958-131.542,128.997-132.842c0.788-0.017,1.573-0.022,2.363-0.022c35.058,0,69.385,14.013,94.498,38.653     c24.964,24.492,38.729,56.742,38.763,90.813C388.376,257.256,325.304,304.467,262.933,307.39z" data-original="#000000" class="" fill="#5CD9D8"/>
			<path d="M382.536,52.944C348.865,18.801,303.921,0.003,255.962,0.003C255.647,0.006,255.32,0,255,0     c-58.231,0-112.722,28.965-145.904,77.605c-31.57,46.274-38.769,103.208-19.256,152.296     c13.484,33.964,30.008,73.602,50.314,110.069c23.707,42.586,49.867,84.753,75.166,125.531     c7.064,11.388,14.131,22.776,21.158,34.194c4.754,7.708,11.748,12.192,19.192,12.302c0.096,0.003,0.188,0.003,0.281,0.003     c7.281,0,14.207-4.189,19.037-11.531c44.53-67.672,95.162-146.97,132.496-231.844c13.602-31.063,24.905-59.342,25.465-90.838     C433.63,130.938,415.729,86.602,382.536,52.944z M427.322,177.699c-0.543,30.447-11.638,58.171-24.99,88.669     C365.176,350.837,314.69,429.902,270.29,497.38c-3.877,5.885-9.014,9.039-14.539,8.997c-5.562-0.082-10.707-3.505-14.485-9.632     c-7.027-11.419-14.097-22.815-21.167-34.209c-25.265-40.724-51.389-82.829-75.031-125.3     c-20.095-36.091-35.905-73.914-49.999-109.411c-18.82-47.352-11.841-102.322,18.674-147.049     C145.876,33.671,198.626,5.626,255,5.626c0.279,0,0.563,0,0.838,0.003h0.014c0.039,0,0.073,0,0.11,0     c46.44,0,89.966,18.204,122.568,51.271C410.654,89.474,427.984,132.378,427.322,177.699z" data-original="#000000" class="" fill="#5CD9D8"/>
		</g>
	</g>
</g><g>
	<g>
		<polygon points="286.387,163.641 254.932,163.821 274.175,86.506 237.853,86.506 225.475,184.906     253.197,184.906 252.949,264.267   " data-original="#3C3D3F" class="hovered-path active-path" data-old_color="#3C3D3F" fill="#5CD9D8"/>
	</g>
</g><g>
	<g>
		<path d="M290.297,160.808l-31.758,0.18l19.237-77.296h-42.403l-13.084,104.027h28.09l-0.295,94.099L290.297,160.808z     M228.665,182.093l11.669-92.774h30.242l-19.248,77.335l31.151-0.174l-26.664,80.235l0.203-64.622H228.665z" data-original="#000000" class="" fill="#5CD9D8"/>
	</g>
</g></g> </svg>