<svg width="691.73" height="624.89" xmlns="http://www.w3.org/2000/svg">
 <defs>
  <style>.cls-1{fill:#5cd9d8;fill-rule:evenodd;}.cls-2{fill:#f5f5f5;}.cls-3{fill:#e0e0e0;}.cls-4{fill:#ebebeb;}.cls-5{fill:#fafafa;}.cls-6{fill:#455a64;}.cls-7{fill:#ffbe9d;}.cls-8{fill:#263238;}.cls-9{fill:#eb996e;}.cls-10{fill:#ff725e;}.cls-11,.cls-12{opacity:0.3;}.cls-12,.cls-15{isolation:isolate;}.cls-13,.cls-15{fill:#fff;}.cls-14,.cls-15{opacity:0.4;}</style>
 </defs>
 <title>StudentMessage</title>
 <g>
  <title>background</title>
  <rect fill="none" id="canvas_background" height="602" width="802" y="-1" x="-1"/>
 </g>
 <g>
  <title>Layer 1</title>
  <path id="svg_1" d="m367.93,2.3c70.64,10.41 116.18,74.47 170.45,120.87c49.13,42 106.69,76.73 130.77,136.72c25,62.39 36,138.12 3.06,196.72c-31.71,56.42 -108.81,60.9 -165.47,92.18c-47.32,26.13 -84.88,72.31 -138.81,75.85c-55.55,3.65 -101.65,-34.55 -152.72,-56.7c-69.26,-30 -162.76,-29.7 -199,-95.9c-36.41,-66.43 1,-148.61 25.82,-220.18c24.35,-70.25 55.55,-139.78 114.59,-185c59.91,-45.89 136.6,-75.58 211.31,-64.56z" class="cls-1"/>
  <path id="svg_2" d="m469.87,442.05c-14.4,-10.06 -17.67,-28.7 -17.09,-45.51c0.09,-2.78 -0.22,-5.76 1.12,-8.21s4.44,-4.14 6.95,-3c2.07,1 3,3.4 4.15,5.4a16.32,16.32 0 0 0 6.57,6.27c1.79,0.93 4,1.5 5.75,0.53c2.41,-1.33 2.7,-4.68 2.68,-7.46q0,-7.8 -0.09,-15.58a26,26 0 0 1 0.83,-8.28c0.87,-2.64 2.78,-5.1 5.44,-5.84s5.93,0.79 6.48,3.52a26.65,26.65 0 0 1 0.08,3.46a3,3 0 0 0 1.71,2.78c1.1,0.33 2.22,-0.46 3.06,-1.28c2.88,-2.78 4.83,-6.48 6.65,-10s3.59,-7.29 6.2,-10.36s6.23,-5.5 10.19,-5.72s8.24,2.23 9.25,6.14s-1.27,7.92 -3.77,11.11a61.92,61.92 0 0 1 -13,12.34a5.18,5.18 0 0 0 -2.17,2.34c-0.6,1.85 1.16,3.7 3,4.31c2.08,0.68 4.33,0.47 6.48,0.73s4.53,1.21 5.34,3.27c1.15,2.84 -1.24,5.83 -3.58,7.78a52.83,52.83 0 0 1 -15.74,9.1c-2,0.75 -4.2,1.41 -5.86,2.85s-2.64,3.95 -1.64,5.91s3.55,2.59 5.7,2.19s4.07,-1.56 6.12,-2.34c3.82,-1.44 8.77,-1.17 11.22,2.13a8.79,8.79 0 0 1 0.92,7.8a20.36,20.36 0 0 1 -4.22,6.88a53.6,53.6 0 0 1 -22.8,16.07c-8.89,3.08 -17.12,3.92 -25.92,0.69" class="cls-2"/>
  <path id="svg_3" d="m469.69,454.49a122.42,122.42 0 0 1 4.55,-23a250.89,250.89 0 0 1 9.91,-26.84l3,-6.92c1,-2.26 1.95,-4.5 3,-6.65a124.09,124.09 0 0 1 6.93,-11.92c2.38,-3.7 4.78,-7.11 7.05,-10.28s4.45,-6.09 6.55,-8.67a98.53,98.53 0 0 1 10.79,-11.4c1.37,-1.25 2.47,-2.17 3.22,-2.78l0.86,-0.69a1.16,1.16 0 0 1 0.31,-0.22l-0.27,0.26l-0.83,0.74c-0.73,0.65 -1.85,1.59 -3.16,2.86a104.19,104.19 0 0 0 -10.64,11.49c-2.07,2.58 -4.23,5.49 -6.48,8.68s-4.63,6.6 -7,10.29a126.78,126.78 0 0 0 -6.88,11.94c-1.08,2.12 -2,4.36 -3,6.63l-3,6.91a256.23,256.23 0 0 0 -9.93,26.84a125.5,125.5 0 0 0 -4.63,22.87" class="cls-3"/>
  <path id="svg_4" d="m490.29,391.06a5.34,5.34 0 0 1 -0.28,-1.18c-0.15,-0.77 -0.31,-1.85 -0.52,-3.28c-0.39,-2.78 -0.8,-6.63 -1.24,-10.87s-0.92,-8.08 -1.34,-10.84c-0.21,-1.39 -0.4,-2.5 -0.54,-3.27a6.07,6.07 0 0 1 -0.15,-1.21a5.42,5.42 0 0 1 0.35,1.17c0.19,0.76 0.43,1.85 0.69,3.25c0.53,2.77 1.06,6.59 1.5,10.85s0.81,8 1.09,10.87c0.14,1.31 0.26,2.41 0.37,3.3a7,7 0 0 1 0.07,1.21z" class="cls-3"/>
  <path id="svg_5" d="m526.1,384.38a7.45,7.45 0 0 1 -1.42,0.17c-0.93,0.08 -2.25,0.19 -3.89,0.38c-3.28,0.36 -7.79,1 -12.75,1.94s-9.39,2 -12.59,2.83c-1.59,0.41 -2.87,0.78 -3.76,1a6.81,6.81 0 0 1 -1.4,0.34a8.06,8.06 0 0 1 1.33,-0.54c0.93,-0.3 2.15,-0.73 3.71,-1.18c3.17,-0.93 7.61,-2 12.58,-3a128.53,128.53 0 0 1 12.81,-1.79c1.64,-0.15 3,-0.2 3.91,-0.22a7.21,7.21 0 0 1 1.47,0.07z" class="cls-3"/>
  <path id="svg_6" d="m474.68,430.87a3.06,3.06 0 0 1 -0.24,-0.44l-0.62,-1.3c-0.53,-1.12 -1.24,-2.77 -2.11,-4.83c-1.72,-4.1 -3.93,-9.85 -6.28,-16.22s-4.51,-12.12 -6.15,-16.26l-1.93,-4.89l-0.52,-1.33a1.41,1.41 0 0 1 -0.15,-0.48a1.82,1.82 0 0 1 0.24,0.43l0.62,1.3c0.52,1.13 1.24,2.78 2.1,4.83c1.73,4.11 3.94,9.85 6.3,16.22s4.49,12.14 6.14,16.26l2,4.89c0.22,0.54 0.38,1 0.53,1.34a2,2 0 0 1 0.07,0.48z" class="cls-3"/>
  <path id="svg_7" d="m522.28,415.53a2.11,2.11 0 0 1 -0.47,0.19l-1.38,0.46l-5.1,1.66c-4.31,1.39 -10.23,3.39 -16.76,5.6s-12.49,4.16 -16.82,5.47c-2.18,0.65 -3.93,1.17 -5.15,1.49l-1.42,0.37a1.71,1.71 0 0 1 -0.5,0.1a2.14,2.14 0 0 1 0.47,-0.2l1.38,-0.46l5.1,-1.65c4.31,-1.4 10.19,-3.4 16.77,-5.61s12.49,-4.16 16.82,-5.46c2.17,-0.66 3.93,-1.17 5.15,-1.5l1.41,-0.37a2.1,2.1 0 0 1 0.5,-0.09z" class="cls-3"/>
  <path id="svg_8" d="m545.66,371.29a5.28,5.28 0 0 1 -0.37,-0.55l-0.92,-1.49c-0.78,-1.28 -1.85,-3.07 -3.15,-5.23l0.29,0.08l-7.32,4.28c0,0.07 0.16,-0.63 0.08,-0.33l0,0.06l0.07,0.12l0.14,0.26l0.3,0.5l0.56,1l1.1,1.91l2,3.49l-0.29,-0.07c2.18,-1.23 4,-2.25 5.34,-3l1.55,-0.82a2.94,2.94 0 0 1 0.59,-0.29a5,5 0 0 1 -0.47,0.33l-1.46,0.92c-1.26,0.78 -3.1,1.9 -5.34,3.22l-0.18,0.1l-0.11,-0.18c-0.63,-1.07 -1.31,-2.24 -2,-3.47l-1.11,-1.9l-0.57,-1l-0.29,-0.5l-0.14,-0.26l-0.09,-0.09l0,-0.06c-0.07,0.29 0.11,-0.4 0.09,-0.33l7.41,-4.23l0.18,-0.1l0.1,0.18c1.29,2.26 2.32,4.15 3,5.45c0.32,0.6 0.59,1.09 0.8,1.51a1.74,1.74 0 0 1 0.21,0.49z" class="cls-3"/>
  <path id="svg_9" d="m266.53,123.24l-9,0l0.24,44.54l8.95,0l-0.19,-44.54z" class="cls-3"/>
  <path id="svg_10" d="m203.21,123.38l-23.19,0.13l0.13,24.59l23.19,-0.12l-0.13,-24.6z" class="cls-4"/>
  <path id="svg_11" d="m226.27,123.23l-23.19,0.12l0.14,24.6l23.19,-0.13l-0.14,-24.59z" class="cls-2"/>
  <path id="svg_12" d="m180.06,130.28c15.4,0.13 30.85,0 46.28,-0.22a0.22,0.22 0 0 0 0.14,-0.08a0.25,0.25 0 0 0 0.06,-0.16a0.23,0.23 0 0 0 -0.06,-0.16a0.23,0.23 0 0 0 -0.14,-0.09q-23.1,-0.12 -46.28,0.28a0.23,0.23 0 0 0 -0.16,0.06a0.22,0.22 0 0 0 -0.06,0.15a0.2,0.2 0 0 0 0.06,0.15a0.24,0.24 0 0 0 0.16,0.07z" class="cls-3"/>
  <path id="svg_13" d="m207.69,147.53l-42.12,0.23l0.11,20l42.12,-0.23l-0.11,-20z" class="cls-4"/>
  <path id="svg_14" d="m249.61,147.31l-42.12,0.22l0.11,20l42.12,-0.23l-0.11,-19.99z" class="cls-2"/>
  <path id="svg_15" d="m165.59,153.38c28,0.31 56.07,0 84,-0.42a0.19,0.19 0 0 0 0.14,-0.09a0.23,0.23 0 0 0 0.06,-0.16a0.22,0.22 0 0 0 -0.06,-0.15a0.19,0.19 0 0 0 -0.14,-0.09c-28,-0.15 -56.07,-0.13 -84,0.48a0.2,0.2 0 0 0 -0.15,0.06a0.23,0.23 0 0 0 -0.07,0.15a0.24,0.24 0 0 0 0.22,0.22z" class="cls-3"/>
  <path id="svg_16" d="m313.03,167.81l-163.16,0l0,7.19l163.16,0l0,-7.19z" class="cls-3"/>
  <path id="svg_17" d="m183.18,171.27l-6.62,0l0,24.5l6.62,0l0,-24.5z" class="cls-3"/>
  <path id="svg_18" d="m282.08,171.27l-6.63,0l0,24.5l6.63,0l0,-24.5z" class="cls-3"/>
  <path id="svg_19" d="m275.27,106.62l-8.95,0.05l0.33,61.27l9,-0.05l-0.38,-61.27z" class="cls-4"/>
  <path id="svg_20" d="m289.25,118.04l-13.91,0.07l0.27,49.65l13.91,-0.07l-0.27,-49.65z" class="cls-2"/>
  <path id="svg_21" d="m289.16,127.6a47.54,47.54 0 0 1 -7,0.24a47.64,47.64 0 0 1 -7,-0.24a50.61,50.61 0 0 1 7,-0.24a50.5,50.5 0 0 1 7,0.24z" class="cls-3"/>
  <path id="svg_22" d="m289.16,125.56a52.12,52.12 0 0 1 -7,0.24a54,54 0 0 1 -7,-0.24a47.64,47.64 0 0 1 7,-0.24a47.54,47.54 0 0 1 7,0.24z" class="cls-3"/>
  <path id="svg_23" d="m289.16,160.21a47.55,47.55 0 0 1 -7,0.25a47.65,47.65 0 0 1 -7,-0.25a54,54 0 0 1 7,-0.24a53.85,53.85 0 0 1 7,0.24z" class="cls-3"/>
  <path id="svg_24" d="m289.16,158.13a49,49 0 0 1 -7,0.24a49.08,49.08 0 0 1 -7,-0.24a50.61,50.61 0 0 1 7,-0.24a50.5,50.5 0 0 1 7,0.24z" class="cls-3"/>
  <path id="svg_25" d="m282.4,153.59c-0.13,0 -0.24,-5 -0.24,-11.2s0.11,-11.19 0.24,-11.19s0.24,5 0.24,11.19s-0.08,11.2 -0.24,11.2z" class="cls-3"/>
  <path id="svg_26" d="m304.45,130.23l-15.15,0l0,37.48l15.15,0l0,-37.48z" class="cls-4"/>
  <path id="svg_27" d="m297.31,157.96a3.44,3.44 0 0 1 -1.31,-0.22a3.5,3.5 0 0 1 -1.12,-0.73a3.19,3.19 0 0 1 -0.73,-1.12a3.27,3.27 0 0 1 -0.23,-1.31a3,3 0 0 1 0.29,-1.42a3.05,3.05 0 0 1 0.94,-1.11l0.35,0.47a2.63,2.63 0 0 0 -0.76,0.9a2.45,2.45 0 0 0 -0.24,1.16a2.78,2.78 0 0 0 0.82,2a2.82,2.82 0 0 0 4.8,-2a2.45,2.45 0 0 0 -0.25,-1.2a2.5,2.5 0 0 0 -0.75,-0.9l0.35,-0.47a3,3 0 0 1 1.22,2.53a3.29,3.29 0 0 1 -0.22,1.31a3.26,3.26 0 0 1 -1.85,1.84a3.24,3.24 0 0 1 -1.31,0.27z" class="cls-5"/>
  <path id="svg_28" d="m299.87,151.16l-0.52,-0.3a3.9,3.9 0 0 0 0.81,-2.39c0,-1.41 -0.5,-2 -1.25,-2c-1.94,0 -0.51,4.42 -3.13,4.42c-1,0 -1.85,-0.84 -1.85,-2.54a4.07,4.07 0 0 1 0.64,-2.27l0.52,0.28a3.51,3.51 0 0 0 -0.6,2c0,1.31 0.54,1.85 1.25,1.85c2,0 0.58,-4.42 3.13,-4.42c1.08,0 1.85,0.92 1.85,2.63a4.24,4.24 0 0 1 -0.85,2.74z" class="cls-5"/>
  <path id="svg_29" d="m299.87,145.06l-0.52,-0.3a3.86,3.86 0 0 0 0.81,-2.4c0,-1.4 -0.5,-2 -1.25,-2c-1.94,0 -0.51,4.42 -3.13,4.42c-1,0 -1.85,-0.84 -1.85,-2.53a4.16,4.16 0 0 1 0.64,-2.28l0.52,0.29a3.37,3.37 0 0 0 -0.6,2c0,1.3 0.54,1.85 1.25,1.85c2,0 0.58,-4.41 3.13,-4.41c1.08,0 1.85,0.92 1.85,2.63a4.25,4.25 0 0 1 -0.85,2.73z" class="cls-5"/>
  <path id="svg_30" d="m270.65,119.67a2.58,2.58 0 1 0 -2.57,-2.57a2.58,2.58 0 0 0 2.57,2.57z" class="cls-3"/>
  <path id="svg_31" d="m271.45,124.17l-1.58,0l0,36.44l1.59,0l-0.01,-36.44z" class="cls-3"/>
  <path id="svg_32" d="m472.61,338.68a95.47,95.47 0 0 1 6.72,-7.07c2.24,-2.35 4.6,-4.6 7.06,-6.72a96.12,96.12 0 0 1 -6.73,7.07c-3.79,3.8 -6.96,6.81 -7.05,6.72z" class="cls-3"/>
  <path id="svg_33" d="m486.39,338.68c-2.46,-2.12 -4.82,-4.37 -7.06,-6.72a95.47,95.47 0 0 1 -6.72,-7.07c0.09,-0.09 3.25,2.92 7.06,6.72a94.58,94.58 0 0 1 6.72,7.07z" class="cls-3"/>
  <path id="svg_34" d="m346.53,263.92a93.39,93.39 0 0 1 6.72,-7.06a95.36,95.36 0 0 1 7.06,-6.73a96.93,96.93 0 0 1 -6.72,7.07c-3.8,3.81 -6.97,6.81 -7.06,6.72z" class="cls-3"/>
  <path id="svg_35" d="m360.31,263.92c-0.09,0.09 -3.25,-2.92 -7.06,-6.72a95.47,95.47 0 0 1 -6.72,-7.07a95.46,95.46 0 0 1 7.06,6.73c3.79,3.85 6.82,6.97 6.72,7.06z" class="cls-3"/>
  <path id="svg_36" d="m327.63,143.27a72.68,72.68 0 0 1 -0.93,-8.33a74.63,74.63 0 0 1 -0.49,-8.33a70.83,70.83 0 0 1 1,8.33a72.53,72.53 0 0 1 0.42,8.33z" class="cls-3"/>
  <path id="svg_37" d="m335.26,134.19a72.86,72.86 0 0 1 -8.34,0.93a77.1,77.1 0 0 1 -8.33,0.49a68.77,68.77 0 0 1 8.33,-1a72.59,72.59 0 0 1 8.34,-0.42z" class="cls-3"/>
  <path id="svg_38" d="m250.34,234.79a1.45,1.45 0 0 1 -0.17,-0.26l-0.46,-0.74l-1.67,-2.78l-5.81,-9.83l0.29,0.07l-13.7,8c0,0.08 0.17,-0.62 0.08,-0.32l0,0.05l0.08,0.13l0.13,0.23l0.28,0.47l0.53,0.92l1.06,1.85l2,3.56l3.71,6.48l-0.29,-0.08l9.94,-5.62l2.84,-1.58l0.76,-0.4l0.29,-0.14c-0.3,0.21 -0.61,0.41 -0.93,0.59l-2.77,1.64l-9.95,5.87l-0.19,0.11l-0.1,-0.19l-3.76,-6.48l-2.05,-3.54l-1.06,-1.85l-0.55,-0.93l-0.26,-0.47l-0.13,-0.23l-0.08,-0.12l0,-0.06c-0.07,0.29 0.11,-0.41 0.09,-0.33l13.8,-7.89l0.17,-0.1l0.1,0.18l5.7,10.1l1.54,2.78a8.4,8.4 0 0 1 0.54,0.91z" class="cls-3"/>
  <path id="svg_39" d="m553.53,323.96a5.73,5.73 0 0 0 -0.41,-0.81a3.77,3.77 0 0 0 -1.86,-1.53a3.48,3.48 0 0 0 -1.72,-0.22a3.68,3.68 0 0 0 -1.63,0.61a3.43,3.43 0 0 0 -1,1.11a3.35,3.35 0 0 0 -0.46,1.42a3.55,3.55 0 0 0 0.17,1.48a3.53,3.53 0 0 0 3.47,2.38a3.61,3.61 0 0 0 1.44,-0.37a3.54,3.54 0 0 0 1.16,-0.94a3.68,3.68 0 0 0 0.83,-2.22c0,-0.59 -0.06,-0.93 0,-0.93a1.75,1.75 0 0 1 0.22,0.93a3.75,3.75 0 0 1 -0.75,2.42a3.88,3.88 0 0 1 -5.62,0.61a3.91,3.91 0 0 1 2.15,-6.9a3.83,3.83 0 0 1 1.89,0.3a3.69,3.69 0 0 1 1.85,1.76a1.61,1.61 0 0 1 0.27,0.9z" class="cls-3"/>
  <path id="svg_40" d="m380.52,103.64s-0.13,-0.32 -0.42,-0.81a3.76,3.76 0 0 0 -1.86,-1.54a3.66,3.66 0 0 0 -3.35,0.4a3.51,3.51 0 0 0 -1,1.1a3.44,3.44 0 0 0 -0.46,1.42a3.53,3.53 0 0 0 0.17,1.48a3.35,3.35 0 0 0 0.77,1.28a3.4,3.4 0 0 0 1.23,0.85a3.47,3.47 0 0 0 2.91,-0.12a3.3,3.3 0 0 0 1.16,-0.94a3.64,3.64 0 0 0 0.83,-2.22c0,-0.58 -0.06,-0.92 0,-0.92a2,2 0 0 1 0.22,0.92a3.73,3.73 0 0 1 -0.76,2.43a3.94,3.94 0 0 1 -3.43,1.53a4,4 0 0 1 -2.19,-0.92a3.94,3.94 0 0 1 -1.13,-4.39a4,4 0 0 1 1.47,-1.87a3.91,3.91 0 0 1 1.81,-0.64a3.81,3.81 0 0 1 1.89,0.3a3.65,3.65 0 0 1 1.85,1.76a1.91,1.91 0 0 1 0.29,0.9z" class="cls-3"/>
  <path id="svg_41" d="m208.34,209.58a7.3,7.3 0 0 0 -0.42,-0.8a3.68,3.68 0 0 0 -1.85,-1.54a3.53,3.53 0 0 0 -4.74,4.16a3.51,3.51 0 0 0 3,2.61a3.73,3.73 0 0 0 1.72,-0.26a3.53,3.53 0 0 0 1.4,-1a3.83,3.83 0 0 0 0.84,-2.22c0,-0.58 -0.08,-0.93 0,-0.93a2.14,2.14 0 0 1 0.21,0.93a3.72,3.72 0 0 1 -0.75,2.43a3.84,3.84 0 0 1 -3.4,1.5a3.93,3.93 0 0 1 -2.19,-0.91a3.92,3.92 0 0 1 -1.14,-4.39a3.93,3.93 0 0 1 1.48,-1.86a3.86,3.86 0 0 1 3.7,-0.35a3.75,3.75 0 0 1 1.85,1.75a1.87,1.87 0 0 1 0.29,0.88z" class="cls-3"/>
  <path id="svg_42" d="m537.63,194.78c-0.06,0 -0.2,-0.68 -0.81,-1.76a7.88,7.88 0 0 0 -7.41,-3.94a7.65,7.65 0 0 0 -3.82,1.37a6.65,6.65 0 0 0 -1.62,1.51a7.36,7.36 0 0 0 -1.16,2a7.64,7.64 0 0 0 -0.3,4.77a7.75,7.75 0 0 0 4.58,5.2a7.53,7.53 0 0 0 2.14,0.52a7.78,7.78 0 0 0 4,-0.68a7.58,7.58 0 0 0 2.78,-2.21a7.87,7.87 0 0 0 1.72,-4.84c0,-1.25 -0.21,-1.92 -0.15,-1.93a2.13,2.13 0 0 1 0.15,0.49a6.39,6.39 0 0 1 0.19,1.44a8,8 0 0 1 -8.76,8.17a7.51,7.51 0 0 1 -2.29,-0.51a7.24,7.24 0 0 1 -2.11,-1.24a8.07,8.07 0 0 1 -2.43,-9.33a7.32,7.32 0 0 1 1.24,-2.1a7.22,7.22 0 0 1 1.72,-1.59a8,8 0 0 1 7.73,-0.76a7.83,7.83 0 0 1 3.9,3.61a6.56,6.56 0 0 1 0.54,1.35a4.13,4.13 0 0 1 0.17,0.46z" class="cls-3"/>
  <path id="svg_43" d="m512.69,311.96a8.84,8.84 0 0 1 -0.48,-0.85l-1.34,-2.55c-1.17,-2.19 -2.88,-5.35 -4.8,-9.06l-0.19,-0.36l0.41,0l6.86,0.43l7.12,0.47l0.39,0l-0.22,0.32c-2.24,3.46 -4.19,6.38 -5.55,8.41l-1.59,2.35a8.68,8.68 0 0 1 -0.56,0.79s0.2,-0.36 0.56,-0.93s0.92,-1.46 1.52,-2.47c1.3,-2.1 3.1,-5 5.25,-8.39l0.18,0.35l-7.12,-0.44l-6.87,-0.45l0.22,-0.34c1.85,3.62 3.37,6.75 4.48,9c0.54,1.08 1,2 1.31,2.66a9,9 0 0 1 0.42,1.06z" class="cls-3"/>
  <path id="svg_44" d="m448.14,137.16s-0.16,-0.27 -0.49,-0.86l-1.4,-2.53c-1.18,-2.2 -2.88,-5.36 -4.81,-9.07l-0.18,-0.36l0.39,0l6.87,0.44l7.12,0.47l0.39,0l-0.21,0.32c-2.24,3.45 -4.21,6.37 -5.56,8.4l-1.58,2.41a8.68,8.68 0 0 1 -0.56,0.79s0.19,-0.35 0.55,-0.93l1.52,-2.47c1.3,-2.1 3.1,-5 5.26,-8.33l0.17,0.35l-7.12,-0.44l-6.86,-0.47l0.22,-0.32c1.85,3.61 3.37,6.74 4.48,9c0.53,1.09 1,2 1.3,2.66a8.63,8.63 0 0 1 0.5,0.94z" class="cls-3"/>
  <path id="svg_45" d="m336.18,343.63a7.74,7.74 0 0 1 0.52,-0.83l1.59,-2.41c1.36,-2.07 3.33,-5.07 5.7,-8.54l0.19,-0.28l0.18,0.28l4.42,6.48l3.43,5.12l0.25,0.36l-0.43,0c-4.63,0 -8.67,-0.08 -11.47,-0.13l-3.26,-0.06l-1.12,0s0.46,0 1.25,-0.05l3.33,-0.05c2.84,-0.05 6.74,-0.12 11.27,-0.13l-0.2,0.36l-3.45,-5.12l-4.39,-6.54l0.37,0c-2.32,3.35 -4.34,6.18 -5.8,8.23l-1.72,2.4c-0.41,0.59 -0.64,0.9 -0.66,0.91z" class="cls-3"/>
  <path id="svg_46" d="m422.87,338.84a58,58 0 0 1 58,57.94l0,67.21l-116,0l0,-67.21a58,58 0 0 1 58,-57.94z" class="cls-6"/>
  <path id="svg_47" d="m276.09,431.38l-5.84,4.13l-6.48,15.56s1.76,1.19 3.12,-0.07s6.57,-10.31 6.57,-10.31l0,5.36a4.28,4.28 0 0 0 3.8,4.23l9.61,3l11.79,-3.36l1,-14l-23.57,-4.54z" class="cls-7"/>
  <path id="svg_48" d="m380.87,327.94c-2.88,-0.83 -4.3,-4.14 -4.56,-7.13s0.23,-6.08 -0.58,-9c-0.59,-2 -1.81,-3.94 -2,-6.07c-0.16,-2.3 0.93,-4.51 1,-6.8c0.09,-3.22 -1.85,-6.2 -1.85,-9.41c-0.06,-4.44 0.74,-11.78 5.18,-11.53s11.56,8 11,12.44" class="cls-8"/>
  <path id="svg_49" d="m422.87,291.15l-0.09,4.45l-0.91,66.42c-0.11,7.71 -6.82,13.77 -15.07,13.59s-15.12,-6.63 -15.14,-14.42c0,-8.18 -0.2,-16.79 -0.2,-16.79s-10.54,-1.75 -12.72,-15.5c-1.08,-6.83 -0.74,-18 -0.17,-27.2a14.48,14.48 0 0 1 1.52,-5.62a14.52,14.52 0 0 1 14.5,-7.92l28.28,2.99z" class="cls-7"/>
  <path id="svg_50" d="m381.38,309.5a1.84,1.84 0 0 0 0.49,1.24a1.82,1.82 0 0 0 1.22,0.55a1.92,1.92 0 0 0 0.67,-0.07a1.63,1.63 0 0 0 0.59,-0.33a1.58,1.58 0 0 0 0.42,-0.54a1.65,1.65 0 0 0 0.17,-0.66a1.7,1.7 0 0 0 -0.13,-0.67a1.69,1.69 0 0 0 -0.93,-1a1.75,1.75 0 0 0 -0.67,-0.14a1.69,1.69 0 0 0 -0.67,0.07a1.86,1.86 0 0 0 -0.58,0.33a1.76,1.76 0 0 0 -0.41,0.53a1.79,1.79 0 0 0 -0.17,0.69z" class="cls-8"/>
  <path id="svg_51" d="m381,307.53c0.22,0.23 1.56,-0.76 3.46,-0.75s3.28,0.92 3.49,0.72s-0.12,-0.52 -0.74,-0.93a4.88,4.88 0 0 0 -2.77,-0.86a4.65,4.65 0 0 0 -2.78,0.93c-0.56,0.35 -0.79,0.79 -0.66,0.89z" class="cls-8"/>
  <path id="svg_52" d="m400.38,309.5a1.74,1.74 0 0 0 0.48,1.24a1.79,1.79 0 0 0 1.21,0.55a1.67,1.67 0 0 0 0.67,-0.08a1.74,1.74 0 0 0 1,-0.86a1.72,1.72 0 0 0 -1.53,-2.43a1.52,1.52 0 0 0 -0.67,0.07a1.48,1.48 0 0 0 -0.59,0.32a1.68,1.68 0 0 0 -0.41,0.54a1.61,1.61 0 0 0 -0.16,0.65z" class="cls-8"/>
  <path id="svg_53" d="m399.65,307.92c0.22,0.23 1.55,-0.75 3.45,-0.75s3.29,0.92 3.5,0.72s-0.12,-0.52 -0.73,-0.93a4.93,4.93 0 0 0 -2.78,-0.86a4.74,4.74 0 0 0 -2.78,0.93c-0.57,0.35 -0.77,0.75 -0.66,0.89z" class="cls-8"/>
  <path id="svg_54" d="m392.77,321.95a13.47,13.47 0 0 0 -3.08,-0.56c-0.49,0 -0.93,-0.14 -1,-0.47a2.46,2.46 0 0 1 0.32,-1.43l1.44,-3.71c2,-5.24 3.42,-9.57 3.21,-9.64s-2,4.11 -4,9.37c-0.48,1.29 -0.93,2.52 -1.38,3.7a2.82,2.82 0 0 0 -0.25,1.85a1.16,1.16 0 0 0 0.32,0.44a1.13,1.13 0 0 0 0.48,0.26a2.81,2.81 0 0 0 0.82,0.12a12.15,12.15 0 0 0 3.12,0.07z" class="cls-8"/>
  <path id="svg_55" d="m391.45,344.38a35,35 0 0 0 18.42,-4.89s-4.47,9.44 -18.23,8.16l-0.19,-3.27z" class="cls-9"/>
  <path id="svg_56" d="m393.56,326.52a3.44,3.44 0 0 1 3.07,-1.27a3.12,3.12 0 0 1 2.16,1.16a2,2 0 0 1 0.14,2.26a2.34,2.34 0 0 1 -1.14,0.7a2.27,2.27 0 0 1 -1.34,-0.07a7.34,7.34 0 0 1 -2.42,-1.44a2.29,2.29 0 0 1 -0.55,-0.57a0.63,0.63 0 0 1 -0.11,-0.35a0.61,0.61 0 0 1 0.11,-0.35" class="cls-9"/>
  <path id="svg_57" d="m398.35,323.26c-0.31,0 -0.31,2.05 -2.07,3.5s-4,1.24 -4,1.53c0,0.13 0.48,0.4 1.4,0.43a5.23,5.23 0 0 0 3.33,-1.16a4.46,4.46 0 0 0 1.6,-2.93c0.11,-0.87 -0.12,-1.38 -0.26,-1.37z" class="cls-8"/>
  <path id="svg_58" d="m399.16,300.45c0.19,0.51 2.08,0.27 4.31,0.54s4,0.87 4.31,0.41c0.14,-0.22 -0.17,-0.7 -0.92,-1.2a7.4,7.4 0 0 0 -3.2,-1.12a7.55,7.55 0 0 0 -3.37,0.39c-0.8,0.33 -1.21,0.73 -1.13,0.98z" class="cls-8"/>
  <path id="svg_59" d="m381.7,302.04c0.33,0.43 1.64,0 3.21,0s2.91,0.28 3.21,-0.16c0.13,-0.22 -0.07,-0.66 -0.66,-1.06a4.63,4.63 0 0 0 -5.17,0.16c-0.56,0.4 -0.74,0.85 -0.59,1.06z" class="cls-8"/>
  <path id="svg_60" d="m427.87,286.93c2.86,-7.77 14.76,-19.44 23.92,-14.25c10,5.7 6.48,9.66 10.1,12.29c0.86,0.62 4.93,-0.73 5.5,0.17c1.49,2.4 0.22,5.5 -1.05,8a4,4 0 0 0 0.92,-0.24a1.73,1.73 0 0 1 1.59,0.19a1.69,1.69 0 0 1 0.7,1.43a15.63,15.63 0 0 1 -3.1,8.51a5.17,5.17 0 0 0 1.92,0.06a1.22,1.22 0 0 1 0.6,0.06a1.14,1.14 0 0 1 0.49,0.35a1.18,1.18 0 0 1 0.21,1.16a9.28,9.28 0 0 1 -2.7,3.81a9.42,9.42 0 0 1 -4.2,2.06c-3.82,0.78 -7.85,-0.61 -11,-2.95a32.68,32.68 0 0 1 -7.58,-8.86a19.06,19.06 0 0 0 -4.28,-5.23c-1.83,-1.33 -4.47,-1.85 -6.35,-0.59" class="cls-8"/>
  <path id="svg_61" d="m433.61,292.62l0,-0.36a3.19,3.19 0 0 0 -0.23,-0.92a15.15,15.15 0 0 0 -1.49,-2.78a17.73,17.73 0 0 0 -2,-2.54c-0.55,-0.59 -1,-0.92 -0.92,-0.92a2.78,2.78 0 0 1 1.17,0.71a12.83,12.83 0 0 1 2.12,2.52a10.56,10.56 0 0 1 1.4,3a2.39,2.39 0 0 1 0.1,1c-0.02,0.19 -0.13,0.31 -0.15,0.29z" class="cls-10"/>
  <path id="svg_62" d="m456.87,313.93a1.61,1.61 0 0 1 -0.33,0.25a5.34,5.34 0 0 1 -1,0.57a8.82,8.82 0 0 1 -4.34,0.57a9.1,9.1 0 0 1 -5.74,-2.94a9.38,9.38 0 0 1 -1.85,-3.43a18.21,18.21 0 0 1 -0.67,-4.08a58.77,58.77 0 0 0 -0.57,-7.84a11,11 0 0 0 -1.14,-3.18a7.38,7.38 0 0 0 -1.92,-2.17a6,6 0 0 0 -3.95,-1.33a8.85,8.85 0 0 0 -1.53,0.32a1.58,1.58 0 0 1 0.36,-0.2a4.25,4.25 0 0 1 1.16,-0.32a6,6 0 0 1 4.16,1.25a7.57,7.57 0 0 1 2.07,2.26a11.31,11.31 0 0 1 1.23,3.28a55.57,55.57 0 0 1 0.61,7.9a17.88,17.88 0 0 0 0.65,4a8.82,8.82 0 0 0 11.38,5.75c0.9,-0.37 1.42,-0.7 1.42,-0.66z" class="cls-8"/>
  <path id="svg_63" d="m466.09,276.56a2.57,2.57 0 0 1 0.27,0.52a5.18,5.18 0 0 1 0.35,1.65a5.91,5.91 0 0 1 -0.43,2.63a5.53,5.53 0 0 1 -2.27,2.71a5.91,5.91 0 0 1 -8.17,-2.18a16.57,16.57 0 0 1 -1.59,-5.18c-0.37,-1.8 -0.72,-3.76 -1.94,-5.23a4.49,4.49 0 0 0 -2.32,-1.46a6,6 0 0 0 -2.7,-0.05a14.48,14.48 0 0 0 -4.83,2.07a42.53,42.53 0 0 0 -7.18,5.49a47.54,47.54 0 0 0 -4.16,4.47l-1,1.3a1.82,1.82 0 0 1 -0.38,0.45a2.8,2.8 0 0 1 0.31,-0.5c0.2,-0.33 0.54,-0.78 0.92,-1.36a39.06,39.06 0 0 1 4.08,-4.63a41.41,41.41 0 0 1 7.17,-5.62a14.92,14.92 0 0 1 5,-2.15a6.44,6.44 0 0 1 2.93,0.05a5,5 0 0 1 2.64,1.63a11.78,11.78 0 0 1 2,5.45a15.88,15.88 0 0 0 1.51,5a5.36,5.36 0 0 0 1.52,1.76a5.59,5.59 0 0 0 2.13,0.94a5.69,5.69 0 0 0 4,-0.59a5.3,5.3 0 0 0 2.19,-2.51a5.94,5.94 0 0 0 0.5,-2.52a7.1,7.1 0 0 0 -0.55,-2.14z" class="cls-8"/>
  <path id="svg_64" d="m431.32,273.3a3.63,3.63 0 0 1 1,1.52a7.63,7.63 0 0 1 0.55,4.42a7.73,7.73 0 0 1 -2,4a3.89,3.89 0 0 1 -1.46,1.11c-0.05,-0.07 0.51,-0.48 1.21,-1.33a8.22,8.22 0 0 0 1.38,-8.05c-0.35,-1.05 -0.75,-1.59 -0.68,-1.67z" class="cls-8"/>
  <path id="svg_65" d="m432.69,290.38a17.4,17.4 0 0 0 -12.48,-10.58a16.19,16.19 0 0 0 -10.07,1.36a16.36,16.36 0 0 1 -3.12,-2.63a27.21,27.21 0 0 0 -11.75,-7a19.47,19.47 0 0 0 -13.5,1a15.21,15.21 0 0 0 -8.33,10.42a12.53,12.53 0 0 0 4.48,12.31a10.66,10.66 0 0 0 12.82,-0.09c-0.25,2 1.53,3.9 3.54,4.28a7.34,7.34 0 0 0 3,-0.24a7.57,7.57 0 0 0 2.69,-1.42a44.07,44.07 0 0 0 4.41,-4.23c0.54,-0.53 1.11,-1 1.68,-1.53a16.55,16.55 0 0 0 11.59,9.35c-1.59,1.74 -1.45,4.45 -0.8,6.71s1.73,4.46 1.68,6.81c0,2 -0.88,3.84 -1.26,5.78a12.7,12.7 0 0 0 1.12,8c0.47,0.93 1.06,2.28 1.58,3.2c0.93,1.64 0.93,1.64 2.3,2.06c2.83,0.88 7.72,-9.41 9,-13.49c1.05,-3.4 1.46,-9.51 2.69,-12.86c2.15,-6.02 0.81,-11.91 -1.27,-17.21z" class="cls-8"/>
  <path id="svg_66" d="m434.6,303.29a1.53,1.53 0 0 1 -0.19,0.3a3,3 0 0 1 -0.78,0.68a4,4 0 0 1 -3.7,0.14a3.41,3.41 0 0 1 -1,-0.8a4.79,4.79 0 0 1 -0.72,-1.18a14.79,14.79 0 0 0 -1.26,-2.63a3.95,3.95 0 0 0 -2.67,-1.43a28.85,28.85 0 0 0 -3.48,-0.15a14.52,14.52 0 0 1 -3.53,-0.49a16.51,16.51 0 0 1 -3.1,-1.22a15.32,15.32 0 0 1 -4.39,-3.45a13.26,13.26 0 0 1 -2.1,-3.14a8.18,8.18 0 0 1 -0.39,-0.92a1.15,1.15 0 0 1 -0.11,-0.36a19.68,19.68 0 0 0 2.85,4.2a15.56,15.56 0 0 0 4.35,3.29a16.87,16.87 0 0 0 3,1.16a15.14,15.14 0 0 0 3.42,0.46a24.76,24.76 0 0 1 3.55,0.17a4.43,4.43 0 0 1 1.63,0.51a4.38,4.38 0 0 1 1.31,1.11a14.24,14.24 0 0 1 1.27,2.78a4.61,4.61 0 0 0 0.65,1.11a3.3,3.3 0 0 0 0.92,0.74a3.81,3.81 0 0 0 3.48,0a5.38,5.38 0 0 0 0.99,-0.88z" class="cls-6"/>
  <path id="svg_67" d="m432.46,308.84a2.57,2.57 0 0 1 -0.58,0.57a6.41,6.41 0 0 1 -5.23,1.09a6.65,6.65 0 0 1 -3.47,-2a16.13,16.13 0 0 1 -2.09,-3.38a8.72,8.72 0 0 0 -1.86,-2.53a4.27,4.27 0 0 0 -1.79,-1a7.2,7.2 0 0 1 -0.78,-0.16a1.63,1.63 0 0 1 0.82,0a4.11,4.11 0 0 1 2,0.92a8.66,8.66 0 0 1 2,2.58a17.14,17.14 0 0 0 2.06,3.27a6.49,6.49 0 0 0 3.21,1.9a6.42,6.42 0 0 0 3.08,0a10,10 0 0 0 2.63,-1.26z" class="cls-6"/>
  <path id="svg_68" d="m468.94,292.72a1.14,1.14 0 0 1 -0.13,0.51a3.83,3.83 0 0 1 -0.83,1.33a5.07,5.07 0 0 1 -2.11,1.32a5.53,5.53 0 0 1 -3.27,0.13c-2.43,-0.59 -4.72,-2.78 -6.12,-5.66s-2.28,-6.33 -4.41,-9.26a9.37,9.37 0 0 0 -4.06,-3.17a10.93,10.93 0 0 0 -4.77,-0.69a12.41,12.41 0 0 0 -7.41,3.3a17.66,17.66 0 0 0 -3.52,4.37c-0.66,1.16 -0.92,1.86 -1,1.86a1.53,1.53 0 0 1 0.18,-0.52a11.92,11.92 0 0 1 0.66,-1.4a16.76,16.76 0 0 1 3.44,-4.54a12.7,12.7 0 0 1 7.64,-3.49a11.27,11.27 0 0 1 5,0.71a9.52,9.52 0 0 1 4.26,3.31c2.22,3.05 3,6.55 4.44,9.33s3.52,4.94 5.8,5.56a5.28,5.28 0 0 0 3.1,-0.06a4.66,4.66 0 0 0 3.14,-2.91l-0.03,-0.03z" class="cls-6"/>
  <path id="svg_69" d="m468.59,299.21a3.72,3.72 0 0 1 -0.33,0.4a10.54,10.54 0 0 1 -1.14,1a8.78,8.78 0 0 1 -2.07,1.16a6.8,6.8 0 0 1 -3.12,0.47a10.38,10.38 0 0 1 -3.85,-1.44a10.57,10.57 0 0 1 -3,-2.83a15.73,15.73 0 0 1 -2.16,-4.34c-0.56,-1.57 -1,-3.24 -1.58,-4.88a14.54,14.54 0 0 0 -2.4,-4.43a7.71,7.71 0 0 0 -3.84,-2.49a10.84,10.84 0 0 0 -7.72,1a21.06,21.06 0 0 0 -4.42,3.13l-1.1,1a1.85,1.85 0 0 1 -0.4,0.34a1.8,1.8 0 0 1 0.33,-0.4c0.23,-0.26 0.57,-0.62 1,-1.08a19.27,19.27 0 0 1 4.39,-3.28a11.09,11.09 0 0 1 8,-1.11a8,8 0 0 1 4.08,2.61a14.68,14.68 0 0 1 2.49,4.56c0.6,1.68 1,3.34 1.57,4.91a15.74,15.74 0 0 0 2.08,4.21a10.08,10.08 0 0 0 6.48,4.2a6.5,6.5 0 0 0 3,-0.38a9.49,9.49 0 0 0 2.05,-1.06c1.14,-0.77 1.63,-1.29 1.66,-1.27z" class="cls-6"/>
  <path id="svg_70" d="m368.68,436.98l1.57,3.91l-3.09,35.63l78.64,0l-3.51,-10.65l9.78,0.5c15.08,0.76 27.4,-12.71 24.46,-27.52c-0.09,-0.45 -0.18,-0.93 -0.3,-1.34c-4.88,-19.06 -11.52,-44.68 -13.82,-52.24c-3.83,-12.51 -12.33,-18.45 -12.33,-18.45l-0.13,0c-11.77,-9.6 -27.77,-10.45 -27.77,-10.45l-5.9,4a20.53,20.53 0 0 1 -19.93,1.64a8.91,8.91 0 0 1 -4.86,-5.6a69,69 0 0 0 -20.1,5.24a29.41,29.41 0 0 0 -15.52,17.31l-20.54,60.17l-35,-4.73l-7.46,20.42l35.43,8.44a28.9,28.9 0 0 0 33.66,-13.88l6.72,-12.36l0,-0.04zm65.41,4.85s3.36,-12.88 5.41,-19.81l5,19.44l-10.41,0.37z" class="cls-10"/>
  <path id="svg_71" d="m460.87,466.57l-6.22,0l-17.32,0.06l-60.27,0.09l-0.19,0l0,-0.23c0.3,-7.35 0.64,-15.07 1,-23l0,-0.22l0.22,0l22.4,-0.7l44,-1.32l-0.21,0.28c-1.65,-6 -3,-11.86 -4.29,-17.44s-2.45,-10.93 -3.59,-16c-0.54,-2.51 -1.08,-5 -1.6,-7.33a50.57,50.57 0 0 1 -1.26,-6.91a35.07,35.07 0 0 1 0,-6.48a29.79,29.79 0 0 1 1.07,-5.86a18,18 0 0 1 5.24,-8.55a13.17,13.17 0 0 1 6.77,-3.15a10.83,10.83 0 0 1 4.67,0.26a9.1,9.1 0 0 1 1.14,0.41l0.37,0.17a11.57,11.57 0 0 0 -1.53,-0.51a11.08,11.08 0 0 0 -4.62,-0.19a13.1,13.1 0 0 0 -6.65,3.17a17.9,17.9 0 0 0 -5.13,8.46a31,31 0 0 0 -1,5.82a35.07,35.07 0 0 0 0,6.48a53.12,53.12 0 0 0 1.28,6.86c0.53,2.36 1.07,4.81 1.63,7.33l3.62,15.95c1.27,5.58 2.66,11.43 4.31,17.42l0.08,0.28l-0.29,0l-44,1.35l-22.4,0.7l0.23,-0.23c-0.34,8 -0.67,15.67 -1,23l-0.23,-0.24l60.27,0.09l17.32,0.07l5.82,0a2.34,2.34 0 0 1 0.36,0.11z" class="cls-8"/>
  <path id="svg_72" d="m373.04,384.61a2.2,2.2 0 0 1 0.05,0.57l0,1.66a27.09,27.09 0 0 1 -1.07,6a85.64,85.64 0 0 1 -3.07,8.47a58.72,58.72 0 0 0 -3.39,10.42a31.36,31.36 0 0 0 -0.05,10.89a60.34,60.34 0 0 0 2.13,8.7c0.77,2.43 1.47,4.39 2,5.74l0.54,1.55a2.21,2.21 0 0 1 0.15,0.56a3.11,3.11 0 0 1 -0.25,-0.52c-0.15,-0.4 -0.37,-0.92 -0.62,-1.53c-0.53,-1.33 -1.27,-3.26 -2.1,-5.7a58.35,58.35 0 0 1 -2.24,-8.74a31,31 0 0 1 0,-11a57,57 0 0 1 3.42,-10.5c1.29,-3.13 2.43,-5.95 3.15,-8.39a29.83,29.83 0 0 0 1.22,-5.91c0.1,-1.5 0.09,-2.27 0.13,-2.27z" class="cls-8"/>
  <path id="svg_73" d="m444.46,441.47a3.86,3.86 0 0 1 1.65,-0.22a9.7,9.7 0 0 1 3.89,0.93a7.28,7.28 0 0 1 3.11,2.54a3,3 0 0 1 0.6,1.55c-0.09,0 -0.28,-0.57 -0.88,-1.35a8.1,8.1 0 0 0 -3,-2.31a11.87,11.87 0 0 0 -3.7,-1a12.81,12.81 0 0 1 -1.67,-0.14z" class="cls-8"/>
  <path id="svg_74" d="m437.53,359.85a9.74,9.74 0 0 1 1.48,0.55c0.47,0.2 1,0.43 1.7,0.72l2.19,1.08c0.82,0.4 1.68,0.92 2.61,1.41s1.86,1.15 2.89,1.8a45.56,45.56 0 0 1 6.07,4.97a31,31 0 0 1 7.64,11.84a19.37,19.37 0 0 1 0.7,2.36a15.08,15.08 0 0 1 0.39,1.85a10.26,10.26 0 0 1 0.21,1.56a8.18,8.18 0 0 1 -0.39,-1.53c-0.08,-0.5 -0.27,-1.08 -0.46,-1.77s-0.46,-1.46 -0.76,-2.31a32.56,32.56 0 0 0 -7.67,-11.62a46,46 0 0 0 -6,-4.89c-1,-0.65 -1.93,-1.29 -2.84,-1.85s-1.76,-1.05 -2.56,-1.47l-2.14,-1.17l-1.66,-0.79a11,11 0 0 1 -1.4,-0.74z" class="cls-8"/>
  <g id="svg_75" class="cls-11">
   <path id="svg_76" d="m434.47,398.63s-7.81,34.5 -7.69,37.88a19,19 0 0 0 0.8,5.24l6.48,0.06l0.06,-0.64l5.46,-19.52l-5.11,-23.02z" class="cls-12"/>
  </g>
  <path id="svg_77" d="m391.54,396.89a23.47,23.47 0 0 0 -2.14,1.35a12.06,12.06 0 0 0 -4,5.46a11.56,11.56 0 0 0 -0.64,4.63a11.26,11.26 0 0 0 1.56,5.11a11.47,11.47 0 0 0 4.16,4.17a11.51,11.51 0 0 0 6.11,1.57a12,12 0 0 0 3.2,-0.51a12.54,12.54 0 0 0 2.84,-1.35a11.66,11.66 0 0 0 4.39,-14.17a12,12 0 0 0 -4.28,-5.25a24.86,24.86 0 0 0 -2.2,-1.25c0.21,0.06 0.42,0.14 0.63,0.22a11.58,11.58 0 0 1 5.69,5.19a11.91,11.91 0 0 1 1.44,5.72a12.31,12.31 0 0 1 -1.31,5.39a12.06,12.06 0 0 1 -4.09,4.56a13.66,13.66 0 0 1 -3,1.42a12.52,12.52 0 0 1 -3.33,0.53a11.91,11.91 0 0 1 -7.3,-21.58a10.18,10.18 0 0 1 1.64,-0.93a5.5,5.5 0 0 1 0.63,-0.28z" class="cls-13"/>
  <path id="svg_78" d="m396.3,394.78a144.62,144.62 0 0 1 0,17a75.41,75.41 0 0 1 -0.24,-8.5a75.41,75.41 0 0 1 0.24,-8.5z" class="cls-13"/>
  <path id="svg_79" d="m366.46,443.07l-5.09,-2.07s-5.92,-10 -7.13,-9.55s-1.39,3.54 1,8.16l-6.69,-1.51s-13.89,7.41 -13.23,8.25s2,2.89 5,1.13s7,-3.86 7,-3.86l7.82,1.77l-9.86,1.85l-8.86,9s3.2,2.13 5.7,-0.45l24.53,3.85l10.39,0l0.56,-13.72l-11.14,-2.85z" class="cls-7"/>
  <path id="svg_80" d="m342.12,455.73c0.12,0 0.52,-0.69 1.35,-1.69a6.09,6.09 0 0 1 4.26,-2.28c4,-0.7 7.24,-1.45 7.21,-1.65s-3.32,0.19 -7.34,0.93a7,7 0 0 0 -2.83,1a6.58,6.58 0 0 0 -1.73,1.72a4.3,4.3 0 0 0 -0.92,1.97z" class="cls-9"/>
  <path id="svg_81" d="m345.97,456.49c0.1,0 0.14,-0.51 0.81,-0.69s1.79,-0.36 2.93,-0.54c2.31,-0.37 4.23,-0.46 4.24,-0.68s-2,-0.45 -4.36,-0.07a12.61,12.61 0 0 0 -3,0.79a1.28,1.28 0 0 0 -0.44,0.32a1.25,1.25 0 0 0 -0.26,0.48c-0.02,0.28 0.04,0.4 0.08,0.39z" class="cls-9"/>
  <path id="svg_82" d="m365.78,442.77a17.49,17.49 0 0 1 -2.45,-0.69c-1.5,-0.47 -3.58,-1.05 -5.9,-1.63l-6,-1.5a12.89,12.89 0 0 1 -2.43,-0.75a14.41,14.41 0 0 1 2.52,0.42c1.53,0.32 3.7,0.77 6,1.36a60.42,60.42 0 0 1 5.89,1.77a10.85,10.85 0 0 1 2.37,1.02z" class="cls-9"/>
  <path id="svg_83" d="m451.16,184.56a6.7,6.7 0 0 1 -0.05,-1c0,-0.69 0,-1.62 -0.06,-2.78c0,-2.39 -0.06,-5.69 -0.1,-9.63l0.2,0.21l-13.38,0c0,0.06 0.46,-0.45 0.24,-0.24l0,13.36l-0.22,-0.21l9.65,0.1l2.78,0.06a3.42,3.42 0 0 1 1,0a5.8,5.8 0 0 1 -0.93,0.05l-2.69,0l-9.78,0.11l-0.2,0l0,-13.52l0.24,-0.24l13.6,0l0,0.21c0,4 -0.09,7.34 -0.11,9.77c0,1.11 0,2 -0.05,2.69a9.32,9.32 0 0 1 -0.14,1.06z" class="cls-8"/>
  <path id="svg_84" d="m451.16,171.31c0.09,0.09 -2.82,3.15 -6.48,6.82a91.1,91.1 0 0 1 -6.85,6.48a92.75,92.75 0 0 1 6.48,-6.82a89.22,89.22 0 0 1 6.85,-6.48z" class="cls-8"/>
  <path id="svg_85" d="m450.95,184.48a84.52,84.52 0 0 1 -6.7,-6.41a88.27,88.27 0 0 1 -6.36,-6.76a92.33,92.33 0 0 1 6.7,6.42a92.25,92.25 0 0 1 6.36,6.75z" class="cls-8"/>
  <path id="svg_86" d="m530.42,262.46a4,4 0 0 1 0.71,-0.82c0.57,-0.55 1.26,-1.26 2.07,-2.07c1.77,-1.74 4.24,-4.12 7,-6.73l0.07,-0.06l0,0.35c-2.78,-2.56 -5.25,-4.89 -7,-6.6l-2.08,-2a3.65,3.65 0 0 1 -0.72,-0.8a5.3,5.3 0 0 1 0.84,0.66l2.19,1.92c1.86,1.64 4.36,3.94 7.13,6.48l0.19,0.18l-0.19,0.18l-0.06,0.06c-2.78,2.6 -5.25,4.94 -7.07,6.62l-2.19,2a5.06,5.06 0 0 1 -0.89,0.63z" class="cls-8"/>
  <path id="svg_87" d="m509.07,243.7a4.27,4.27 0 0 1 -0.71,0.82l-2.08,2.07c-1.77,1.74 -4.23,4.12 -7,6.73l-0.07,0.05l0,-0.35c2.78,2.57 5.24,4.9 7,6.6l2.08,2a3.92,3.92 0 0 1 0.72,0.8a4.89,4.89 0 0 1 -0.84,-0.66l-2.19,-1.93c-1.86,-1.63 -4.36,-3.93 -7.13,-6.48l-0.19,-0.17l0.19,-0.18l0.06,-0.06c2.78,-2.6 5.25,-5 7.07,-6.62l2.19,-2a5.5,5.5 0 0 1 0.9,-0.62z" class="cls-8"/>
  <path id="svg_88" d="m514.55,266.87c-0.12,0 2.12,-6.32 5,-14s5.33,-13.89 5.46,-13.84s-2.12,6.32 -5,14s-5.34,13.89 -5.46,13.84z" class="cls-8"/>
  <path id="svg_89" d="m554.66,280.29l0,-4.07c0,-2.65 0,-6.48 0,-11.42c0,-9.84 -0.07,-23.89 -0.11,-40.84l0.2,0.19l-69.43,0l0.24,-0.24l0,56.33l-0.22,-0.22l50.13,0.11l14.21,0.06l0.12,0l-14.17,0.05l-50.26,0.11l-0.21,0l0,-56.67l69.88,0l0,0.2c0,17 -0.08,31.11 -0.11,41c0,4.9 0,8.74 0,11.38l0,3a2.93,2.93 0 0 1 -0.27,1.03z" class="cls-8"/>
  <path id="svg_90" d="m555.21,232.32c0,0.13 -15.67,0.24 -35,0.24s-35,-0.11 -35,-0.24s15.66,-0.25 35,-0.25s35,0.11 35,0.25z" class="cls-8"/>
  <path id="svg_91" d="m490.87,228.2a0.86,0.86 0 0 1 -0.16,0.51a0.91,0.91 0 0 1 -0.95,0.39a0.91,0.91 0 0 1 -0.72,-0.72a0.91,0.91 0 0 1 0.39,-0.95a0.86,0.86 0 0 1 0.51,-0.16a1,1 0 0 1 0.66,0.27a0.94,0.94 0 0 1 0.27,0.66z" class="cls-8"/>
  <path id="svg_92" d="m494.32,228.2a0.93,0.93 0 0 1 -0.16,0.51a1,1 0 0 1 -0.41,0.34a0.91,0.91 0 0 1 -0.54,0.05a0.87,0.87 0 0 1 -0.47,-0.25a1,1 0 0 1 -0.26,-0.47a1,1 0 0 1 0.06,-0.54a0.94,0.94 0 0 1 0.85,-0.57a1,1 0 0 1 0.66,0.27a0.94,0.94 0 0 1 0.27,0.66z" class="cls-8"/>
  <path id="svg_93" d="m497.72,228.2a0.92,0.92 0 0 1 -0.15,0.51a0.94,0.94 0 0 1 -0.42,0.34a0.88,0.88 0 0 1 -0.53,0.05a0.89,0.89 0 0 1 -0.48,-0.25a0.87,0.87 0 0 1 -0.27,-0.47a0.91,0.91 0 0 1 0.39,-0.95a0.89,0.89 0 0 1 0.52,-0.16a0.93,0.93 0 0 1 0.65,0.27a0.9,0.9 0 0 1 0.29,0.66z" class="cls-8"/>
  <path id="svg_94" d="m413.47,138.8l-54.85,0l0,39.1l54.85,0l0,-39.1z" class="cls-6"/>
  <path id="svg_95" d="m413.87,144.61c0,0.13 -12.38,0.24 -27.65,0.24s-27.65,-0.11 -27.65,-0.24s12.38,-0.24 27.65,-0.24s27.65,0.1 27.65,0.24z" class="cls-13"/>
  <path id="svg_96" d="m363.1,141.75a0.84,0.84 0 0 1 -0.07,0.44a0.76,0.76 0 0 1 -0.32,0.32a0.77,0.77 0 0 1 -0.85,-0.1a0.78,0.78 0 0 1 -0.23,-0.38a0.7,0.7 0 0 1 0,-0.45a0.77,0.77 0 0 1 0.27,-0.35a0.75,0.75 0 0 1 0.43,-0.13a0.71,0.71 0 0 1 0.5,0.17a0.68,0.68 0 0 1 0.27,0.48z" class="cls-13"/>
  <path id="svg_97" d="m365.79,141.75a0.75,0.75 0 0 1 -0.07,0.44a0.8,0.8 0 0 1 -0.31,0.32a0.75,0.75 0 0 1 -0.44,0.08a0.7,0.7 0 0 1 -0.41,-0.18a0.73,0.73 0 0 1 -0.24,-0.38a0.86,0.86 0 0 1 0,-0.45a0.73,0.73 0 0 1 0.28,-0.35a0.7,0.7 0 0 1 0.42,-0.13a0.72,0.72 0 0 1 0.51,0.17a0.71,0.71 0 0 1 0.26,0.48z" class="cls-13"/>
  <path id="svg_98" d="m367.75,142.38a0.65,0.65 0 1 0 -0.74,-0.64a0.7,0.7 0 0 0 0.74,0.64z" class="cls-13"/>
  <path id="svg_99" d="m378.87,160.2c0,2.35 -1.7,3.76 -4.51,3.76l-3,0l0,3.48l-1.09,0l0,-11.06l4.13,0c2.81,0 4.47,1.45 4.47,3.82zm-1.17,0c0,-1.76 -1.16,-2.78 -3.36,-2.78l-2.94,0l0,5.51l2.94,0c2.24,0 3.4,-1 3.4,-2.73l-0.04,0z" class="cls-13"/>
  <path id="svg_100" d="m390.64,156.38l0,11l-1.15,0l0,-5l-6.9,0l0,5.09l-1.14,0l0,-11.09l1.16,0l0,5l6.91,0l0,-5l1.12,0z" class="cls-13"/>
  <path id="svg_101" d="m402.87,160.2c0,2.35 -1.69,3.76 -4.5,3.76l-3,0l0,3.48l-1.17,0l0,-11.06l4.13,0c2.83,0 4.54,1.45 4.54,3.82zm-1.16,0c0,-1.76 -1.16,-2.78 -3.37,-2.78l-2.93,0l0,5.51l2.93,0c2.19,0 3.35,-1 3.35,-2.73l0.02,0z" class="cls-13"/>
  <path id="svg_102" d="m302.76,222.75l0.73,-0.79a4.34,4.34 0 0 0 1.54,1.5a4.25,4.25 0 0 0 2.09,0.56c2.17,0 3.24,-1.24 3.24,-3.86l0,-10.5l-6,0l0,-1.07l7.23,0l0,11.54c0,3.3 -1.53,4.94 -4.44,4.94a5.19,5.19 0 0 1 -2.48,-0.6a5.26,5.26 0 0 1 -1.91,-1.72z" class="cls-10"/>
  <path id="svg_103" d="m314.98,223.48l0.54,-0.93a7,7 0 0 0 4.39,1.47c2.57,0 3.6,-0.92 3.6,-2.28c0,-3.56 -8.08,-0.93 -8.08,-5.74c0,-1.85 1.53,-3.34 4.63,-3.34a7.48,7.48 0 0 1 4.18,1.2l-0.54,0.92a6.33,6.33 0 0 0 -3.7,-1.1c-2.38,0 -3.43,1 -3.43,2.3c0,3.7 8.09,1.07 8.09,5.72c0,2 -1.72,3.34 -4.83,3.34a7.65,7.65 0 0 1 -4.85,-1.56z" class="cls-10"/>
  <path id="svg_104" d="m335.35,233.64l0,-2.87c0,-1.85 0,-4.58 -0.06,-8c0,-6.89 -0.05,-16.71 -0.1,-28.51l0.2,0.21l-42.46,0l0.24,-0.24l0,39.4l-0.21,-0.21l30.69,0.1l8.67,0.06l0,0l-8.62,0l-30.82,0.1l-0.22,0l0,-39.42l0.24,-0.25l42.67,0l0,0.2c0,11.86 -0.08,21.72 -0.1,28.65c0,3.41 0,6.1 -0.06,8l0,2.08a2.08,2.08 0 0 1 -0.06,0.7z" class="cls-10"/>
  <path id="svg_105" d="m335.26,200.09c0,0.13 -9.49,0.24 -21.2,0.24s-21.2,-0.11 -21.2,-0.24s9.49,-0.25 21.2,-0.25s21.2,0.11 21.2,0.25z" class="cls-10"/>
  <path id="svg_106" d="m296.65,197.87a0.66,0.66 0 1 0 -0.74,-0.66a0.71,0.71 0 0 0 0.74,0.66z" class="cls-10"/>
  <path id="svg_107" d="m300.11,197.21a0.74,0.74 0 0 1 -0.08,0.44a0.71,0.71 0 0 1 -0.32,0.32a0.75,0.75 0 0 1 -0.84,-0.1a0.68,0.68 0 0 1 -0.23,-0.39a0.74,0.74 0 0 1 0,-0.44a0.74,0.74 0 0 1 0.28,-0.35a0.73,0.73 0 0 1 0.43,-0.13a0.71,0.71 0 0 1 0.5,0.17a0.72,0.72 0 0 1 0.26,0.48z" class="cls-10"/>
  <path id="svg_108" d="m302.87,197.21a0.77,0.77 0 0 1 -0.39,0.76a0.75,0.75 0 0 1 -0.44,0.08a0.73,0.73 0 0 1 -0.41,-0.18a0.68,0.68 0 0 1 -0.23,-0.39a0.74,0.74 0 0 1 0,-0.44a0.81,0.81 0 0 1 0.28,-0.35a0.75,0.75 0 0 1 0.43,-0.13a0.69,0.69 0 0 1 0.5,0.17a0.72,0.72 0 0 1 0.26,0.48z" class="cls-10"/>
  <path id="svg_109" d="m490.19,157.57a6.85,6.85 0 0 1 7.1,-7a6.53,6.53 0 0 1 4.87,1.9l-0.62,0.65a5.85,5.85 0 0 0 -1.94,-1.24a5.65,5.65 0 0 0 -2.27,-0.38a6,6 0 0 0 -4.46,1.68a5.87,5.87 0 0 0 -1.39,2a6,6 0 0 0 -0.5,2.39a6.08,6.08 0 0 0 1.89,4.37a5.94,5.94 0 0 0 4.47,1.64a5.65,5.65 0 0 0 2.27,-0.38a5.93,5.93 0 0 0 1.94,-1.25l0.62,0.64a6.55,6.55 0 0 1 -4.87,1.92a6.82,6.82 0 0 1 -5,-1.94a6.88,6.88 0 0 1 -1.55,-2.29a6.75,6.75 0 0 1 -0.56,-2.71z" class="cls-10"/>
  <path id="svg_110" d="m504.04,162.65l0.45,-0.74a6.56,6.56 0 0 0 4.52,1.72c2.77,0 4,-1.19 4,-2.69c0,-4.11 -8.54,-1.63 -8.54,-6.69c0,-1.93 1.48,-3.64 4.85,-3.64a7.38,7.38 0 0 1 4.12,1.24l-0.37,0.8a6.81,6.81 0 0 0 -3.75,-1.17c-2.67,0 -3.86,1.23 -3.86,2.77c0,4.11 8.55,1.69 8.55,6.66c0,1.93 -1.55,3.62 -4.93,3.62a7,7 0 0 1 -5.04,-1.88z" class="cls-10"/>
  <path id="svg_111" d="m515.95,162.65l0.45,-0.74a6.52,6.52 0 0 0 4.52,1.72c2.78,0 4,-1.19 4,-2.69c0,-4.11 -8.55,-1.63 -8.55,-6.69c0,-1.93 1.49,-3.64 4.86,-3.64a7.46,7.46 0 0 1 4.12,1.24l-0.37,0.8a6.78,6.78 0 0 0 -3.7,-1.17c-2.67,0 -3.86,1.23 -3.86,2.77c0,4.11 8.55,1.69 8.55,6.66c0,1.93 -1.55,3.62 -4.93,3.62a7,7 0 0 1 -5.09,-1.88z" class="cls-10"/>
  <path id="svg_112" d="m537.53,175.38l0,-2.82c0,-1.85 0,-4.5 -0.06,-7.92c0,-6.84 -0.05,-16.66 -0.1,-28.7l0.19,0.2l-61,0l0.24,-0.24l0,39.48l-0.22,-0.22l43.88,0.11l12.58,0l0.1,0l-12.53,0.06l-44,0.11l-0.22,0l0,-39.7l0.24,0l61,0l0.2,0l0,0.19c0,12 -0.09,21.91 -0.11,28.78l0,9.93a3.66,3.66 0 0 0 -0.19,0.74z" class="cls-10"/>
  <path id="svg_113" d="m537.53,141.82c0,0.13 -13.67,0.24 -30.55,0.24s-30.55,-0.11 -30.55,-0.24s13.67,-0.24 30.55,-0.24s30.55,0.1 30.55,0.24z" class="cls-10"/>
  <path id="svg_114" d="m481.04,138.94a0.77,0.77 0 0 1 -0.39,0.76a0.75,0.75 0 0 1 -0.44,0.08a0.76,0.76 0 0 1 -0.41,-0.18a0.86,0.86 0 0 1 -0.23,-0.39a0.66,0.66 0 0 1 0,-0.44a0.68,0.68 0 0 1 0.3,-0.39a0.76,0.76 0 0 1 0.43,-0.14a0.73,0.73 0 0 1 0.51,0.18a0.69,0.69 0 0 1 0.23,0.52z" class="cls-10"/>
  <path id="svg_115" d="m483.75,138.94a0.74,0.74 0 0 1 -0.07,0.44a0.82,0.82 0 0 1 -0.32,0.32a0.75,0.75 0 0 1 -0.44,0.08a0.8,0.8 0 0 1 -0.41,-0.18a0.86,0.86 0 0 1 -0.23,-0.39a0.82,0.82 0 0 1 0,-0.44a0.65,0.65 0 0 1 0.28,-0.35a0.71,0.71 0 0 1 0.42,-0.14a0.73,0.73 0 0 1 0.51,0.18a0.69,0.69 0 0 1 0.26,0.48z" class="cls-10"/>
  <path id="svg_116" d="m486.47,138.94a0.74,0.74 0 0 1 -0.08,0.44a0.71,0.71 0 0 1 -0.32,0.32a0.74,0.74 0 0 1 -0.44,0.08a0.8,0.8 0 0 1 -0.41,-0.18a0.86,0.86 0 0 1 -0.23,-0.39a0.82,0.82 0 0 1 0,-0.44a0.7,0.7 0 0 1 0.28,-0.35a0.76,0.76 0 0 1 0.93,0a0.74,0.74 0 0 1 0.27,0.52z" class="cls-10"/>
  <path id="svg_117" d="m458.87,195.78l-76.59,0l0,54.6l76.59,0l0,-54.6z" class="cls-10"/>
  <path id="svg_118" d="m408.12,221.12l0,10.89l-2.51,0l0,-4.44l-4.93,0l0,4.44l-2.51,0l0,-10.89l2.51,0l0,4.26l4.93,0l0,-4.28l2.51,0.02z" class="cls-13"/>
  <path id="svg_119" d="m412.92,223.17l-3.47,0l0,-2l9.42,0l0,2l-3.47,0l0,8.84l-2.51,0l0.03,-8.84z" class="cls-13"/>
  <path stroke="null" id="svg_121" d="m429.47,232.01l0,-6.48l-3.19,5.35l-1.14,0l-3.18,-5.21l0,6.34l-2.38,0l0,-10.89l2.08,0l4.06,6.74l4,-6.74l2.06,0l0,10.84l-2.31,0.05z" class="cls-13"/>
  <path id="svg_122" d="m459.48,203.88c0,0.13 -17.29,0.24 -38.62,0.24s-38.61,-0.11 -38.61,-0.24s17.29,-0.24 38.61,-0.24s38.62,0.1 38.62,0.24z" class="cls-13"/>
  <path id="svg_123" d="m388.54,199.89a1,1 0 0 1 -0.12,0.6a1,1 0 0 1 -0.44,0.43a1,1 0 0 1 -0.6,0.11a1,1 0 0 1 -0.56,-0.26a1,1 0 0 1 -0.28,-1.14a1,1 0 0 1 0.38,-0.48a1,1 0 0 1 0.58,-0.19a1,1 0 0 1 0.38,0.06a0.84,0.84 0 0 1 0.33,0.19a0.87,0.87 0 0 1 0.23,0.31a0.93,0.93 0 0 1 0.1,0.37z" class="cls-13"/>
  <path id="svg_124" d="m392.3,199.89a1,1 0 0 1 -0.12,0.6a1,1 0 0 1 -0.44,0.43a1,1 0 0 1 -0.61,0.11a1.11,1.11 0 0 1 -0.56,-0.26a1.07,1.07 0 0 1 -0.31,-0.52a1,1 0 0 1 0,-0.62a1,1 0 0 1 0.37,-0.48a1.06,1.06 0 0 1 0.59,-0.19a1,1 0 0 1 0.38,0.06a0.92,0.92 0 0 1 0.33,0.19a1,1 0 0 1 0.23,0.31a0.93,0.93 0 0 1 0.14,0.37z" class="cls-13"/>
  <path id="svg_125" d="m396.06,199.89a1,1 0 0 1 -0.12,0.6a1,1 0 0 1 -0.44,0.43a1,1 0 0 1 -0.61,0.11a1,1 0 0 1 -0.87,-0.78a1.09,1.09 0 0 1 0,-0.62a1.12,1.12 0 0 1 0.38,-0.48a1,1 0 0 1 0.59,-0.19a1,1 0 0 1 0.38,0.06a0.92,0.92 0 0 1 0.33,0.19a1,1 0 0 1 0.23,0.31a0.93,0.93 0 0 1 0.13,0.37z" class="cls-13"/>
  <path id="svg_126" d="m224.42,303.29l0,-2.68c0,-1.75 0,-4.26 -0.05,-7.46c0,-6.41 -0.07,-15.54 -0.11,-26.47l0.21,0.2l-36.6,0c-0.06,0.05 0.45,-0.45 0.24,-0.23l0,36.59l-0.2,-0.21l26.47,0.11l7.46,0.06l0.03,0l-7.41,0.05l-26.59,0.13l-0.22,0l0,-36.69c-0.22,0.21 0.29,-0.31 0.25,-0.25l36.81,0l0,0.21c0,11 -0.07,20.16 -0.1,26.6c0,3.18 0,5.69 -0.06,7.41l0,2.43a0.9,0.9 0 0 1 -0.13,0.2z" class="cls-8"/>
  <path id="svg_127" d="m224.42,267.04c0.1,0.09 -8,8.33 -18.08,18.37s-18.36,18.14 -18.43,18s8,-8.33 18.08,-18.38s18.34,-18.08 18.43,-17.99z" class="cls-8"/>
  <path id="svg_128" d="m223.87,303.06c-0.09,0.09 -8.16,-7.9 -18,-17.84s-17.79,-18.09 -17.69,-18.18s8.16,7.89 18,17.84s17.75,18.07 17.69,18.18z" class="cls-8"/>
  <path id="svg_129" d="m300.75,276.49c0,0.13 -14.56,0.24 -32.5,0.24s-32.48,-0.11 -32.48,-0.24s14.55,-0.24 32.48,-0.24s32.5,0.13 32.5,0.24z" class="cls-8"/>
  <path id="svg_130" d="m300.75,282.38c0,0.13 -14.56,0.24 -32.5,0.24s-32.48,-0.11 -32.48,-0.24s14.55,-0.24 32.48,-0.24s32.5,0.05 32.5,0.24z" class="cls-8"/>
  <path id="svg_131" d="m300.75,288.16c0,0.14 -14.56,0.24 -32.5,0.24s-32.48,-0.1 -32.48,-0.24s14.55,-0.24 32.48,-0.24s32.5,0.11 32.5,0.24z" class="cls-8"/>
  <path id="svg_132" d="m300.75,294.03c0,0.13 -14.56,0.24 -32.5,0.24s-32.48,-0.11 -32.48,-0.24s14.55,-0.24 32.48,-0.24s32.5,0.07 32.5,0.24z" class="cls-8"/>
  <path id="svg_133" d="m265.16,270.65c0,0.14 -6.69,0.25 -14.93,0.25s-14.93,-0.11 -14.93,-0.25s6.68,-0.24 14.93,-0.24s14.93,0.11 14.93,0.24z" class="cls-8"/>
  <path id="svg_134" d="m176.28,255.62l41.38,0l105.8,0.19l0.23,0l0,58.44l-13.46,0l0.24,-0.24l0,12.58l-0.4,-0.41l-12,-12l0.17,0.06l-121.92,-0.09l-0.17,0l0,-0.16c0,-18.18 0.08,-32.78 0.09,-42.84l0,0.09c0,10.05 0.06,24.61 0.1,42.75l-0.17,-0.17l122,-0.07l0.1,0l0.07,0.07l12,12l-0.42,0.17l0,-12.27l13.47,0l-0.24,0.24l0,-57.93l0.23,0.23l-105.64,-0.4l-30.55,-0.15l-10.32,0l-0.59,-0.09z" class="cls-8"/>
  <path id="svg_135" d="m551.38,443.84l-80.35,0l0,20.17l80.35,0l0,-20.17z" class="cls-6"/>
  <path id="svg_136" d="m539.87,450.43l-49,0l0,7l49,0l0,-7z" class="cls-8"/>
  <path id="svg_137" d="m484.71,454.38a3.95,3.95 0 0 1 -2.41,3.63a4,4 0 0 1 -2.27,0.22a3.94,3.94 0 0 1 -3.08,-3.07a4,4 0 0 1 0.22,-2.27a3.95,3.95 0 0 1 3.62,-2.41a3.68,3.68 0 0 1 1.5,0.29a3.88,3.88 0 0 1 1.27,0.85a4,4 0 0 1 0.85,1.26a3.9,3.9 0 0 1 0.3,1.5z" class="cls-8"/>
  <path id="svg_138" d="m543.67,432.86l-64.17,0l0,10.9l64.17,0l0,-10.9z" class="cls-8"/>
  <path id="svg_139" d="m559.87,412.7l-80.37,0l0,20.17l80.37,0l0,-20.17z" class="cls-10"/>
  <path id="svg_140" d="m503.96,422.28a5.27,5.27 0 0 1 1,-2.81a5.21,5.21 0 0 1 8,-0.41l-1.4,1.3a3,3 0 0 0 -1.07,-0.82a2.94,2.94 0 0 0 -1.31,-0.28a3,3 0 0 0 0,6a2.86,2.86 0 0 0 1.32,-0.29a3,3 0 0 0 1.06,-0.83l1.4,1.3a5.16,5.16 0 0 1 -5.57,1.39a5.15,5.15 0 0 1 -2.41,-1.78a5.21,5.21 0 0 1 -1.02,-2.77z" class="cls-13"/>
  <path id="svg_141" d="m524.4,423.1l-2.35,0l0,2.28l-1.75,0l0,-2.3l-2.33,0l0,-1.65l2.33,0l0,-2.28l1.74,0l0,2.28l2.35,0l0.01,1.67z" class="cls-13"/>
  <path id="svg_142" d="m532.57,423.1l-2.36,0l0,2.28l-1.74,0l0,-2.3l-2.33,0l0,-1.65l2.33,0l0,-2.28l1.74,0l0,2.28l2.36,0l0,1.67z" class="cls-13"/>
  <path id="svg_143" d="m491.44,432.3c-0.13,0 -0.24,-4.39 -0.24,-9.8s0.11,-9.82 0.24,-9.82s0.24,4.4 0.24,9.82a90.9,90.9 0 0 1 -0.24,9.8z" class="cls-5"/>
  <path id="svg_144" d="m487.87,432.3c-0.13,0 -0.24,-4.39 -0.24,-9.8s0.11,-9.82 0.24,-9.82a94.62,94.62 0 0 1 0.24,9.82a94.24,94.24 0 0 1 -0.24,9.8z" class="cls-5"/>
  <path id="svg_145" d="m547.05,432.3q-0.36,-4.89 -0.24,-9.8q-0.12,-4.92 0.24,-9.82c0.13,0 0.24,4.4 0.24,9.82s-0.14,9.8 -0.24,9.8z" class="cls-5"/>
  <path id="svg_146" d="m543.55,432.3c-0.13,0 -0.24,-4.39 -0.24,-9.8s0.11,-9.82 0.24,-9.82s0.24,4.4 0.24,9.82s-0.11,9.8 -0.24,9.8z" class="cls-5"/>
  <path id="svg_147" d="m506.04,438.18a2.45,2.45 0 0 1 0.15,-0.85a2.07,2.07 0 0 1 1.21,-1.18a2.06,2.06 0 0 1 0.85,-0.14a1.83,1.83 0 0 1 1,0.2a1.78,1.78 0 0 1 0.72,0.64l-0.42,0.3a1.55,1.55 0 0 0 -0.54,-0.48a1.48,1.48 0 0 0 -0.71,-0.16a1.67,1.67 0 0 0 -1.67,1.67a1.7,1.7 0 0 0 0.49,1.18a1.67,1.67 0 0 0 1.18,0.48a1.43,1.43 0 0 0 0.7,-0.15a1.39,1.39 0 0 0 0.55,-0.47l0.42,0.29a1.77,1.77 0 0 1 -0.72,0.66a1.83,1.83 0 0 1 -1,0.19a2,2 0 0 1 -0.86,-0.14a2,2 0 0 1 -0.72,-0.47a2.11,2.11 0 0 1 -0.63,-1.57z" class="cls-4"/>
  <path id="svg_148" d="m510.46,439.84l0.27,-0.47a2.5,2.5 0 0 0 1.52,0.48c0.81,0 1.14,-0.27 1.14,-0.69c0,-1.12 -2.77,-0.24 -2.77,-1.93c0,-0.7 0.6,-1.22 1.69,-1.22a2.85,2.85 0 0 1 1.51,0.4l-0.25,0.46a2.32,2.32 0 0 0 -1.26,-0.37c-0.78,0 -1.11,0.31 -1.11,0.72c0,1.15 2.78,0.27 2.78,1.92c0,0.74 -0.65,1.22 -1.76,1.22a2.89,2.89 0 0 1 -1.76,-0.52z" class="cls-4"/>
  <path id="svg_149" d="m514.44,439.84l0.27,-0.47a2.5,2.5 0 0 0 1.52,0.48c0.81,0 1.14,-0.27 1.14,-0.69c0,-1.12 -2.77,-0.24 -2.77,-1.93c0,-0.7 0.6,-1.22 1.69,-1.22a2.85,2.85 0 0 1 1.51,0.4l-0.25,0.46a2.32,2.32 0 0 0 -1.26,-0.37c-0.78,0 -1.11,0.31 -1.11,0.72c0,1.15 2.78,0.27 2.78,1.92c0,0.74 -0.65,1.22 -1.76,1.22a2.91,2.91 0 0 1 -1.76,-0.52z" class="cls-4"/>
  <path id="svg_150" d="m488.94,440.25a1.95,1.95 0 1 0 -1.95,-1.94a1.94,1.94 0 0 0 1.95,1.94z" class="cls-4"/>
  <path id="svg_151" d="m537.66,440.25a1.95,1.95 0 1 0 -1.95,-1.94a1.94,1.94 0 0 0 1.95,1.94z" class="cls-4"/>
  <path id="svg_152" d="m293.02,335.69l-135,0a11.11,11.11 0 0 0 -11.11,11.11l0,84.89a11.12,11.12 0 0 0 11.11,11.11l135,0a11.11,11.11 0 0 0 11.1,-11.11l0,-84.89a11.1,11.1 0 0 0 -11.1,-11.11z" class="cls-8"/>
  <path id="svg_153" d="m199.25,417.38l-8.7,49.28l40.84,0l7.4,-50.29l-39.54,1.01z" class="cls-6"/>
  <path id="svg_154" d="m286.78,335.69l-135,0a11.1,11.1 0 0 0 -11.1,11.11l0,84.89a11.11,11.11 0 0 0 11.1,11.11l135,0a11.12,11.12 0 0 0 11.09,-11.11l0,-84.89a11.11,11.11 0 0 0 -11.09,-11.11z" class="cls-6"/>
  <path id="svg_155" d="m234.87,442.8l3.92,-26.42l1.08,26.42l-5,0z" class="cls-8"/>
  <path id="svg_156" d="m199.48,414.6c0.13,0 -0.86,6.58 -2.22,14.65s-2.54,14.59 -2.68,14.57s0.86,-6.59 2.21,-14.65s2.56,-14.59 2.69,-14.57z" class="cls-8"/>
  <path id="svg_157" d="m224.44,385.54a5.14,5.14 0 1 1 -3.18,-4.77a5,5 0 0 1 1.67,1.12a5.11,5.11 0 0 1 1.12,1.67a5.18,5.18 0 0 1 0.39,1.98z" class="cls-5"/>
  <path id="svg_158" d="m219.29,390.71a5.18,5.18 0 0 1 -5.08,-6.18a5.2,5.2 0 0 1 4.07,-4.07a5.19,5.19 0 0 1 3,0.29a5.28,5.28 0 0 1 2.32,1.91a5.18,5.18 0 0 1 -4.3,8.05l-0.01,0zm0,-10.3a5.12,5.12 0 0 0 -5,6.13a5.11,5.11 0 0 0 4,4a5.12,5.12 0 0 0 3,-0.29a5,5 0 0 0 2.3,-1.89a5.13,5.13 0 0 0 -4.26,-8l-0.04,0.05z" class="cls-8"/>
  <path id="svg_159" d="m180.03,367.57a10.22,10.22 0 0 0 1.6,-7.23s0,-1.23 -1.85,-3.65a14.07,14.07 0 0 0 -2,-2.1a15.64,15.64 0 0 0 -2.1,-1.53c-0.25,-0.16 -0.41,-0.24 -0.41,-0.24a12.72,12.72 0 0 0 -9,-1.34a11.67,11.67 0 0 0 -6.12,3.4a9,9 0 0 0 -1.4,1.91a13.44,13.44 0 0 0 -1.38,10.74c0.08,0.24 0.16,0.48 0.25,0.71l0,0.14c0,0.08 0.07,0.16 0.1,0.24l0.08,0.16c0.08,0.2 0.16,0.38 0.25,0.57a11.82,11.82 0 0 0 0.76,1.34a6.7,6.7 0 0 0 1,1.4a7.17,7.17 0 0 0 6.34,2.5a4,4 0 0 0 2.15,1.85c1.79,0.41 4.7,-0.49 6.81,-1.62s5.13,-3.29 5.09,-5.13a8.78,8.78 0 0 0 -0.33,-2l0.16,-0.12z" class="cls-8"/>
  <path id="svg_160" d="m164.33,351.48a11.64,11.64 0 0 0 -6.07,3.4a8.78,8.78 0 0 0 -1.4,1.91c-1.23,2.37 -3.35,6.94 -0.64,12.51s6.73,5.43 8.54,5.17s13.31,-6.9 13.31,-6.9s3.52,-5 0.66,-9.56c-2.45,-3.95 -7.71,-7.97 -14.4,-6.53z" class="cls-10"/>
  <path id="svg_161" d="m163.49,372.93s1.24,3 3,3.43s4.69,-0.49 6.8,-1.62s5.13,-3.28 5.09,-5.13a7.8,7.8 0 0 0 -1.23,-4.05a10.62,10.62 0 0 0 -8.5,1.34a11.24,11.24 0 0 0 -5.16,6.03z" class="cls-2"/>
  <g id="svg_162" class="cls-14">
   <path id="svg_163" d="m169.71,355.38a6.1,6.1 0 0 1 -0.65,6.75a6.11,6.11 0 1 1 -7.64,-9.23a6.32,6.32 0 0 1 2.28,-0.71a6.14,6.14 0 0 1 4.49,1.35a6,6 0 0 1 1.52,1.84z" class="cls-15"/>
  </g>
  <g id="svg_164" class="cls-14">
   <path id="svg_165" d="m158,372.04a7.72,7.72 0 0 0 0.41,-5.45a7.59,7.59 0 0 0 -3.39,-4.18a14.7,14.7 0 0 0 0.92,6.16a11.2,11.2 0 0 0 2.06,3.47z" class="cls-15"/>
  </g>
  <g id="svg_166" class="cls-14">
   <path id="svg_167" d="m179.7,360.38a7.8,7.8 0 0 1 -4.77,-2.66a6.92,6.92 0 0 1 -1.64,-4.87a16.84,16.84 0 0 1 4.57,3.88c1.83,2.39 1.84,3.65 1.84,3.65z" class="cls-15"/>
  </g>
  <path id="svg_168" d="m163.5,372.89a1.93,1.93 0 0 0 0.23,0.7a0.57,0.57 0 0 0 0.26,0.25a0.6,0.6 0 0 0 0.37,0.06a0.94,0.94 0 0 0 0.51,-0.52a14.36,14.36 0 0 1 5.62,-5.76a7,7 0 0 1 3.13,-1c1,0 2,0.25 3,0.3a1.47,1.47 0 0 0 0.75,-0.11c0.22,-0.11 0.21,-0.37 0.16,-0.61a1,1 0 0 0 -0.12,-0.33a0.92,0.92 0 0 0 -0.23,-0.25c-2.63,-1.08 -5.89,-0.29 -8.33,1.13a13.91,13.91 0 0 0 -5.33,6.2" class="cls-3"/>
  <path id="svg_169" d="m357.27,457.7l-89.4,0l0,6.31l89.4,0l0,-6.31z" class="cls-6"/>
  <path id="svg_170" d="m246.45,455.28l4.48,0a7.17,7.17 0 0 1 7.18,7.18l0,1.55l-18.79,0l0,-1.55a7.17,7.17 0 0 1 7.13,-7.18z" class="cls-6"/>
  <path id="svg_171" d="m257.79,462.04a85.65,85.65 0 0 1 -9.06,0.24a85.58,85.58 0 0 1 -9.06,-0.24a85.58,85.58 0 0 1 9.06,-0.24a85.65,85.65 0 0 1 9.06,0.24z" class="cls-8"/>
  <path id="svg_172" d="m248.87,455.2a11.29,11.29 0 0 1 0.16,3.33a11.84,11.84 0 0 1 -0.34,3.3a24,24 0 0 1 0.18,-6.63z" class="cls-8"/>
  <path id="svg_173" d="m564.09,464.01l-430.07,0l0,12.51l430.07,0l0,-12.51z" class="cls-8"/>
  <path stroke="null" id="svg_120" d="m434.25,221.12l2.51,0l0,8.8l5.43,0l0,2.09l-7.94,0l0,-10.89z" class="cls-13"/>
 </g>
</svg>