<svg id="Layer_1" data-name="Layer 1" xmlns="http://www.w3.org/2000/svg" viewBox="0 0 691.73 624.89"><defs><style>.cls-1{fill:#5cd9d8;fill-rule:evenodd;}.cls-2{fill:#f5f5f5;}.cls-3{fill:#e0e0e0;}.cls-4{fill:#ebebeb;}.cls-5{fill:#fafafa;}.cls-6{fill:#455a64;}.cls-7{fill:#ffbe9d;}.cls-8{fill:#263238;}.cls-9{fill:#eb996e;}.cls-10{fill:#ff725e;}.cls-11,.cls-12{opacity:0.3;}.cls-12,.cls-15{isolation:isolate;}.cls-13,.cls-15{fill:#fff;}.cls-14,.cls-15{opacity:0.4;}</style></defs><title>StudentMessage</title><path class="cls-1" d="M371.06,9.92C441.7,20.33,487.24,84.39,541.51,130.79c49.13,42,106.69,76.73,130.77,136.72,25,62.39,36,138.12,3.06,196.72-31.71,56.42-108.81,60.9-165.47,92.18-47.32,26.13-84.88,72.31-138.81,75.85-55.55,3.65-101.65-34.55-152.72-56.7-69.26-30-162.76-29.7-199-95.9-36.41-66.43,1-148.61,25.82-220.18,24.35-70.25,55.55-139.78,114.59-185C219.66,28.59,296.35-1.1,371.06,9.92Z" transform="translate(-4.13 -7.62)"/><path class="cls-2" d="M474,449.67c-14.4-10.06-17.67-28.7-17.09-45.51.09-2.78-.22-5.76,1.12-8.21s4.44-4.14,6.95-3c2.07,1,3,3.4,4.15,5.4a16.32,16.32,0,0,0,6.57,6.27c1.79.93,4,1.5,5.75.53,2.41-1.33,2.7-4.68,2.68-7.46q0-7.8-.09-15.58a26,26,0,0,1,.83-8.28c.87-2.64,2.78-5.1,5.44-5.84s5.93.79,6.48,3.52a26.65,26.65,0,0,1,.08,3.46,3,3,0,0,0,1.71,2.78c1.1.33,2.22-.46,3.06-1.28,2.88-2.78,4.83-6.48,6.65-10s3.59-7.29,6.2-10.36,6.23-5.5,10.19-5.72,8.24,2.23,9.25,6.14-1.27,7.92-3.77,11.11a61.92,61.92,0,0,1-13,12.34,5.18,5.18,0,0,0-2.17,2.34c-.6,1.85,1.16,3.7,3,4.31,2.08.68,4.33.47,6.48.73s4.53,1.21,5.34,3.27c1.15,2.84-1.24,5.83-3.58,7.78a52.83,52.83,0,0,1-15.74,9.1c-2,.75-4.2,1.41-5.86,2.85s-2.64,3.95-1.64,5.91,3.55,2.59,5.7,2.19,4.07-1.56,6.12-2.34c3.82-1.44,8.77-1.17,11.22,2.13a8.79,8.79,0,0,1,.92,7.8,20.36,20.36,0,0,1-4.22,6.88A53.6,53.6,0,0,1,499.93,449c-8.89,3.08-17.12,3.92-25.92.69" transform="translate(-4.13 -7.62)"/><path class="cls-3" d="M473.82,462.11a122.42,122.42,0,0,1,4.55-23,250.89,250.89,0,0,1,9.91-26.84l3-6.92c1-2.26,1.95-4.5,3-6.65a124.09,124.09,0,0,1,6.93-11.92c2.38-3.7,4.78-7.11,7.05-10.28s4.45-6.09,6.55-8.67a98.53,98.53,0,0,1,10.79-11.4c1.37-1.25,2.47-2.17,3.22-2.78l.86-.69a1.16,1.16,0,0,1,.31-.22l-.27.26-.83.74c-.73.65-1.85,1.59-3.16,2.86a104.19,104.19,0,0,0-10.64,11.49c-2.07,2.58-4.23,5.49-6.48,8.68s-4.63,6.6-7,10.29A126.78,126.78,0,0,0,494.73,399c-1.08,2.12-2,4.36-3,6.63l-3,6.91a256.23,256.23,0,0,0-9.93,26.84,125.5,125.5,0,0,0-4.63,22.87" transform="translate(-4.13 -7.62)"/><path class="cls-3" d="M494.42,398.68a5.34,5.34,0,0,1-.28-1.18c-.15-.77-.31-1.85-.52-3.28-.39-2.78-.8-6.63-1.24-10.87s-.92-8.08-1.34-10.84c-.21-1.39-.4-2.5-.54-3.27a6.07,6.07,0,0,1-.15-1.21,5.42,5.42,0,0,1,.35,1.17c.19.76.43,1.85.69,3.25.53,2.77,1.06,6.59,1.5,10.85s.81,8,1.09,10.87c.14,1.31.26,2.41.37,3.3A7,7,0,0,1,494.42,398.68Z" transform="translate(-4.13 -7.62)"/><path class="cls-3" d="M530.23,392a7.45,7.45,0,0,1-1.42.17c-.93.08-2.25.19-3.89.38-3.28.36-7.79,1-12.75,1.94s-9.39,2-12.59,2.83c-1.59.41-2.87.78-3.76,1a6.81,6.81,0,0,1-1.4.34,8.06,8.06,0,0,1,1.33-.54c.93-.3,2.15-.73,3.71-1.18,3.17-.93,7.61-2,12.58-3a128.53,128.53,0,0,1,12.81-1.79c1.64-.15,3-.2,3.91-.22A7.21,7.21,0,0,1,530.23,392Z" transform="translate(-4.13 -7.62)"/><path class="cls-3" d="M478.81,438.49a3.06,3.06,0,0,1-.24-.44l-.62-1.3c-.53-1.12-1.24-2.77-2.11-4.83-1.72-4.1-3.93-9.85-6.28-16.22s-4.51-12.12-6.15-16.26l-1.93-4.89-.52-1.33a1.41,1.41,0,0,1-.15-.48,1.82,1.82,0,0,1,.24.43l.62,1.3c.52,1.13,1.24,2.78,2.1,4.83,1.73,4.11,3.94,9.85,6.3,16.22s4.49,12.14,6.14,16.26l2,4.89c.22.54.38,1,.53,1.34A2,2,0,0,1,478.81,438.49Z" transform="translate(-4.13 -7.62)"/><path class="cls-3" d="M526.41,423.15a2.11,2.11,0,0,1-.47.19l-1.38.46-5.1,1.66c-4.31,1.39-10.23,3.39-16.76,5.6s-12.49,4.16-16.82,5.47c-2.18.65-3.93,1.17-5.15,1.49l-1.42.37a1.71,1.71,0,0,1-.5.1,2.14,2.14,0,0,1,.47-.2l1.38-.46,5.1-1.65c4.31-1.4,10.19-3.4,16.77-5.61s12.49-4.16,16.82-5.46c2.17-.66,3.93-1.17,5.15-1.5l1.41-.37A2.1,2.1,0,0,1,526.41,423.15Z" transform="translate(-4.13 -7.62)"/><path class="cls-3" d="M549.79,378.91a5.28,5.28,0,0,1-.37-.55l-.92-1.49c-.78-1.28-1.85-3.07-3.15-5.23l.29.08L538.32,376c0,.07.16-.63.08-.33v.06l.07.12.14.26.3.5.56,1,1.1,1.91,2,3.49-.29-.07c2.18-1.23,4-2.25,5.34-3l1.55-.82a2.94,2.94,0,0,1,.59-.29,5,5,0,0,1-.47.33l-1.46.92c-1.26.78-3.1,1.9-5.34,3.22l-.18.1-.11-.18c-.63-1.07-1.31-2.24-2-3.47l-1.11-1.9-.57-1-.29-.5-.14-.26L538,376v-.06c-.07.29.11-.4.09-.33l7.41-4.23.18-.1.1.18c1.29,2.26,2.32,4.15,3,5.45.32.6.59,1.09.8,1.51A1.74,1.74,0,0,1,549.79,378.91Z" transform="translate(-4.13 -7.62)"/><path class="cls-3" d="M270.66,130.86l-9,0,.24,44.54,8.95,0Z" transform="translate(-4.13 -7.62)"/><path class="cls-4" d="M207.34,131l-23.19.13.13,24.59,23.19-.12Z" transform="translate(-4.13 -7.62)"/><path class="cls-2" d="M230.4,130.85l-23.19.12.14,24.6,23.19-.13Z" transform="translate(-4.13 -7.62)"/><path class="cls-3" d="M184.19,137.9c15.4.13,30.85,0,46.28-.22a.22.22,0,0,0,.14-.08.25.25,0,0,0,.06-.16.23.23,0,0,0-.06-.16.23.23,0,0,0-.14-.09q-23.1-.12-46.28.28a.23.23,0,0,0-.16.06.22.22,0,0,0-.06.15.2.2,0,0,0,.06.15A.24.24,0,0,0,184.19,137.9Z" transform="translate(-4.13 -7.62)"/><path class="cls-4" d="M211.82,155.15l-42.12.23.11,20,42.12-.23Z" transform="translate(-4.13 -7.62)"/><path class="cls-2" d="M253.74,154.93l-42.12.22.11,20,42.12-.23Z" transform="translate(-4.13 -7.62)"/><path class="cls-3" d="M169.72,161c28,.31,56.07,0,84-.42a.19.19,0,0,0,.14-.09.23.23,0,0,0,.06-.16.22.22,0,0,0-.06-.15.19.19,0,0,0-.14-.09c-28-.15-56.07-.13-84,.48a.2.2,0,0,0-.15.06.23.23,0,0,0-.07.15.24.24,0,0,0,.22.22Z" transform="translate(-4.13 -7.62)"/><path class="cls-3" d="M317.16,175.43H154v7.19H317.16Z" transform="translate(-4.13 -7.62)"/><path class="cls-3" d="M187.31,178.89h-6.62v24.5h6.62Z" transform="translate(-4.13 -7.62)"/><path class="cls-3" d="M286.21,178.89h-6.63v24.5h6.63Z" transform="translate(-4.13 -7.62)"/><path class="cls-4" d="M279.4,114.24l-8.95.05.33,61.27,9-.05Z" transform="translate(-4.13 -7.62)"/><path class="cls-2" d="M293.38,125.66l-13.91.07.27,49.65,13.91-.07Z" transform="translate(-4.13 -7.62)"/><path class="cls-3" d="M293.29,135.22a47.54,47.54,0,0,1-7,.24,47.64,47.64,0,0,1-7-.24,50.61,50.61,0,0,1,7-.24A50.5,50.5,0,0,1,293.29,135.22Z" transform="translate(-4.13 -7.62)"/><path class="cls-3" d="M293.29,133.18a52.12,52.12,0,0,1-7,.24,54,54,0,0,1-7-.24,47.64,47.64,0,0,1,7-.24A47.54,47.54,0,0,1,293.29,133.18Z" transform="translate(-4.13 -7.62)"/><path class="cls-3" d="M293.29,167.83a47.55,47.55,0,0,1-7,.25,47.65,47.65,0,0,1-7-.25,54,54,0,0,1,7-.24A53.85,53.85,0,0,1,293.29,167.83Z" transform="translate(-4.13 -7.62)"/><path class="cls-3" d="M293.29,165.75a49,49,0,0,1-7,.24,49.08,49.08,0,0,1-7-.24,50.61,50.61,0,0,1,7-.24A50.5,50.5,0,0,1,293.29,165.75Z" transform="translate(-4.13 -7.62)"/><path class="cls-3" d="M286.53,161.21c-.13,0-.24-5-.24-11.2s.11-11.19.24-11.19.24,5,.24,11.19S286.69,161.21,286.53,161.21Z" transform="translate(-4.13 -7.62)"/><path class="cls-4" d="M308.58,137.85H293.43v37.48h15.15Z" transform="translate(-4.13 -7.62)"/><path class="cls-5" d="M301.44,165.58a3.44,3.44,0,0,1-1.31-.22,3.5,3.5,0,0,1-1.12-.73,3.19,3.19,0,0,1-.73-1.12,3.27,3.27,0,0,1-.23-1.31,3,3,0,0,1,.29-1.42,3.05,3.05,0,0,1,.94-1.11l.35.47a2.63,2.63,0,0,0-.76.9,2.45,2.45,0,0,0-.24,1.16,2.78,2.78,0,0,0,.82,2,2.82,2.82,0,0,0,4.8-2A2.45,2.45,0,0,0,304,161a2.5,2.5,0,0,0-.75-.9l.35-.47a3,3,0,0,1,1.22,2.53,3.29,3.29,0,0,1-.22,1.31,3.26,3.26,0,0,1-1.85,1.84A3.24,3.24,0,0,1,301.44,165.58Z" transform="translate(-4.13 -7.62)"/><path class="cls-5" d="M304,158.78l-.52-.3a3.9,3.9,0,0,0,.81-2.39c0-1.41-.5-2-1.25-2-1.94,0-.51,4.42-3.13,4.42-1,0-1.85-.84-1.85-2.54a4.07,4.07,0,0,1,.64-2.27l.52.28a3.51,3.51,0,0,0-.6,2c0,1.31.54,1.85,1.25,1.85,2,0,.58-4.42,3.13-4.42,1.08,0,1.85.92,1.85,2.63A4.24,4.24,0,0,1,304,158.78Z" transform="translate(-4.13 -7.62)"/><path class="cls-5" d="M304,152.68l-.52-.3a3.86,3.86,0,0,0,.81-2.4c0-1.4-.5-2-1.25-2-1.94,0-.51,4.42-3.13,4.42-1,0-1.85-.84-1.85-2.53a4.16,4.16,0,0,1,.64-2.28l.52.29a3.37,3.37,0,0,0-.6,2c0,1.3.54,1.85,1.25,1.85,2,0,.58-4.41,3.13-4.41,1.08,0,1.85.92,1.85,2.63A4.25,4.25,0,0,1,304,152.68Z" transform="translate(-4.13 -7.62)"/><path class="cls-3" d="M274.78,127.29a2.58,2.58,0,1,0-2.57-2.57A2.58,2.58,0,0,0,274.78,127.29Z" transform="translate(-4.13 -7.62)"/><path class="cls-3" d="M275.58,131.79H274v36.44h1.59Z" transform="translate(-4.13 -7.62)"/><path class="cls-3" d="M476.74,346.3a95.47,95.47,0,0,1,6.72-7.07c2.24-2.35,4.6-4.6,7.06-6.72a96.12,96.12,0,0,1-6.73,7.07C480,343.38,476.83,346.39,476.74,346.3Z" transform="translate(-4.13 -7.62)"/><path class="cls-3" d="M490.52,346.3c-2.46-2.12-4.82-4.37-7.06-6.72a95.47,95.47,0,0,1-6.72-7.07c.09-.09,3.25,2.92,7.06,6.72A94.58,94.58,0,0,1,490.52,346.3Z" transform="translate(-4.13 -7.62)"/><path class="cls-3" d="M350.66,271.54a93.39,93.39,0,0,1,6.72-7.06,95.36,95.36,0,0,1,7.06-6.73,96.93,96.93,0,0,1-6.72,7.07C353.92,268.63,350.75,271.63,350.66,271.54Z" transform="translate(-4.13 -7.62)"/><path class="cls-3" d="M364.44,271.54c-.09.09-3.25-2.92-7.06-6.72a95.47,95.47,0,0,1-6.72-7.07,95.46,95.46,0,0,1,7.06,6.73C361.51,268.33,364.54,271.45,364.44,271.54Z" transform="translate(-4.13 -7.62)"/><path class="cls-3" d="M331.76,150.89a72.68,72.68,0,0,1-.93-8.33,74.63,74.63,0,0,1-.49-8.33,70.83,70.83,0,0,1,1,8.33A72.53,72.53,0,0,1,331.76,150.89Z" transform="translate(-4.13 -7.62)"/><path class="cls-3" d="M339.39,141.81a72.86,72.86,0,0,1-8.34.93,77.1,77.1,0,0,1-8.33.49,68.77,68.77,0,0,1,8.33-1A72.59,72.59,0,0,1,339.39,141.81Z" transform="translate(-4.13 -7.62)"/><path class="cls-3" d="M254.47,242.41a1.45,1.45,0,0,1-.17-.26l-.46-.74-1.67-2.78-5.81-9.83.29.07-13.7,8c0,.08.17-.62.08-.32v.05l.08.13.13.23.28.47.53.92,1.06,1.85,2,3.56,3.71,6.48-.29-.08,9.94-5.62,2.84-1.58.76-.4.29-.14c-.3.21-.61.41-.93.59l-2.77,1.64-9.95,5.87-.19.11-.1-.19-3.76-6.48-2.05-3.54-1.06-1.85-.55-.93-.26-.47-.13-.23-.08-.12v-.06c-.07.29.11-.41.09-.33l13.8-7.89.17-.1.1.18,5.7,10.1,1.54,2.78A8.4,8.4,0,0,1,254.47,242.41Z" transform="translate(-4.13 -7.62)"/><path class="cls-3" d="M557.66,331.58a5.73,5.73,0,0,0-.41-.81,3.77,3.77,0,0,0-1.86-1.53,3.48,3.48,0,0,0-1.72-.22,3.68,3.68,0,0,0-1.63.61,3.43,3.43,0,0,0-1,1.11,3.35,3.35,0,0,0-.46,1.42,3.55,3.55,0,0,0,.17,1.48,3.53,3.53,0,0,0,3.47,2.38,3.61,3.61,0,0,0,1.44-.37,3.54,3.54,0,0,0,1.16-.94,3.68,3.68,0,0,0,.83-2.22c0-.59-.06-.93,0-.93a1.75,1.75,0,0,1,.22.93,3.75,3.75,0,0,1-.75,2.42,3.88,3.88,0,0,1-5.62.61,3.91,3.91,0,0,1,2.15-6.9,3.83,3.83,0,0,1,1.89.3,3.69,3.69,0,0,1,1.85,1.76A1.61,1.61,0,0,1,557.66,331.58Z" transform="translate(-4.13 -7.62)"/><path class="cls-3" d="M384.65,111.26s-.13-.32-.42-.81a3.76,3.76,0,0,0-1.86-1.54,3.66,3.66,0,0,0-3.35.4,3.51,3.51,0,0,0-1,1.1,3.44,3.44,0,0,0-.46,1.42,3.53,3.53,0,0,0,.17,1.48,3.35,3.35,0,0,0,.77,1.28,3.4,3.4,0,0,0,1.23.85,3.47,3.47,0,0,0,2.91-.12,3.3,3.3,0,0,0,1.16-.94,3.64,3.64,0,0,0,.83-2.22c0-.58-.06-.92,0-.92a2,2,0,0,1,.22.92,3.73,3.73,0,0,1-.76,2.43,3.94,3.94,0,0,1-3.43,1.53,4,4,0,0,1-2.19-.92,3.94,3.94,0,0,1-1.13-4.39,4,4,0,0,1,1.47-1.87,3.91,3.91,0,0,1,1.81-.64,3.81,3.81,0,0,1,1.89.3,3.65,3.65,0,0,1,1.85,1.76A1.91,1.91,0,0,1,384.65,111.26Z" transform="translate(-4.13 -7.62)"/><path class="cls-3" d="M212.47,217.2a7.3,7.3,0,0,0-.42-.8,3.68,3.68,0,0,0-1.85-1.54,3.53,3.53,0,0,0-4.74,4.16,3.51,3.51,0,0,0,3,2.61,3.73,3.73,0,0,0,1.72-.26,3.53,3.53,0,0,0,1.4-1,3.83,3.83,0,0,0,.84-2.22c0-.58-.08-.93,0-.93a2.14,2.14,0,0,1,.21.93,3.72,3.72,0,0,1-.75,2.43,3.84,3.84,0,0,1-3.4,1.5,3.93,3.93,0,0,1-2.19-.91,3.92,3.92,0,0,1-1.14-4.39,3.93,3.93,0,0,1,1.48-1.86,3.86,3.86,0,0,1,3.7-.35,3.75,3.75,0,0,1,1.85,1.75A1.87,1.87,0,0,1,212.47,217.2Z" transform="translate(-4.13 -7.62)"/><path class="cls-3" d="M541.76,202.4c-.06,0-.2-.68-.81-1.76a7.88,7.88,0,0,0-7.41-3.94,7.65,7.65,0,0,0-3.82,1.37,6.65,6.65,0,0,0-1.62,1.51,7.36,7.36,0,0,0-1.16,2,7.64,7.64,0,0,0-.3,4.77,7.75,7.75,0,0,0,4.58,5.2,7.53,7.53,0,0,0,2.14.52,7.78,7.78,0,0,0,4-.68,7.58,7.58,0,0,0,2.78-2.21,7.87,7.87,0,0,0,1.72-4.84c0-1.25-.21-1.92-.15-1.93a2.13,2.13,0,0,1,.15.49,6.39,6.39,0,0,1,.19,1.44,8,8,0,0,1-8.76,8.17A7.51,7.51,0,0,1,531,212a7.24,7.24,0,0,1-2.11-1.24,8.07,8.07,0,0,1-2.43-9.33,7.32,7.32,0,0,1,1.24-2.1,7.22,7.22,0,0,1,1.72-1.59,8,8,0,0,1,7.73-.76,7.83,7.83,0,0,1,3.9,3.61,6.56,6.56,0,0,1,.54,1.35A4.13,4.13,0,0,1,541.76,202.4Z" transform="translate(-4.13 -7.62)"/><path class="cls-3" d="M516.82,319.58a8.84,8.84,0,0,1-.48-.85L515,316.18c-1.17-2.19-2.88-5.35-4.8-9.06l-.19-.36h.41l6.86.43,7.12.47h.39l-.22.32c-2.24,3.46-4.19,6.38-5.55,8.41l-1.59,2.35a8.68,8.68,0,0,1-.56.79s.2-.36.56-.93.92-1.46,1.52-2.47c1.3-2.1,3.1-5,5.25-8.39l.18.35-7.12-.44-6.87-.45.22-.34c1.85,3.62,3.37,6.75,4.48,9,.54,1.08,1,2,1.31,2.66A9,9,0,0,1,516.82,319.58Z" transform="translate(-4.13 -7.62)"/><path class="cls-3" d="M452.27,144.78s-.16-.27-.49-.86l-1.4-2.53c-1.18-2.2-2.88-5.36-4.81-9.07l-.18-.36h.39l6.87.44,7.12.47h.39l-.21.32c-2.24,3.45-4.21,6.37-5.56,8.4L452.81,144a8.68,8.68,0,0,1-.56.79s.19-.35.55-.93l1.52-2.47c1.3-2.1,3.1-5,5.26-8.33l.17.35-7.12-.44-6.86-.47.22-.32c1.85,3.61,3.37,6.74,4.48,9,.53,1.09,1,2,1.3,2.66A8.63,8.63,0,0,1,452.27,144.78Z" transform="translate(-4.13 -7.62)"/><path class="cls-3" d="M340.31,351.25a7.74,7.74,0,0,1,.52-.83l1.59-2.41c1.36-2.07,3.33-5.07,5.7-8.54l.19-.28.18.28,4.42,6.48,3.43,5.12.25.36h-.43c-4.63,0-8.67-.08-11.47-.13l-3.26-.06h-1.12s.46,0,1.25-.05l3.33-.05c2.84-.05,6.74-.12,11.27-.13l-.2.36-3.45-5.12-4.39-6.54h.37c-2.32,3.35-4.34,6.18-5.8,8.23l-1.72,2.4C340.56,350.93,340.33,351.24,340.31,351.25Z" transform="translate(-4.13 -7.62)"/><path class="cls-6" d="M427,346.46a58,58,0,0,1,58,57.94v67.21H369V404.4a58,58,0,0,1,58-57.94Z" transform="translate(-4.13 -7.62)"/><path class="cls-7" d="M280.22,439l-5.84,4.13-6.48,15.56s1.76,1.19,3.12-.07,6.57-10.31,6.57-10.31v5.36a4.28,4.28,0,0,0,3.8,4.23l9.61,3,11.79-3.36,1-14Z" transform="translate(-4.13 -7.62)"/><path class="cls-8" d="M385,335.56c-2.88-.83-4.3-4.14-4.56-7.13s.23-6.08-.58-9c-.59-2-1.81-3.94-2-6.07-.16-2.3.93-4.51,1-6.8.09-3.22-1.85-6.2-1.85-9.41-.06-4.44.74-11.78,5.18-11.53s11.56,8,11,12.44" transform="translate(-4.13 -7.62)"/><path class="cls-7" d="M427,298.77l-.09,4.45L426,369.64c-.11,7.71-6.82,13.77-15.07,13.59s-15.12-6.63-15.14-14.42c0-8.18-.2-16.79-.2-16.79s-10.54-1.75-12.72-15.5c-1.08-6.83-.74-18-.17-27.2a14.48,14.48,0,0,1,1.52-5.62,14.52,14.52,0,0,1,14.5-7.92Z" transform="translate(-4.13 -7.62)"/><path class="cls-8" d="M385.51,317.12a1.84,1.84,0,0,0,.49,1.24,1.82,1.82,0,0,0,1.22.55,1.92,1.92,0,0,0,.67-.07,1.63,1.63,0,0,0,.59-.33,1.58,1.58,0,0,0,.42-.54,1.65,1.65,0,0,0,.17-.66,1.7,1.7,0,0,0-.13-.67,1.69,1.69,0,0,0-.93-1,1.75,1.75,0,0,0-.67-.14,1.69,1.69,0,0,0-.67.07,1.86,1.86,0,0,0-.58.33,1.76,1.76,0,0,0-.41.53A1.79,1.79,0,0,0,385.51,317.12Z" transform="translate(-4.13 -7.62)"/><path class="cls-8" d="M385.13,315.15c.22.23,1.56-.76,3.46-.75s3.28.92,3.49.72-.12-.52-.74-.93a4.88,4.88,0,0,0-2.77-.86,4.65,4.65,0,0,0-2.78.93C385.23,314.61,385,315.05,385.13,315.15Z" transform="translate(-4.13 -7.62)"/><path class="cls-8" d="M404.51,317.12a1.74,1.74,0,0,0,.48,1.24,1.79,1.79,0,0,0,1.21.55,1.67,1.67,0,0,0,.67-.08,1.74,1.74,0,0,0,1-.86,1.72,1.72,0,0,0-1.53-2.43,1.52,1.52,0,0,0-.67.07,1.48,1.48,0,0,0-.59.32,1.68,1.68,0,0,0-.41.54A1.61,1.61,0,0,0,404.51,317.12Z" transform="translate(-4.13 -7.62)"/><path class="cls-8" d="M403.78,315.54c.22.23,1.55-.75,3.45-.75s3.29.92,3.5.72-.12-.52-.73-.93a4.93,4.93,0,0,0-2.78-.86,4.74,4.74,0,0,0-2.78.93C403.87,315,403.67,315.4,403.78,315.54Z" transform="translate(-4.13 -7.62)"/><path class="cls-8" d="M396.9,329.57a13.47,13.47,0,0,0-3.08-.56c-.49,0-.93-.14-1-.47a2.46,2.46,0,0,1,.32-1.43l1.44-3.71c2-5.24,3.42-9.57,3.21-9.64s-2,4.11-4,9.37c-.48,1.29-.93,2.52-1.38,3.7a2.82,2.82,0,0,0-.25,1.85,1.16,1.16,0,0,0,.32.44,1.13,1.13,0,0,0,.48.26,2.81,2.81,0,0,0,.82.12A12.15,12.15,0,0,0,396.9,329.57Z" transform="translate(-4.13 -7.62)"/><path class="cls-9" d="M395.58,352A35,35,0,0,0,414,347.11s-4.47,9.44-18.23,8.16Z" transform="translate(-4.13 -7.62)"/><path class="cls-9" d="M397.69,334.14a3.44,3.44,0,0,1,3.07-1.27,3.12,3.12,0,0,1,2.16,1.16,2,2,0,0,1,.14,2.26,2.34,2.34,0,0,1-1.14.7,2.27,2.27,0,0,1-1.34-.07,7.34,7.34,0,0,1-2.42-1.44,2.29,2.29,0,0,1-.55-.57.63.63,0,0,1-.11-.35.61.61,0,0,1,.11-.35" transform="translate(-4.13 -7.62)"/><path class="cls-8" d="M402.48,330.88c-.31,0-.31,2.05-2.07,3.5s-4,1.24-4,1.53c0,.13.48.4,1.4.43a5.23,5.23,0,0,0,3.33-1.16,4.46,4.46,0,0,0,1.6-2.93C402.85,331.38,402.62,330.87,402.48,330.88Z" transform="translate(-4.13 -7.62)"/><path class="cls-8" d="M403.29,308.07c.19.51,2.08.27,4.31.54s4,.87,4.31.41c.14-.22-.17-.7-.92-1.2a7.4,7.4,0,0,0-3.2-1.12,7.55,7.55,0,0,0-3.37.39C403.62,307.42,403.21,307.82,403.29,308.07Z" transform="translate(-4.13 -7.62)"/><path class="cls-8" d="M385.83,309.66c.33.43,1.64,0,3.21,0s2.91.28,3.21-.16c.13-.22-.07-.66-.66-1.06a4.63,4.63,0,0,0-5.17.16C385.86,309,385.68,309.45,385.83,309.66Z" transform="translate(-4.13 -7.62)"/><path class="cls-8" d="M432,294.55c2.86-7.77,14.76-19.44,23.92-14.25,10,5.7,6.48,9.66,10.1,12.29.86.62,4.93-.73,5.5.17,1.49,2.4.22,5.5-1.05,8a4,4,0,0,0,.92-.24,1.73,1.73,0,0,1,1.59.19,1.69,1.69,0,0,1,.7,1.43,15.63,15.63,0,0,1-3.1,8.51,5.17,5.17,0,0,0,1.92.06,1.22,1.22,0,0,1,.6.06,1.14,1.14,0,0,1,.49.35,1.18,1.18,0,0,1,.21,1.16,9.28,9.28,0,0,1-2.7,3.81,9.42,9.42,0,0,1-4.2,2.06c-3.82.78-7.85-.61-11-2.95a32.68,32.68,0,0,1-7.58-8.86,19.06,19.06,0,0,0-4.28-5.23c-1.83-1.33-4.47-1.85-6.35-.59" transform="translate(-4.13 -7.62)"/><path class="cls-10" d="M437.74,300.24v-.36a3.19,3.19,0,0,0-.23-.92,15.15,15.15,0,0,0-1.49-2.78,17.73,17.73,0,0,0-2-2.54c-.55-.59-1-.92-.92-.92a2.78,2.78,0,0,1,1.17.71,12.83,12.83,0,0,1,2.12,2.52,10.56,10.56,0,0,1,1.4,3,2.39,2.39,0,0,1,.1,1C437.87,300.14,437.76,300.26,437.74,300.24Z" transform="translate(-4.13 -7.62)"/><path class="cls-8" d="M461,321.55a1.61,1.61,0,0,1-.33.25,5.34,5.34,0,0,1-1,.57,8.82,8.82,0,0,1-4.34.57,9.1,9.1,0,0,1-5.74-2.94,9.38,9.38,0,0,1-1.85-3.43,18.21,18.21,0,0,1-.67-4.08,58.77,58.77,0,0,0-.57-7.84,11,11,0,0,0-1.14-3.18,7.38,7.38,0,0,0-1.92-2.17,6,6,0,0,0-3.95-1.33,8.85,8.85,0,0,0-1.53.32,1.58,1.58,0,0,1,.36-.2,4.25,4.25,0,0,1,1.16-.32,6,6,0,0,1,4.16,1.25,7.57,7.57,0,0,1,2.07,2.26,11.31,11.31,0,0,1,1.23,3.28,55.57,55.57,0,0,1,.61,7.9,17.88,17.88,0,0,0,.65,4,8.82,8.82,0,0,0,11.38,5.75C460.48,321.84,461,321.51,461,321.55Z" transform="translate(-4.13 -7.62)"/><path class="cls-8" d="M470.22,284.18a2.57,2.57,0,0,1,.27.52,5.18,5.18,0,0,1,.35,1.65,5.91,5.91,0,0,1-.43,2.63,5.53,5.53,0,0,1-2.27,2.71,5.91,5.91,0,0,1-8.17-2.18,16.57,16.57,0,0,1-1.59-5.18c-.37-1.8-.72-3.76-1.94-5.23a4.49,4.49,0,0,0-2.32-1.46,6,6,0,0,0-2.7-.05,14.48,14.48,0,0,0-4.83,2.07,42.53,42.53,0,0,0-7.18,5.49,47.54,47.54,0,0,0-4.16,4.47l-1,1.3a1.82,1.82,0,0,1-.38.45,2.8,2.8,0,0,1,.31-.5c.2-.33.54-.78.92-1.36a39.06,39.06,0,0,1,4.08-4.63,41.41,41.41,0,0,1,7.17-5.62,14.92,14.92,0,0,1,5-2.15,6.44,6.44,0,0,1,2.93.05,5,5,0,0,1,2.64,1.63,11.78,11.78,0,0,1,2,5.45,15.88,15.88,0,0,0,1.51,5,5.36,5.36,0,0,0,1.52,1.76,5.59,5.59,0,0,0,2.13.94,5.69,5.69,0,0,0,4-.59,5.3,5.3,0,0,0,2.19-2.51,5.94,5.94,0,0,0,.5-2.52A7.1,7.1,0,0,0,470.22,284.18Z" transform="translate(-4.13 -7.62)"/><path class="cls-8" d="M435.45,280.92a3.63,3.63,0,0,1,1,1.52,7.63,7.63,0,0,1,.55,4.42,7.73,7.73,0,0,1-2,4,3.89,3.89,0,0,1-1.46,1.11c-.05-.07.51-.48,1.21-1.33a8.22,8.22,0,0,0,1.38-8.05C435.78,281.54,435.38,281,435.45,280.92Z" transform="translate(-4.13 -7.62)"/><path class="cls-8" d="M436.82,298a17.4,17.4,0,0,0-12.48-10.58,16.19,16.19,0,0,0-10.07,1.36,16.36,16.36,0,0,1-3.12-2.63,27.21,27.21,0,0,0-11.75-7,19.47,19.47,0,0,0-13.5,1,15.21,15.21,0,0,0-8.33,10.42,12.53,12.53,0,0,0,4.48,12.31,10.66,10.66,0,0,0,12.82-.09c-.25,2,1.53,3.9,3.54,4.28a7.34,7.34,0,0,0,3-.24,7.57,7.57,0,0,0,2.69-1.42,44.07,44.07,0,0,0,4.41-4.23c.54-.53,1.11-1,1.68-1.53A16.55,16.55,0,0,0,421.78,309c-1.59,1.74-1.45,4.45-.8,6.71s1.73,4.46,1.68,6.81c0,2-.88,3.84-1.26,5.78a12.7,12.7,0,0,0,1.12,8c.47.93,1.06,2.28,1.58,3.2.93,1.64.93,1.64,2.3,2.06,2.83.88,7.72-9.41,9-13.49,1.05-3.4,1.46-9.51,2.69-12.86C440.24,309.19,438.9,303.3,436.82,298Z" transform="translate(-4.13 -7.62)"/><path class="cls-6" d="M438.73,310.91a1.53,1.53,0,0,1-.19.3,3,3,0,0,1-.78.68,4,4,0,0,1-3.7.14,3.41,3.41,0,0,1-1-.8,4.79,4.79,0,0,1-.72-1.18,14.79,14.79,0,0,0-1.26-2.63,3.95,3.95,0,0,0-2.67-1.43,28.85,28.85,0,0,0-3.48-.15,14.52,14.52,0,0,1-3.53-.49,16.51,16.51,0,0,1-3.1-1.22,15.32,15.32,0,0,1-4.39-3.45,13.26,13.26,0,0,1-2.1-3.14,8.18,8.18,0,0,1-.39-.92,1.15,1.15,0,0,1-.11-.36,19.68,19.68,0,0,0,2.85,4.2,15.56,15.56,0,0,0,4.35,3.29,16.87,16.87,0,0,0,3,1.16,15.14,15.14,0,0,0,3.42.46,24.76,24.76,0,0,1,3.55.17,4.43,4.43,0,0,1,1.63.51,4.38,4.38,0,0,1,1.31,1.11,14.24,14.24,0,0,1,1.27,2.78,4.61,4.61,0,0,0,.65,1.11,3.3,3.3,0,0,0,.92.74,3.81,3.81,0,0,0,3.48,0A5.38,5.38,0,0,0,438.73,310.91Z" transform="translate(-4.13 -7.62)"/><path class="cls-6" d="M436.59,316.46a2.57,2.57,0,0,1-.58.57,6.41,6.41,0,0,1-5.23,1.09,6.65,6.65,0,0,1-3.47-2,16.13,16.13,0,0,1-2.09-3.38,8.72,8.72,0,0,0-1.86-2.53,4.27,4.27,0,0,0-1.79-1,7.2,7.2,0,0,1-.78-.16,1.63,1.63,0,0,1,.82,0,4.11,4.11,0,0,1,2,.92,8.66,8.66,0,0,1,2,2.58,17.14,17.14,0,0,0,2.06,3.27,6.49,6.49,0,0,0,3.21,1.9,6.42,6.42,0,0,0,3.08,0A10,10,0,0,0,436.59,316.46Z" transform="translate(-4.13 -7.62)"/><path class="cls-6" d="M473.07,300.34a1.14,1.14,0,0,1-.13.51,3.83,3.83,0,0,1-.83,1.33A5.07,5.07,0,0,1,470,303.5a5.53,5.53,0,0,1-3.27.13c-2.43-.59-4.72-2.78-6.12-5.66s-2.28-6.33-4.41-9.26a9.37,9.37,0,0,0-4.06-3.17,10.93,10.93,0,0,0-4.77-.69,12.41,12.41,0,0,0-7.41,3.3,17.66,17.66,0,0,0-3.52,4.37c-.66,1.16-.92,1.86-1,1.86a1.53,1.53,0,0,1,.18-.52,11.92,11.92,0,0,1,.66-1.4,16.76,16.76,0,0,1,3.44-4.54,12.7,12.7,0,0,1,7.64-3.49,11.27,11.27,0,0,1,5,.71,9.52,9.52,0,0,1,4.26,3.31c2.22,3.05,3,6.55,4.44,9.33s3.52,4.94,5.8,5.56a5.28,5.28,0,0,0,3.1-.06,4.66,4.66,0,0,0,3.14-2.91Z" transform="translate(-4.13 -7.62)"/><path class="cls-6" d="M472.72,306.83a3.72,3.72,0,0,1-.33.4,10.54,10.54,0,0,1-1.14,1,8.78,8.78,0,0,1-2.07,1.16,6.8,6.8,0,0,1-3.12.47,10.38,10.38,0,0,1-3.85-1.44,10.57,10.57,0,0,1-3-2.83,15.73,15.73,0,0,1-2.16-4.34c-.56-1.57-1-3.24-1.58-4.88a14.54,14.54,0,0,0-2.4-4.43,7.71,7.71,0,0,0-3.84-2.49,10.84,10.84,0,0,0-7.72,1,21.06,21.06,0,0,0-4.42,3.13l-1.1,1a1.85,1.85,0,0,1-.4.34,1.8,1.8,0,0,1,.33-.4c.23-.26.57-.62,1-1.08a19.27,19.27,0,0,1,4.39-3.28,11.09,11.09,0,0,1,8-1.11,8,8,0,0,1,4.08,2.61,14.68,14.68,0,0,1,2.49,4.56c.6,1.68,1,3.34,1.57,4.91a15.74,15.74,0,0,0,2.08,4.21,10.08,10.08,0,0,0,6.48,4.2,6.5,6.5,0,0,0,3-.38,9.49,9.49,0,0,0,2.05-1.06C472.2,307.33,472.69,306.81,472.72,306.83Z" transform="translate(-4.13 -7.62)"/><path class="cls-10" d="M372.81,444.6l1.57,3.91-3.09,35.63h78.64l-3.51-10.65,9.78.5c15.08.76,27.4-12.71,24.46-27.52-.09-.45-.18-.93-.3-1.34-4.88-19.06-11.52-44.68-13.82-52.24-3.83-12.51-12.33-18.45-12.33-18.45h-.13c-11.77-9.6-27.77-10.45-27.77-10.45l-5.9,4a20.53,20.53,0,0,1-19.93,1.64,8.91,8.91,0,0,1-4.86-5.6,69,69,0,0,0-20.1,5.24A29.41,29.41,0,0,0,360,386.58l-20.54,60.17-35-4.73L297,462.44l35.43,8.44A28.9,28.9,0,0,0,366.09,457l6.72-12.36Zm65.41,4.85s3.36-12.88,5.41-19.81l5,19.44Z" transform="translate(-4.13 -7.62)"/><path class="cls-8" d="M465,474.19h-6.22l-17.32.06-60.27.09H381v-.23c.3-7.35.64-15.07,1-23v-.22h.22l22.4-.7,44-1.32-.21.28c-1.65-6-3-11.86-4.29-17.44s-2.45-10.93-3.59-16c-.54-2.51-1.08-5-1.6-7.33a50.57,50.57,0,0,1-1.26-6.91,35.07,35.07,0,0,1,0-6.48,29.79,29.79,0,0,1,1.07-5.86,18,18,0,0,1,5.24-8.55,13.17,13.17,0,0,1,6.77-3.15,10.83,10.83,0,0,1,4.67.26,9.1,9.1,0,0,1,1.14.41l.37.17a11.57,11.57,0,0,0-1.53-.51,11.08,11.08,0,0,0-4.62-.19,13.1,13.1,0,0,0-6.65,3.17A17.9,17.9,0,0,0,439,389.2a31,31,0,0,0-1,5.82,35.07,35.07,0,0,0,0,6.48,53.12,53.12,0,0,0,1.28,6.86c.53,2.36,1.07,4.81,1.63,7.33l3.62,15.95c1.27,5.58,2.66,11.43,4.31,17.42l.08.28h-.29l-44,1.35-22.4.7.23-.23c-.34,8-.67,15.67-1,23l-.23-.24,60.27.09,17.32.07h5.82A2.34,2.34,0,0,1,465,474.19Z" transform="translate(-4.13 -7.62)"/><path class="cls-8" d="M377.17,392.23a2.2,2.2,0,0,1,.05.57v1.66a27.09,27.09,0,0,1-1.07,6,85.64,85.64,0,0,1-3.07,8.47,58.72,58.72,0,0,0-3.39,10.42,31.36,31.36,0,0,0-.05,10.89,60.34,60.34,0,0,0,2.13,8.7c.77,2.43,1.47,4.39,2,5.74l.54,1.55a2.21,2.21,0,0,1,.15.56,3.11,3.11,0,0,1-.25-.52c-.15-.4-.37-.92-.62-1.53-.53-1.33-1.27-3.26-2.1-5.7a58.35,58.35,0,0,1-2.24-8.74,31,31,0,0,1,0-11,57,57,0,0,1,3.42-10.5c1.29-3.13,2.43-5.95,3.15-8.39a29.83,29.83,0,0,0,1.22-5.91C377.14,393,377.13,392.23,377.17,392.23Z" transform="translate(-4.13 -7.62)"/><path class="cls-8" d="M448.59,449.09a3.86,3.86,0,0,1,1.65-.22,9.7,9.7,0,0,1,3.89.93,7.28,7.28,0,0,1,3.11,2.54,3,3,0,0,1,.6,1.55c-.09,0-.28-.57-.88-1.35a8.1,8.1,0,0,0-3-2.31,11.87,11.87,0,0,0-3.7-1A12.81,12.81,0,0,1,448.59,449.09Z" transform="translate(-4.13 -7.62)"/><path class="cls-8" d="M441.66,367.47a9.74,9.74,0,0,1,1.48.55c.47.2,1,.43,1.7.72l2.19,1.08c.82.4,1.68.92,2.61,1.41s1.86,1.15,2.89,1.8A45.56,45.56,0,0,1,458.6,378a31,31,0,0,1,7.64,11.84,19.37,19.37,0,0,1,.7,2.36,15.08,15.08,0,0,1,.39,1.85,10.26,10.26,0,0,1,.21,1.56,8.18,8.18,0,0,1-.39-1.53c-.08-.5-.27-1.08-.46-1.77s-.46-1.46-.76-2.31a32.56,32.56,0,0,0-7.67-11.62,46,46,0,0,0-6-4.89c-1-.65-1.93-1.29-2.84-1.85s-1.76-1.05-2.56-1.47L444.72,369l-1.66-.79A11,11,0,0,1,441.66,367.47Z" transform="translate(-4.13 -7.62)"/><g class="cls-11"><path class="cls-12" d="M438.6,406.25s-7.81,34.5-7.69,37.88a19,19,0,0,0,.8,5.24l6.48.06.06-.64,5.46-19.52Z" transform="translate(-4.13 -7.62)"/></g><path class="cls-13" d="M395.67,404.51a23.47,23.47,0,0,0-2.14,1.35,12.06,12.06,0,0,0-4,5.46,11.56,11.56,0,0,0-.64,4.63,11.26,11.26,0,0,0,1.56,5.11,11.47,11.47,0,0,0,4.16,4.17,11.51,11.51,0,0,0,6.11,1.57,12,12,0,0,0,3.2-.51,12.54,12.54,0,0,0,2.84-1.35,11.66,11.66,0,0,0,4.39-14.17,12,12,0,0,0-4.28-5.25,24.86,24.86,0,0,0-2.2-1.25c.21.06.42.14.63.22a11.58,11.58,0,0,1,5.69,5.19,11.91,11.91,0,0,1,1.44,5.72,12.31,12.31,0,0,1-1.31,5.39,12.06,12.06,0,0,1-4.09,4.56,13.66,13.66,0,0,1-3,1.42,12.52,12.52,0,0,1-3.33.53,11.91,11.91,0,0,1-7.3-21.58,10.18,10.18,0,0,1,1.64-.93A5.5,5.5,0,0,1,395.67,404.51Z" transform="translate(-4.13 -7.62)"/><path class="cls-13" d="M400.43,402.4a144.62,144.62,0,0,1,0,17,75.41,75.41,0,0,1-.24-8.5A75.41,75.41,0,0,1,400.43,402.4Z" transform="translate(-4.13 -7.62)"/><path class="cls-7" d="M370.59,450.69l-5.09-2.07s-5.92-10-7.13-9.55-1.39,3.54,1,8.16l-6.69-1.51s-13.89,7.41-13.23,8.25,2,2.89,5,1.13,7-3.86,7-3.86l7.82,1.77-9.86,1.85-8.86,9s3.2,2.13,5.7-.45l24.53,3.85h10.39l.56-13.72Z" transform="translate(-4.13 -7.62)"/><path class="cls-9" d="M346.25,463.35c.12,0,.52-.69,1.35-1.69a6.09,6.09,0,0,1,4.26-2.28c4-.7,7.24-1.45,7.21-1.65s-3.32.19-7.34.93a7,7,0,0,0-2.83,1,6.58,6.58,0,0,0-1.73,1.72A4.3,4.3,0,0,0,346.25,463.35Z" transform="translate(-4.13 -7.62)"/><path class="cls-9" d="M350.1,464.11c.1,0,.14-.51.81-.69s1.79-.36,2.93-.54c2.31-.37,4.23-.46,4.24-.68s-2-.45-4.36-.07a12.61,12.61,0,0,0-3,.79,1.28,1.28,0,0,0-.44.32,1.25,1.25,0,0,0-.26.48C350,464,350.06,464.12,350.1,464.11Z" transform="translate(-4.13 -7.62)"/><path class="cls-9" d="M369.91,450.39a17.49,17.49,0,0,1-2.45-.69c-1.5-.47-3.58-1.05-5.9-1.63l-6-1.5a12.89,12.89,0,0,1-2.43-.75,14.41,14.41,0,0,1,2.52.42c1.53.32,3.7.77,6,1.36a60.42,60.42,0,0,1,5.89,1.77A10.85,10.85,0,0,1,369.91,450.39Z" transform="translate(-4.13 -7.62)"/><path class="cls-8" d="M455.29,192.18a6.7,6.7,0,0,1-.05-1c0-.69,0-1.62-.06-2.78,0-2.39-.06-5.69-.1-9.63l.2.21H441.9c0,.06.46-.45.24-.24V192.1l-.22-.21,9.65.1,2.78.06a3.42,3.42,0,0,1,1,0,5.8,5.8,0,0,1-.93.05h-2.69l-9.78.11h-.2V178.69l.24-.24h13.6v.21c0,4-.09,7.34-.11,9.77,0,1.11,0,2-.05,2.69A9.32,9.32,0,0,1,455.29,192.18Z" transform="translate(-4.13 -7.62)"/><path class="cls-8" d="M455.29,178.93c.09.09-2.82,3.15-6.48,6.82a91.1,91.1,0,0,1-6.85,6.48,92.75,92.75,0,0,1,6.48-6.82A89.22,89.22,0,0,1,455.29,178.93Z" transform="translate(-4.13 -7.62)"/><path class="cls-8" d="M455.08,192.1a84.52,84.52,0,0,1-6.7-6.41,88.27,88.27,0,0,1-6.36-6.76,92.33,92.33,0,0,1,6.7,6.42A92.25,92.25,0,0,1,455.08,192.1Z" transform="translate(-4.13 -7.62)"/><path class="cls-8" d="M534.55,270.08a4,4,0,0,1,.71-.82c.57-.55,1.26-1.26,2.07-2.07,1.77-1.74,4.24-4.12,7-6.73l.07-.06v.35c-2.78-2.56-5.25-4.89-7-6.6l-2.08-2a3.65,3.65,0,0,1-.72-.8,5.3,5.3,0,0,1,.84.66l2.19,1.92c1.86,1.64,4.36,3.94,7.13,6.48l.19.18-.19.18-.06.06c-2.78,2.6-5.25,4.94-7.07,6.62l-2.19,2A5.06,5.06,0,0,1,534.55,270.08Z" transform="translate(-4.13 -7.62)"/><path class="cls-8" d="M513.2,251.32a4.27,4.27,0,0,1-.71.82l-2.08,2.07c-1.77,1.74-4.23,4.12-7,6.73l-.07.05v-.35c2.78,2.57,5.24,4.9,7,6.6l2.08,2a3.92,3.92,0,0,1,.72.8,4.89,4.89,0,0,1-.84-.66l-2.19-1.93c-1.86-1.63-4.36-3.93-7.13-6.48l-.19-.17.19-.18.06-.06c2.78-2.6,5.25-5,7.07-6.62l2.19-2A5.5,5.5,0,0,1,513.2,251.32Z" transform="translate(-4.13 -7.62)"/><path class="cls-8" d="M518.68,274.49c-.12,0,2.12-6.32,5-14s5.33-13.89,5.46-13.84-2.12,6.32-5,14S518.8,274.54,518.68,274.49Z" transform="translate(-4.13 -7.62)"/><path class="cls-8" d="M558.79,287.91v-4.07c0-2.65,0-6.48,0-11.42,0-9.84-.07-23.89-.11-40.84l.2.19-69.43,0,.24-.24v56.33l-.22-.22,50.13.11,14.21.06h.12l-14.17.05-50.26.11h-.21V231.3h69.88v.2c0,17-.08,31.11-.11,41,0,4.9,0,8.74,0,11.38v3A2.93,2.93,0,0,1,558.79,287.91Z" transform="translate(-4.13 -7.62)"/><path class="cls-8" d="M559.34,239.94c0,.13-15.67.24-35,.24s-35-.11-35-.24,15.66-.25,35-.25S559.34,239.8,559.34,239.94Z" transform="translate(-4.13 -7.62)"/><path class="cls-8" d="M495,235.82a.86.86,0,0,1-.16.51.91.91,0,0,1-.95.39.91.91,0,0,1-.72-.72.91.91,0,0,1,.39-.95.86.86,0,0,1,.51-.16,1,1,0,0,1,.66.27A.94.94,0,0,1,495,235.82Z" transform="translate(-4.13 -7.62)"/><path class="cls-8" d="M498.45,235.82a.93.93,0,0,1-.16.51,1,1,0,0,1-.41.34.91.91,0,0,1-.54.05.87.87,0,0,1-.47-.25,1,1,0,0,1-.26-.47,1,1,0,0,1,.06-.54.94.94,0,0,1,.85-.57,1,1,0,0,1,.66.27A.94.94,0,0,1,498.45,235.82Z" transform="translate(-4.13 -7.62)"/><path class="cls-8" d="M501.85,235.82a.92.92,0,0,1-.15.51.94.94,0,0,1-.42.34.88.88,0,0,1-.53.05.89.89,0,0,1-.48-.25A.87.87,0,0,1,500,236a.91.91,0,0,1,.39-.95.89.89,0,0,1,.52-.16.93.93,0,0,1,.65.27A.9.9,0,0,1,501.85,235.82Z" transform="translate(-4.13 -7.62)"/><path class="cls-6" d="M417.6,146.42H362.75v39.1H417.6Z" transform="translate(-4.13 -7.62)"/><path class="cls-13" d="M418,152.23c0,.13-12.38.24-27.65.24s-27.65-.11-27.65-.24,12.38-.24,27.65-.24S418,152.09,418,152.23Z" transform="translate(-4.13 -7.62)"/><path class="cls-13" d="M367.23,149.37a.84.84,0,0,1-.07.44.76.76,0,0,1-.32.32.77.77,0,0,1-.85-.1.78.78,0,0,1-.23-.38.7.7,0,0,1,0-.45.77.77,0,0,1,.27-.35.75.75,0,0,1,.43-.13.71.71,0,0,1,.5.17A.68.68,0,0,1,367.23,149.37Z" transform="translate(-4.13 -7.62)"/><path class="cls-13" d="M369.92,149.37a.75.75,0,0,1-.07.44.8.8,0,0,1-.31.32.75.75,0,0,1-.44.08.7.7,0,0,1-.41-.18.73.73,0,0,1-.24-.38.86.86,0,0,1,0-.45.73.73,0,0,1,.28-.35.7.7,0,0,1,.42-.13.72.72,0,0,1,.51.17A.71.71,0,0,1,369.92,149.37Z" transform="translate(-4.13 -7.62)"/><path class="cls-13" d="M371.88,150a.65.65,0,1,0-.74-.64A.7.7,0,0,0,371.88,150Z" transform="translate(-4.13 -7.62)"/><path class="cls-13" d="M383,167.82c0,2.35-1.7,3.76-4.51,3.76h-3v3.48H374.4V164h4.13C381.34,164,383,165.45,383,167.82Zm-1.17,0c0-1.76-1.16-2.78-3.36-2.78h-2.94v5.51h2.94C380.71,170.55,381.87,169.55,381.87,167.82Z" transform="translate(-4.13 -7.62)"/><path class="cls-13" d="M394.77,164v11h-1.15V170h-6.9v5.09h-1.14V164h1.16V169h6.91V164Z" transform="translate(-4.13 -7.62)"/><path class="cls-13" d="M407,167.82c0,2.35-1.69,3.76-4.5,3.76h-3v3.48h-1.17V164h4.13C405.29,164,407,165.45,407,167.82Zm-1.16,0c0-1.76-1.16-2.78-3.37-2.78h-2.93v5.51h2.93C404.66,170.55,405.82,169.55,405.82,167.82Z" transform="translate(-4.13 -7.62)"/><path class="cls-10" d="M306.89,230.37l.73-.79a4.34,4.34,0,0,0,1.54,1.5,4.25,4.25,0,0,0,2.09.56c2.17,0,3.24-1.24,3.24-3.86v-10.5h-6v-1.07h7.23v11.54c0,3.3-1.53,4.94-4.44,4.94a5.19,5.19,0,0,1-2.48-.6A5.26,5.26,0,0,1,306.89,230.37Z" transform="translate(-4.13 -7.62)"/><path class="cls-10" d="M319.11,231.1l.54-.93a7,7,0,0,0,4.39,1.47c2.57,0,3.6-.92,3.6-2.28,0-3.56-8.08-.93-8.08-5.74,0-1.85,1.53-3.34,4.63-3.34a7.48,7.48,0,0,1,4.18,1.2l-.54.92a6.33,6.33,0,0,0-3.7-1.1c-2.38,0-3.43,1-3.43,2.3,0,3.7,8.09,1.07,8.09,5.72,0,2-1.72,3.34-4.83,3.34A7.65,7.65,0,0,1,319.11,231.1Z" transform="translate(-4.13 -7.62)"/><path class="cls-10" d="M339.48,241.26v-2.87c0-1.85,0-4.58-.06-8,0-6.89-.05-16.71-.1-28.51l.2.21H297.06l.24-.24v39.4l-.21-.21,30.69.1,8.67.06h0l-8.62,0-30.82.1h-.22V201.88l.24-.25h42.67v.2c0,11.86-.08,21.72-.1,28.65,0,3.41,0,6.1-.06,8v2.08A2.08,2.08,0,0,1,339.48,241.26Z" transform="translate(-4.13 -7.62)"/><path class="cls-10" d="M339.39,207.71c0,.13-9.49.24-21.2.24s-21.2-.11-21.2-.24,9.49-.25,21.2-.25S339.39,207.57,339.39,207.71Z" transform="translate(-4.13 -7.62)"/><path class="cls-10" d="M300.78,205.49a.66.66,0,1,0-.74-.66A.71.71,0,0,0,300.78,205.49Z" transform="translate(-4.13 -7.62)"/><path class="cls-10" d="M304.24,204.83a.74.74,0,0,1-.08.44.71.71,0,0,1-.32.32.75.75,0,0,1-.84-.1.68.68,0,0,1-.23-.39.74.74,0,0,1,0-.44.74.74,0,0,1,.28-.35.73.73,0,0,1,.43-.13.71.71,0,0,1,.5.17A.72.72,0,0,1,304.24,204.83Z" transform="translate(-4.13 -7.62)"/><path class="cls-10" d="M307,204.83a.77.77,0,0,1-.39.76.75.75,0,0,1-.44.08.73.73,0,0,1-.41-.18.68.68,0,0,1-.23-.39.74.74,0,0,1,0-.44.81.81,0,0,1,.28-.35.75.75,0,0,1,.43-.13.69.69,0,0,1,.5.17A.72.72,0,0,1,307,204.83Z" transform="translate(-4.13 -7.62)"/><path class="cls-10" d="M494.32,165.19a6.85,6.85,0,0,1,7.1-7,6.53,6.53,0,0,1,4.87,1.9l-.62.65a5.85,5.85,0,0,0-1.94-1.24,5.65,5.65,0,0,0-2.27-.38A6,6,0,0,0,497,160.8a5.87,5.87,0,0,0-1.39,2,6,6,0,0,0-.5,2.39,6.08,6.08,0,0,0,1.89,4.37,5.94,5.94,0,0,0,4.47,1.64,5.65,5.65,0,0,0,2.27-.38,5.93,5.93,0,0,0,1.94-1.25l.62.64a6.55,6.55,0,0,1-4.87,1.92,6.82,6.82,0,0,1-5-1.94,6.88,6.88,0,0,1-1.55-2.29A6.75,6.75,0,0,1,494.32,165.19Z" transform="translate(-4.13 -7.62)"/><path class="cls-10" d="M508.17,170.27l.45-.74a6.56,6.56,0,0,0,4.52,1.72c2.77,0,4-1.19,4-2.69,0-4.11-8.54-1.63-8.54-6.69,0-1.93,1.48-3.64,4.85-3.64a7.38,7.38,0,0,1,4.12,1.24l-.37.8a6.81,6.81,0,0,0-3.75-1.17c-2.67,0-3.86,1.23-3.86,2.77,0,4.11,8.55,1.69,8.55,6.66,0,1.93-1.55,3.62-4.93,3.62A7,7,0,0,1,508.17,170.27Z" transform="translate(-4.13 -7.62)"/><path class="cls-10" d="M520.08,170.27l.45-.74a6.52,6.52,0,0,0,4.52,1.72c2.78,0,4-1.19,4-2.69,0-4.11-8.55-1.63-8.55-6.69,0-1.93,1.49-3.64,4.86-3.64a7.46,7.46,0,0,1,4.12,1.24l-.37.8a6.78,6.78,0,0,0-3.7-1.17c-2.67,0-3.86,1.23-3.86,2.77,0,4.11,8.55,1.69,8.55,6.66,0,1.93-1.55,3.62-4.93,3.62A7,7,0,0,1,520.08,170.27Z" transform="translate(-4.13 -7.62)"/><path class="cls-10" d="M541.66,183v-2.82c0-1.85,0-4.5-.06-7.92,0-6.84-.05-16.66-.1-28.7l.19.2-61,0,.24-.24V183l-.22-.22,43.88.11,12.58,0h.1l-12.53.06-44,.11h-.22v-39.7h.24l61,0h.2v.19c0,12-.09,21.91-.11,28.78v9.93A3.66,3.66,0,0,0,541.66,183Z" transform="translate(-4.13 -7.62)"/><path class="cls-10" d="M541.66,149.44c0,.13-13.67.24-30.55.24s-30.55-.11-30.55-.24,13.67-.24,30.55-.24S541.66,149.3,541.66,149.44Z" transform="translate(-4.13 -7.62)"/><path class="cls-10" d="M485.17,146.56a.77.77,0,0,1-.39.76.75.75,0,0,1-.44.08.76.76,0,0,1-.41-.18.86.86,0,0,1-.23-.39.66.66,0,0,1,0-.44A.68.68,0,0,1,484,146a.76.76,0,0,1,.43-.14.73.73,0,0,1,.51.18A.69.69,0,0,1,485.17,146.56Z" transform="translate(-4.13 -7.62)"/><path class="cls-10" d="M487.88,146.56a.74.74,0,0,1-.07.44.82.82,0,0,1-.32.32.75.75,0,0,1-.44.08.8.8,0,0,1-.41-.18.86.86,0,0,1-.23-.39.82.82,0,0,1,0-.44.65.65,0,0,1,.28-.35.71.71,0,0,1,.42-.14.73.73,0,0,1,.51.18A.69.69,0,0,1,487.88,146.56Z" transform="translate(-4.13 -7.62)"/><path class="cls-10" d="M490.6,146.56a.74.74,0,0,1-.08.44.71.71,0,0,1-.32.32.74.74,0,0,1-.44.08.8.8,0,0,1-.41-.18.86.86,0,0,1-.23-.39.82.82,0,0,1,0-.44.7.7,0,0,1,.28-.35.76.76,0,0,1,.93,0A.74.74,0,0,1,490.6,146.56Z" transform="translate(-4.13 -7.62)"/><path class="cls-10" d="M463,203.4H386.41V258H463Z" transform="translate(-4.13 -7.62)"/><path class="cls-13" d="M412.25,228.74v10.89h-2.51v-4.44h-4.93v4.44H402.3V228.74h2.51V233h4.93v-4.28Z" transform="translate(-4.13 -7.62)"/><path class="cls-13" d="M417.05,230.79h-3.47v-2H423v2h-3.47v8.84h-2.51Z" transform="translate(-4.13 -7.62)"/><path class="cls-13" d="M424.38,228.74h2.51v8.8h5.43v2.09h-7.94Z" transform="translate(-4.13 -7.62)"/><path class="cls-13" d="M443.6,239.63v-6.48l-3.19,5.35h-1.14l-3.18-5.21v6.34h-2.38V228.74h2.08l4.06,6.74,4-6.74h2.06v10.84Z" transform="translate(-4.13 -7.62)"/><path class="cls-13" d="M463.61,211.5c0,.13-17.29.24-38.62.24s-38.61-.11-38.61-.24,17.29-.24,38.61-.24S463.61,211.36,463.61,211.5Z" transform="translate(-4.13 -7.62)"/><path class="cls-13" d="M392.67,207.51a1,1,0,0,1-.12.6,1,1,0,0,1-.44.43,1,1,0,0,1-.6.11,1,1,0,0,1-.56-.26,1,1,0,0,1-.28-1.14,1,1,0,0,1,.38-.48,1,1,0,0,1,.58-.19,1,1,0,0,1,.38.06.84.84,0,0,1,.33.19.87.87,0,0,1,.23.31A.93.93,0,0,1,392.67,207.51Z" transform="translate(-4.13 -7.62)"/><path class="cls-13" d="M396.43,207.51a1,1,0,0,1-.12.6,1,1,0,0,1-.44.43,1,1,0,0,1-.61.11,1.11,1.11,0,0,1-.56-.26,1.07,1.07,0,0,1-.31-.52,1,1,0,0,1,0-.62,1,1,0,0,1,.37-.48,1.06,1.06,0,0,1,.59-.19,1,1,0,0,1,.38.06.92.92,0,0,1,.33.19,1,1,0,0,1,.23.31A.93.93,0,0,1,396.43,207.51Z" transform="translate(-4.13 -7.62)"/><path class="cls-13" d="M400.19,207.51a1,1,0,0,1-.12.6,1,1,0,0,1-.44.43,1,1,0,0,1-.61.11,1,1,0,0,1-.87-.78,1.09,1.09,0,0,1,0-.62,1.12,1.12,0,0,1,.38-.48,1,1,0,0,1,.59-.19,1,1,0,0,1,.38.06.92.92,0,0,1,.33.19,1,1,0,0,1,.23.31A.93.93,0,0,1,400.19,207.51Z" transform="translate(-4.13 -7.62)"/><path class="cls-8" d="M228.55,310.91v-2.68c0-1.75,0-4.26-.05-7.46,0-6.41-.07-15.54-.11-26.47l.21.2H192c-.06.05.45-.45.24-.23v36.59l-.2-.21,26.47.11,7.46.06H226l-7.41.05L192,311h-.22V274.31c-.22.21.29-.31.25-.25h36.81v.21c0,11-.07,20.16-.1,26.6,0,3.18,0,5.69-.06,7.41v2.43A.9.9,0,0,1,228.55,310.91Z" transform="translate(-4.13 -7.62)"/><path class="cls-8" d="M228.55,274.66c.1.09-8,8.33-18.08,18.37s-18.36,18.14-18.43,18,8-8.33,18.08-18.38S228.46,274.57,228.55,274.66Z" transform="translate(-4.13 -7.62)"/><path class="cls-8" d="M228,310.68c-.09.09-8.16-7.9-18-17.84s-17.79-18.09-17.69-18.18,8.16,7.89,18,17.84S228.06,310.57,228,310.68Z" transform="translate(-4.13 -7.62)"/><path class="cls-8" d="M304.88,284.11c0,.13-14.56.24-32.5.24s-32.48-.11-32.48-.24,14.55-.24,32.48-.24S304.88,284,304.88,284.11Z" transform="translate(-4.13 -7.62)"/><path class="cls-8" d="M304.88,290c0,.13-14.56.24-32.5.24s-32.48-.11-32.48-.24,14.55-.24,32.48-.24S304.88,289.81,304.88,290Z" transform="translate(-4.13 -7.62)"/><path class="cls-8" d="M304.88,295.78c0,.14-14.56.24-32.5.24s-32.48-.1-32.48-.24,14.55-.24,32.48-.24S304.88,295.65,304.88,295.78Z" transform="translate(-4.13 -7.62)"/><path class="cls-8" d="M304.88,301.65c0,.13-14.56.24-32.5.24s-32.48-.11-32.48-.24,14.55-.24,32.48-.24S304.88,301.48,304.88,301.65Z" transform="translate(-4.13 -7.62)"/><path class="cls-8" d="M269.29,278.27c0,.14-6.69.25-14.93.25s-14.93-.11-14.93-.25,6.68-.24,14.93-.24S269.29,278.14,269.29,278.27Z" transform="translate(-4.13 -7.62)"/><path class="cls-8" d="M180.41,263.24h41.38l105.8.19h.23v58.44H314.36l.24-.24v12.58l-.4-.41-12-12,.17.06-121.92-.09h-.17v-.16c0-18.18.08-32.78.09-42.84v.09c0,10.05.06,24.61.1,42.75l-.17-.17,122-.07h.1l.07.07,12,12-.42.17V321.34h13.47l-.24.24V263.65l.23.23-105.64-.4-30.55-.15H181Z" transform="translate(-4.13 -7.62)"/><path class="cls-6" d="M555.51,451.46H475.16v20.17h80.35Z" transform="translate(-4.13 -7.62)"/><path class="cls-8" d="M544,458.05H495v7h49Z" transform="translate(-4.13 -7.62)"/><path class="cls-8" d="M488.84,462a3.95,3.95,0,0,1-2.41,3.63,4,4,0,0,1-2.27.22,3.94,3.94,0,0,1-3.08-3.07,4,4,0,0,1,.22-2.27,3.95,3.95,0,0,1,3.62-2.41,3.68,3.68,0,0,1,1.5.29,3.88,3.88,0,0,1,1.27.85,4,4,0,0,1,.85,1.26A3.9,3.9,0,0,1,488.84,462Z" transform="translate(-4.13 -7.62)"/><path class="cls-8" d="M547.8,440.48H483.63v10.9H547.8Z" transform="translate(-4.13 -7.62)"/><path class="cls-10" d="M564,420.32H483.63v20.17H564Z" transform="translate(-4.13 -7.62)"/><path class="cls-13" d="M508.09,429.9a5.27,5.27,0,0,1,1-2.81,5.21,5.21,0,0,1,8-.41l-1.4,1.3a3,3,0,0,0-1.07-.82,2.94,2.94,0,0,0-1.31-.28,3,3,0,0,0,0,6,2.86,2.86,0,0,0,1.32-.29,3,3,0,0,0,1.06-.83l1.4,1.3a5.16,5.16,0,0,1-5.57,1.39,5.15,5.15,0,0,1-2.41-1.78A5.21,5.21,0,0,1,508.09,429.9Z" transform="translate(-4.13 -7.62)"/><path class="cls-13" d="M528.53,430.72h-2.35V433h-1.75v-2.3H522.1v-1.65h2.33v-2.28h1.74v2.28h2.35Z" transform="translate(-4.13 -7.62)"/><path class="cls-13" d="M536.7,430.72h-2.36V433H532.6v-2.3h-2.33v-1.65h2.33v-2.28h1.74v2.28h2.36Z" transform="translate(-4.13 -7.62)"/><path class="cls-5" d="M495.57,439.92c-.13,0-.24-4.39-.24-9.8s.11-9.82.24-9.82.24,4.4.24,9.82A90.9,90.9,0,0,1,495.57,439.92Z" transform="translate(-4.13 -7.62)"/><path class="cls-5" d="M492,439.92c-.13,0-.24-4.39-.24-9.8s.11-9.82.24-9.82a94.62,94.62,0,0,1,.24,9.82A94.24,94.24,0,0,1,492,439.92Z" transform="translate(-4.13 -7.62)"/><path class="cls-5" d="M551.18,439.92q-.36-4.89-.24-9.8-.12-4.92.24-9.82c.13,0,.24,4.4.24,9.82S551.28,439.92,551.18,439.92Z" transform="translate(-4.13 -7.62)"/><path class="cls-5" d="M547.68,439.92c-.13,0-.24-4.39-.24-9.8s.11-9.82.24-9.82.24,4.4.24,9.82S547.81,439.92,547.68,439.92Z" transform="translate(-4.13 -7.62)"/><path class="cls-4" d="M510.17,445.8a2.45,2.45,0,0,1,.15-.85,2.07,2.07,0,0,1,1.21-1.18,2.06,2.06,0,0,1,.85-.14,1.83,1.83,0,0,1,1,.2,1.78,1.78,0,0,1,.72.64l-.42.3a1.55,1.55,0,0,0-.54-.48,1.48,1.48,0,0,0-.71-.16,1.67,1.67,0,0,0-1.67,1.67,1.7,1.7,0,0,0,.49,1.18,1.67,1.67,0,0,0,1.18.48,1.43,1.43,0,0,0,.7-.15,1.39,1.39,0,0,0,.55-.47l.42.29a1.77,1.77,0,0,1-.72.66,1.83,1.83,0,0,1-1,.19,2,2,0,0,1-.86-.14,2,2,0,0,1-.72-.47,2.11,2.11,0,0,1-.63-1.57Z" transform="translate(-4.13 -7.62)"/><path class="cls-4" d="M514.59,447.46l.27-.47a2.5,2.5,0,0,0,1.52.48c.81,0,1.14-.27,1.14-.69,0-1.12-2.77-.24-2.77-1.93,0-.7.6-1.22,1.69-1.22a2.85,2.85,0,0,1,1.51.4l-.25.46a2.32,2.32,0,0,0-1.26-.37c-.78,0-1.11.31-1.11.72,0,1.15,2.78.27,2.78,1.92,0,.74-.65,1.22-1.76,1.22A2.89,2.89,0,0,1,514.59,447.46Z" transform="translate(-4.13 -7.62)"/><path class="cls-4" d="M518.57,447.46l.27-.47a2.5,2.5,0,0,0,1.52.48c.81,0,1.14-.27,1.14-.69,0-1.12-2.77-.24-2.77-1.93,0-.7.6-1.22,1.69-1.22a2.85,2.85,0,0,1,1.51.4l-.25.46a2.32,2.32,0,0,0-1.26-.37c-.78,0-1.11.31-1.11.72,0,1.15,2.78.27,2.78,1.92,0,.74-.65,1.22-1.76,1.22A2.91,2.91,0,0,1,518.57,447.46Z" transform="translate(-4.13 -7.62)"/><path class="cls-4" d="M493.07,447.87a1.95,1.95,0,1,0-1.95-1.94A1.94,1.94,0,0,0,493.07,447.87Z" transform="translate(-4.13 -7.62)"/><path class="cls-4" d="M541.79,447.87a1.95,1.95,0,1,0-1.95-1.94A1.94,1.94,0,0,0,541.79,447.87Z" transform="translate(-4.13 -7.62)"/><path class="cls-8" d="M297.15,343.31h-135a11.11,11.11,0,0,0-11.11,11.11v84.89a11.12,11.12,0,0,0,11.11,11.11h135a11.11,11.11,0,0,0,11.1-11.11V354.42A11.1,11.1,0,0,0,297.15,343.31Z" transform="translate(-4.13 -7.62)"/><path class="cls-6" d="M203.38,425l-8.7,49.28h40.84l7.4-50.29Z" transform="translate(-4.13 -7.62)"/><path class="cls-6" d="M290.91,343.31h-135a11.1,11.1,0,0,0-11.1,11.11v84.89a11.11,11.11,0,0,0,11.1,11.11h135A11.12,11.12,0,0,0,302,439.31V354.42A11.11,11.11,0,0,0,290.91,343.31Z" transform="translate(-4.13 -7.62)"/><path class="cls-8" d="M239,450.42,242.92,424,244,450.42Z" transform="translate(-4.13 -7.62)"/><path class="cls-8" d="M203.61,422.22c.13,0-.86,6.58-2.22,14.65s-2.54,14.59-2.68,14.57.86-6.59,2.21-14.65S203.48,422.2,203.61,422.22Z" transform="translate(-4.13 -7.62)"/><path class="cls-5" d="M228.57,393.16a5.14,5.14,0,1,1-3.18-4.77,5,5,0,0,1,1.67,1.12,5.11,5.11,0,0,1,1.12,1.67A5.18,5.18,0,0,1,228.57,393.16Z" transform="translate(-4.13 -7.62)"/><path class="cls-8" d="M223.42,398.33a5.18,5.18,0,0,1-5.08-6.18,5.2,5.2,0,0,1,4.07-4.07,5.19,5.19,0,0,1,3,.29,5.28,5.28,0,0,1,2.32,1.91,5.18,5.18,0,0,1-4.3,8.05Zm0-10.3a5.12,5.12,0,0,0-5,6.13,5.11,5.11,0,0,0,4,4,5.12,5.12,0,0,0,3-.29,5,5,0,0,0,2.3-1.89,5.13,5.13,0,0,0-4.26-8Z" transform="translate(-4.13 -7.62)"/><path class="cls-8" d="M184.16,375.19a10.22,10.22,0,0,0,1.6-7.23s0-1.23-1.85-3.65a14.07,14.07,0,0,0-2-2.1,15.64,15.64,0,0,0-2.1-1.53c-.25-.16-.41-.24-.41-.24a12.72,12.72,0,0,0-9-1.34,11.67,11.67,0,0,0-6.12,3.4,9,9,0,0,0-1.4,1.91,13.44,13.44,0,0,0-1.38,10.74c.08.24.16.48.25.71V376c0,.08.07.16.1.24l.08.16c.08.2.16.38.25.57a11.82,11.82,0,0,0,.76,1.34,6.7,6.7,0,0,0,1,1.4,7.17,7.17,0,0,0,6.34,2.5,4,4,0,0,0,2.15,1.85c1.79.41,4.7-.49,6.81-1.62s5.13-3.29,5.09-5.13a8.78,8.78,0,0,0-.33-2Z" transform="translate(-4.13 -7.62)"/><path class="cls-10" d="M168.46,359.1a11.64,11.64,0,0,0-6.07,3.4,8.78,8.78,0,0,0-1.4,1.91c-1.23,2.37-3.35,6.94-.64,12.51s6.73,5.43,8.54,5.17,13.31-6.9,13.31-6.9,3.52-5,.66-9.56C180.41,361.68,175.15,357.66,168.46,359.1Z" transform="translate(-4.13 -7.62)"/><path class="cls-2" d="M167.62,380.55s1.24,3,3,3.43,4.69-.49,6.8-1.62,5.13-3.28,5.09-5.13a7.8,7.8,0,0,0-1.23-4.05,10.62,10.62,0,0,0-8.5,1.34A11.24,11.24,0,0,0,167.62,380.55Z" transform="translate(-4.13 -7.62)"/><g class="cls-14"><path class="cls-15" d="M173.84,363a6.1,6.1,0,0,1-.65,6.75,6.11,6.11,0,1,1-7.64-9.23,6.32,6.32,0,0,1,2.28-.71,6.14,6.14,0,0,1,4.49,1.35A6,6,0,0,1,173.84,363Z" transform="translate(-4.13 -7.62)"/></g><g class="cls-14"><path class="cls-15" d="M162.13,379.66a7.72,7.72,0,0,0,.41-5.45,7.59,7.59,0,0,0-3.39-4.18,14.7,14.7,0,0,0,.92,6.16A11.2,11.2,0,0,0,162.13,379.66Z" transform="translate(-4.13 -7.62)"/></g><g class="cls-14"><path class="cls-15" d="M183.83,368a7.8,7.8,0,0,1-4.77-2.66,6.92,6.92,0,0,1-1.64-4.87,16.84,16.84,0,0,1,4.57,3.88C183.82,366.74,183.83,368,183.83,368Z" transform="translate(-4.13 -7.62)"/></g><path class="cls-3" d="M167.63,380.51a1.93,1.93,0,0,0,.23.7.57.57,0,0,0,.26.25.6.6,0,0,0,.37.06A.94.94,0,0,0,169,381a14.36,14.36,0,0,1,5.62-5.76,7,7,0,0,1,3.13-1c1,0,2,.25,3,.3a1.47,1.47,0,0,0,.75-.11c.22-.11.21-.37.16-.61a1,1,0,0,0-.12-.33.92.92,0,0,0-.23-.25c-2.63-1.08-5.89-.29-8.33,1.13a13.91,13.91,0,0,0-5.33,6.2" transform="translate(-4.13 -7.62)"/><path class="cls-6" d="M361.4,465.32H272v6.31H361.4Z" transform="translate(-4.13 -7.62)"/><path class="cls-6" d="M250.58,462.9h4.48a7.17,7.17,0,0,1,7.18,7.18v1.55H243.45v-1.55a7.17,7.17,0,0,1,7.13-7.18Z" transform="translate(-4.13 -7.62)"/><path class="cls-8" d="M261.92,469.66a85.65,85.65,0,0,1-9.06.24,85.58,85.58,0,0,1-9.06-.24,85.58,85.58,0,0,1,9.06-.24A85.65,85.65,0,0,1,261.92,469.66Z" transform="translate(-4.13 -7.62)"/><path class="cls-8" d="M253,462.82a11.29,11.29,0,0,1,.16,3.33,11.84,11.84,0,0,1-.34,3.3,24,24,0,0,1,.18-6.63Z" transform="translate(-4.13 -7.62)"/><path class="cls-8" d="M568.22,471.63H138.15v12.51H568.22Z" transform="translate(-4.13 -7.62)"/></svg>