<svg width="700" height="639" viewBox="0 0 700 639" fill="none" xmlns="http://www.w3.org/2000/svg">
<rect width="700" height="639" fill="#E5E5E5"/>
<g clip-path="url(#clip0)">
<rect width="1440" height="5362" transform="translate(-740 -147)" fill="white"/>
<g filter="url(#filter0_d)">
<path fill-rule="evenodd" clip-rule="evenodd" d="M368.293 8.27107C438.04 18.5547 483.011 81.8039 536.59 127.623C585.101 169.108 641.936 203.381 665.71 262.616C690.436 324.218 701.262 398.991 668.733 456.854C637.419 512.557 561.293 516.978 505.35 547.87C458.633 573.668 421.546 619.263 368.293 622.76C313.449 626.361 267.923 588.645 217.501 566.771C149.119 537.105 56.7955 537.448 20.9739 472.084C-14.9718 406.494 21.978 325.356 46.4686 254.686C70.5068 185.322 101.318 116.672 159.608 72.0403C218.807 26.7126 294.528 -2.60488 368.293 8.27107Z" fill="#5CD9D8"/>
</g>
<path d="M475.832 450.735C461.619 440.799 458.392 422.401 458.959 405.802C459.051 403.06 458.749 400.117 460.065 397.695C461.381 395.273 464.452 393.61 466.929 394.77C468.977 395.739 469.872 398.125 471.024 400.108C472.562 402.74 474.811 404.885 477.513 406.296C479.277 407.21 481.453 407.777 483.189 406.817C485.575 405.501 485.858 402.201 485.84 399.45C485.84 394.319 485.809 389.192 485.749 384.067C485.584 381.317 485.862 378.559 486.571 375.896C487.43 373.291 489.313 370.86 491.936 370.129C494.559 369.398 497.795 370.906 498.334 373.602C498.435 374.739 498.463 375.88 498.417 377.02C498.49 378.163 499.02 379.433 500.107 379.762C501.195 380.092 502.301 379.305 503.124 378.501C505.966 375.759 507.895 372.103 509.695 368.584C511.496 365.065 513.242 361.391 515.819 358.357C518.397 355.322 521.961 352.927 525.873 352.708C529.785 352.489 534.008 354.911 535.013 358.777C536.019 362.643 533.752 366.592 531.284 369.745C527.63 374.403 523.32 378.507 518.488 381.929C517.55 382.452 516.802 383.258 516.349 384.232C515.755 386.06 517.492 387.888 519.301 388.491C521.358 389.168 523.579 388.957 525.699 389.213C527.82 389.469 530.169 390.411 530.973 392.44C532.107 395.246 529.748 398.198 527.436 400.126C522.811 403.991 517.555 407.031 511.898 409.111C509.878 409.851 507.748 410.5 506.112 411.926C504.476 413.352 503.498 415.82 504.486 417.757C505.473 419.695 507.995 420.317 510.116 419.924C512.236 419.531 514.137 418.379 516.157 417.611C519.932 416.185 524.822 416.45 527.235 419.713C527.974 420.839 528.441 422.121 528.599 423.458C528.758 424.795 528.604 426.151 528.149 427.418C527.227 429.937 525.809 432.246 523.981 434.209C517.989 441.406 510.196 446.884 501.396 450.086C492.622 453.129 484.496 453.952 475.804 450.762" fill="#F5F5F5"/>
<path d="M475.621 463.019C476.389 455.334 477.892 447.74 480.109 440.342C482.865 431.328 486.133 422.478 489.898 413.836L492.823 407.009C493.783 404.77 494.742 402.558 495.812 400.437C497.871 396.393 500.154 392.466 502.648 388.674C505.007 385.018 507.374 381.654 509.613 378.519C511.852 375.384 514.009 372.505 516.084 369.964C519.327 365.933 522.888 362.167 526.732 358.704C528.085 357.47 529.173 356.556 529.913 355.962L530.763 355.276C530.853 355.19 530.955 355.116 531.065 355.057C530.983 355.15 530.895 355.235 530.8 355.313L529.986 356.044C529.264 356.684 528.158 357.616 526.86 358.868C523.082 362.382 519.571 366.174 516.358 370.211C514.311 372.761 512.181 375.64 509.96 378.785C507.739 381.929 505.39 385.301 503.051 388.948C500.575 392.74 498.308 396.664 496.26 400.702C495.199 402.804 494.258 405.007 493.289 407.256L490.373 414.074C486.612 422.719 483.338 431.569 480.566 440.58C478.34 447.946 476.809 455.504 475.996 463.156" fill="#E0E0E0"/>
<path d="M495.958 400.391C495.823 400.013 495.731 399.62 495.684 399.222C495.537 398.463 495.373 397.394 495.172 395.986C494.788 393.244 494.377 389.442 493.947 385.256C493.518 381.07 493.033 377.276 492.622 374.553C492.412 373.182 492.229 372.085 492.092 371.326C491.998 370.934 491.946 370.532 491.936 370.129C492.095 370.498 492.212 370.885 492.284 371.281C492.476 372.03 492.713 373.109 492.969 374.489C493.49 377.231 494.011 380.996 494.45 385.201C494.889 389.405 495.245 393.079 495.528 395.94C495.665 397.229 495.784 398.317 495.885 399.194C495.944 399.59 495.968 399.991 495.958 400.391Z" fill="#E0E0E0"/>
<path d="M531.321 393.783C530.858 393.883 530.386 393.941 529.913 393.957C528.999 394.03 527.692 394.14 526.074 394.332C522.83 394.679 518.378 395.319 513.488 396.242C508.599 397.165 504.211 398.198 501.058 399.039C499.486 399.441 498.215 399.807 497.338 400.053C496.891 400.215 496.429 400.328 495.958 400.391C496.38 400.176 496.82 399.998 497.274 399.861C498.188 399.56 499.395 399.139 500.93 398.691C504.065 397.777 508.452 396.671 513.36 395.739C517.541 394.935 521.76 394.346 526.001 393.975C527.628 393.829 528.953 393.774 529.867 393.756C530.351 393.715 530.838 393.724 531.321 393.783Z" fill="#E0E0E0"/>
<path d="M480.548 439.693C480.548 439.693 480.447 439.556 480.31 439.264L479.698 437.984C479.177 436.869 478.473 435.242 477.614 433.213C475.914 429.164 473.729 423.488 471.408 417.2C469.086 410.912 466.957 405.227 465.339 401.141L463.438 396.315C463.228 395.785 463.054 395.355 462.917 394.999C462.846 394.848 462.797 394.688 462.771 394.524C462.871 394.654 462.951 394.799 463.008 394.953L463.621 396.233C464.132 397.348 464.845 398.975 465.695 401.004C467.405 405.062 469.589 410.729 471.911 417.017C474.232 423.305 476.353 429 477.98 433.076L479.908 437.902C480.118 438.432 480.283 438.871 480.429 439.227C480.488 439.377 480.528 439.534 480.548 439.693Z" fill="#E0E0E0"/>
<path d="M527.546 424.548C527.4 424.635 527.243 424.699 527.08 424.74L525.718 425.197L520.682 426.833C516.431 428.204 510.582 430.179 504.129 432.363C497.676 434.548 491.799 436.467 487.522 437.765C485.374 438.405 483.646 438.917 482.44 439.236L481.041 439.602C480.883 439.659 480.716 439.69 480.548 439.693C480.694 439.609 480.851 439.545 481.014 439.502L482.376 439.045L487.412 437.418C491.662 436.037 497.466 434.063 503.965 431.879C510.463 429.694 516.294 427.775 520.572 426.486C522.72 425.837 524.456 425.335 525.663 425.005L527.052 424.64C527.212 424.588 527.378 424.558 527.546 424.548Z" fill="#E0E0E0"/>
<path d="M550.633 380.868C550.496 380.7 550.373 380.519 550.268 380.329L549.354 378.858C548.586 377.596 547.526 375.823 546.246 373.694L546.529 373.767L539.3 377.998C539.3 378.062 539.464 377.377 539.382 377.669V377.733L539.455 377.852L539.592 378.108L539.885 378.602L540.442 379.571L541.521 381.453L543.486 384.899L543.203 384.826C545.36 383.61 547.178 382.605 548.476 381.901L550.003 381.088C550.187 380.973 550.383 380.878 550.588 380.804C550.44 380.921 550.284 381.028 550.121 381.124L548.687 382.038C547.443 382.806 545.625 383.912 543.413 385.21L543.23 385.31L543.129 385.137C542.508 384.077 541.832 382.925 541.128 381.709L540.031 379.836L539.473 378.867L539.181 378.373L539.044 378.117L538.971 377.998V377.934C538.898 378.227 539.08 377.541 539.062 377.615L546.374 373.438L546.548 373.337L546.648 373.511C547.919 375.741 548.942 377.615 549.637 378.894C549.957 379.488 550.222 379.973 550.432 380.384C550.517 380.537 550.585 380.7 550.633 380.868Z" fill="#E0E0E0"/>
<path d="M275.023 135.951L266.185 135.999L266.423 179.98L275.261 179.932L275.023 135.951Z" fill="#E0E0E0"/>
<path d="M212.498 136.061L189.602 136.185L189.734 160.47L212.629 160.346L212.498 136.061Z" fill="#EBEBEB"/>
<path d="M235.274 135.938L212.378 136.062L212.51 160.347L235.405 160.223L235.274 135.938Z" fill="#F5F5F5"/>
<path d="M189.64 142.899C204.849 143.027 220.104 142.899 235.34 142.689C235.396 142.678 235.447 142.648 235.483 142.604C235.52 142.56 235.539 142.504 235.539 142.447C235.539 142.39 235.52 142.334 235.483 142.29C235.447 142.246 235.396 142.216 235.34 142.205C220.131 142.122 204.876 142.205 189.64 142.479C189.584 142.479 189.531 142.501 189.491 142.541C189.452 142.58 189.43 142.633 189.43 142.689C189.43 142.745 189.452 142.798 189.491 142.838C189.531 142.877 189.584 142.899 189.64 142.899Z" fill="#E0E0E0"/>
<path d="M216.923 159.938L175.337 160.163L175.444 179.951L217.03 179.726L216.923 159.938Z" fill="#EBEBEB"/>
<path d="M258.316 159.714L216.73 159.939L216.837 179.727L258.423 179.502L258.316 159.714Z" fill="#F5F5F5"/>
<path d="M175.354 165.658C202.984 165.969 230.715 165.658 258.336 165.247C258.392 165.236 258.443 165.206 258.479 165.161C258.516 165.117 258.536 165.062 258.536 165.004C258.536 164.947 258.516 164.892 258.479 164.848C258.443 164.803 258.392 164.773 258.336 164.762C230.706 164.616 202.975 164.634 175.354 165.238C175.298 165.238 175.245 165.26 175.205 165.299C175.166 165.339 175.144 165.392 175.144 165.448C175.144 165.504 175.166 165.557 175.205 165.596C175.245 165.636 175.298 165.658 175.354 165.658Z" fill="#E0E0E0"/>
<path d="M320.936 179.962H159.807V187.055H320.936V179.962Z" fill="#E0E0E0"/>
<path d="M192.729 183.371H186.185V207.565H192.729V183.371Z" fill="#E0E0E0"/>
<path d="M290.372 183.371H283.828V207.565H290.372V183.371Z" fill="#E0E0E0"/>
<path d="M283.654 119.544L274.815 119.592L275.143 180.089L283.981 180.041L283.654 119.544Z" fill="#EBEBEB"/>
<path d="M297.461 130.812L283.724 130.886L283.989 179.913L297.726 179.838L297.461 130.812Z" fill="#F5F5F5"/>
<path d="M297.364 140.258C295.084 140.499 292.791 140.578 290.5 140.496C288.206 140.578 285.909 140.499 283.627 140.258C285.91 140.023 288.206 139.943 290.5 140.02C292.791 139.943 295.084 140.023 297.364 140.258Z" fill="#E0E0E0"/>
<path d="M297.364 138.238C295.084 138.473 292.791 138.553 290.5 138.476C288.206 138.552 285.91 138.473 283.627 138.238C285.909 137.997 288.206 137.918 290.5 138C292.791 137.918 295.084 137.997 297.364 138.238Z" fill="#E0E0E0"/>
<path d="M297.364 172.458C295.085 172.705 292.791 172.787 290.5 172.705C288.206 172.787 285.909 172.705 283.627 172.458C285.91 172.223 288.206 172.144 290.5 172.221C292.791 172.144 295.084 172.223 297.364 172.458Z" fill="#E0E0E0"/>
<path d="M297.364 170.402C295.084 170.642 292.791 170.722 290.5 170.639C288.206 170.722 285.909 170.642 283.627 170.402C285.91 170.167 288.206 170.087 290.5 170.164C292.791 170.087 295.084 170.166 297.364 170.402Z" fill="#E0E0E0"/>
<path d="M290.692 165.914C290.564 165.914 290.454 160.96 290.454 154.864C290.454 148.767 290.564 143.813 290.692 143.813C290.82 143.813 290.929 148.758 290.929 154.864C290.929 160.969 290.847 165.914 290.692 165.914Z" fill="#E0E0E0"/>
<path d="M312.463 142.854H297.51V179.862H312.463V142.854Z" fill="#EBEBEB"/>
<path d="M305.416 170.228C304.973 170.246 304.531 170.172 304.117 170.011C303.704 169.85 303.328 169.605 303.014 169.291C302.7 168.978 302.454 168.603 302.292 168.19C302.129 167.777 302.054 167.335 302.071 166.892C302.048 166.408 302.146 165.927 302.357 165.491C302.567 165.055 302.884 164.679 303.278 164.397L303.625 164.863C303.308 165.096 303.053 165.402 302.881 165.755C302.709 166.109 302.625 166.499 302.638 166.892C302.638 167.628 302.93 168.333 303.45 168.853C303.97 169.374 304.676 169.666 305.412 169.666C306.147 169.666 306.853 169.374 307.373 168.853C307.893 168.333 308.186 167.628 308.186 166.892C308.201 166.499 308.118 166.108 307.946 165.754C307.774 165.4 307.517 165.094 307.199 164.863L307.546 164.397C307.938 164.68 308.253 165.057 308.463 165.492C308.674 165.928 308.773 166.409 308.752 166.892C308.769 167.334 308.694 167.776 308.532 168.188C308.371 168.6 308.126 168.975 307.812 169.288C307.499 169.601 307.125 169.846 306.712 170.008C306.3 170.17 305.859 170.245 305.416 170.228Z" fill="#FAFAFA"/>
<path d="M307.912 163.519L307.4 163.227C307.923 162.549 308.203 161.715 308.195 160.859C308.195 159.47 307.71 158.913 306.961 158.913C305.051 158.913 306.458 163.282 303.872 163.282C302.875 163.282 302.044 162.45 302.044 160.777C302.032 159.981 302.254 159.199 302.683 158.529L303.195 158.812C302.794 159.394 302.586 160.088 302.601 160.796C302.601 162.084 303.131 162.624 303.835 162.624C305.809 162.624 304.411 158.255 306.924 158.255C307.994 158.255 308.752 159.169 308.752 160.85C308.787 161.81 308.49 162.753 307.912 163.519Z" fill="#FAFAFA"/>
<path d="M307.912 157.496L307.4 157.203C307.924 156.523 308.204 155.686 308.195 154.827C308.195 153.447 307.71 152.889 306.961 152.889C305.051 152.889 306.458 157.249 303.872 157.249C302.875 157.249 302.044 156.417 302.044 154.754C302.033 153.955 302.255 153.171 302.683 152.496L303.195 152.789C302.792 153.37 302.584 154.065 302.601 154.772C302.601 156.052 303.131 156.6 303.835 156.6C305.809 156.6 304.411 152.24 306.924 152.24C307.994 152.24 308.752 153.154 308.752 154.836C308.785 155.793 308.488 156.732 307.912 157.496Z" fill="#FAFAFA"/>
<path d="M279.093 132.425C280.496 132.425 281.634 131.287 281.634 129.884C281.634 128.481 280.496 127.343 279.093 127.343C277.69 127.343 276.552 128.481 276.552 129.884C276.552 131.287 277.69 132.425 279.093 132.425Z" fill="#E0E0E0"/>
<path d="M279.879 136.867H278.307V172.851H279.879V136.867Z" fill="#E0E0E0"/>
<path d="M478.5 348.668C480.591 346.231 482.806 343.903 485.136 341.694C487.348 339.367 489.676 337.152 492.11 335.059C492.201 335.15 489.231 338.276 485.465 342.033C481.699 345.789 478.592 348.76 478.5 348.668Z" fill="#E0E0E0"/>
<path d="M492.11 348.668C489.676 346.575 487.348 344.36 485.136 342.033C482.806 339.824 480.591 337.496 478.5 335.059C478.592 334.967 481.709 337.938 485.474 341.694C489.24 345.451 492.201 348.577 492.11 348.668Z" fill="#E0E0E0"/>
<path d="M354.014 274.854C356.107 272.419 358.322 270.091 360.649 267.88C362.858 265.549 365.186 263.335 367.623 261.244C367.715 261.336 364.744 264.452 360.988 268.218C357.231 271.984 354.105 274.945 354.014 274.854Z" fill="#E0E0E0"/>
<path d="M367.623 274.854C367.532 274.945 364.406 271.974 360.649 268.218C358.322 266.006 356.107 263.679 354.014 261.244C356.448 263.337 358.776 265.552 360.988 267.88C364.726 271.682 367.715 274.762 367.623 274.854Z" fill="#E0E0E0"/>
<path d="M335.35 155.732C334.89 153.009 334.584 150.263 334.436 147.506C334.117 144.775 333.956 142.029 333.951 139.28C334.43 142.001 334.75 144.748 334.911 147.506C335.217 150.237 335.364 152.984 335.35 155.732Z" fill="#E0E0E0"/>
<path d="M342.881 146.766C340.159 147.227 337.412 147.532 334.655 147.68C331.924 147.992 329.178 148.154 326.429 148.164C329.15 147.68 331.896 147.36 334.655 147.204C337.386 146.898 340.133 146.752 342.881 146.766Z" fill="#E0E0E0"/>
<path d="M259.04 246.09C258.973 246.011 258.915 245.925 258.866 245.834L258.418 245.103L256.764 242.361L251.033 232.654L251.317 232.727L237.789 240.606C237.789 240.679 237.954 239.994 237.872 240.286V240.341L237.945 240.46L238.073 240.688L238.347 241.154L238.877 242.068C239.224 242.678 239.572 243.287 239.919 243.896L241.93 247.406L245.586 253.804L245.303 253.722L255.119 248.174L257.925 246.62L258.674 246.218L258.958 246.081C258.665 246.294 258.36 246.489 258.044 246.666L255.302 248.284L245.476 254.078L245.293 254.188L245.193 254.005L241.482 247.607L239.453 244.107C239.106 243.497 238.758 242.888 238.411 242.279L237.872 241.365L237.607 240.898L237.479 240.67L237.406 240.551V240.496C237.332 240.78 237.515 240.094 237.497 240.167L251.116 232.38L251.289 232.279L251.39 232.453L257.011 242.434L258.537 245.176C258.72 245.472 258.887 245.777 259.04 246.09Z" fill="#E0E0E0"/>
<path d="M558.402 334.136C558.402 334.136 558.284 333.825 557.991 333.34C557.563 332.649 556.922 332.116 556.163 331.823C555.622 331.612 555.037 331.537 554.46 331.606C553.882 331.674 553.331 331.884 552.854 332.216C552.449 332.503 552.11 332.874 551.861 333.304C551.611 333.733 551.456 334.211 551.407 334.705C551.358 335.199 551.415 335.698 551.575 336.168C551.735 336.639 551.994 337.069 552.334 337.431C552.675 337.792 553.089 338.077 553.549 338.265C554.008 338.453 554.503 338.54 554.999 338.52C555.496 338.501 555.982 338.375 556.426 338.152C556.869 337.928 557.26 337.612 557.571 337.225C558.078 336.604 558.367 335.833 558.393 335.031C558.393 334.456 558.329 334.117 558.393 334.117C558.549 334.396 558.621 334.713 558.603 335.031C558.647 335.892 558.384 336.74 557.863 337.426C557.473 337.943 556.958 338.352 556.367 338.616C555.775 338.88 555.127 338.989 554.481 338.934C553.684 338.861 552.928 338.544 552.318 338.025C551.707 337.507 551.272 336.812 551.072 336.036C550.872 335.261 550.917 334.442 551.2 333.693C551.483 332.944 551.99 332.3 552.653 331.851C553.186 331.493 553.8 331.275 554.438 331.216C555.077 331.157 555.72 331.259 556.309 331.512C557.105 331.856 557.753 332.472 558.137 333.249C558.307 333.514 558.399 333.821 558.402 334.136Z" fill="#E0E0E0"/>
<path d="M387.576 116.594C387.53 116.594 387.448 116.284 387.155 115.799C386.732 115.104 386.089 114.57 385.327 114.282C384.786 114.072 384.201 113.997 383.624 114.066C383.047 114.134 382.496 114.344 382.019 114.675C381.613 114.962 381.275 115.333 381.025 115.762C380.775 116.192 380.62 116.67 380.571 117.164C380.522 117.658 380.579 118.157 380.739 118.627C380.899 119.098 381.158 119.528 381.499 119.89C381.839 120.251 382.253 120.536 382.713 120.724C383.173 120.911 383.667 120.999 384.164 120.979C384.66 120.96 385.146 120.834 385.59 120.61C386.033 120.387 386.424 120.071 386.735 119.684C387.242 119.063 387.531 118.292 387.557 117.49C387.557 116.914 387.493 116.576 387.557 116.576C387.702 116.859 387.774 117.173 387.768 117.49C387.808 118.352 387.543 119.2 387.018 119.885C386.628 120.402 386.113 120.811 385.522 121.075C384.93 121.339 384.282 121.448 383.636 121.393C382.839 121.32 382.083 121.003 381.473 120.484C380.862 119.965 380.427 119.271 380.227 118.495C380.027 117.72 380.072 116.901 380.355 116.152C380.638 115.402 381.145 114.759 381.808 114.309C382.341 113.952 382.955 113.734 383.593 113.675C384.232 113.616 384.875 113.718 385.464 113.971C386.26 114.315 386.908 114.931 387.292 115.708C387.458 115.976 387.555 116.28 387.576 116.594Z" fill="#E0E0E0"/>
<path d="M217.572 221.202C217.572 221.202 217.444 220.891 217.151 220.407C216.728 219.711 216.085 219.178 215.323 218.889C214.782 218.678 214.197 218.603 213.62 218.672C213.043 218.74 212.491 218.95 212.015 219.282C211.434 219.687 210.991 220.26 210.746 220.924C210.501 221.588 210.465 222.311 210.643 222.996C210.822 223.681 211.205 224.295 211.743 224.755C212.281 225.216 212.946 225.5 213.651 225.571C214.23 225.627 214.814 225.54 215.351 225.317C215.888 225.094 216.362 224.741 216.731 224.291C217.233 223.667 217.521 222.898 217.553 222.097C217.553 221.531 217.48 221.183 217.553 221.183C217.698 221.466 217.77 221.78 217.764 222.097C217.809 222.961 217.547 223.813 217.023 224.501C216.634 225.01 216.122 225.413 215.536 225.672C214.95 225.93 214.307 226.037 213.669 225.982C212.871 225.912 212.114 225.597 211.502 225.079C210.891 224.561 210.455 223.867 210.255 223.091C210.054 222.315 210.099 221.496 210.383 220.747C210.667 219.998 211.177 219.355 211.841 218.908C212.373 218.55 212.987 218.332 213.625 218.271C214.263 218.21 214.907 218.31 215.497 218.56C216.289 218.909 216.936 219.523 217.325 220.297C217.48 220.574 217.564 220.885 217.572 221.202Z" fill="#E0E0E0"/>
<path d="M542.7 206.587C542.645 206.587 542.499 205.92 541.896 204.85C541.17 203.576 540.098 202.534 538.803 201.845C537.509 201.155 536.046 200.848 534.584 200.957C533.227 201.063 531.924 201.53 530.809 202.309C530.201 202.72 529.662 203.222 529.209 203.799C528.731 204.392 528.345 205.055 528.067 205.764C527.469 207.264 527.366 208.916 527.774 210.478C528.182 212.04 529.079 213.431 530.333 214.447C530.92 214.935 531.58 215.327 532.289 215.608C532.967 215.885 533.681 216.061 534.41 216.129C535.766 216.259 537.132 216.026 538.367 215.453C539.44 214.954 540.38 214.209 541.109 213.277C542.194 211.918 542.792 210.236 542.81 208.497C542.81 207.263 542.599 206.596 542.663 206.587C542.726 206.744 542.775 206.906 542.81 207.071C542.923 207.539 542.987 208.017 543.001 208.497C543.038 210.019 542.633 211.519 541.837 212.816C541.041 214.113 539.887 215.152 538.514 215.809C537.217 216.43 535.777 216.689 534.346 216.559C533.574 216.498 532.816 216.319 532.097 216.029C531.34 215.739 530.635 215.325 530.014 214.804C528.677 213.729 527.722 212.254 527.289 210.594C526.856 208.935 526.969 207.181 527.61 205.591C527.901 204.836 528.315 204.135 528.834 203.516C529.316 202.907 529.89 202.376 530.535 201.944C531.64 201.184 532.919 200.717 534.254 200.586C535.589 200.455 536.935 200.664 538.166 201.194C539.825 201.901 541.188 203.161 542.024 204.759C542.251 205.182 542.429 205.63 542.554 206.093C542.615 206.254 542.664 206.419 542.7 206.587Z" fill="#E0E0E0"/>
<path d="M518.077 322.29C517.903 322.019 517.744 321.738 517.601 321.449L516.24 318.936C515.079 316.77 513.397 313.653 511.496 309.988L511.313 309.631H511.715L518.488 310.052L525.517 310.518H525.901L525.69 310.838C523.478 314.247 521.55 317.135 520.206 319.137L518.643 321.458C518.473 321.728 518.287 321.988 518.086 322.235C518.086 322.235 518.278 321.888 518.634 321.321C518.991 320.755 519.548 319.877 520.142 318.881C521.422 316.806 523.204 313.927 525.325 310.6L525.498 310.947L518.47 310.509L511.688 310.061L511.907 309.732C513.735 313.306 515.234 316.395 516.331 318.625C516.861 319.694 517.291 320.572 517.62 321.248C517.949 321.925 518.077 322.272 518.077 322.29Z" fill="#E0E0E0"/>
<path d="M454.343 149.7C454.343 149.7 454.179 149.425 453.859 148.85L452.47 146.345C451.309 144.179 449.627 141.053 447.726 137.388L447.543 137.041H447.936L454.718 137.47L461.747 137.936H462.131L461.921 138.256C459.709 141.656 457.771 144.545 456.437 146.546L454.874 148.877C454.704 149.147 454.517 149.406 454.316 149.654C454.316 149.654 454.508 149.307 454.864 148.74L456.363 146.299C457.652 144.225 459.425 141.355 461.555 138.073L461.729 138.421L454.7 137.982L447.918 137.525L448.137 137.205C449.965 140.77 451.464 143.859 452.561 146.089C453.085 147.168 453.515 148.045 453.85 148.722C454.179 149.325 454.343 149.672 454.343 149.7Z" fill="#E0E0E0"/>
<path d="M343.795 353.558C343.947 353.273 344.118 352.998 344.307 352.736L345.879 350.359C347.223 348.312 349.169 345.35 351.509 341.923L351.692 341.649L351.875 341.923L356.235 348.321L359.626 353.384L359.872 353.741H359.443C354.873 353.741 350.879 353.659 348.118 353.613L344.901 353.549C344.161 353.549 343.768 353.549 343.795 353.549C343.823 353.549 344.252 353.549 345.029 353.503L348.319 353.448C351.116 353.403 354.973 353.33 359.443 353.321L359.251 353.677L355.842 348.623C354.306 346.347 352.844 344.162 351.509 342.161H351.875C349.581 345.469 347.588 348.266 346.144 350.286L344.444 352.662C344.042 353.238 343.813 353.549 343.795 353.558Z" fill="#E0E0E0"/>
<path d="M429.364 348.833C444.538 348.833 459.091 354.859 469.822 365.587C480.553 376.315 486.584 390.866 486.589 406.04V472.396H372.138V406.04C372.143 390.866 378.174 376.315 388.906 365.587C399.637 354.859 414.19 348.833 429.364 348.833Z" fill="#455A64"/>
<path d="M284.458 440.224L278.7 444.3L272.302 459.664C272.302 459.664 274.039 460.834 275.382 459.591C276.726 458.348 281.862 449.418 281.862 449.418V454.701C281.869 455.738 282.255 456.736 282.947 457.507C283.639 458.278 284.59 458.769 285.619 458.887L295.106 461.849L306.751 458.531L307.747 444.675L284.458 440.224Z" fill="#FFBE9D"/>
<path d="M387.914 338.066C385.062 337.243 383.664 333.98 383.408 331.028C383.152 328.076 383.636 325.023 382.832 322.171C382.256 320.142 381.05 318.278 380.894 316.176C380.73 313.909 381.808 311.724 381.881 309.458C381.964 306.286 380.053 303.343 380.053 300.171C379.99 295.784 380.776 288.536 385.163 288.783C389.55 289.03 396.579 296.716 396.021 301.067" fill="#263238"/>
<path d="M429.364 301.743L429.272 306.131L428.358 371.719C428.258 379.333 421.631 385.31 413.478 385.137C405.252 384.963 398.553 378.593 398.535 370.897C398.535 362.817 398.333 354.317 398.333 354.317C398.333 354.317 387.932 352.589 385.775 339.016C384.706 332.271 385.044 321.203 385.611 312.154C385.732 310.224 386.242 308.338 387.111 306.61C387.98 304.883 389.189 303.348 390.667 302.1C392.144 300.852 393.858 299.915 395.707 299.346C397.555 298.778 399.499 298.589 401.423 298.791L429.364 301.743Z" fill="#FFBE9D"/>
<path d="M388.426 319.859C388.423 320.314 388.597 320.751 388.91 321.081C389.224 321.41 389.653 321.604 390.107 321.623C390.332 321.646 390.558 321.622 390.774 321.555C390.989 321.487 391.188 321.376 391.359 321.229C391.53 321.082 391.669 320.902 391.768 320.699C391.867 320.497 391.924 320.276 391.935 320.051C391.939 319.823 391.898 319.597 391.814 319.386C391.73 319.174 391.605 318.981 391.446 318.818C391.287 318.655 391.097 318.525 390.888 318.435C390.679 318.346 390.454 318.298 390.226 318.296C390.005 318.277 389.782 318.303 389.571 318.372C389.359 318.441 389.164 318.552 388.996 318.697C388.828 318.843 388.691 319.021 388.593 319.22C388.495 319.42 388.438 319.637 388.426 319.859Z" fill="#263238"/>
<path d="M388.051 317.912C388.261 318.141 389.587 317.163 391.46 317.172C393.334 317.181 394.705 318.086 394.906 317.885C395.107 317.684 394.787 317.373 394.184 316.971C393.377 316.416 392.421 316.119 391.442 316.121C390.453 316.121 389.491 316.441 388.7 317.035C388.142 317.382 387.941 317.812 388.051 317.912Z" fill="#263238"/>
<path d="M407.181 319.859C407.174 320.313 407.345 320.753 407.657 321.082C407.97 321.412 408.399 321.606 408.854 321.623C409.078 321.643 409.303 321.618 409.517 321.549C409.731 321.48 409.929 321.369 410.1 321.223C410.27 321.076 410.409 320.897 410.509 320.696C410.609 320.495 410.668 320.275 410.682 320.051C410.687 319.597 410.513 319.158 410.199 318.83C409.885 318.502 409.454 318.31 409 318.296C408.777 318.273 408.551 318.296 408.337 318.364C408.123 318.431 407.925 318.541 407.755 318.687C407.585 318.833 407.446 319.013 407.348 319.214C407.249 319.416 407.192 319.635 407.181 319.859Z" fill="#263238"/>
<path d="M406.459 318.296C406.678 318.524 407.995 317.556 409.868 317.556C411.742 317.556 413.113 318.47 413.323 318.269C413.533 318.067 413.204 317.757 412.601 317.355C411.793 316.802 410.838 316.506 409.859 316.505C408.871 316.508 407.91 316.828 407.117 317.419C406.55 317.748 406.358 318.159 406.459 318.296Z" fill="#263238"/>
<path d="M399.668 332.152C398.678 331.851 397.657 331.667 396.624 331.604C396.14 331.558 395.71 331.458 395.61 331.138C395.572 330.644 395.683 330.15 395.93 329.721L397.346 326.065C399.312 320.883 400.728 316.614 400.518 316.541C400.308 316.468 398.553 320.599 396.588 325.791C396.112 327.07 395.674 328.286 395.226 329.447C394.942 330.012 394.855 330.655 394.979 331.275C395.049 331.442 395.157 331.592 395.293 331.712C395.429 331.832 395.59 331.92 395.765 331.969C396.03 332.044 396.303 332.084 396.579 332.088C397.601 332.243 398.64 332.264 399.668 332.152Z" fill="#263238"/>
<path d="M398.37 354.317C404.762 354.417 411.055 352.74 416.55 349.473C416.55 349.473 412.135 358.795 398.553 357.525L398.37 354.317Z" fill="#EB996E"/>
<path d="M400.454 336.667C400.811 336.22 401.276 335.87 401.805 335.651C402.334 335.432 402.91 335.351 403.479 335.415C403.893 335.452 404.295 335.573 404.661 335.769C405.027 335.965 405.349 336.234 405.609 336.558C405.859 336.869 406.008 337.251 406.034 337.65C406.06 338.049 405.963 338.446 405.755 338.788C405.456 339.125 405.063 339.365 404.626 339.475C404.189 339.586 403.729 339.563 403.306 339.409C402.421 339.096 401.608 338.612 400.911 337.984C400.698 337.833 400.515 337.644 400.372 337.426C400.303 337.323 400.266 337.202 400.266 337.079C400.266 336.955 400.303 336.834 400.372 336.731" fill="#EB996E"/>
<path d="M405.179 333.45C404.869 333.45 404.869 335.47 403.132 336.905C401.395 338.34 399.22 338.13 399.211 338.413C399.211 338.541 399.686 338.806 400.6 338.834C401.794 338.85 402.956 338.446 403.882 337.691C404.766 336.968 405.333 335.929 405.463 334.794C405.545 333.944 405.316 333.441 405.179 333.45Z" fill="#263238"/>
<path d="M405.975 310.92C406.166 311.432 408.031 311.194 410.234 311.459C412.437 311.724 414.21 312.318 414.493 311.861C414.63 311.642 414.319 311.167 413.579 310.673C412.623 310.069 411.541 309.691 410.417 309.567C409.292 309.443 408.154 309.578 407.09 309.96C406.304 310.28 405.901 310.682 405.975 310.92Z" fill="#263238"/>
<path d="M388.737 312.492C389.066 312.922 390.354 312.492 391.908 312.492C393.462 312.492 394.778 312.775 395.08 312.337C395.208 312.117 395.007 311.688 394.431 311.286C393.663 310.795 392.763 310.552 391.853 310.591C390.94 310.606 390.055 310.907 389.321 311.45C388.773 311.843 388.59 312.282 388.737 312.492Z" fill="#263238"/>
<path d="M434.363 297.576C437.188 289.907 448.942 278.382 457.981 283.5C467.88 289.13 464.379 293.042 467.953 295.638C468.803 296.25 472.825 294.916 473.382 295.812C474.854 298.179 473.601 301.241 472.349 303.727C472.662 303.682 472.968 303.602 473.263 303.489C473.519 303.389 473.795 303.354 474.068 303.387C474.34 303.42 474.6 303.521 474.824 303.679C475.048 303.838 475.229 304.05 475.351 304.296C475.472 304.542 475.531 304.814 475.521 305.089C475.351 308.129 474.286 311.052 472.459 313.488C473.079 313.633 473.722 313.654 474.351 313.552C474.551 313.52 474.757 313.541 474.947 313.612C475.137 313.683 475.305 313.802 475.435 313.958C475.565 314.114 475.652 314.301 475.688 314.5C475.724 314.7 475.707 314.906 475.64 315.097C475.083 316.557 474.167 317.853 472.977 318.866C471.787 319.879 470.361 320.575 468.83 320.892C465.056 321.669 461.071 320.298 457.99 317.985C454.91 315.673 452.589 312.501 450.505 309.238C449.289 307.365 448.092 305.39 446.282 304.074C444.472 302.758 441.867 302.246 440.012 303.489" fill="#263238"/>
<path d="M439.994 303.197C439.994 303.197 439.994 303.05 439.994 302.84C439.966 302.526 439.888 302.217 439.765 301.926C439.373 300.963 438.88 300.044 438.294 299.184C437.729 298.292 437.083 297.454 436.365 296.68C435.817 296.095 435.405 295.766 435.451 295.766C435.889 295.897 436.286 296.14 436.603 296.47C437.406 297.203 438.11 298.039 438.696 298.956C439.308 299.859 439.777 300.852 440.085 301.899C440.188 302.226 440.223 302.572 440.186 302.913C440.122 303.096 440.012 303.215 439.994 303.197Z" fill="#FF725E"/>
<path d="M462.944 324.237C462.944 324.237 462.844 324.338 462.615 324.484C462.288 324.705 461.939 324.892 461.573 325.041C460.219 325.591 458.746 325.786 457.296 325.608C455.115 325.364 453.1 324.33 451.629 322.701C450.788 321.715 450.165 320.563 449.801 319.32C449.426 318.006 449.203 316.653 449.134 315.289C448.96 312.547 449.07 309.869 448.576 307.547C448.363 306.451 447.984 305.394 447.452 304.412C446.969 303.576 446.323 302.845 445.551 302.264C444.453 301.372 443.071 300.905 441.657 300.948C441.143 301.012 440.636 301.119 440.14 301.268C440.248 301.184 440.368 301.116 440.496 301.067C440.861 300.912 441.246 300.808 441.639 300.756C443.115 300.645 444.581 301.084 445.752 301.99C446.577 302.586 447.271 303.345 447.79 304.22C448.362 305.229 448.772 306.321 449.006 307.456C449.536 309.842 449.435 312.52 449.609 315.262C449.677 316.591 449.892 317.909 450.249 319.192C450.584 320.372 451.16 321.47 451.94 322.418C453.117 323.717 454.649 324.642 456.347 325.077C458.045 325.513 459.834 325.44 461.491 324.868C462.451 324.52 462.917 324.191 462.944 324.237Z" fill="#263238"/>
<path d="M472.066 287.339C472.176 287.497 472.265 287.669 472.331 287.851C472.533 288.371 472.651 288.92 472.678 289.478C472.733 290.364 472.586 291.252 472.249 292.073C471.814 293.186 471.028 294.126 470.009 294.751C468.753 295.479 467.272 295.717 465.851 295.419C465.033 295.263 464.259 294.93 463.584 294.442C462.91 293.954 462.351 293.323 461.948 292.594C461.141 290.991 460.61 289.264 460.376 287.485C460.01 285.703 459.663 283.774 458.456 282.321C457.863 281.614 457.064 281.11 456.171 280.877C455.297 280.661 454.384 280.645 453.503 280.831C451.801 281.214 450.184 281.905 448.732 282.869C446.186 284.426 443.809 286.242 441.639 288.289C440.177 289.671 438.807 291.146 437.535 292.704L436.511 293.993C436.408 294.156 436.282 294.304 436.137 294.431C436.22 294.257 436.321 294.092 436.438 293.938C436.639 293.618 436.968 293.17 437.352 292.594C438.571 290.968 439.916 289.44 441.374 288.024C443.525 285.922 445.901 284.062 448.457 282.476C449.953 281.475 451.62 280.757 453.375 280.356C454.328 280.147 455.317 280.163 456.263 280.402C457.279 280.651 458.19 281.214 458.868 282.01C460.184 283.61 460.522 285.62 460.879 287.394C461.096 289.125 461.6 290.808 462.368 292.375C462.737 293.055 463.251 293.646 463.873 294.105C464.496 294.565 465.211 294.882 465.97 295.035C467.3 295.324 468.691 295.119 469.881 294.459C470.851 293.883 471.61 293.012 472.048 291.973C472.389 291.189 472.557 290.341 472.541 289.487C472.495 288.75 472.335 288.026 472.066 287.339Z" fill="#263238"/>
<path d="M437.736 284.112C438.186 284.526 438.528 285.044 438.732 285.621C439.338 286.989 439.526 288.506 439.272 289.981C439.018 291.456 438.334 292.823 437.307 293.91C436.921 294.387 436.425 294.764 435.862 295.007C435.817 294.943 436.374 294.532 437.06 293.691C437.959 292.6 438.557 291.294 438.796 289.901C439.035 288.508 438.906 287.076 438.422 285.748C438.056 284.725 437.663 284.149 437.736 284.112Z" fill="#263238"/>
<path d="M439.089 300.985C438.05 298.365 436.382 296.041 434.231 294.219C432.081 292.396 429.514 291.132 426.759 290.538C423.389 289.907 419.905 290.378 416.824 291.881C415.689 291.149 414.654 290.273 413.744 289.277C410.523 286.029 406.528 283.654 402.136 282.376C397.713 281.116 392.986 281.483 388.81 283.409C386.748 284.386 384.936 285.819 383.51 287.601C382.085 289.382 381.084 291.465 380.584 293.691C380.128 295.928 380.3 298.248 381.081 300.393C381.862 302.539 383.221 304.426 385.007 305.847C388.663 308.589 394.147 308.653 397.666 305.756C397.42 307.758 399.174 309.613 401.158 309.988C402.16 310.112 403.178 310.031 404.147 309.748C405.117 309.465 406.019 308.987 406.797 308.343C408.344 307.055 409.798 305.659 411.148 304.166C411.687 303.645 412.245 303.142 412.811 302.657C413.877 304.962 415.464 306.988 417.446 308.574C419.429 310.16 421.754 311.264 424.236 311.797C422.664 313.507 422.801 316.185 423.45 318.415C424.099 320.645 425.15 322.82 425.105 325.142C425.105 327.098 424.236 328.935 423.862 330.854C423.352 333.543 423.741 336.324 424.967 338.77C425.434 339.684 426.009 341.018 426.53 341.923C427.444 343.55 427.444 343.55 428.797 343.961C431.594 344.829 436.42 334.675 437.663 330.644C438.705 327.281 439.107 321.248 440.323 317.949C442.461 312.026 441.136 306.213 439.089 300.985Z" fill="#263238"/>
<path d="M440.972 313.726C440.922 313.835 440.857 313.936 440.78 314.028C440.567 314.295 440.306 314.521 440.012 314.695C439.461 315.017 438.839 315.198 438.201 315.222C437.563 315.246 436.929 315.112 436.356 314.832C435.966 314.64 435.619 314.373 435.332 314.046C435.041 313.691 434.801 313.297 434.619 312.876C434.293 311.971 433.876 311.102 433.376 310.28C433.052 309.883 432.653 309.554 432.201 309.313C431.749 309.071 431.254 308.922 430.744 308.873C429.603 308.748 428.455 308.7 427.307 308.726C426.129 308.702 424.957 308.54 423.816 308.242C422.76 307.946 421.737 307.541 420.763 307.036C419.119 306.175 417.648 305.019 416.422 303.626C415.588 302.698 414.892 301.654 414.356 300.528C414.206 300.232 414.075 299.926 413.963 299.614C413.911 299.504 413.878 299.387 413.862 299.267C414.618 300.76 415.561 302.152 416.668 303.407C417.9 304.733 419.354 305.835 420.964 306.661C421.916 307.135 422.911 307.517 423.935 307.803C425.041 308.084 426.175 308.237 427.316 308.26C428.486 308.232 429.656 308.287 430.817 308.425C431.383 308.486 431.932 308.659 432.431 308.933C432.93 309.208 433.369 309.579 433.724 310.024C434.24 310.89 434.66 311.809 434.976 312.766C435.139 313.159 435.354 313.528 435.616 313.863C435.872 314.161 436.182 314.409 436.53 314.594C437.062 314.866 437.651 315.007 438.248 315.007C438.845 315.007 439.434 314.866 439.966 314.594C440.336 314.348 440.674 314.056 440.972 313.726Z" fill="#455A64"/>
<path d="M438.86 319.21C438.86 319.21 438.696 319.457 438.284 319.768C437.703 320.205 437.046 320.534 436.347 320.736C435.299 321.053 434.187 321.091 433.12 320.846C431.803 320.548 430.608 319.856 429.693 318.863C428.873 317.838 428.179 316.718 427.627 315.527C427.177 314.589 426.557 313.743 425.799 313.031C425.297 312.557 424.689 312.209 424.026 312.017C423.767 311.98 423.511 311.928 423.258 311.861C423.523 311.797 423.798 311.797 424.063 311.861C424.786 311.982 425.462 312.298 426.019 312.775C426.836 313.488 427.509 314.351 428.002 315.316C428.552 316.466 429.233 317.549 430.031 318.543C430.88 319.468 431.984 320.123 433.203 320.426C434.199 320.674 435.241 320.674 436.237 320.426C437.165 320.149 438.049 319.739 438.86 319.21Z" fill="#455A64"/>
<path d="M474.881 303.288C474.873 303.466 474.83 303.64 474.753 303.8C474.57 304.287 474.29 304.731 473.93 305.107C473.36 305.706 472.65 306.155 471.865 306.414C470.827 306.779 469.702 306.824 468.638 306.542C466.235 305.957 463.977 303.8 462.597 300.948C461.217 298.097 460.348 294.706 458.237 291.808C457.222 290.411 455.835 289.328 454.234 288.682C452.732 288.105 451.121 287.871 449.518 287.997C446.785 288.234 444.211 289.38 442.206 291.251C440.825 292.498 439.653 293.957 438.732 295.574C438.074 296.716 437.818 297.402 437.754 297.402C437.784 297.223 437.843 297.05 437.928 296.89C438.12 296.419 438.336 295.958 438.577 295.51C439.447 293.834 440.597 292.32 441.977 291.031C444.026 289.059 446.685 287.844 449.518 287.586C451.191 287.44 452.876 287.678 454.444 288.28C456.13 288.945 457.59 290.081 458.648 291.552C460.842 294.559 461.61 298.023 463.026 300.765C464.443 303.507 466.5 305.637 468.757 306.249C469.761 306.536 470.827 306.517 471.819 306.195C472.526 305.997 473.176 305.633 473.715 305.134C474.254 304.635 474.666 304.015 474.918 303.325L474.881 303.288Z" fill="#455A64"/>
<path d="M474.534 309.704C474.534 309.704 474.433 309.851 474.205 310.097C473.853 310.446 473.477 310.77 473.08 311.066C472.451 311.536 471.763 311.92 471.033 312.209C470.058 312.605 469.002 312.765 467.953 312.675C466.605 312.458 465.314 311.972 464.156 311.247C462.999 310.522 462 309.571 461.217 308.452C460.285 307.147 459.563 305.703 459.078 304.175C458.53 302.621 458.1 300.976 457.515 299.349C456.991 297.764 456.19 296.284 455.148 294.98C454.167 293.789 452.842 292.93 451.355 292.521C448.781 291.892 446.066 292.237 443.732 293.49C442.152 294.329 440.687 295.367 439.372 296.579L438.284 297.567C438.167 297.694 438.035 297.808 437.891 297.905C437.981 297.756 438.092 297.62 438.22 297.503C438.44 297.247 438.778 296.89 439.244 296.442C440.526 295.16 441.985 294.067 443.576 293.198C445.978 291.854 448.797 291.463 451.473 292.101C453.051 292.522 454.459 293.423 455.504 294.678C456.584 296.023 457.417 297.548 457.963 299.184C458.557 300.839 458.987 302.484 459.517 304.028C459.987 305.51 460.677 306.912 461.564 308.187C463.063 310.363 465.364 311.856 467.962 312.337C468.962 312.443 469.973 312.315 470.914 311.962C471.631 311.697 472.313 311.344 472.943 310.911C474.022 310.198 474.506 309.677 474.534 309.704Z" fill="#455A64"/>
<path d="M375.886 445.735L377.43 449.592L374.387 484.772H452.031L448.567 474.252L458.219 474.745C473.108 475.495 485.273 462.196 482.376 447.572C482.284 447.133 482.193 446.658 482.074 446.256C477.257 427.437 470.704 402.137 468.428 394.67C464.653 382.322 456.254 376.454 456.254 376.454H456.126C444.509 366.976 428.706 366.135 428.706 366.135L422.884 370.047C420.013 371.97 416.698 373.127 413.254 373.411C409.811 373.694 406.352 373.093 403.205 371.664C402.056 371.141 401.032 370.376 400.204 369.422C399.376 368.468 398.763 367.347 398.407 366.135C391.57 366.852 384.88 368.596 378.564 371.308C374.974 372.97 371.762 375.347 369.123 378.294C366.484 381.241 364.475 384.695 363.218 388.446L342.936 447.855L308.405 443.185L301.02 463.348L336.008 471.683C342.281 473.553 349.006 473.212 355.057 470.716C361.109 468.22 366.119 463.722 369.25 457.973L375.886 445.772V445.735ZM440.469 450.524C440.469 450.524 443.787 437.802 445.807 430.956L450.706 450.15L440.469 450.524Z" fill="#FF725E"/>
<path d="M466.874 474.946H466.472H465.302H460.732L443.631 475.01L384.121 475.093H383.92V474.864C384.221 467.607 384.55 459.993 384.879 452.133V451.914H385.099L407.208 451.219L450.706 449.912L450.496 450.195C448.869 444.263 447.543 438.487 446.264 432.976C444.984 427.464 443.842 422.181 442.717 417.209C442.181 414.723 441.654 412.31 441.136 409.97C440.571 407.724 440.156 405.443 439.893 403.143C439.698 401.014 439.698 398.873 439.893 396.745C440.055 394.786 440.41 392.848 440.953 390.959C441.846 387.712 443.639 384.784 446.127 382.514C448.008 380.856 450.328 379.777 452.808 379.406C454.347 379.158 455.921 379.245 457.424 379.662C457.807 379.773 458.183 379.911 458.548 380.073C458.795 380.174 458.913 380.238 458.913 380.238C458.913 380.238 458.411 380.009 457.405 379.735C455.912 379.351 454.355 379.285 452.835 379.543C450.393 379.94 448.116 381.028 446.273 382.678C443.836 384.932 442.084 387.828 441.218 391.032C440.692 392.908 440.349 394.83 440.195 396.772C439.996 398.9 439.996 401.042 440.195 403.17C440.463 405.456 440.884 407.722 441.456 409.952C441.977 412.283 442.507 414.696 443.065 417.182C444.189 422.154 445.386 427.418 446.638 432.93C447.891 438.441 449.262 444.218 450.898 450.131L450.971 450.406H450.687L407.236 451.74L385.117 452.435L385.346 452.206C385.007 460.067 384.678 467.68 384.368 474.937L384.139 474.7L443.65 474.791L460.751 474.855H465.321H466.491C466.62 474.878 466.748 474.909 466.874 474.946Z" fill="#263238"/>
<path d="M380.191 394.021C380.231 394.207 380.246 394.397 380.236 394.588C380.236 394.962 380.236 395.502 380.236 396.224C380.109 398.228 379.756 400.212 379.185 402.137C378.321 404.976 377.309 407.768 376.151 410.5C374.714 413.818 373.594 417.264 372.805 420.792C372.162 424.344 372.143 427.982 372.751 431.541C373.241 434.452 373.944 437.323 374.853 440.132C375.621 442.536 376.306 444.465 376.781 445.799L377.312 447.334C377.387 447.51 377.439 447.694 377.467 447.883C377.364 447.723 377.281 447.551 377.22 447.371C377.065 446.978 376.855 446.457 376.608 445.863C376.078 444.547 375.346 442.637 374.533 440.233C373.57 437.419 372.83 434.534 372.321 431.605C371.672 427.999 371.672 424.306 372.321 420.701C373.107 417.145 374.237 413.673 375.694 410.336C376.973 407.246 378.098 404.459 378.81 402.046C379.406 400.148 379.808 398.194 380.008 396.214C380.154 394.807 380.145 394.021 380.191 394.021Z" fill="#263238"/>
<path d="M450.706 450.159C451.226 449.972 451.782 449.9 452.333 449.949C453.665 449.982 454.975 450.294 456.181 450.863C457.418 451.395 458.479 452.266 459.243 453.376C459.584 453.817 459.79 454.347 459.837 454.902C459.754 454.902 459.562 454.336 458.968 453.568C458.17 452.579 457.145 451.798 455.98 451.292C454.823 450.768 453.588 450.437 452.324 450.314C451.781 450.299 451.241 450.247 450.706 450.159Z" fill="#263238"/>
<path d="M443.869 369.571C444.368 369.714 444.854 369.898 445.322 370.12C445.788 370.312 446.355 370.54 447.004 370.833L449.17 371.893C449.975 372.286 450.825 372.807 451.748 373.291C452.671 373.776 453.576 374.425 454.599 375.065C456.73 376.511 458.733 378.138 460.586 379.927C463.967 383.196 466.55 387.199 468.136 391.626C468.414 392.385 468.646 393.161 468.83 393.948C468.995 394.642 469.15 395.227 469.214 395.776C469.317 396.285 469.384 396.802 469.415 397.32C469.243 396.83 469.115 396.325 469.031 395.812C468.949 395.319 468.766 394.743 468.574 394.057C468.382 393.372 468.127 392.622 467.825 391.782C466.163 387.455 463.581 383.541 460.257 380.311C458.425 378.54 456.45 376.923 454.353 375.476C453.375 374.836 452.442 374.205 451.547 373.648C450.651 373.09 449.81 372.615 449.015 372.204L446.885 371.089L445.249 370.303C444.772 370.093 444.311 369.848 443.869 369.571Z" fill="#263238"/>
<g opacity="0.3">
<path opacity="0.3" d="M440.844 407.868C440.844 407.868 433.129 441.933 433.248 445.269C433.27 447.022 433.537 448.764 434.043 450.442L440.441 450.497L440.496 449.866L445.889 430.59L440.844 407.868Z" fill="black"/>
</g>
<path d="M398.452 406.15C398.452 406.205 397.639 406.524 396.341 407.484C394.534 408.863 393.161 410.731 392.383 412.868C391.864 414.332 391.649 415.887 391.753 417.438C391.852 419.221 392.378 420.955 393.288 422.492C394.279 424.196 395.697 425.614 397.401 426.605C398.292 427.138 399.256 427.538 400.262 427.793C401.296 428.067 402.364 428.19 403.434 428.159C404.503 428.133 405.564 427.961 406.587 427.647C407.574 427.323 408.516 426.878 409.393 426.322C411.627 424.854 413.28 422.656 414.071 420.103C414.861 417.55 414.739 414.801 413.725 412.328C412.846 410.23 411.38 408.431 409.503 407.146C408.168 406.232 407.3 405.967 407.327 405.912C407.539 405.97 407.747 406.043 407.949 406.131C408.527 406.369 409.084 406.657 409.612 406.991C411.27 408.057 412.632 409.523 413.573 411.255C414.514 412.987 415.003 414.928 414.996 416.898C414.978 418.748 414.534 420.568 413.698 422.218C412.763 424.043 411.371 425.596 409.658 426.724C408.747 427.308 407.768 427.777 406.742 428.122C405.674 428.446 404.568 428.625 403.452 428.652C401.248 428.709 399.072 428.145 397.173 427.025C395.403 425.989 393.934 424.508 392.914 422.73C391.455 420.21 390.988 417.237 391.603 414.391C392.218 411.545 393.871 409.03 396.24 407.338C396.752 406.987 397.294 406.681 397.858 406.424C398.05 406.32 398.249 406.229 398.452 406.15Z" fill="white"/>
<path d="M403.159 404.066C403.395 406.856 403.474 409.657 403.397 412.456C403.474 415.255 403.395 418.057 403.159 420.847C402.919 418.057 402.839 415.255 402.922 412.456C402.839 409.657 402.919 406.856 403.159 404.066Z" fill="white"/>
<path d="M373.692 451.74L368.665 449.702C368.665 449.702 362.825 439.794 361.627 440.269C360.43 440.745 360.256 443.77 362.633 448.331L356.024 446.841C356.024 446.841 342.314 454.153 342.963 454.985C343.612 455.816 344.901 457.836 347.89 456.1C350.879 454.363 354.791 452.288 354.791 452.288L362.514 454.034L352.78 455.862L344.033 464.755C344.033 464.755 347.186 466.858 349.663 464.308L373.884 468.119H384.139L384.688 454.564L373.692 451.74Z" fill="#FFBE9D"/>
<path d="M349.663 464.244C349.773 464.298 350.175 463.567 350.988 462.58C351.465 462.016 352.026 461.529 352.652 461.136C353.445 460.71 354.309 460.434 355.202 460.322C359.159 459.628 362.349 458.897 362.313 458.696C362.276 458.494 359.041 458.887 355.065 459.61C354.076 459.732 353.126 460.066 352.277 460.588C351.607 461.044 351.028 461.62 350.568 462.288C350.104 462.851 349.792 463.525 349.663 464.244Z" fill="#EB996E"/>
<path d="M353.465 464.993C353.557 464.993 353.602 464.49 354.26 464.308C354.919 464.125 356.024 463.96 357.149 463.777C359.434 463.412 361.326 463.33 361.335 463.11C361.344 462.891 359.406 462.662 357.039 463.037C356.017 463.173 355.016 463.437 354.059 463.823C353.893 463.894 353.745 464.001 353.627 464.138C353.508 464.274 353.421 464.435 353.374 464.609C353.328 464.874 353.42 465.002 353.465 464.993Z" fill="#EB996E"/>
<path d="M373.025 451.448C372.202 451.278 371.392 451.049 370.603 450.762C369.122 450.305 367.066 449.729 364.771 449.153L358.894 447.673C358.07 447.507 357.265 447.259 356.491 446.932C357.33 446.998 358.162 447.139 358.977 447.353C360.494 447.664 362.633 448.111 364.89 448.696C366.86 449.178 368.803 449.761 370.712 450.442C371.52 450.686 372.296 451.024 373.025 451.448Z" fill="#EB996E"/>
<path d="M457.323 196.496C457.283 196.169 457.264 195.839 457.268 195.509C457.268 194.827 457.25 193.913 457.213 192.767C457.213 190.409 457.159 187.146 457.113 183.252L457.314 183.463H444.097C444.097 183.518 444.555 183.015 444.335 183.225V186.762C444.335 187.932 444.335 189.075 444.335 190.181C444.335 192.402 444.335 194.495 444.335 196.414L444.125 196.213L453.649 196.314L456.391 196.368C457.021 196.368 457.369 196.368 457.387 196.414C457.084 196.457 456.779 196.476 456.473 196.469H453.813L444.161 196.579H443.96V196.368C443.96 194.449 443.96 192.356 443.96 190.135C443.96 189.029 443.96 187.886 443.96 186.717V183.179C443.75 183.399 444.253 182.887 444.198 182.942H457.414H457.625V183.143C457.625 187.091 457.542 190.4 457.524 192.795C457.524 193.891 457.506 194.778 457.469 195.454C457.441 195.804 457.393 196.152 457.323 196.496Z" fill="#263238"/>
<path d="M457.323 183.417C457.414 183.508 454.535 186.525 450.925 190.153C448.781 192.399 446.523 194.535 444.161 196.551C446.178 194.198 448.313 191.95 450.559 189.815C452.699 187.564 454.957 185.428 457.323 183.417Z" fill="#263238"/>
<path d="M457.113 196.414C454.794 194.428 452.585 192.316 450.496 190.089C448.288 187.976 446.192 185.748 444.216 183.417C446.529 185.414 448.738 187.528 450.834 189.751C453.037 191.866 455.132 194.09 457.113 196.414Z" fill="#263238"/>
<path d="M535.58 273.409C535.779 273.112 536.015 272.842 536.284 272.605C536.841 272.057 537.527 271.362 538.331 270.558C540.077 268.839 542.517 266.49 545.222 263.913L545.286 263.858V264.205C542.544 261.674 540.104 259.37 538.349 257.689L536.293 255.678C536.021 255.449 535.782 255.184 535.58 254.892C535.879 255.079 536.158 255.296 536.412 255.541L538.578 257.442C540.406 259.06 542.883 261.326 545.615 263.84L545.798 264.014L545.615 264.187L545.552 264.251C542.81 266.82 540.369 269.132 538.569 270.786L536.412 272.733C536.161 272.989 535.882 273.216 535.58 273.409Z" fill="#263238"/>
<path d="M514.503 254.892C514.304 255.189 514.068 255.46 513.799 255.696L511.743 257.743C509.997 259.462 507.566 261.811 504.86 264.388L504.796 264.443V264.096C507.538 266.628 509.969 268.931 511.734 270.613L513.79 272.623C514.061 272.853 514.301 273.117 514.503 273.409C514.201 273.227 513.922 273.009 513.671 272.761C513.077 272.249 512.355 271.609 511.505 270.859C509.677 269.242 507.2 266.975 504.467 264.461L504.284 264.288L504.467 264.114L504.531 264.05C507.273 261.482 509.714 259.169 511.514 257.515L513.671 255.568C513.925 255.316 514.204 255.089 514.503 254.892Z" fill="#263238"/>
<path d="M519.914 277.769C519.795 277.769 522.007 271.527 524.849 263.94C527.692 256.354 530.114 250.23 530.242 250.276C530.37 250.322 528.149 256.519 525.297 264.105C522.446 271.691 520.033 277.815 519.914 277.769Z" fill="#263238"/>
<path d="M559.517 291.022C559.517 291.022 559.517 290.657 559.517 289.98C559.517 289.304 559.517 288.299 559.517 287.001C559.517 284.387 559.517 280.603 559.463 275.722C559.463 266.006 559.399 252.132 559.362 235.396L559.554 235.588L491.004 235.634L491.242 235.396C491.242 255.504 491.242 274.488 491.242 291.022L491.022 290.803L540.515 290.913L554.545 290.967H558.274H559.234H559.563H558.32H554.664L540.68 291.022L491.05 291.132H490.84V290.922C490.84 274.387 490.84 255.404 490.84 235.296V235.122H491.086H559.636H559.837V235.323C559.837 252.104 559.764 266.033 559.737 275.777C559.737 280.612 559.737 284.405 559.682 287.01C559.682 288.289 559.682 289.277 559.682 289.953C559.682 290.629 559.517 291.022 559.517 291.022Z" fill="#263238"/>
<path d="M560.057 243.65C560.057 243.778 544.583 243.887 525.507 243.887C506.432 243.887 490.949 243.778 490.949 243.65C490.949 243.522 506.414 243.412 525.507 243.412C544.601 243.412 560.057 243.513 560.057 243.65Z" fill="#263238"/>
<path d="M496.57 239.582C496.57 239.763 496.517 239.94 496.416 240.09C496.316 240.24 496.173 240.358 496.006 240.427C495.839 240.496 495.655 240.514 495.478 240.479C495.301 240.443 495.138 240.356 495.01 240.229C494.882 240.101 494.795 239.938 494.76 239.761C494.725 239.583 494.743 239.4 494.812 239.233C494.881 239.066 494.998 238.923 495.148 238.822C495.299 238.722 495.475 238.668 495.656 238.668C495.899 238.668 496.131 238.765 496.303 238.936C496.474 239.107 496.57 239.34 496.57 239.582Z" fill="#263238"/>
<path d="M499.934 239.582C499.934 239.763 499.88 239.94 499.78 240.09C499.679 240.24 499.537 240.358 499.37 240.427C499.203 240.496 499.019 240.514 498.841 240.479C498.664 240.443 498.501 240.356 498.373 240.229C498.246 240.101 498.159 239.938 498.123 239.761C498.088 239.583 498.106 239.4 498.175 239.233C498.245 239.066 498.362 238.923 498.512 238.822C498.662 238.722 498.839 238.668 499.02 238.668C499.262 238.668 499.495 238.765 499.666 238.936C499.837 239.107 499.934 239.34 499.934 239.582Z" fill="#263238"/>
<path d="M503.297 239.582C503.297 239.763 503.244 239.94 503.143 240.09C503.043 240.24 502.9 240.358 502.733 240.427C502.566 240.496 502.382 240.514 502.205 240.479C502.028 240.443 501.865 240.356 501.737 240.229C501.609 240.101 501.522 239.938 501.487 239.761C501.452 239.583 501.47 239.4 501.539 239.233C501.608 239.066 501.725 238.923 501.875 238.822C502.026 238.722 502.202 238.668 502.383 238.668C502.626 238.668 502.858 238.765 503.03 238.936C503.201 239.107 503.297 239.34 503.297 239.582Z" fill="#263238"/>
<path d="M420.105 151.317H365.951V189.925H420.105V151.317Z" fill="#455A64"/>
<path d="M420.535 157.048C420.535 157.176 408.305 157.286 393.233 157.286C378.162 157.286 365.932 157.176 365.932 157.048C365.932 156.92 378.152 156.81 393.233 156.81C408.314 156.81 420.535 156.911 420.535 157.048Z" fill="white"/>
<path d="M370.374 154.224C370.395 154.373 370.369 154.525 370.301 154.66C370.232 154.794 370.125 154.905 369.992 154.976C369.859 155.048 369.708 155.077 369.558 155.06C369.408 155.043 369.267 154.981 369.153 154.882C369.04 154.782 368.959 154.651 368.923 154.504C368.886 154.358 368.895 154.204 368.948 154.063C369.001 153.922 369.097 153.8 369.221 153.715C369.345 153.629 369.492 153.584 369.643 153.584C369.824 153.574 370.002 153.635 370.139 153.755C370.276 153.874 370.36 154.043 370.374 154.224Z" fill="white"/>
<path d="M373.034 154.224C373.054 154.373 373.029 154.525 372.961 154.66C372.892 154.794 372.784 154.905 372.652 154.976C372.519 155.048 372.367 155.077 372.218 155.06C372.068 155.043 371.927 154.981 371.813 154.882C371.7 154.782 371.619 154.651 371.582 154.504C371.546 154.358 371.555 154.204 371.608 154.063C371.661 153.922 371.756 153.8 371.88 153.715C372.005 153.629 372.152 153.584 372.303 153.584C372.484 153.574 372.662 153.635 372.799 153.755C372.936 153.874 373.02 154.043 373.034 154.224Z" fill="white"/>
<path d="M374.963 154.864C375.366 154.864 375.694 154.577 375.694 154.224C375.694 153.87 375.366 153.584 374.963 153.584C374.559 153.584 374.231 153.87 374.231 154.224C374.231 154.577 374.559 154.864 374.963 154.864Z" fill="white"/>
<path d="M385.985 172.44C385.985 174.761 384.304 176.16 381.534 176.16H378.609V179.596H377.458V168.711H381.534C384.304 168.711 385.985 170.109 385.985 172.44ZM384.834 172.44C384.834 170.703 383.682 169.698 381.507 169.698H378.609V175.136H381.507C383.682 175.145 384.834 174.149 384.834 172.44Z" fill="white"/>
<path d="M397.566 168.711V179.596H396.432V174.569H389.614V179.596H388.49V168.711H389.641V173.564H396.46V168.711H397.566Z" fill="white"/>
<path d="M409.621 172.44C409.621 174.761 407.949 176.16 405.179 176.16H402.255V179.596H401.103V168.711H405.179C407.949 168.711 409.621 170.109 409.621 172.44ZM408.479 172.44C408.479 170.703 407.327 169.698 405.152 169.698H402.255V175.136H405.152C407.327 175.145 408.479 174.149 408.479 172.44Z" fill="white"/>
<path d="M310.8 234.208L311.513 233.422C311.887 234.039 312.412 234.55 313.039 234.907C313.666 235.264 314.374 235.454 315.096 235.46C317.243 235.46 318.304 234.235 318.304 231.649V221.284H312.344V220.224H319.483V231.621C319.483 234.875 317.975 236.493 315.096 236.493C314.245 236.504 313.406 236.301 312.655 235.901C311.904 235.502 311.266 234.92 310.8 234.208Z" fill="#FF725E"/>
<path d="M322.865 234.921L323.395 234.007C324.635 234.963 326.161 235.475 327.727 235.46C330.268 235.46 331.282 234.546 331.282 233.203C331.282 229.693 323.303 232.289 323.303 227.545C323.303 225.717 324.821 224.245 327.873 224.245C329.337 224.22 330.775 224.63 332.005 225.424L331.474 226.338C330.4 225.601 329.121 225.22 327.818 225.251C325.469 225.251 324.428 226.22 324.428 227.517C324.428 231.174 332.416 228.578 332.416 233.166C332.416 235.131 330.725 236.466 327.654 236.466C325.928 236.515 324.237 235.97 322.865 234.921Z" fill="#FF725E"/>
<path d="M342.973 244.957C342.973 244.957 342.973 244.701 342.973 244.216C342.973 243.732 342.973 243.019 342.973 242.123C342.973 240.295 342.973 237.599 342.918 234.208C342.918 227.399 342.863 217.71 342.817 206.057L343.018 206.258H301.093C301.038 206.313 301.541 205.81 301.331 206.029V216.467C301.331 219.895 301.331 223.24 301.331 226.521C301.331 233.056 301.331 239.235 301.331 244.929L301.12 244.719L331.42 244.82L339.984 244.874H342.25H342.79H343H342.25H340.02L331.511 244.929L301.075 245.03H300.865V244.82C300.865 239.125 300.865 232.938 300.865 226.412C300.865 223.149 300.865 219.803 300.865 216.358V206.075L301.102 205.828H343.027H343.228V206.029C343.228 217.738 343.155 227.472 343.128 234.309C343.128 237.681 343.128 240.341 343.073 242.178C343.073 243.092 343.073 243.75 343.073 244.235C343.073 244.719 342.973 244.957 342.973 244.957Z" fill="#FF725E"/>
<path d="M342.881 211.833C342.881 211.961 333.513 212.071 321.951 212.071C310.388 212.071 301.02 211.961 301.02 211.833C301.02 211.705 310.388 211.586 321.951 211.586C333.513 211.586 342.881 211.696 342.881 211.833Z" fill="#FF725E"/>
<path d="M304.767 209.64C305.171 209.64 305.499 209.349 305.499 208.991C305.499 208.632 305.171 208.342 304.767 208.342C304.364 208.342 304.036 208.632 304.036 208.991C304.036 209.349 304.364 209.64 304.767 209.64Z" fill="#FF725E"/>
<path d="M308.177 208.991C308.195 209.14 308.168 209.291 308.098 209.425C308.028 209.558 307.92 209.667 307.787 209.737C307.653 209.807 307.502 209.835 307.353 209.817C307.203 209.799 307.063 209.736 306.95 209.636C306.838 209.536 306.759 209.404 306.723 209.258C306.687 209.112 306.697 208.958 306.75 208.818C306.804 208.677 306.899 208.556 307.024 208.471C307.148 208.386 307.295 208.341 307.445 208.342C307.628 208.332 307.808 208.394 307.944 208.516C308.081 208.637 308.165 208.808 308.177 208.991Z" fill="#FF725E"/>
<path d="M310.855 208.991C310.873 209.14 310.846 209.291 310.776 209.425C310.706 209.558 310.598 209.667 310.465 209.737C310.331 209.807 310.18 209.835 310.031 209.817C309.881 209.799 309.741 209.736 309.629 209.636C309.516 209.536 309.437 209.404 309.401 209.258C309.365 209.112 309.375 208.958 309.428 208.818C309.482 208.677 309.577 208.556 309.702 208.471C309.826 208.386 309.973 208.341 310.123 208.342C310.306 208.332 310.486 208.394 310.622 208.516C310.759 208.637 310.843 208.808 310.855 208.991Z" fill="#FF725E"/>
<path d="M495.857 169.844C495.842 168.926 496.014 168.014 496.362 167.165C496.711 166.315 497.229 165.546 497.885 164.903C498.541 164.261 499.322 163.759 500.178 163.428C501.035 163.098 501.95 162.945 502.868 162.98C503.755 162.944 504.64 163.092 505.467 163.415C506.295 163.737 507.046 164.227 507.675 164.854L507.063 165.493C506.516 164.96 505.865 164.543 505.152 164.268C504.439 163.993 503.677 163.866 502.913 163.894C502.105 163.849 501.297 163.97 500.537 164.248C499.777 164.526 499.082 164.957 498.495 165.513C497.907 166.069 497.439 166.739 497.119 167.482C496.799 168.225 496.634 169.026 496.634 169.835C496.634 170.644 496.799 171.445 497.119 172.188C497.439 172.931 497.907 173.601 498.495 174.157C499.082 174.713 499.777 175.144 500.537 175.422C501.297 175.7 502.105 175.821 502.913 175.776C503.679 175.801 504.441 175.671 505.154 175.393C505.867 175.114 506.517 174.695 507.063 174.158L507.675 174.798C507.047 175.427 506.296 175.92 505.469 176.245C504.642 176.571 503.756 176.722 502.868 176.69C501.952 176.725 501.038 176.573 500.183 176.243C499.327 175.914 498.548 175.413 497.892 174.773C497.236 174.132 496.717 173.365 496.368 172.518C496.018 171.67 495.844 170.761 495.857 169.844Z" fill="#FF725E"/>
<path d="M509.531 174.862L509.979 174.131C511.193 175.247 512.79 175.855 514.439 175.831C517.181 175.831 518.342 174.652 518.342 173.18C518.342 169.122 509.906 171.562 509.906 166.572C509.906 164.662 511.368 162.98 514.695 162.98C516.144 162.972 517.563 163.395 518.771 164.196L518.397 164.991C517.304 164.247 516.016 163.843 514.695 163.83C512.063 163.83 510.883 165.046 510.883 166.572C510.883 170.63 519.329 168.235 519.329 173.144C519.329 175.054 517.802 176.717 514.457 176.717C512.635 176.769 510.866 176.103 509.531 174.862Z" fill="#FF725E"/>
<path d="M521.294 174.862L521.742 174.131C522.954 175.252 524.552 175.861 526.202 175.831C528.944 175.831 530.105 174.652 530.105 173.18C530.105 169.122 521.66 171.562 521.66 166.572C521.66 164.662 523.131 162.98 526.458 162.98C527.904 162.974 529.32 163.397 530.525 164.196L530.16 164.991C529.081 164.255 527.81 163.852 526.504 163.83C523.871 163.83 522.692 165.046 522.692 166.572C522.692 170.63 531.138 168.235 531.138 173.144C531.138 175.054 529.611 176.717 526.266 176.717C524.428 176.781 522.64 176.114 521.294 174.862Z" fill="#FF725E"/>
<path d="M542.599 187.42C542.599 187.42 542.599 187.164 542.599 186.698C542.599 186.232 542.599 185.528 542.599 184.642C542.599 182.814 542.599 180.191 542.544 176.818C542.544 170.063 542.49 160.366 542.444 148.484L542.636 148.676L482.412 148.722L482.65 148.484C482.65 162.294 482.65 175.447 482.65 187.384L482.431 187.164L525.754 187.274L538.176 187.329H541.493H542.353C542.453 187.321 542.554 187.321 542.654 187.329H542.38H541.548H538.276L525.901 187.384L482.431 187.493H482.211V187.274C482.211 175.337 482.211 162.185 482.211 148.374V148.292H482.449L542.672 148.347H542.864V148.53C542.819 160.412 542.782 170.164 542.764 176.946C542.764 180.3 542.764 182.923 542.764 184.724C542.764 185.601 542.764 186.278 542.764 186.753C542.618 187.192 542.599 187.42 542.599 187.42Z" fill="#FF725E"/>
<path d="M542.599 154.297C542.599 154.425 529.109 154.535 512.437 154.535C495.766 154.535 482.275 154.425 482.275 154.297C482.275 154.169 495.766 154.059 512.437 154.059C529.109 154.059 542.599 154.16 542.599 154.297Z" fill="#FF725E"/>
<path d="M486.827 151.454C486.846 151.604 486.818 151.755 486.749 151.889C486.679 152.022 486.57 152.131 486.437 152.201C486.304 152.271 486.153 152.299 486.003 152.281C485.854 152.263 485.713 152.199 485.601 152.1C485.488 152 485.409 151.868 485.373 151.722C485.337 151.576 485.347 151.422 485.401 151.281C485.455 151.141 485.55 151.02 485.674 150.935C485.798 150.85 485.945 150.805 486.096 150.805C486.279 150.795 486.458 150.858 486.595 150.98C486.732 151.101 486.815 151.272 486.827 151.454Z" fill="#FF725E"/>
<path d="M489.505 151.454C489.524 151.604 489.496 151.755 489.427 151.889C489.357 152.022 489.248 152.131 489.115 152.201C488.982 152.271 488.831 152.299 488.681 152.281C488.532 152.263 488.391 152.199 488.279 152.1C488.166 152 488.087 151.868 488.051 151.722C488.015 151.576 488.025 151.422 488.079 151.281C488.133 151.141 488.228 151.02 488.352 150.935C488.476 150.85 488.623 150.805 488.774 150.805C488.957 150.795 489.136 150.858 489.273 150.98C489.41 151.101 489.493 151.272 489.505 151.454Z" fill="#FF725E"/>
<path d="M492.183 151.454C492.202 151.604 492.174 151.755 492.105 151.889C492.035 152.022 491.926 152.131 491.793 152.201C491.66 152.271 491.509 152.299 491.359 152.281C491.21 152.263 491.07 152.199 490.957 152.1C490.844 152 490.765 151.868 490.729 151.722C490.694 151.576 490.703 151.422 490.757 151.281C490.811 151.141 490.906 151.02 491.03 150.935C491.154 150.85 491.301 150.805 491.452 150.805C491.635 150.795 491.814 150.858 491.951 150.98C492.088 151.101 492.171 151.272 492.183 151.454Z" fill="#FF725E"/>
<path d="M464.937 207.574H389.312V261.482H464.937V207.574Z" fill="#FF725E"/>
<path d="M414.822 232.599V243.348H412.345V238.961H407.483V243.348H405.006V232.599H407.483V236.822H412.345V232.599H414.822Z" fill="white"/>
<path d="M419.566 234.619H416.138V232.599H425.47V234.619H422.043V243.348H419.566V234.619Z" fill="white"/>
<path d="M426.805 232.599H429.282V241.282H434.647V243.348H426.805V232.599Z" fill="white"/>
<path d="M445.779 243.348V236.95L442.626 242.233H441.502L438.367 237.087V243.348H436.018V232.599H438.065L442.078 239.253L446.017 232.599H448.046V243.302L445.779 243.348Z" fill="white"/>
<path d="M465.54 215.572C465.54 215.699 448.466 215.809 427.408 215.809C406.349 215.809 389.285 215.699 389.285 215.572C389.285 215.444 406.349 215.334 427.408 215.334C448.466 215.334 465.54 215.434 465.54 215.572Z" fill="white"/>
<path d="M395.491 211.632C395.513 211.838 395.472 212.045 395.374 212.228C395.276 212.41 395.125 212.558 394.941 212.652C394.757 212.747 394.549 212.784 394.343 212.757C394.138 212.731 393.946 212.643 393.791 212.505C393.637 212.368 393.528 212.186 393.479 211.985C393.43 211.784 393.443 211.573 393.516 211.38C393.589 211.186 393.719 211.019 393.889 210.901C394.059 210.783 394.26 210.719 394.467 210.718C394.595 210.711 394.722 210.729 394.842 210.771C394.963 210.812 395.074 210.878 395.169 210.963C395.264 211.048 395.341 211.15 395.397 211.265C395.452 211.38 395.484 211.505 395.491 211.632Z" fill="white"/>
<path d="M399.202 211.632C399.224 211.838 399.183 212.045 399.085 212.228C398.987 212.41 398.836 212.558 398.652 212.652C398.468 212.747 398.26 212.784 398.054 212.757C397.849 212.731 397.657 212.643 397.502 212.505C397.348 212.368 397.239 212.186 397.19 211.985C397.141 211.784 397.153 211.573 397.227 211.38C397.3 211.186 397.43 211.019 397.6 210.901C397.77 210.783 397.971 210.719 398.178 210.718C398.305 210.711 398.433 210.729 398.553 210.771C398.674 210.812 398.785 210.878 398.88 210.963C398.975 211.048 399.052 211.15 399.108 211.265C399.163 211.38 399.195 211.505 399.202 211.632Z" fill="white"/>
<path d="M402.913 211.632C402.935 211.838 402.894 212.045 402.796 212.228C402.698 212.41 402.547 212.558 402.363 212.652C402.179 212.747 401.97 212.784 401.765 212.757C401.56 212.731 401.367 212.643 401.213 212.505C401.059 212.368 400.95 212.186 400.901 211.985C400.851 211.784 400.864 211.573 400.937 211.38C401.011 211.186 401.141 211.019 401.311 210.901C401.48 210.783 401.682 210.719 401.889 210.718C402.016 210.711 402.144 210.729 402.264 210.771C402.385 210.812 402.495 210.878 402.591 210.963C402.686 211.048 402.763 211.15 402.818 211.265C402.874 211.38 402.906 211.505 402.913 211.632Z" fill="white"/>
<path d="M233.448 313.726C233.44 313.665 233.44 313.604 233.448 313.543V313.04C233.448 312.574 233.448 311.925 233.448 311.085C233.448 309.357 233.448 306.871 233.393 303.718C233.393 297.384 233.329 288.372 233.283 277.577L233.494 277.778H197.345C197.29 277.824 197.793 277.331 197.583 277.55V282.449C197.583 284.076 197.583 285.694 197.583 287.284V296.625C197.583 302.694 197.583 308.425 197.583 313.68L197.382 313.47L223.522 313.58L230.889 313.635H232.845H233.347H232.863H230.944L223.632 313.689L197.363 313.799H197.153V313.726C197.153 308.47 197.153 302.758 197.153 296.671V277.586C196.934 277.797 197.436 277.285 197.391 277.34H233.539H233.74V277.55C233.74 288.399 233.667 297.457 233.64 303.818C233.64 306.953 233.64 309.43 233.585 311.13C233.585 311.953 233.585 312.593 233.585 313.05C233.585 313.251 233.585 313.406 233.585 313.534C233.548 313.604 233.502 313.668 233.448 313.726Z" fill="#263238"/>
<path d="M233.448 277.934C233.539 278.025 225.542 286.16 215.588 296.077C205.635 305.994 197.464 313.982 197.391 313.891C197.318 313.799 205.288 305.665 215.25 295.738C225.213 285.812 233.357 277.842 233.448 277.934Z" fill="#263238"/>
<path d="M232.872 313.497C232.781 313.589 224.811 305.701 215.077 295.885C205.342 286.068 197.519 278.025 197.61 277.934C197.701 277.842 205.671 285.73 215.415 295.547C225.158 305.363 232.964 313.397 232.872 313.497Z" fill="#263238"/>
<path d="M308.807 287.266C308.807 287.394 294.439 287.503 276.726 287.503C259.013 287.503 244.654 287.394 244.654 287.266C244.654 287.138 259.013 287.028 276.726 287.028C294.439 287.028 308.807 287.138 308.807 287.266Z" fill="#263238"/>
<path d="M308.807 293.033C308.807 293.161 294.439 293.271 276.726 293.271C259.013 293.271 244.654 293.161 244.654 293.033C244.654 292.905 259.013 292.795 276.726 292.795C294.439 292.795 308.807 292.896 308.807 293.033Z" fill="#263238"/>
<path d="M308.807 298.791C308.807 298.928 294.439 299.029 276.726 299.029C259.013 299.029 244.654 298.928 244.654 298.791C244.654 298.654 259.013 298.554 276.726 298.554C294.439 298.554 308.807 298.663 308.807 298.791Z" fill="#263238"/>
<path d="M308.807 304.586C308.807 304.714 294.439 304.824 276.726 304.824C259.013 304.824 244.654 304.714 244.654 304.586C244.654 304.458 259.013 304.348 276.726 304.348C294.439 304.348 308.807 304.421 308.807 304.586Z" fill="#263238"/>
<path d="M273.673 281.498C273.673 281.635 267.065 281.745 258.93 281.745C250.796 281.745 244.187 281.635 244.187 281.498C244.187 281.361 250.787 281.261 258.93 281.261C267.074 281.261 273.673 281.37 273.673 281.498Z" fill="#263238"/>
<path d="M185.911 266.664H196.669H226.767L331.237 266.847H331.465V267.112C331.465 284.935 331.465 304.257 331.465 324.31V324.548H318.176L318.413 324.31V336.731L318.011 336.329L306.129 324.447L306.294 324.511L185.911 324.42H185.746V324.264C185.746 306.313 185.819 291.9 185.838 281.964C185.838 277.02 185.838 273.19 185.838 270.585C185.838 269.306 185.838 268.318 185.838 267.651C185.838 266.984 185.838 266.664 185.838 266.664C185.838 266.664 185.838 267.011 185.838 267.688C185.838 268.364 185.838 269.351 185.838 270.649C185.838 273.263 185.838 277.102 185.838 282.056C185.838 291.973 185.893 306.35 185.929 324.264L185.765 324.1L306.175 324.027H306.275L306.339 324.091L318.221 335.973L317.81 336.146V324.027H331.109L330.871 324.264C330.871 304.211 330.871 284.889 330.871 267.066L331.1 267.295L226.785 266.893L196.623 266.746H188.571H186.487L185.911 266.664Z" fill="#263238"/>
<path d="M556.273 452.508H476.938V472.415H556.273V452.508Z" fill="#455A64"/>
<path d="M544.893 459.006H496.543V465.916H544.893V459.006Z" fill="#263238"/>
<path d="M490.446 462.863C490.448 463.628 490.223 464.377 489.799 465.014C489.376 465.651 488.772 466.148 488.066 466.442C487.36 466.736 486.582 466.814 485.832 466.666C485.081 466.517 484.391 466.15 483.85 465.61C483.308 465.069 482.939 464.38 482.789 463.63C482.639 462.88 482.715 462.102 483.007 461.395C483.3 460.688 483.795 460.084 484.431 459.659C485.067 459.233 485.815 459.006 486.58 459.006C487.088 459.005 487.59 459.104 488.059 459.297C488.528 459.491 488.954 459.775 489.313 460.133C489.673 460.491 489.958 460.917 490.152 461.385C490.346 461.854 490.446 462.356 490.446 462.863Z" fill="#263238"/>
<path d="M548.668 441.659H485.301V452.426H548.668V441.659Z" fill="#263238"/>
<path d="M564.636 421.761H485.301V441.668H564.636V421.761Z" fill="#FF725E"/>
<path d="M509.458 431.212C509.52 430.208 509.876 429.246 510.481 428.443C511.085 427.64 511.912 427.032 512.859 426.694C513.806 426.357 514.83 426.304 515.807 426.543C516.783 426.783 517.667 427.303 518.351 428.04L516.971 429.32C516.684 428.976 516.324 428.701 515.918 428.513C515.512 428.325 515.069 428.229 514.622 428.232C513.859 428.274 513.141 428.607 512.616 429.162C512.091 429.717 511.798 430.452 511.798 431.216C511.798 431.98 512.091 432.715 512.616 433.27C513.141 433.825 513.859 434.158 514.622 434.2C515.071 434.205 515.516 434.107 515.923 433.916C516.329 433.724 516.688 433.444 516.971 433.094L518.351 434.374C517.672 435.119 516.788 435.647 515.81 435.892C514.832 436.136 513.803 436.086 512.853 435.749C511.903 435.411 511.074 434.8 510.47 433.993C509.866 433.186 509.514 432.218 509.458 431.212Z" fill="white"/>
<path d="M529.639 432.025H527.317V434.292H525.59V432.025H523.286V430.398H525.59V428.141H527.308V430.398H529.63L529.639 432.025Z" fill="white"/>
<path d="M537.7 432.025H535.379V434.292H533.66V432.025H531.357V430.398H533.66V428.141H535.379V430.398H537.7V432.025Z" fill="white"/>
<path d="M497.091 441.11C496.963 441.11 496.854 436.778 496.854 431.431C496.854 426.084 496.963 421.742 497.091 421.742C497.219 421.742 497.329 426.084 497.329 431.431C497.329 436.778 497.256 441.11 497.091 441.11Z" fill="#FAFAFA"/>
<path d="M493.6 441.11C493.472 441.11 493.362 436.778 493.362 431.431C493.362 426.084 493.472 421.742 493.6 421.742C493.841 424.966 493.92 428.199 493.837 431.431C493.92 434.659 493.841 437.89 493.6 441.11Z" fill="#FAFAFA"/>
<path d="M552.004 441.11C551.763 437.89 551.684 434.659 551.767 431.431C551.684 428.199 551.764 424.966 552.004 421.742C552.132 421.742 552.242 426.084 552.242 431.431C552.242 436.778 552.096 441.11 552.004 441.11Z" fill="#FAFAFA"/>
<path d="M548.549 441.11C548.421 441.11 548.312 436.778 548.312 431.431C548.312 426.084 548.421 421.742 548.549 421.742C548.677 421.742 548.787 426.084 548.787 431.431C548.787 436.778 548.677 441.11 548.549 441.11Z" fill="#FAFAFA"/>
<path d="M511.514 446.914C511.505 446.628 511.555 446.342 511.662 446.076C511.768 445.81 511.929 445.569 512.133 445.368C512.338 445.167 512.581 445.011 512.849 444.909C513.117 444.807 513.403 444.761 513.689 444.775C514.014 444.754 514.339 444.82 514.63 444.966C514.921 445.112 515.167 445.334 515.344 445.607L514.923 445.9C514.788 445.699 514.603 445.536 514.388 445.425C514.172 445.315 513.932 445.261 513.689 445.269C513.253 445.269 512.835 445.442 512.526 445.751C512.218 446.059 512.044 446.478 512.044 446.914C512.044 447.35 512.218 447.769 512.526 448.077C512.835 448.386 513.253 448.559 513.689 448.559C513.93 448.568 514.169 448.517 514.384 448.41C514.6 448.303 514.785 448.144 514.923 447.947L515.344 448.23C515.168 448.505 514.922 448.728 514.631 448.876C514.34 449.024 514.015 449.091 513.689 449.071C513.402 449.084 513.115 449.037 512.846 448.933C512.578 448.83 512.334 448.672 512.129 448.469C511.925 448.266 511.765 448.024 511.659 447.756C511.553 447.488 511.504 447.202 511.514 446.914Z" fill="#EBEBEB"/>
<path d="M515.874 448.55L516.139 448.093C516.574 448.41 517.1 448.576 517.638 448.568C518.442 448.568 518.771 448.294 518.771 447.883C518.771 446.777 516.029 447.645 516.029 445.973C516.029 445.287 516.623 444.775 517.702 444.775C518.226 444.761 518.743 444.898 519.192 445.168L518.945 445.625C518.577 445.38 518.144 445.253 517.702 445.26C516.934 445.26 516.605 445.561 516.605 445.964C516.605 447.106 519.347 446.238 519.347 447.865C519.347 448.596 518.707 449.071 517.611 449.071C516.991 449.089 516.382 448.906 515.874 448.55Z" fill="#EBEBEB"/>
<path d="M519.804 448.55L520.069 448.093C520.503 448.411 521.03 448.578 521.568 448.568C522.372 448.568 522.701 448.294 522.701 447.883C522.701 446.777 519.96 447.645 519.96 445.973C519.96 445.287 520.554 444.775 521.632 444.775C522.156 444.761 522.673 444.898 523.122 445.168L522.875 445.625C522.508 445.38 522.074 445.253 521.632 445.26C520.864 445.26 520.535 445.561 520.535 445.964C520.535 447.106 523.277 446.238 523.277 447.865C523.277 448.596 522.638 449.071 521.541 449.071C520.921 449.089 520.312 448.906 519.804 448.55Z" fill="#EBEBEB"/>
<path d="M494.623 448.961C495.683 448.961 496.543 448.102 496.543 447.042C496.543 445.982 495.683 445.123 494.623 445.123C493.563 445.123 492.704 445.982 492.704 447.042C492.704 448.102 493.563 448.961 494.623 448.961Z" fill="#EBEBEB"/>
<path d="M542.727 448.961C543.787 448.961 544.647 448.102 544.647 447.042C544.647 445.982 543.787 445.123 542.727 445.123C541.667 445.123 540.808 445.982 540.808 447.042C540.808 448.102 541.667 448.961 542.727 448.961Z" fill="#EBEBEB"/>
<path d="M301.175 345.716H167.896C161.838 345.716 156.928 350.627 156.928 356.684V440.507C156.928 446.564 161.838 451.475 167.896 451.475H301.175C307.233 451.475 312.143 446.564 312.143 440.507V356.684C312.143 350.627 307.233 345.716 301.175 345.716Z" fill="#263238"/>
<path d="M208.596 426.34L200.005 474.992H240.33L247.633 425.344L208.596 426.34Z" fill="#455A64"/>
<path d="M295.015 345.716H161.735C155.678 345.716 150.767 350.627 150.767 356.684V440.507C150.767 446.564 155.678 451.475 161.735 451.475H295.015C301.072 451.475 305.983 446.564 305.983 440.507V356.684C305.983 350.627 301.072 345.716 295.015 345.716Z" fill="#455A64"/>
<path d="M243.794 451.475L247.633 425.344L248.703 451.475H243.794Z" fill="#263238"/>
<path d="M208.816 423.634C208.944 423.634 207.966 430.133 206.631 438.094C205.297 446.055 204.118 452.499 203.981 452.48C203.843 452.462 204.831 445.982 206.165 438.021C207.499 430.06 208.688 423.616 208.816 423.634Z" fill="#263238"/>
<path d="M233.466 394.935C233.466 395.942 233.168 396.926 232.608 397.763C232.049 398.601 231.254 399.253 230.323 399.638C229.393 400.024 228.37 400.125 227.382 399.928C226.394 399.732 225.487 399.247 224.775 398.535C224.063 397.823 223.579 396.916 223.382 395.928C223.186 394.941 223.286 393.917 223.672 392.987C224.057 392.056 224.71 391.261 225.547 390.702C226.384 390.143 227.368 389.844 228.375 389.844C229.044 389.843 229.707 389.974 230.325 390.229C230.943 390.484 231.505 390.859 231.978 391.332C232.451 391.805 232.826 392.367 233.081 392.985C233.337 393.603 233.467 394.266 233.466 394.935Z" fill="#FAFAFA"/>
<path d="M228.375 400.044C227.365 400.044 226.377 399.745 225.537 399.183C224.696 398.622 224.042 397.824 223.655 396.89C223.268 395.957 223.167 394.929 223.364 393.938C223.561 392.947 224.048 392.037 224.762 391.322C225.477 390.608 226.387 390.121 227.378 389.924C228.37 389.727 229.397 389.828 230.33 390.215C231.264 390.601 232.062 391.256 232.623 392.096C233.185 392.937 233.484 393.924 233.484 394.935C233.482 396.289 232.943 397.587 231.985 398.545C231.028 399.503 229.73 400.042 228.375 400.044ZM228.375 389.871C227.374 389.871 226.395 390.168 225.562 390.725C224.729 391.281 224.08 392.072 223.697 392.997C223.314 393.922 223.214 394.941 223.409 395.923C223.604 396.905 224.087 397.807 224.795 398.515C225.503 399.224 226.405 399.706 227.387 399.901C228.37 400.097 229.388 399.996 230.313 399.613C231.238 399.23 232.029 398.581 232.585 397.748C233.142 396.915 233.439 395.936 233.439 394.935C233.436 393.593 232.902 392.306 231.953 391.357C231.004 390.408 229.717 389.874 228.375 389.871Z" fill="#263238"/>
<path d="M189.612 377.194C189.612 377.194 192.007 373.812 191.194 370.056C191.194 370.056 191.194 368.84 189.366 366.455C188.79 365.695 188.134 365 187.41 364.38C186.764 363.817 186.07 363.312 185.335 362.872C185.088 362.716 184.933 362.634 184.933 362.634C182.247 361.118 179.097 360.646 176.085 361.309C173.776 361.783 171.667 362.954 170.044 364.663C169.502 365.23 169.038 365.867 168.664 366.555C167.714 368.132 167.103 369.888 166.869 371.713C166.634 373.538 166.782 375.392 167.302 377.158C167.375 377.395 167.457 377.633 167.549 377.861V377.944C167.549 378.026 167.613 378.108 167.649 378.181L167.722 378.346C167.804 378.538 167.878 378.721 167.969 378.903C168.192 379.36 168.442 379.802 168.718 380.229C168.997 380.73 169.338 381.194 169.733 381.609C170.489 382.506 171.456 383.202 172.547 383.633C173.638 384.063 174.82 384.216 175.985 384.077C176.45 384.923 177.207 385.573 178.114 385.905C179.878 386.307 182.748 385.42 184.832 384.305C186.916 383.19 189.905 381.06 189.859 379.242C189.833 378.558 189.726 377.88 189.539 377.222L189.612 377.194Z" fill="#263238"/>
<path d="M174.111 361.309C171.82 361.79 169.731 362.96 168.124 364.663C167.58 365.23 167.113 365.866 166.735 366.555C165.519 368.895 163.426 373.401 166.104 378.903C168.782 384.406 172.749 384.269 174.541 384.013C176.332 383.757 187.684 377.194 187.684 377.194C187.684 377.194 191.157 372.304 188.333 367.753C185.911 363.859 180.719 359.892 174.111 361.309Z" fill="#FF725E"/>
<path d="M173.279 382.486C173.279 382.486 174.504 385.484 176.268 385.877C178.032 386.27 180.893 385.393 182.977 384.278C185.061 383.163 188.05 381.033 188.004 379.214C187.958 377.395 187.09 375.375 186.788 375.211C185.374 374.835 183.898 374.759 182.453 374.987C181.008 375.215 179.627 375.743 178.398 376.536C176.026 377.833 174.207 379.948 173.279 382.486Z" fill="#F5F5F5"/>
<g opacity="0.4">
<path opacity="0.4" d="M179.421 365.139C179.986 366.189 180.227 367.383 180.114 368.57C180 369.757 179.537 370.884 178.784 371.809C178.03 372.733 177.019 373.413 175.879 373.763C174.739 374.113 173.521 374.117 172.378 373.775C171.236 373.433 170.22 372.76 169.46 371.841C168.7 370.922 168.23 369.798 168.108 368.612C167.986 367.425 168.219 366.23 168.777 365.175C169.334 364.121 170.192 363.256 171.241 362.689C171.939 362.312 172.704 362.076 173.493 361.995C174.282 361.914 175.079 361.99 175.839 362.217C176.599 362.445 177.307 362.82 177.921 363.321C178.536 363.822 179.046 364.44 179.421 365.139Z" fill="white"/>
</g>
<g opacity="0.4">
<path opacity="0.4" d="M167.868 381.609C168.651 379.922 168.793 378.009 168.271 376.225C167.694 374.487 166.501 373.021 164.916 372.103C164.787 374.171 165.098 376.243 165.83 378.181C166.297 379.438 166.987 380.599 167.868 381.609Z" fill="white"/>
</g>
<g opacity="0.4">
<path opacity="0.4" d="M189.293 370.065C187.456 369.787 185.781 368.855 184.576 367.442C183.44 366.106 182.86 364.385 182.959 362.634C184.68 363.631 186.209 364.928 187.474 366.464C189.283 368.858 189.293 370.065 189.293 370.065Z" fill="white"/>
</g>
<path d="M173.298 382.45C173.327 382.693 173.402 382.928 173.517 383.144C173.578 383.251 173.67 383.337 173.781 383.391C173.892 383.445 174.017 383.464 174.138 383.446C174.404 383.382 174.55 383.126 174.669 382.888C175.936 380.499 177.861 378.523 180.217 377.194C181.154 376.624 182.212 376.283 183.306 376.198C184.293 376.198 185.253 376.445 186.24 376.5C186.492 376.528 186.747 376.49 186.98 376.39C187.2 376.28 187.19 376.024 187.136 375.787C187.12 375.672 187.081 375.562 187.021 375.463C186.962 375.364 186.882 375.278 186.788 375.211C184.192 374.141 180.975 374.927 178.562 376.326C176.236 377.794 174.405 379.927 173.307 382.45" fill="#E0E0E0"/>
<path d="M364.616 466.19H276.315V472.415H364.616V466.19Z" fill="#455A64"/>
<path d="M255.192 463.796H259.616C261.497 463.796 263.301 464.543 264.631 465.873C265.961 467.203 266.708 469.007 266.708 470.888V472.415H248.154V470.888C248.154 469.017 248.894 467.221 250.212 465.892C251.53 464.564 253.32 463.81 255.192 463.796Z" fill="#455A64"/>
<path d="M266.389 470.477C263.415 470.712 260.431 470.792 257.45 470.715C254.465 470.792 251.478 470.712 248.502 470.477C251.478 470.236 254.465 470.157 257.45 470.239C260.431 470.157 263.415 470.236 266.389 470.477Z" fill="#263238"/>
<path d="M257.587 463.723C257.799 464.803 257.851 465.908 257.742 467.004C257.786 468.102 257.675 469.2 257.413 470.267C257.207 469.189 257.158 468.087 257.267 466.995C257.221 465.894 257.328 464.793 257.587 463.723Z" fill="#263238"/>
<path d="M568.822 472.415H144.187V484.772H568.822V472.415Z" fill="#263238"/>
<path d="M71.0017 646.743C71.2193 646.342 71.4639 645.956 71.7339 645.587L73.9827 642.246C75.9047 639.367 78.6895 635.204 82.0366 630.386L82.2981 630L82.5596 630.386L88.7962 639.38L93.6468 646.499L93.9998 647H93.3853C86.8481 647 81.1345 646.884 77.186 646.82L72.5837 646.73C71.5247 646.73 70.9625 646.73 71.0017 646.73C71.041 646.73 71.6555 646.73 72.7668 646.666L77.4736 646.589C81.4744 646.525 86.9919 646.422 93.3853 646.409L93.1107 646.91L88.2339 639.804C86.0374 636.605 83.9455 633.534 82.0366 630.72H82.5596C79.2779 635.371 76.4277 639.303 74.3619 642.143L71.93 645.484C71.3547 646.293 71.0279 646.73 71.0017 646.743Z" fill="#5CD9D8"/>
<path d="M607.998 29.257C607.78 29.6581 607.536 30.0445 607.266 30.4135L605.017 33.7544C603.095 36.6327 600.31 40.7959 596.963 45.6145L596.702 46L596.44 45.6145L590.203 36.6198L585.353 29.5011L585 29H585.614C592.152 29 597.865 29.1156 601.814 29.1799L606.416 29.2698C607.475 29.2698 608.037 29.2698 607.998 29.2698C607.959 29.2698 607.344 29.2699 606.233 29.3341L601.526 29.4112C597.525 29.4754 592.008 29.5782 585.614 29.5911L585.889 29.09L590.766 36.1958C592.962 39.3953 595.054 42.4664 596.963 45.2804H596.44C599.722 40.6289 602.572 36.6969 604.638 33.8571L607.07 30.5162C607.645 29.7067 607.972 29.2699 607.998 29.257Z" fill="#5CD9D8"/>
<g opacity="0.1">
<circle cx="568.103" cy="558.345" r="2.10345" transform="rotate(-90 568.103 558.345)" fill="#5CD9D8"/>
<circle cx="568.103" cy="550.138" r="2.10345" transform="rotate(-90 568.103 550.138)" fill="#5CD9D8"/>
<circle cx="568.103" cy="541.931" r="2.10345" transform="rotate(-90 568.103 541.931)" fill="#5CD9D8"/>
<circle cx="568.103" cy="533.724" r="2.10345" transform="rotate(-90 568.103 533.724)" fill="#5CD9D8"/>
<circle cx="568.103" cy="525.517" r="2.10345" transform="rotate(-90 568.103 525.517)" fill="#5CD9D8"/>
<circle cx="568.103" cy="517.31" r="2.10345" transform="rotate(-90 568.103 517.31)" fill="#5CD9D8"/>
<circle cx="568.103" cy="509.103" r="2.10345" transform="rotate(-90 568.103 509.103)" fill="#5CD9D8"/>
<circle cx="574.414" cy="558.345" r="2.10345" transform="rotate(-90 574.414 558.345)" fill="#5CD9D8"/>
<circle cx="574.414" cy="550.138" r="2.10345" transform="rotate(-90 574.414 550.138)" fill="#5CD9D8"/>
<circle cx="574.414" cy="541.931" r="2.10345" transform="rotate(-90 574.414 541.931)" fill="#5CD9D8"/>
<circle cx="574.414" cy="533.724" r="2.10345" transform="rotate(-90 574.414 533.724)" fill="#5CD9D8"/>
<circle cx="574.414" cy="525.517" r="2.10345" transform="rotate(-90 574.414 525.517)" fill="#5CD9D8"/>
<circle cx="574.414" cy="517.31" r="2.10345" transform="rotate(-90 574.414 517.31)" fill="#5CD9D8"/>
<circle cx="574.414" cy="509.103" r="2.10345" transform="rotate(-90 574.414 509.103)" fill="#5CD9D8"/>
<circle cx="580.724" cy="558.345" r="2.10345" transform="rotate(-90 580.724 558.345)" fill="#5CD9D8"/>
<circle cx="580.724" cy="550.138" r="2.10345" transform="rotate(-90 580.724 550.138)" fill="#5CD9D8"/>
<circle cx="580.724" cy="541.931" r="2.10345" transform="rotate(-90 580.724 541.931)" fill="#5CD9D8"/>
<circle cx="580.724" cy="533.724" r="2.10345" transform="rotate(-90 580.724 533.724)" fill="#5CD9D8"/>
<circle cx="580.724" cy="525.517" r="2.10345" transform="rotate(-90 580.724 525.517)" fill="#5CD9D8"/>
<circle cx="580.724" cy="517.31" r="2.10345" transform="rotate(-90 580.724 517.31)" fill="#5CD9D8"/>
<circle cx="580.724" cy="509.103" r="2.10345" transform="rotate(-90 580.724 509.103)" fill="#5CD9D8"/>
<circle cx="587.034" cy="558.345" r="2.10345" transform="rotate(-90 587.034 558.345)" fill="#5CD9D8"/>
<circle cx="587.034" cy="550.138" r="2.10345" transform="rotate(-90 587.034 550.138)" fill="#5CD9D8"/>
<circle cx="587.034" cy="541.931" r="2.10345" transform="rotate(-90 587.034 541.931)" fill="#5CD9D8"/>
<circle cx="587.034" cy="533.724" r="2.10345" transform="rotate(-90 587.034 533.724)" fill="#5CD9D8"/>
<circle cx="587.034" cy="525.517" r="2.10345" transform="rotate(-90 587.034 525.517)" fill="#5CD9D8"/>
<circle cx="587.034" cy="517.31" r="2.10345" transform="rotate(-90 587.034 517.31)" fill="#5CD9D8"/>
<circle cx="587.034" cy="509.103" r="2.10345" transform="rotate(-90 587.034 509.103)" fill="#5CD9D8"/>
<circle cx="593.345" cy="558.345" r="2.10345" transform="rotate(-90 593.345 558.345)" fill="#5CD9D8"/>
<circle cx="593.345" cy="550.138" r="2.10345" transform="rotate(-90 593.345 550.138)" fill="#5CD9D8"/>
<circle cx="593.345" cy="541.931" r="2.10345" transform="rotate(-90 593.345 541.931)" fill="#5CD9D8"/>
<circle cx="593.345" cy="533.724" r="2.10345" transform="rotate(-90 593.345 533.724)" fill="#5CD9D8"/>
<circle cx="593.345" cy="525.517" r="2.10345" transform="rotate(-90 593.345 525.517)" fill="#5CD9D8"/>
<circle cx="593.345" cy="517.31" r="2.10345" transform="rotate(-90 593.345 517.31)" fill="#5CD9D8"/>
<circle cx="593.345" cy="509.103" r="2.10345" transform="rotate(-90 593.345 509.103)" fill="#5CD9D8"/>
<circle cx="599.655" cy="558.345" r="2.10345" transform="rotate(-90 599.655 558.345)" fill="#5CD9D8"/>
<circle cx="599.655" cy="550.138" r="2.10345" transform="rotate(-90 599.655 550.138)" fill="#5CD9D8"/>
<circle cx="599.655" cy="541.931" r="2.10345" transform="rotate(-90 599.655 541.931)" fill="#5CD9D8"/>
<circle cx="599.655" cy="533.724" r="2.10345" transform="rotate(-90 599.655 533.724)" fill="#5CD9D8"/>
<circle cx="599.655" cy="525.517" r="2.10345" transform="rotate(-90 599.655 525.517)" fill="#5CD9D8"/>
<circle cx="599.655" cy="517.31" r="2.10345" transform="rotate(-90 599.655 517.31)" fill="#5CD9D8"/>
<circle cx="599.655" cy="509.103" r="2.10345" transform="rotate(-90 599.655 509.103)" fill="#5CD9D8"/>
<circle cx="605.965" cy="558.345" r="2.10345" transform="rotate(-90 605.965 558.345)" fill="#5CD9D8"/>
<circle cx="605.965" cy="550.138" r="2.10345" transform="rotate(-90 605.965 550.138)" fill="#5CD9D8"/>
<circle cx="605.965" cy="541.931" r="2.10345" transform="rotate(-90 605.965 541.931)" fill="#5CD9D8"/>
<circle cx="605.965" cy="533.724" r="2.10345" transform="rotate(-90 605.965 533.724)" fill="#5CD9D8"/>
<circle cx="605.965" cy="525.517" r="2.10345" transform="rotate(-90 605.965 525.517)" fill="#5CD9D8"/>
<circle cx="605.965" cy="517.31" r="2.10345" transform="rotate(-90 605.965 517.31)" fill="#5CD9D8"/>
<circle cx="605.965" cy="509.103" r="2.10345" transform="rotate(-90 605.965 509.103)" fill="#5CD9D8"/>
<circle cx="612.276" cy="558.345" r="2.10345" transform="rotate(-90 612.276 558.345)" fill="#5CD9D8"/>
<circle cx="612.276" cy="550.138" r="2.10345" transform="rotate(-90 612.276 550.138)" fill="#5CD9D8"/>
<circle cx="612.276" cy="541.931" r="2.10345" transform="rotate(-90 612.276 541.931)" fill="#5CD9D8"/>
<circle cx="612.276" cy="533.724" r="2.10345" transform="rotate(-90 612.276 533.724)" fill="#5CD9D8"/>
<circle cx="612.276" cy="525.517" r="2.10345" transform="rotate(-90 612.276 525.517)" fill="#5CD9D8"/>
<circle cx="612.276" cy="517.31" r="2.10345" transform="rotate(-90 612.276 517.31)" fill="#5CD9D8"/>
<circle cx="612.276" cy="509.103" r="2.10345" transform="rotate(-90 612.276 509.103)" fill="#5CD9D8"/>
<circle cx="618.586" cy="558.345" r="2.10345" transform="rotate(-90 618.586 558.345)" fill="#5CD9D8"/>
<circle cx="618.586" cy="550.138" r="2.10345" transform="rotate(-90 618.586 550.138)" fill="#5CD9D8"/>
<circle cx="618.586" cy="541.931" r="2.10345" transform="rotate(-90 618.586 541.931)" fill="#5CD9D8"/>
<circle cx="618.586" cy="533.724" r="2.10345" transform="rotate(-90 618.586 533.724)" fill="#5CD9D8"/>
<circle cx="618.586" cy="525.517" r="2.10345" transform="rotate(-90 618.586 525.517)" fill="#5CD9D8"/>
<circle cx="618.586" cy="517.31" r="2.10345" transform="rotate(-90 618.586 517.31)" fill="#5CD9D8"/>
<circle cx="618.586" cy="509.103" r="2.10345" transform="rotate(-90 618.586 509.103)" fill="#5CD9D8"/>
<circle cx="624.896" cy="558.345" r="2.10345" transform="rotate(-90 624.896 558.345)" fill="#5CD9D8"/>
<circle cx="624.896" cy="550.138" r="2.10345" transform="rotate(-90 624.896 550.138)" fill="#5CD9D8"/>
<circle cx="624.896" cy="541.931" r="2.10345" transform="rotate(-90 624.896 541.931)" fill="#5CD9D8"/>
<circle cx="624.896" cy="533.724" r="2.10345" transform="rotate(-90 624.896 533.724)" fill="#5CD9D8"/>
<circle cx="624.896" cy="525.517" r="2.10345" transform="rotate(-90 624.896 525.517)" fill="#5CD9D8"/>
<circle cx="624.896" cy="517.31" r="2.10345" transform="rotate(-90 624.896 517.31)" fill="#5CD9D8"/>
<circle cx="624.896" cy="509.103" r="2.10345" transform="rotate(-90 624.896 509.103)" fill="#5CD9D8"/>
</g>
<g opacity="0.1">
<circle cx="632.103" cy="558.345" r="2.10345" transform="rotate(-90 632.103 558.345)" fill="#5CD9D8"/>
<circle cx="632.103" cy="550.138" r="2.10345" transform="rotate(-90 632.103 550.138)" fill="#5CD9D8"/>
<circle cx="632.103" cy="541.931" r="2.10345" transform="rotate(-90 632.103 541.931)" fill="#5CD9D8"/>
<circle cx="632.103" cy="533.724" r="2.10345" transform="rotate(-90 632.103 533.724)" fill="#5CD9D8"/>
<circle cx="632.103" cy="525.517" r="2.10345" transform="rotate(-90 632.103 525.517)" fill="#5CD9D8"/>
<circle cx="632.103" cy="517.31" r="2.10345" transform="rotate(-90 632.103 517.31)" fill="#5CD9D8"/>
<circle cx="632.103" cy="509.103" r="2.10345" transform="rotate(-90 632.103 509.103)" fill="#5CD9D8"/>
<circle cx="638.414" cy="558.345" r="2.10345" transform="rotate(-90 638.414 558.345)" fill="#5CD9D8"/>
<circle cx="638.414" cy="550.138" r="2.10345" transform="rotate(-90 638.414 550.138)" fill="#5CD9D8"/>
<circle cx="638.414" cy="541.931" r="2.10345" transform="rotate(-90 638.414 541.931)" fill="#5CD9D8"/>
<circle cx="638.414" cy="533.724" r="2.10345" transform="rotate(-90 638.414 533.724)" fill="#5CD9D8"/>
<circle cx="638.414" cy="525.517" r="2.10345" transform="rotate(-90 638.414 525.517)" fill="#5CD9D8"/>
<circle cx="638.414" cy="517.31" r="2.10345" transform="rotate(-90 638.414 517.31)" fill="#5CD9D8"/>
<circle cx="638.414" cy="509.103" r="2.10345" transform="rotate(-90 638.414 509.103)" fill="#5CD9D8"/>
<circle cx="644.724" cy="558.345" r="2.10345" transform="rotate(-90 644.724 558.345)" fill="#5CD9D8"/>
<circle cx="644.724" cy="550.138" r="2.10345" transform="rotate(-90 644.724 550.138)" fill="#5CD9D8"/>
<circle cx="644.724" cy="541.931" r="2.10345" transform="rotate(-90 644.724 541.931)" fill="#5CD9D8"/>
<circle cx="644.724" cy="533.724" r="2.10345" transform="rotate(-90 644.724 533.724)" fill="#5CD9D8"/>
<circle cx="644.724" cy="525.517" r="2.10345" transform="rotate(-90 644.724 525.517)" fill="#5CD9D8"/>
<circle cx="644.724" cy="517.31" r="2.10345" transform="rotate(-90 644.724 517.31)" fill="#5CD9D8"/>
<circle cx="644.724" cy="509.103" r="2.10345" transform="rotate(-90 644.724 509.103)" fill="#5CD9D8"/>
<circle cx="651.034" cy="558.345" r="2.10345" transform="rotate(-90 651.034 558.345)" fill="#5CD9D8"/>
<circle cx="651.034" cy="550.138" r="2.10345" transform="rotate(-90 651.034 550.138)" fill="#5CD9D8"/>
<circle cx="651.034" cy="541.931" r="2.10345" transform="rotate(-90 651.034 541.931)" fill="#5CD9D8"/>
<circle cx="651.034" cy="533.724" r="2.10345" transform="rotate(-90 651.034 533.724)" fill="#5CD9D8"/>
<circle cx="651.034" cy="525.517" r="2.10345" transform="rotate(-90 651.034 525.517)" fill="#5CD9D8"/>
<circle cx="651.034" cy="517.31" r="2.10345" transform="rotate(-90 651.034 517.31)" fill="#5CD9D8"/>
<circle cx="651.034" cy="509.103" r="2.10345" transform="rotate(-90 651.034 509.103)" fill="#5CD9D8"/>
<circle cx="657.345" cy="558.345" r="2.10345" transform="rotate(-90 657.345 558.345)" fill="#5CD9D8"/>
<circle cx="657.345" cy="550.138" r="2.10345" transform="rotate(-90 657.345 550.138)" fill="#5CD9D8"/>
<circle cx="657.345" cy="541.931" r="2.10345" transform="rotate(-90 657.345 541.931)" fill="#5CD9D8"/>
<circle cx="657.345" cy="533.724" r="2.10345" transform="rotate(-90 657.345 533.724)" fill="#5CD9D8"/>
<circle cx="657.345" cy="525.517" r="2.10345" transform="rotate(-90 657.345 525.517)" fill="#5CD9D8"/>
<circle cx="657.345" cy="517.31" r="2.10345" transform="rotate(-90 657.345 517.31)" fill="#5CD9D8"/>
<circle cx="657.345" cy="509.103" r="2.10345" transform="rotate(-90 657.345 509.103)" fill="#5CD9D8"/>
<circle cx="663.655" cy="558.345" r="2.10345" transform="rotate(-90 663.655 558.345)" fill="#5CD9D8"/>
<circle cx="663.655" cy="550.138" r="2.10345" transform="rotate(-90 663.655 550.138)" fill="#5CD9D8"/>
<circle cx="663.655" cy="541.931" r="2.10345" transform="rotate(-90 663.655 541.931)" fill="#5CD9D8"/>
<circle cx="663.655" cy="533.724" r="2.10345" transform="rotate(-90 663.655 533.724)" fill="#5CD9D8"/>
<circle cx="663.655" cy="525.517" r="2.10345" transform="rotate(-90 663.655 525.517)" fill="#5CD9D8"/>
<circle cx="663.655" cy="517.31" r="2.10345" transform="rotate(-90 663.655 517.31)" fill="#5CD9D8"/>
<circle cx="663.655" cy="509.103" r="2.10345" transform="rotate(-90 663.655 509.103)" fill="#5CD9D8"/>
<circle cx="669.965" cy="558.345" r="2.10345" transform="rotate(-90 669.965 558.345)" fill="#5CD9D8"/>
<circle cx="669.965" cy="550.138" r="2.10345" transform="rotate(-90 669.965 550.138)" fill="#5CD9D8"/>
<circle cx="669.965" cy="541.931" r="2.10345" transform="rotate(-90 669.965 541.931)" fill="#5CD9D8"/>
<circle cx="669.965" cy="533.724" r="2.10345" transform="rotate(-90 669.965 533.724)" fill="#5CD9D8"/>
<circle cx="669.965" cy="525.517" r="2.10345" transform="rotate(-90 669.965 525.517)" fill="#5CD9D8"/>
<circle cx="669.965" cy="517.31" r="2.10345" transform="rotate(-90 669.965 517.31)" fill="#5CD9D8"/>
<circle cx="669.965" cy="509.103" r="2.10345" transform="rotate(-90 669.965 509.103)" fill="#5CD9D8"/>
<circle cx="676.276" cy="558.345" r="2.10345" transform="rotate(-90 676.276 558.345)" fill="#5CD9D8"/>
<circle cx="676.276" cy="550.138" r="2.10345" transform="rotate(-90 676.276 550.138)" fill="#5CD9D8"/>
<circle cx="676.276" cy="541.931" r="2.10345" transform="rotate(-90 676.276 541.931)" fill="#5CD9D8"/>
<circle cx="676.276" cy="533.724" r="2.10345" transform="rotate(-90 676.276 533.724)" fill="#5CD9D8"/>
<circle cx="676.276" cy="525.517" r="2.10345" transform="rotate(-90 676.276 525.517)" fill="#5CD9D8"/>
<circle cx="676.276" cy="517.31" r="2.10345" transform="rotate(-90 676.276 517.31)" fill="#5CD9D8"/>
<circle cx="676.276" cy="509.103" r="2.10345" transform="rotate(-90 676.276 509.103)" fill="#5CD9D8"/>
<circle cx="682.586" cy="558.345" r="2.10345" transform="rotate(-90 682.586 558.345)" fill="#5CD9D8"/>
<circle cx="682.586" cy="550.138" r="2.10345" transform="rotate(-90 682.586 550.138)" fill="#5CD9D8"/>
<circle cx="682.586" cy="541.931" r="2.10345" transform="rotate(-90 682.586 541.931)" fill="#5CD9D8"/>
<circle cx="682.586" cy="533.724" r="2.10345" transform="rotate(-90 682.586 533.724)" fill="#5CD9D8"/>
<circle cx="682.586" cy="525.517" r="2.10345" transform="rotate(-90 682.586 525.517)" fill="#5CD9D8"/>
<circle cx="682.586" cy="517.31" r="2.10345" transform="rotate(-90 682.586 517.31)" fill="#5CD9D8"/>
<circle cx="682.586" cy="509.103" r="2.10345" transform="rotate(-90 682.586 509.103)" fill="#5CD9D8"/>
<circle cx="688.896" cy="558.345" r="2.10345" transform="rotate(-90 688.896 558.345)" fill="#5CD9D8"/>
<circle cx="688.896" cy="550.138" r="2.10345" transform="rotate(-90 688.896 550.138)" fill="#5CD9D8"/>
<circle cx="688.896" cy="541.931" r="2.10345" transform="rotate(-90 688.896 541.931)" fill="#5CD9D8"/>
<circle cx="688.896" cy="533.724" r="2.10345" transform="rotate(-90 688.896 533.724)" fill="#5CD9D8"/>
<circle cx="688.896" cy="525.517" r="2.10345" transform="rotate(-90 688.896 525.517)" fill="#5CD9D8"/>
<circle cx="688.896" cy="517.31" r="2.10345" transform="rotate(-90 688.896 517.31)" fill="#5CD9D8"/>
<circle cx="688.896" cy="509.103" r="2.10345" transform="rotate(-90 688.896 509.103)" fill="#5CD9D8"/>
</g>
</g>
<defs>
<filter id="filter0_d" x="0.855568" y="0.855813" width="703.577" height="637.577" filterUnits="userSpaceOnUse" color-interpolation-filters="sRGB">
<feFlood flood-opacity="0" result="BackgroundImageFix"/>
<feColorMatrix in="SourceAlpha" type="matrix" values="0 0 0 0 0 0 0 0 0 0 0 0 0 0 0 0 0 0 127 0"/>
<feOffset dx="5.14419" dy="5.14419"/>
<feGaussianBlur stdDeviation="5.14419"/>
<feColorMatrix type="matrix" values="0 0 0 0 0.563559 0 0 0 0 0.572596 0 0 0 0 0.595833 0 0 0 0.2 0"/>
<feBlend mode="normal" in2="BackgroundImageFix" result="effect1_dropShadow"/>
<feBlend mode="normal" in="SourceGraphic" in2="effect1_dropShadow" result="shape"/>
</filter>
<clipPath id="clip0">
<rect width="1440" height="5362" fill="white" transform="translate(-740 -147)"/>
</clipPath>
</defs>
</svg>
