<svg id="Layer_1" data-name="Layer 1" xmlns="http://www.w3.org/2000/svg" xmlns:xlink="http://www.w3.org/1999/xlink" viewBox="0 0 1252.17 612.29"><defs><style>.cls-1{fill:#5cd9d8;}.cls-2{opacity:0.1;isolation:isolate;fill:url(#linear-gradient);}</style><linearGradient id="linear-gradient" x1="-10.81" y1="656.71" x2="17.41" y2="422.1" gradientTransform="matrix(1, 0, 0, -1, 0, 746)" gradientUnits="userSpaceOnUse"><stop offset="0" stop-color="#6cdddc" stop-opacity="0"/><stop offset="1" stop-color="#6cdddc"/></linearGradient></defs><title>SectionBackground2</title><path class="cls-1" d="M701,664.26a130.92,130.92,0,0,1,9.26-9.73,129.17,129.17,0,0,1,9.74-9.27c.12.13-4,4.48-9.27,9.74S701.13,664.39,701,664.26Z" transform="translate(137.98 -51.97)"/><path class="cls-1" d="M720,664.26c-.13.13-4.49-4-9.74-9.26a133.06,133.06,0,0,1-9.26-9.74,133.15,133.15,0,0,1,9.73,9.27C716,659.83,720.12,664.13,720,664.26Z" transform="translate(137.98 -51.97)"/><path class="cls-1" d="M190,550.1a2.31,2.31,0,0,1-.25-.36l-.64-1-2.37-3.88-8.2-13.74.41.1-19.37,11.15c0,.11.23-.87.12-.45V542l.1.17.18.32.4.66.75,1.29,1.5,2.59,2.88,5,5.23,9.06-.41-.12,14.06-7.85,4-2.2,1.07-.57.41-.19a13.76,13.76,0,0,1-1.31.83l-3.93,2.29-14.07,8.19-.26.16-.14-.26-5.32-9-2.9-5-1.49-2.58-.77-1.3-.38-.65-.19-.33-.1-.17v-.07c-.11.4.15-.57.13-.47l19.5-11,.25-.14.14.25,8.05,14.12,2.18,3.88Q189.65,549.44,190,550.1Z" transform="translate(137.98 -51.97)"/><path class="cls-1" d="M1114.19,229.79a17.21,17.21,0,0,1-2.12.63l-6.3,1.67c-5.4,1.46-13.23,3.56-22.43,5.87l-.73.19.09-.75,2-17.59,1.72-13.82.11-1,.75.65c7.92,7,14.73,13.18,19.45,17.46l5.48,5,1.92,1.68s-.79-.69-2.21-1.8l-5.79-4.91c-4.92-4.18-11.72-9.93-19.49-16.72l.87-.31-1.67,13.84c-.76,6.23-1.5,12.19-2.19,17.65l-.64-.56c9-2.17,16.61-3.92,22.15-5.18l6.51-1.48C1113.29,230,1114.15,229.78,1114.19,229.79Z" transform="translate(137.98 -51.97)"/><path class="cls-2" d="M-137.36,96.12a12.56,12.56,0,0,1,10.17-12.29L35.75,52.2a12.58,12.58,0,0,1,12.77,5.25L149.81,205.64a12.57,12.57,0,0,1-.7,15.11L48.78,342a12.55,12.55,0,0,1-14.71,3.5l-164.51-71.8A12.57,12.57,0,0,1-138,262.1Z" transform="translate(137.98 -51.97)"/></svg>