<svg id="Layer_1" data-name="Layer 1" xmlns="http://www.w3.org/2000/svg" viewBox="0 0 1388 677"><defs><style>.cls-1{fill:#5cd9d8;}.cls-2{opacity:0.1;}</style></defs><title>SectionBackground1</title><path class="cls-1" d="M616,92a133.06,133.06,0,0,1,9.26-9.74A131.07,131.07,0,0,1,635,73c.12.13-4,4.48-9.27,9.73S616.13,92.12,616,92Z"/><path class="cls-1" d="M635,92c-.13.12-4.49-4-9.74-9.27A130.92,130.92,0,0,1,616,73a130.92,130.92,0,0,1,9.73,9.26C631,87.57,635.12,91.87,635,92Z"/><path class="cls-1" d="M312,641.54a1.78,1.78,0,0,1-.25-.36l-.64-1-2.37-3.88-8.2-13.74.4.1-19.37,11.15c0,.11.24-.87.12-.45v.08l.11.17.18.32.39.66.76,1.29,1.49,2.59,2.88,5,5.24,9.06-.41-.12,14.06-7.85,4-2.2,1.08-.57.4-.19a12.61,12.61,0,0,1-1.31.83l-3.92,2.29-14.07,8.19-.26.16-.15-.26-5.31-9-2.9-5-1.5-2.58-.77-1.3-.38-.65-.18-.33-.11-.17v-.07c-.1.4.16-.57.14-.47l19.49-11,.25-.14.15.25,8.05,14.12,2.18,3.88Q311.67,640.88,312,641.54Z"/><path class="cls-1" d="M543.72,485.19a10.24,10.24,0,0,0-.61-1.13,5.31,5.31,0,0,0-5.09-2.47,5.21,5.21,0,0,0-2.31.87,5,5,0,0,0-1.82,2.33,4.81,4.81,0,0,0-.15,2.95,4.93,4.93,0,0,0,1.58,2.5,5.06,5.06,0,0,0,2.75,1.16,5.12,5.12,0,0,0,5.62-4.94c0-.8-.1-1.3,0-1.3a2.67,2.67,0,0,1,.3,1.3,5.15,5.15,0,0,1-1.06,3.42,5.57,5.57,0,0,1-2.15,1.66,5.49,5.49,0,0,1-2.69.44A5.69,5.69,0,0,1,535,490.7a5.5,5.5,0,0,1-1.79-2.83,5.42,5.42,0,0,1,.18-3.33A5.57,5.57,0,0,1,538,481a5.67,5.67,0,0,1,2.7.42,5.29,5.29,0,0,1,2.63,2.46A2.81,2.81,0,0,1,543.72,485.19Z"/><path class="cls-1" d="M768,676.74a10.62,10.62,0,0,1,.73-1.15l2.25-3.34c1.93-2.88,4.71-7,8.06-11.86l.26-.39.26.39,6.24,9,4.85,7.12.35.5h-.61c-6.54,0-12.26-.12-16.2-.18l-4.61-.09H768s.66,0,1.77-.06l4.7-.08c4-.06,9.52-.17,15.92-.18l-.28.5-4.88-7.11c-2.19-3.2-4.28-6.27-6.19-9.08h.52c-3.28,4.65-6.13,8.58-8.2,11.42l-2.43,3.34C768.35,676.29,768,676.73,768,676.74Z"/><path class="cls-1" d="M1305,59.26a10.62,10.62,0,0,1-.73,1.15L1302,63.75c-1.93,2.88-4.71,7-8.06,11.86l-.26.39-.26-.39-6.24-9-4.85-7.12L1282,59h.61c6.54,0,12.26.12,16.2.18l4.61.09H1305s-.66,0-1.77.06l-4.7.08c-4,.07-9.52.17-15.92.18l.28-.5,4.88,7.11c2.19,3.2,4.28,6.27,6.19,9.08h-.52c3.28-4.65,6.13-8.58,8.2-11.42l2.43-3.34C1304.64,59.71,1305,59.27,1305,59.26Z"/><path class="cls-1" d="M329,15.1a7.8,7.8,0,0,1-.72-1.08l-1.8-2.95C325,8.54,322.88,5,320.36.71l.56.15L306.68,9.34c0,.13.33-1.24.16-.66v.13l.15.24.27.51.57,1,1.1,1.94,2.12,3.78,3.87,6.91-.55-.15c4.24-2.44,7.83-4.45,10.38-5.86l3-1.63a5.6,5.6,0,0,1,1.15-.57,8.39,8.39,0,0,1-.92.64l-2.82,1.83c-2.45,1.54-6,3.76-10.39,6.36l-.36.2-.2-.35c-1.22-2.12-2.55-4.43-3.94-6.87L308.12,13,307,11.08l-.57-1-.27-.51L306,9.34V9.22c-.14.58.22-.79.18-.65L320.61.2,321,0l.2.35c2.5,4.47,4.52,8.22,5.89,10.79.63,1.19,1.15,2.16,1.56,3A4.6,4.6,0,0,1,329,15.1Z"/><g class="cls-2"><circle class="cls-1" cx="1265.1" cy="588.34" r="2.1"/><circle class="cls-1" cx="1265.1" cy="580.14" r="2.1"/><circle class="cls-1" cx="1265.1" cy="571.93" r="2.1"/><circle class="cls-1" cx="1265.1" cy="563.72" r="2.1"/><circle class="cls-1" cx="1265.1" cy="555.52" r="2.1"/><circle class="cls-1" cx="1265.1" cy="547.31" r="2.1"/><circle class="cls-1" cx="1265.1" cy="539.1" r="2.1"/><circle class="cls-1" cx="1271.41" cy="588.34" r="2.1"/><circle class="cls-1" cx="1271.41" cy="580.14" r="2.1"/><circle class="cls-1" cx="1271.41" cy="571.93" r="2.1"/><circle class="cls-1" cx="1271.41" cy="563.72" r="2.1"/><circle class="cls-1" cx="1271.41" cy="555.52" r="2.1"/><circle class="cls-1" cx="1271.41" cy="547.31" r="2.1"/><circle class="cls-1" cx="1271.41" cy="539.1" r="2.1"/><circle class="cls-1" cx="1277.72" cy="588.34" r="2.1"/><circle class="cls-1" cx="1277.72" cy="580.14" r="2.1"/><circle class="cls-1" cx="1277.72" cy="571.93" r="2.1"/><circle class="cls-1" cx="1277.72" cy="563.72" r="2.1"/><circle class="cls-1" cx="1277.72" cy="555.52" r="2.1"/><circle class="cls-1" cx="1277.72" cy="547.31" r="2.1"/><circle class="cls-1" cx="1277.72" cy="539.1" r="2.1"/><circle class="cls-1" cx="1284.03" cy="588.34" r="2.1"/><circle class="cls-1" cx="1284.03" cy="580.14" r="2.1"/><circle class="cls-1" cx="1284.03" cy="571.93" r="2.1"/><circle class="cls-1" cx="1284.03" cy="563.72" r="2.1"/><circle class="cls-1" cx="1284.03" cy="555.52" r="2.1"/><circle class="cls-1" cx="1284.03" cy="547.31" r="2.1"/><circle class="cls-1" cx="1284.03" cy="539.1" r="2.1"/><circle class="cls-1" cx="1290.34" cy="588.34" r="2.1"/><circle class="cls-1" cx="1290.34" cy="580.14" r="2.1"/><circle class="cls-1" cx="1290.34" cy="571.93" r="2.1"/><circle class="cls-1" cx="1290.34" cy="563.72" r="2.1"/><circle class="cls-1" cx="1290.34" cy="555.52" r="2.1"/><circle class="cls-1" cx="1290.34" cy="547.31" r="2.1"/><circle class="cls-1" cx="1290.34" cy="539.1" r="2.1"/><circle class="cls-1" cx="1296.66" cy="588.34" r="2.1"/><circle class="cls-1" cx="1296.66" cy="580.14" r="2.1"/><circle class="cls-1" cx="1296.66" cy="571.93" r="2.1"/><circle class="cls-1" cx="1296.66" cy="563.72" r="2.1"/><circle class="cls-1" cx="1296.66" cy="555.52" r="2.1"/><circle class="cls-1" cx="1296.66" cy="547.31" r="2.1"/><circle class="cls-1" cx="1296.66" cy="539.1" r="2.1"/><circle class="cls-1" cx="1302.97" cy="588.34" r="2.1"/><circle class="cls-1" cx="1302.97" cy="580.14" r="2.1"/><circle class="cls-1" cx="1302.97" cy="571.93" r="2.1"/><circle class="cls-1" cx="1302.97" cy="563.72" r="2.1"/><circle class="cls-1" cx="1302.97" cy="555.52" r="2.1"/><circle class="cls-1" cx="1302.97" cy="547.31" r="2.1"/><circle class="cls-1" cx="1302.97" cy="539.1" r="2.1"/><circle class="cls-1" cx="1309.28" cy="588.34" r="2.1"/><circle class="cls-1" cx="1309.28" cy="580.14" r="2.1"/><circle class="cls-1" cx="1309.28" cy="571.93" r="2.1"/><circle class="cls-1" cx="1309.28" cy="563.72" r="2.1"/><circle class="cls-1" cx="1309.28" cy="555.52" r="2.1"/><circle class="cls-1" cx="1309.28" cy="547.31" r="2.1"/><circle class="cls-1" cx="1309.28" cy="539.1" r="2.1"/><circle class="cls-1" cx="1315.59" cy="588.34" r="2.1"/><circle class="cls-1" cx="1315.59" cy="580.14" r="2.1"/><circle class="cls-1" cx="1315.59" cy="571.93" r="2.1"/><circle class="cls-1" cx="1315.59" cy="563.72" r="2.1"/><circle class="cls-1" cx="1315.59" cy="555.52" r="2.1"/><circle class="cls-1" cx="1315.59" cy="547.31" r="2.1"/><circle class="cls-1" cx="1315.59" cy="539.1" r="2.1"/><circle class="cls-1" cx="1321.9" cy="588.34" r="2.1"/><circle class="cls-1" cx="1321.9" cy="580.14" r="2.1"/><circle class="cls-1" cx="1321.9" cy="571.93" r="2.1"/><circle class="cls-1" cx="1321.9" cy="563.72" r="2.1"/><circle class="cls-1" cx="1321.9" cy="555.52" r="2.1"/><circle class="cls-1" cx="1321.9" cy="547.31" r="2.1"/><circle class="cls-1" cx="1321.9" cy="539.1" r="2.1"/></g><g class="cls-2"><circle class="cls-1" cx="1329.1" cy="588.34" r="2.1"/><circle class="cls-1" cx="1329.1" cy="580.14" r="2.1"/><circle class="cls-1" cx="1329.1" cy="571.93" r="2.1"/><circle class="cls-1" cx="1329.1" cy="563.72" r="2.1"/><circle class="cls-1" cx="1329.1" cy="555.52" r="2.1"/><circle class="cls-1" cx="1329.1" cy="547.31" r="2.1"/><circle class="cls-1" cx="1329.1" cy="539.1" r="2.1"/><circle class="cls-1" cx="1335.41" cy="588.34" r="2.1"/><circle class="cls-1" cx="1335.41" cy="580.14" r="2.1"/><circle class="cls-1" cx="1335.41" cy="571.93" r="2.1"/><circle class="cls-1" cx="1335.41" cy="563.72" r="2.1"/><circle class="cls-1" cx="1335.41" cy="555.52" r="2.1"/><circle class="cls-1" cx="1335.41" cy="547.31" r="2.1"/><circle class="cls-1" cx="1335.41" cy="539.1" r="2.1"/><circle class="cls-1" cx="1341.72" cy="588.34" r="2.1"/><circle class="cls-1" cx="1341.72" cy="580.14" r="2.1"/><circle class="cls-1" cx="1341.72" cy="571.93" r="2.1"/><circle class="cls-1" cx="1341.72" cy="563.72" r="2.1"/><circle class="cls-1" cx="1341.72" cy="555.52" r="2.1"/><circle class="cls-1" cx="1341.72" cy="547.31" r="2.1"/><circle class="cls-1" cx="1341.72" cy="539.1" r="2.1"/><circle class="cls-1" cx="1348.03" cy="588.34" r="2.1"/><circle class="cls-1" cx="1348.03" cy="580.14" r="2.1"/><circle class="cls-1" cx="1348.03" cy="571.93" r="2.1"/><circle class="cls-1" cx="1348.03" cy="563.72" r="2.1"/><circle class="cls-1" cx="1348.03" cy="555.52" r="2.1"/><circle class="cls-1" cx="1348.03" cy="547.31" r="2.1"/><circle class="cls-1" cx="1348.03" cy="539.1" r="2.1"/><circle class="cls-1" cx="1354.34" cy="588.34" r="2.1"/><circle class="cls-1" cx="1354.34" cy="580.14" r="2.1"/><circle class="cls-1" cx="1354.34" cy="571.93" r="2.1"/><circle class="cls-1" cx="1354.34" cy="563.72" r="2.1"/><circle class="cls-1" cx="1354.34" cy="555.52" r="2.1"/><circle class="cls-1" cx="1354.34" cy="547.31" r="2.1"/><circle class="cls-1" cx="1354.34" cy="539.1" r="2.1"/><circle class="cls-1" cx="1360.66" cy="588.34" r="2.1"/><circle class="cls-1" cx="1360.66" cy="580.14" r="2.1"/><circle class="cls-1" cx="1360.66" cy="571.93" r="2.1"/><circle class="cls-1" cx="1360.66" cy="563.72" r="2.1"/><circle class="cls-1" cx="1360.66" cy="555.52" r="2.1"/><circle class="cls-1" cx="1360.66" cy="547.31" r="2.1"/><circle class="cls-1" cx="1360.66" cy="539.1" r="2.1"/><circle class="cls-1" cx="1366.97" cy="588.34" r="2.1"/><circle class="cls-1" cx="1366.97" cy="580.14" r="2.1"/><circle class="cls-1" cx="1366.97" cy="571.93" r="2.1"/><circle class="cls-1" cx="1366.97" cy="563.72" r="2.1"/><circle class="cls-1" cx="1366.97" cy="555.52" r="2.1"/><circle class="cls-1" cx="1366.97" cy="547.31" r="2.1"/><circle class="cls-1" cx="1366.97" cy="539.1" r="2.1"/><circle class="cls-1" cx="1373.28" cy="588.34" r="2.1"/><circle class="cls-1" cx="1373.28" cy="580.14" r="2.1"/><circle class="cls-1" cx="1373.28" cy="571.93" r="2.1"/><circle class="cls-1" cx="1373.28" cy="563.72" r="2.1"/><circle class="cls-1" cx="1373.28" cy="555.52" r="2.1"/><circle class="cls-1" cx="1373.28" cy="547.31" r="2.1"/><circle class="cls-1" cx="1373.28" cy="539.1" r="2.1"/><circle class="cls-1" cx="1379.59" cy="588.34" r="2.1"/><circle class="cls-1" cx="1379.59" cy="580.14" r="2.1"/><circle class="cls-1" cx="1379.59" cy="571.93" r="2.1"/><circle class="cls-1" cx="1379.59" cy="563.72" r="2.1"/><circle class="cls-1" cx="1379.59" cy="555.52" r="2.1"/><circle class="cls-1" cx="1379.59" cy="547.31" r="2.1"/><circle class="cls-1" cx="1379.59" cy="539.1" r="2.1"/><circle class="cls-1" cx="1385.9" cy="588.34" r="2.1"/><circle class="cls-1" cx="1385.9" cy="580.14" r="2.1"/><circle class="cls-1" cx="1385.9" cy="571.93" r="2.1"/><circle class="cls-1" cx="1385.9" cy="563.72" r="2.1"/><circle class="cls-1" cx="1385.9" cy="555.52" r="2.1"/><circle class="cls-1" cx="1385.9" cy="547.31" r="2.1"/><circle class="cls-1" cx="1385.9" cy="539.1" r="2.1"/></g><path class="cls-1" d="M20,383a7.88,7.88,0,0,1-1.38,1.56l-4,4c-3.42,3.34-8.18,7.91-13.47,12.92l-.13.11v-.68c5.37,4.93,10.13,9.4,13.58,12.67l4,3.91A7.81,7.81,0,0,1,20,419a9.09,9.09,0,0,1-1.63-1.26c-1.16-1-2.57-2.24-4.24-3.7C10.55,410.9,5.71,406.49.36,401.6L0,401.27l.36-.34.12-.13c5.37-5,10.15-9.48,13.67-12.7l4.22-3.78A9.81,9.81,0,0,1,20,383Z"/></svg>