<svg id="Layer_1" data-name="Layer 1" xmlns="http://www.w3.org/2000/svg" xmlns:xlink="http://www.w3.org/1999/xlink" viewBox="0 0 1440 565.5"><defs><style>.cls-1{fill:#24b2b1;}.cls-2,.cls-8{fill:#fff;}.cls-3{fill:none;}.cls-4{fill:#263238;}.cls-5{fill:#ce7a63;}.cls-6,.cls-8{opacity:0.2;}.cls-10,.cls-6,.cls-8{isolation:isolate;}.cls-7{fill:#5cd9d8;}.cls-9{fill:#ba4d3c;}.cls-10{opacity:0.3;}.cls-11{fill:#408cff;}.cls-12{fill:#b55b52;}.cls-13{fill:url(#linear-gradient);}</style><linearGradient id="linear-gradient" x1="639.91" y1="216.71" x2="706.12" y2="144.1" gradientTransform="matrix(1, 0, 0, -1, 0, 568)" gradientUnits="userSpaceOnUse"><stop offset="0" stop-color="#24b2b1" stop-opacity="0.5"/><stop offset="1" stop-color="#5cd9d8" stop-opacity="0.3"/></linearGradient></defs><title>SectionBackground3</title><rect class="cls-1" width="1440" height="565.5"/><path class="cls-2" d="M679,61a133.06,133.06,0,0,1,9.26-9.74A131.07,131.07,0,0,1,698,42c.12.13-4,4.48-9.27,9.73S679.13,61.12,679,61Z" transform="translate(0 -0.75)"/><path class="cls-2" d="M698,61c-.13.12-4.49-4-9.74-9.27A130.92,130.92,0,0,1,679,42a130.92,130.92,0,0,1,9.73,9.26C694,56.57,698.12,60.87,698,61Z" transform="translate(0 -0.75)"/><path class="cls-2" d="M1305,360.54a1.78,1.78,0,0,1-.25-.36l-.64-1-2.37-3.87-8.2-13.74.4.1-19.37,11.15c0,.11.24-.86.12-.45v.08l.11.17.18.32.39.66.76,1.29,1.49,2.59,2.88,5,5.24,9.06-.41-.12,14.06-7.85,4-2.2,1.08-.57.4-.19a12.61,12.61,0,0,1-1.31.83l-3.92,2.28-14.07,8.21-.26.15-.15-.26-5.31-9.05-2.9-5-1.5-2.58-.77-1.29-.38-.66-.18-.33-.11-.17v-.07c-.1.4.16-.57.14-.47l19.49-11,.25-.14.15.25,8,14.12,2.19,3.88Q1304.67,359.88,1305,360.54Z" transform="translate(0 -0.75)"/><path class="cls-2" d="M876.72,349.18a10.24,10.24,0,0,0-.61-1.13,5.25,5.25,0,0,0-2.63-2.15,5.14,5.14,0,0,0-2.46-.31,5.09,5.09,0,0,0-2.31.87,4.87,4.87,0,0,0-1.82,2.33,4.77,4.77,0,0,0-.15,2.94,4.89,4.89,0,0,0,1.58,2.5,5.06,5.06,0,0,0,2.75,1.16,5.15,5.15,0,0,0,2.45-.36,5.23,5.23,0,0,0,2-1.46,5.32,5.32,0,0,0,1.18-3.12c0-.8-.1-1.29,0-1.29a2.63,2.63,0,0,1,.3,1.29,5.15,5.15,0,0,1-1.06,3.42,5.57,5.57,0,0,1-2.15,1.66,5.49,5.49,0,0,1-2.69.44,5.62,5.62,0,0,1-3.12-1.28,5.51,5.51,0,0,1-1.79-2.82,5.41,5.41,0,0,1,.18-3.33,5.59,5.59,0,0,1,7.37-3.11,5.36,5.36,0,0,1,2.63,2.47A2.74,2.74,0,0,1,876.72,349.18Z" transform="translate(0 -0.75)"/><path class="cls-2" d="M51,325.74a10.62,10.62,0,0,1,.73-1.15L54,321.25c1.92-2.88,4.71-7.05,8.06-11.86l.26-.39.26.39,6.24,9,4.85,7.12.35.5h-.61c-6.54,0-12.26-.12-16.2-.18l-4.61-.09H51s.66,0,1.77-.06l4.7-.08c4-.07,9.52-.17,15.92-.18l-.28.5-4.88-7.11C66,315.61,64,312.53,62,309.72h.52c-3.28,4.65-6.13,8.58-8.2,11.42l-2.43,3.34C51.35,325.29,51,325.73,51,325.74Z" transform="translate(0 -0.75)"/><path class="cls-2" d="M1182,86.83a8.57,8.57,0,0,1-.66,1l-2,3c-1.72,2.57-4.22,6.3-7.22,10.62l-.24.35-.23-.35-5.59-8.06-4.34-6.37-.32-.45h.55c5.86,0,11,.1,14.51.16l4.13.08H1182s-.59,0-1.59.06l-4.21.07c-3.58,0-8.53.14-14.26.16l.25-.45,4.37,6.36c2,2.87,3.84,5.62,5.55,8.14h-.47c2.94-4.16,5.49-7.69,7.35-10.23l2.17-3C1181.68,87.23,1182,86.84,1182,86.83Z" transform="translate(0 -0.75)"/><path class="cls-2" d="M470,435.1a7.8,7.8,0,0,1-.72-1.08l-1.8-2.95c-1.51-2.53-3.6-6.09-6.12-10.36l.56.15-14.24,8.48c0,.13.33-1.24.16-.66v.13l.15.24.27.51.57,1,1.1,1.94,2.13,3.78,3.86,6.91-.55-.15c4.24-2.44,7.83-4.45,10.38-5.86l3-1.63a5.13,5.13,0,0,1,1.15-.57,8.39,8.39,0,0,1-.92.64l-2.82,1.83c-2.45,1.54-6,3.76-10.39,6.36l-.36.2-.2-.35c-1.22-2.12-2.55-4.43-3.94-6.87L449.12,433l-1.1-1.95-.57-1-.27-.52-.15-.24v-.13c-.14.59.22-.78.18-.64l14.4-8.37.34-.2.2.35c2.5,4.47,4.52,8.22,5.89,10.79.63,1.19,1.15,2.16,1.56,3A4.92,4.92,0,0,1,470,435.1Z" transform="translate(0 -0.75)"/><circle class="cls-3" cx="136" cy="281.25" r="16"/><path class="cls-4" d="M1039.53,141.7l-.4,1.35-.37,1.14c-.25.77-.52,1.48-.79,2.21-.55,1.43-1.15,2.83-1.81,4.22a76,76,0,0,1-4.29,8c-.79,1.29-1.62,2.54-2.47,3.79s-1.76,2.45-2.71,3.63a78.94,78.94,0,0,1-6,6.81l-.45.46a7,7,0,0,1-2.15,1.5,17,17,0,0,1-7.58,1.41,19.12,19.12,0,0,1-6.57-1.55,23,23,0,0,1-4.91-2.81,36.45,36.45,0,0,1-3.86-3.27,48.27,48.27,0,0,1-5.91-7.16c-.85-1.24-1.63-2.51-2.37-3.79s-1.38-2.57-2.08-4.05a4.58,4.58,0,0,1,4.41-6.53,4.68,4.68,0,0,1,2.85,1.22l.29.28,2.8,2.56c1,.87,1.92,1.71,2.89,2.51a53,53,0,0,0,5.84,4.28,16.44,16.44,0,0,0,5.24,2.29,2.78,2.78,0,0,0,1.46,0,.77.77,0,0,0,.37-.34l-2.63,2c1.45-2,2.85-4,4.15-6s2.53-4.19,3.69-6.33,2.22-4.36,3.2-6.57c.5-1.14,1-2.22,1.41-3.32l1.15-3,.32-.82a9.16,9.16,0,0,1,17.29,5.87Z" transform="translate(0 -0.75)"/><path class="cls-5" d="M988.06,153.66,980.32,151l-1.62-10.6s13,3.43,12.92,9.68Z" transform="translate(0 -0.75)"/><path class="cls-4" d="M1033.66,98.43c-5.05-1.78-12-7.82-9.29-15.64,2.09-5.93,9.81-6.46,12.84-4.68s3.16-1.87,7-3.27,6.62,2.12,8.59,4,4.27.45,7.19.58,5,4,3.38,6.74c-2.87,4.9,1.86,8-1.72,11.84-5.28,5.55-1.15,11-8.59,16.53C1048.58,117.88,1035.73,111.66,1033.66,98.43Z" transform="translate(0 -0.75)"/><path class="cls-4" d="M1033.57,103.6a1.37,1.37,0,0,1-.62.2,1.44,1.44,0,0,1-1.56-1.31,14.32,14.32,0,0,1,4.72-12.26,1.4,1.4,0,0,1,.5-.26,1.5,1.5,0,0,1,.56,0,1.72,1.72,0,0,1,.54.18,1.64,1.64,0,0,1,.42.37,1.83,1.83,0,0,1,.26.5,1.75,1.75,0,0,1,0,.56,1.57,1.57,0,0,1-.17.53,1.39,1.39,0,0,1-.37.43,11.39,11.39,0,0,0-3.63,9.74,1.32,1.32,0,0,1-.15.78A1.44,1.44,0,0,1,1033.57,103.6Z" transform="translate(0 -0.75)"/><path class="cls-2" d="M1025.33,130.25s-10.15,26-.51,74.42h46c.32-7.07-4.12-41.54,2.69-74.84a122.91,122.91,0,0,0-15.41-1.94,168.12,168.12,0,0,0-19.57,0A86.22,86.22,0,0,0,1025.33,130.25Z" transform="translate(0 -0.75)"/><path class="cls-5" d="M1056.21,105.78c-1.24,6.3-2.47,17.84,1.93,22,0,0-7.37,6-15.12,12a13,13,0,0,1-3.81-5.43,13.18,13.18,0,0,1-.64-6.59c7-1.67,6.87-6.87,5.62-11.78Z" transform="translate(0 -0.75)"/><path class="cls-6" d="M1051.31,110l-7.11,6.07a19.23,19.23,0,0,1,.61,3.44c2.29,2.17,6.37-3.33,6.66-6.14A9.56,9.56,0,0,0,1051.31,110Z" transform="translate(0 -0.75)"/><path class="cls-5" d="M1056.12,95.19c.33,8.54,1,13.52-2.91,18.32-5.8,7.19-16.65,4.34-19.52-3.94-2.57-7.44-2.67-20.15,5.31-24.34a11.65,11.65,0,0,1,17.12,10Z" transform="translate(0 -0.75)"/><path class="cls-4" d="M1055.89,103.09c-2.35,4.58-5-9.91-4.36-12.32-8.3,2.29-21,1.53-20-4.26,1.14-6.54,8.74-6.79,17.17-6C1062.57,81.86,1058.44,98.12,1055.89,103.09Z" transform="translate(0 -0.75)"/><path class="cls-4" d="M1051.78,103.9a1.5,1.5,0,0,1-.63-.11,1.35,1.35,0,0,1-.45-.33,1.14,1.14,0,0,1-.31-.47,1.31,1.31,0,0,1-.1-.55,1.47,1.47,0,0,1,.12-.55,14.3,14.3,0,0,1,4-5.47,14.12,14.12,0,0,1,6-3,1.42,1.42,0,0,1,1.06.23,1.34,1.34,0,0,1,.59.91,1.37,1.37,0,0,1-.23,1.06,1.43,1.43,0,0,1-.9.6,11.41,11.41,0,0,0-7.86,6.87,1.4,1.4,0,0,1-1.3.85Z" transform="translate(0 -0.75)"/><path class="cls-5" d="M1060.38,101.2a8.61,8.61,0,0,1-3.34,5.12c-2.23,1.55-4-.36-3.94-3,.06-2.41,1.3-6.12,3.79-6.6S1060.94,98.67,1060.38,101.2Z" transform="translate(0 -0.75)"/><path class="cls-4" d="M1020.15,421.07a3.59,3.59,0,0,1-2.58,0,.7.7,0,0,1-.24-.41.72.72,0,0,1,0-.46.78.78,0,0,1,.19-.36.9.9,0,0,1,.33-.25c1.29-.72,4.57.22,4.72.26a.26.26,0,0,1,.11.07.2.2,0,0,1,0,.24.26.26,0,0,1-.11.07A15.29,15.29,0,0,1,1020.15,421.07Zm-1.7-1.3a1.58,1.58,0,0,0-.36.14.62.62,0,0,0-.2.15.48.48,0,0,0-.12.22c-.1.28,0,.38.06.44.51.45,2.62-.06,4.12-.66A9.19,9.19,0,0,0,1018.45,419.77Z" transform="translate(0 -0.75)"/><path class="cls-4" d="M1022.61,420.21h-.08c-1.15-.2-3.52-1.52-3.59-2.5,0-.23.08-.55.61-.73a1.44,1.44,0,0,1,1.13.07c1.27.6,2,2.8,2.05,2.89a.36.36,0,0,1,0,.11.36.36,0,0,1,0,.1A.34.34,0,0,1,1022.61,420.21Zm-2.81-2.89h-.12c-.36.12-.34.26-.33.31,0,.6,1.72,1.67,2.88,2a4.66,4.66,0,0,0-1.69-2.29A1.18,1.18,0,0,0,1019.8,417.32Z" transform="translate(0 -0.75)"/><path class="cls-5" d="M1035.13,422.93l-8.62,1.27.27-19.76,8.62-1.26Z" transform="translate(0 -0.75)"/><path class="cls-4" d="M1025.21,419.1h11.3a.61.61,0,0,1,.45.16.56.56,0,0,1,.23.42l1.15,7.61a1.22,1.22,0,0,1,0,.57,1.37,1.37,0,0,1-.28.5,1.53,1.53,0,0,1-.46.34,1.34,1.34,0,0,1-.56.12c-3.38-.06-8.23-.26-12.48-.26-5,0-9.41.27-15.22.27-3.52,0-4.18-3.33-2.72-3.87,6.51-2.44,10-2.85,16.57-5.2A6.51,6.51,0,0,1,1025.21,419.1Z" transform="translate(0 -0.75)"/><path class="cls-6" d="M1026.78,404.45l-.15,10.18,8.63-1.27.15-10.18Z" transform="translate(0 -0.75)"/><path class="cls-4" d="M1030.71,419.7c-.06-3.65,1.08-9.52-8-5.93-5.43,2.13,1.94,8.39,1.94,8.39Z" transform="translate(0 -0.75)"/><path class="cls-7" d="M1024.82,204.63s-4.58,69.35-3.29,94c1.27,23.37,2,89.66,2.14,107.05a3.53,3.53,0,0,0,.35,1.53,3.69,3.69,0,0,0,2.32,2,3.75,3.75,0,0,0,1.56.12l6.09-.82a3.77,3.77,0,0,0,2.15-1.07,3.69,3.69,0,0,0,1-2.15c4-30.7,8.63-78.05,9.64-103.4,1.15-28.93,8.27-97.32,8.27-97.32Z" transform="translate(0 -0.75)"/><path class="cls-8" d="M1024.82,204.63s-4.58,69.35-3.29,94c1.27,23.37,2,89.66,2.14,107.05a3.53,3.53,0,0,0,.35,1.53,3.69,3.69,0,0,0,2.32,2,3.75,3.75,0,0,0,1.56.12l6.09-.82a3.77,3.77,0,0,0,2.15-1.07,3.69,3.69,0,0,0,1-2.15c4-30.7,8.63-78.05,9.64-103.4,1.15-28.93,8.27-97.32,8.27-97.32Z" transform="translate(0 -0.75)"/><path class="cls-4" d="M1082.29,419.93c-1,.45-2,.75-2.55.44a.79.79,0,0,1-.29-.36.66.66,0,0,1,0-.46,1.1,1.1,0,0,1,.12-.39,1.15,1.15,0,0,1,.28-.3c1.15-.94,4.58-.6,4.7-.59a.16.16,0,0,1,.11.05.18.18,0,0,1,.07.1.49.49,0,0,1,0,.12.23.23,0,0,1-.07.1A14.17,14.17,0,0,1,1082.29,419.93Zm-1.9-1a2.9,2.9,0,0,0-.33.2.77.77,0,0,0-.17.19.62.62,0,0,0-.08.24c0,.28.07.39.14.42.59.36,2.57-.53,3.94-1.37A9.22,9.22,0,0,0,1080.39,419Z" transform="translate(0 -0.75)"/><path class="cls-4" d="M1084.52,418.66c-1.15,0-3.73-.86-4-1.82-.07-.22,0-.55.46-.82a1.46,1.46,0,0,1,1.15-.14c1.35.38,2.48,2.39,2.53,2.48a.36.36,0,0,1,0,.11.36.36,0,0,1,0,.1.16.16,0,0,1-.08.06A.14.14,0,0,1,1084.52,418.66Zm-3.29-2.29h-.1c-.32.18-.29.32-.28.37.15.57,2,1.34,3.21,1.5a4.64,4.64,0,0,0-2.07-2,1,1,0,0,0-.71.06Z" transform="translate(0 -0.75)"/><path class="cls-5" d="M1097.86,419.16l-8.12,2.76-5.39-19.1,8.11-2.76Z" transform="translate(0 -0.75)"/><path class="cls-6" d="M1046.19,229.43c-2.37,9.5-1.75,48.94.71,71.18.58-13,2.23-33.09,3.9-51.53Z" transform="translate(0 -0.75)"/><path class="cls-4" d="M1086.61,417.29l11.13-2a.76.76,0,0,1,.49.08.69.69,0,0,1,.32.37l2.93,7.21a1.34,1.34,0,0,1,.08.56,1,1,0,0,1-.16.53,1.22,1.22,0,0,1-.36.42,1.36,1.36,0,0,1-.52.21c-3.34.55-8.17,1.21-12.35,2-4.87.88-4.91,1.14-10.63,2.2-3.44.63-4.92-2.5-3.62-3.29,5.81-3.52,4.86-3.77,10.77-7.22A6,6,0,0,1,1086.61,417.29Z" transform="translate(0 -0.75)"/><path class="cls-6" d="M1084.35,402.83l2.78,9.84,8.13-2.76-2.79-9.84Z" transform="translate(0 -0.75)"/><path class="cls-7" d="M1041.15,204.63s5.94,69.37,10.5,94c4.4,23.72,24.29,91.3,30.15,106.65a3.72,3.72,0,0,0,4.65,2.21l5.88-1.91a3.77,3.77,0,0,0,2.05-1.65,3.71,3.71,0,0,0,.46-2.6c-5.84-30.15-15.14-74.2-17.46-99.44-2.64-28.93-6.52-97.32-6.52-97.32Z" transform="translate(0 -0.75)"/><path class="cls-8" d="M1041.15,204.63s5.94,69.37,10.5,94c4.4,23.72,24.29,91.3,30.15,106.65a3.72,3.72,0,0,0,4.65,2.21l5.88-1.91a3.77,3.77,0,0,0,2.05-1.65,3.71,3.71,0,0,0,.46-2.6c-5.84-30.15-15.14-74.2-17.46-99.44-2.64-28.93-6.52-97.32-6.52-97.32Z" transform="translate(0 -0.75)"/><path class="cls-4" d="M1043.49,98.83c.07.7-.24,1.29-.7,1.34s-.87-.48-.94-1.15.25-1.28.7-1.32S1043.43,98.14,1043.49,98.83Z" transform="translate(0 -0.75)"/><path class="cls-4" d="M1035.69,99.61c.06.68-.24,1.28-.7,1.33s-.87-.49-.94-1.15.24-1.29.7-1.34S1035.62,98.91,1035.69,99.61Z" transform="translate(0 -0.75)"/><path class="cls-9" d="M1038.21,99.7a24.76,24.76,0,0,1-2.73,6.24,3.88,3.88,0,0,0,1.65.51,4,4,0,0,0,1.71-.22Z" transform="translate(0 -0.75)"/><path class="cls-4" d="M1041,107.94a.17.17,0,0,1-.14,0,.17.17,0,0,1-.07-.14.11.11,0,0,1,0-.08l0-.07s.05,0,.06-.06l.09,0a5.4,5.4,0,0,0,2.43-.78,5.46,5.46,0,0,0,1.81-1.8.21.21,0,0,1,.38,0,.22.22,0,0,1,0,.16,5.8,5.8,0,0,1-1.95,2A5.7,5.7,0,0,1,1041,107.94Z" transform="translate(0 -0.75)"/><path class="cls-4" d="M1045.59,96.08a.41.41,0,0,1-.19,0,.78.78,0,0,1-.15-.1,3.13,3.13,0,0,0-1.24-.91,3.19,3.19,0,0,0-1.5-.24.39.39,0,0,1-.3-.07.41.41,0,0,1-.17-.26.43.43,0,0,1,0-.16.94.94,0,0,1,.06-.15l.12-.11.15,0a4,4,0,0,1,1.88.25,3.94,3.94,0,0,1,1.55,1.09.31.31,0,0,1,.1.13.44.44,0,0,1,0,.32.31.31,0,0,1-.1.13A.41.41,0,0,1,1045.59,96.08Z" transform="translate(0 -0.75)"/><path class="cls-4" d="M1031.91,97.18h-.19a.4.4,0,0,1-.21-.23.47.47,0,0,1,0-.31,4.31,4.31,0,0,1,1.13-1.54,4.24,4.24,0,0,1,1.71-.85.39.39,0,0,1,.18,0,.31.31,0,0,1,.17,0,.38.38,0,0,1,.13.12.36.36,0,0,1,.07.17.37.37,0,0,1,0,.18.44.44,0,0,1-.08.15.36.36,0,0,1-.14.11.38.38,0,0,1-.17,0,3.28,3.28,0,0,0-1.35.69,3.38,3.38,0,0,0-.89,1.23.33.33,0,0,1-.15.16A.46.46,0,0,1,1031.91,97.18Z" transform="translate(0 -0.75)"/><path class="cls-4" d="M1059.33,126.39c4.49,0,15.3.24,16.36,4.25s-.11,10.5-1.53,14.31c2.1,5.81,1.42,14.4-.57,17.08,2.19,6.48.76,11.26-.58,13.55,1,2.57,2,9.92.39,13.54,1.33,5.15,2.86,13.74.47,15.47-3.24,2.29-11.86,3.43-17.95,2s-3.7-13.74-3.24-16.6c-2.66-3.53.2-14.12.2-14.12-1.33-3,.66-14,.66-14-1.61-2.67.49-17.18.49-17.18C1052.29,141.75,1051.53,126.39,1059.33,126.39Z" transform="translate(0 -0.75)"/><path class="cls-4" d="M1026.36,129.06c3.53-1.56,15.35-4.39,13.06-1.28-3.32,4.53-1.28,9.29-3.26,14.89,1.75,5.35,1.15,14.08-.46,17.17a20.64,20.64,0,0,1-.41,13.72c.86,2.29,1.64,9.47.3,13.45,1.15,4.86,2,14.65,0,16.86a10.13,10.13,0,0,1-11.75,2.39c-2.81-1.14-4.06-10.51-2.67-13.74-2.73-5.94-.5-14.75-.5-14.75-2.64-4.58-.6-14.18-.6-14.18-2.61-8.52.6-17.94.6-17.94C1019.26,143.09,1020.75,131.54,1026.36,129.06Z" transform="translate(0 -0.75)"/><path class="cls-4" d="M1034.14,130.11a3.72,3.72,0,0,1-1.11-1.32,3.79,3.79,0,0,1-.41-1.68,3,3,0,0,1,.2-1.15,2.94,2.94,0,0,1,.63-1,3,3,0,0,1,1-.66,2.78,2.78,0,0,1,1.14-.24,9.67,9.67,0,0,1,3.82,1.14c1.79.88,2.47,1.7,2.55,3s-3.2,6-5,4.89S1035.15,131.25,1034.14,130.11Z" transform="translate(0 -0.75)"/><path class="cls-6" d="M1068.88,146.48c.89-3.86,3.16-3.51,5.41-1.93l-.16.44c2.11,5.82,1.44,14.41-.57,17.09.12.36.24.73.35,1.14C1071.1,160.47,1067.21,153.76,1068.88,146.48Z" transform="translate(0 -0.75)"/><path class="cls-7" d="M1069.27,155.91l-7.62,3.48-.74,24.59-20.69,13.33,23.16,8.31,6.29,23.78,7.62-3.47,4.26-38.79Z" transform="translate(0 -0.75)"/><path class="cls-10" d="M1069.27,155.91l-7.62,3.48-.74,24.59-20.69,13.33,23.16,8.31,6.29,23.78,7.62-3.47,4.26-38.79Z" transform="translate(0 -0.75)"/><path class="cls-7" d="M1116.92,207.84l-7.62,3.48L1084.72,210,1095,203Z" transform="translate(0 -0.75)"/><path class="cls-10" d="M1116.92,207.84l-7.62,3.48L1084.72,210,1095,203Z" transform="translate(0 -0.75)"/><path class="cls-7" d="M1069.27,155.91l19.07,15.54,23.63-6.89-8.9,22.95,13.85,20.33-24.57-1.37-15.06,19.46L1071,202.14l-23.15-8.31,20.67-13.33Z" transform="translate(0 -0.75)"/><path class="cls-5" d="M1081.25,204.79l-.17,7.78,9.16-.52s1.24-4.86-4-8.25Z" transform="translate(0 -0.75)"/><path class="cls-5" d="M1084,220.35l6.35-3.65-.11-4.65-9.18.52Z" transform="translate(0 -0.75)"/><path class="cls-4" d="M1076,130.41c.75.68,1.3,1.21,1.92,1.82s1.15,1.14,1.79,1.78q1.71,1.81,3.44,3.69a99.63,99.63,0,0,1,6.3,8,66.4,66.4,0,0,1,5.51,9.16,34.42,34.42,0,0,1,3.62,11.85,16.08,16.08,0,0,1,.1,1.84v1.62l-.2,2.6c-.2,1.71-.41,3.44-.7,5.05a94,94,0,0,1-2.07,9.7,113.51,113.51,0,0,1-6.54,18.32,4.52,4.52,0,0,1-2.19,2.27,4.56,4.56,0,0,1-5.74-1.5,4.51,4.51,0,0,1-.81-3.06v-.18c.49-6,1.15-12.21,1.48-18.19.22-3,.32-6,.38-8.86v-4.29l-.09-2.06v-.72a3.41,3.41,0,0,0-.09-.48,23.26,23.26,0,0,0-2.58-5.73,66,66,0,0,0-4.57-6.58c-1.73-2.2-3.59-4.39-5.51-6.54-1-1.08-2-2.13-2.94-3.19l-1.49-1.57-1.41-1.46-.23-.24a9.16,9.16,0,0,1,12.8-13.1Z" transform="translate(0 -0.75)"/><path class="cls-4" d="M1062.76,129.1c1.15-.16,1.45-2.84.53-4.58-.74-1.43-3.44-1.23-5.84-.62a18.37,18.37,0,0,0-5.48,2.2c-2.43,1.34-1.55,3-1,4.23s1.62,4.19,3.92,2.64S1061.16,129.34,1062.76,129.1Z" transform="translate(0 -0.75)"/><path class="cls-4" d="M1091.64,416.78c-.17-3.65.79-9.55-8.2-5.72-5.37,2.29,2.18,8.33,2.18,8.33Z" transform="translate(0 -0.75)"/><path class="cls-7" d="M979.07,132.11h12.29a1.71,1.71,0,0,1,.95.34,1.6,1.6,0,0,1,.59.81l6.43,22.9a.71.71,0,0,1,0,.41.85.85,0,0,1-.48.64,1,1,0,0,1-.41.09H986.16a1.65,1.65,0,0,1-.93-.34,1.68,1.68,0,0,1-.59-.8l-6.43-22.9a.9.9,0,0,1,.13-.8.82.82,0,0,1,.32-.26A1,1,0,0,1,979.07,132.11Z" transform="translate(0 -0.75)"/><path class="cls-5" d="M985.77,147.55l-2.58-9-4.49,1.79,1.62,10.6Z" transform="translate(0 -0.75)"/><path class="cls-10" d="M992.35,132.94a.51.51,0,0,1,.33.13.48.48,0,0,1,.19.29l6.46,22.8a.37.37,0,0,1,0,.15.34.34,0,0,1-.05.14.27.27,0,0,1-.12.09.37.37,0,0,1-.15,0,.6.6,0,0,1-.32-.12.57.57,0,0,1-.2-.29l-6.42-22.83a.23.23,0,0,1,0-.14.43.43,0,0,1,0-.12.28.28,0,0,1,.1-.09A.2.2,0,0,1,992.35,132.94Z" transform="translate(0 -0.75)"/><path class="cls-7" d="M938.16,142.14H915.25v1.14h22.91Z" transform="translate(0 -0.75)"/><path class="cls-7" d="M947.48,95.46H812.3a9,9,0,0,0-9,9v22.26a9,9,0,0,0,9,9H947.48a9,9,0,0,0,9-9V104.43A9,9,0,0,0,947.48,95.46Z" transform="translate(0 -0.75)"/><path class="cls-2" d="M861.37,109.88l2,4,4.41.63-3.19,3.11.75,4.39-3.94-2.07L857.43,122l.76-4.39L855,114.51l4.4-.63Z" transform="translate(0 -0.75)"/><path class="cls-2" d="M879.26,109.88l2,4,4.41.63-3.2,3.11.76,4.39-3.94-2.07L875.32,122l.75-4.39-3.19-3.11,4.41-.63Z" transform="translate(0 -0.75)"/><path class="cls-2" d="M897.14,109.88l2,4,4.41.63-3.18,3.11.74,4.39-3.94-2.07L893.2,122l.76-4.39-3.2-3.11,4.41-.63Z" transform="translate(0 -0.75)"/><path class="cls-2" d="M915,109.88l2,4,4.4.63-3.18,3.11L919,122,915,119.94,911.09,122l.75-4.39-3.19-3.11,4.41-.63Z" transform="translate(0 -0.75)"/><path class="cls-2" d="M932.91,109.88l2,4,4.41.63-3.18,3.11.74,4.39-3.94-2.07L929,122l.76-4.39-3.2-3.11,4.41-.63Z" transform="translate(0 -0.75)"/><path class="cls-7" d="M952.29,119l-9.62,16.66h24Z" transform="translate(0 -0.75)"/><path class="cls-8" d="M831.26,129.31a13.75,13.75,0,1,0-13.76-13.75A13.76,13.76,0,0,0,831.26,129.31Z" transform="translate(0 -0.75)"/><path class="cls-2" d="M842.61,115.56A11.35,11.35,0,0,1,826.7,126a11.39,11.39,0,0,1-5.42-5,11.17,11.17,0,0,1-1.37-5.4,11.36,11.36,0,0,1,19.51-8.27,11.3,11.3,0,0,1,3.19,8.27Z" transform="translate(0 -0.75)"/><path class="cls-11" d="M841.24,121a11.34,11.34,0,0,1-10,6,11.34,11.34,0,0,1-10-6,18,18,0,0,1,20,0Z" transform="translate(0 -0.75)"/><path class="cls-12" d="M836.32,111.68a5.05,5.05,0,0,1-.86,2.81,5,5,0,0,1-2.27,1.86,5.12,5.12,0,0,1-2.92.29,5.09,5.09,0,0,1-4-4,5.12,5.12,0,0,1,.29-2.92,5,5,0,0,1,1.86-2.27,5.06,5.06,0,0,1,2.82-.86,5.08,5.08,0,0,1,5.06,5.07Z" transform="translate(0 -0.75)"/><path class="cls-13" d="M796.58,459.44a10,10,0,0,1-10.85,14.61L599.44,434.17a10,10,0,0,1-5.93-15.75l94.31-126.95a10,10,0,0,1,16.79,1.13Z" transform="translate(0 -0.75)"/></svg>