<svg id="Layer_1" data-name="Layer 1" xmlns="http://www.w3.org/2000/svg" viewBox="0 0 1123 767"><defs><style>.cls-1{fill:#5cd9d8;}</style></defs><title>SectionBackground6</title><path class="cls-1" d="M562,102a133.06,133.06,0,0,1,9.26-9.74A131.07,131.07,0,0,1,581,83c.12.13-4,4.48-9.27,9.73S562.13,102.12,562,102Z" transform="translate(0)"/><path class="cls-1" d="M581,102c-.13.12-4.49-4-9.74-9.27A130.92,130.92,0,0,1,562,83a130.92,130.92,0,0,1,9.73,9.26C577,97.57,581.12,101.87,581,102Z" transform="translate(0)"/><path class="cls-1" d="M31,609.54a1.78,1.78,0,0,1-.25-.36l-.64-1-2.37-3.88-8.2-13.74.4.1L.57,601.78c0,.11.24-.87.12-.45v.08l.11.17.18.32.39.66.76,1.29,1.49,2.59,2.88,5,5.24,9.06-.41-.12,14.06-7.85,4-2.2,1.08-.57.4-.19a12.61,12.61,0,0,1-1.31.83l-3.92,2.29-14.07,8.19-.26.16-.15-.26-5.31-9-2.9-5-1.5-2.58-.77-1.3-.38-.65-.18-.33L0,601.7v-.07c-.1.4.16-.57.14-.47l19.49-11,.25-.14.15.25,8,14.12,2.19,3.88Q30.67,608.88,31,609.54Z" transform="translate(0)"/><path class="cls-1" d="M545.72,467.19a10.24,10.24,0,0,0-.61-1.13,5.31,5.31,0,0,0-5.09-2.47,5.21,5.21,0,0,0-2.31.87,5,5,0,0,0-1.82,2.33,4.81,4.81,0,0,0-.15,2.95,4.93,4.93,0,0,0,1.58,2.5,5.06,5.06,0,0,0,2.75,1.16,5.12,5.12,0,0,0,5.62-4.94c0-.8-.1-1.3,0-1.3a2.67,2.67,0,0,1,.3,1.3,5.15,5.15,0,0,1-1.06,3.42,5.57,5.57,0,0,1-2.15,1.66,5.49,5.49,0,0,1-2.69.44A5.69,5.69,0,0,1,537,472.7a5.5,5.5,0,0,1-1.79-2.83,5.42,5.42,0,0,1,.18-3.33A5.57,5.57,0,0,1,540,463a5.67,5.67,0,0,1,2.7.42,5.29,5.29,0,0,1,2.63,2.46A2.81,2.81,0,0,1,545.72,467.19Z" transform="translate(0)"/><path class="cls-1" d="M1100,766.74a10.62,10.62,0,0,1,.73-1.15l2.25-3.34c1.92-2.88,4.71-7,8.06-11.86l.26-.39.26.39,6.24,9,4.85,7.12.35.5h-.61c-6.54,0-12.26-.12-16.2-.18l-4.61-.09H1100s.66,0,1.77-.06l4.7-.08c4-.06,9.52-.17,15.92-.18l-.28.5-4.88-7.11c-2.19-3.2-4.28-6.27-6.19-9.08h.52c-3.28,4.65-6.13,8.58-8.2,11.42l-2.43,3.34C1100.35,766.29,1100,766.73,1100,766.74Z" transform="translate(0)"/><path class="cls-1" d="M1072,59.26a10.62,10.62,0,0,1-.73,1.15L1069,63.75c-1.92,2.88-4.71,7-8.06,11.86l-.26.39-.26-.39-6.24-9-4.85-7.12L1049,59h.61c6.54,0,12.26.12,16.2.18l4.61.09H1072s-.66,0-1.77.06l-4.7.08c-4,.07-9.52.17-15.92.18l.28-.5,4.88,7.11c2.19,3.2,4.28,6.27,6.19,9.08h-.52c3.28-4.65,6.13-8.58,8.2-11.42l2.43-3.34C1071.65,59.71,1072,59.27,1072,59.26Z" transform="translate(0)"/><path class="cls-1" d="M96,15.1A7.8,7.8,0,0,1,95.28,14l-1.8-2.95C92,8.54,89.88,5,87.36.71l.56.15L73.68,9.34c0,.13.33-1.24.16-.66v.13l.15.24.27.51.57,1,1.1,1.94,2.13,3.78,3.87,6.91L81.37,23c4.24-2.44,7.83-4.45,10.38-5.86l3-1.63A5.6,5.6,0,0,1,95.91,15a8.39,8.39,0,0,1-.92.64l-2.82,1.83c-2.45,1.54-6,3.76-10.39,6.36l-.36.2-.2-.35c-1.22-2.12-2.55-4.43-3.94-6.87L75.12,13,74,11.08l-.57-1-.27-.51L73,9.34V9.22c-.14.58.22-.79.18-.65L87.61.2,88,0l.2.35c2.5,4.47,4.52,8.22,5.89,10.79.63,1.19,1.15,2.16,1.56,3A4.6,4.6,0,0,1,96,15.1Z" transform="translate(0)"/></svg>