<svg id="Layer_1" data-name="Layer 1" xmlns="http://www.w3.org/2000/svg" xmlns:xlink="http://www.w3.org/1999/xlink" viewBox="0 0 1806.21 1798.12"><defs><style>.cls-1,.cls-2,.cls-4{opacity:0.2;isolation:isolate;}.cls-1{fill:url(#linear-gradient);}.cls-2{fill:url(#linear-gradient-2);}.cls-3{fill:#5cd9d8;}.cls-4{fill:url(#linear-gradient-3);}</style><linearGradient id="linear-gradient" x1="1226.11" y1="1843.97" x2="1293.45" y2="1284.08" gradientTransform="matrix(1, 0, 0, -1, 0, 2128)" gradientUnits="userSpaceOnUse"><stop offset="0" stop-color="#6cdddc" stop-opacity="0"/><stop offset="1" stop-color="#6cdddc"/></linearGradient><linearGradient id="linear-gradient-2" x1="-15.25" y1="1267.92" x2="24.1" y2="940.77" xlink:href="#linear-gradient"/><linearGradient id="linear-gradient-3" x1="1366.9" y1="433.57" x2="1307.61" y2="150.89" xlink:href="#linear-gradient"/></defs><title>SectionBackground4</title><path class="cls-1" d="M924.1,300.33A30,30,0,0,1,948.38,271l388.85-75.47A30,30,0,0,1,1367.71,208L1609.43,561.7a30,30,0,0,1-1.66,36.06L1368.33,887a30,30,0,0,1-35.11,8.37L940.61,724a30,30,0,0,1-18-27.61Z" transform="translate(191.56 -194.97)"/><path class="cls-2" d="M-190.76,879.73a30,30,0,0,1,24.28-29.34L42.63,809.8a30,30,0,0,1,30.48,12.53l131.31,192.12a30,30,0,0,1-1.65,36.06L74.84,1205.07a30,30,0,0,1-35.12,8.37l-213.28-93.1a30,30,0,0,1-18-27.6Z" transform="translate(191.56 -194.97)"/><path class="cls-3" d="M375,424a266.07,266.07,0,0,1,19-19c.12.13-4,4.48-9.27,9.73S375.13,424.12,375,424Z" transform="translate(191.56 -194.97)"/><path class="cls-3" d="M394,424c-.13.12-4.49-4-9.74-9.27A130.92,130.92,0,0,1,375,405a130.92,130.92,0,0,1,9.73,9.26C390,419.57,394.12,423.87,394,424Z" transform="translate(191.56 -194.97)"/><path class="cls-3" d="M71,751.54a1.78,1.78,0,0,1-.25-.36l-.64-1-2.37-3.88-8.2-13.74.4.1L40.57,743.78c0,.11.24-.87.12-.45v.08l.11.17.18.32.39.66.76,1.29,1.49,2.59,2.88,5,5.24,9.06-.41-.12,14.06-7.85,4-2.2,1.08-.57.4-.19a12.61,12.61,0,0,1-1.31.83l-3.92,2.29-14.07,8.19-.26.16-.15-.26-5.31-9-2.9-5-1.5-2.58-.77-1.3-.38-.65-.18-.33L40,743.7v-.07c-.1.4.16-.57.14-.47l19.49-11,.25-.14.15.25,8,14.12,2.19,3.88Q70.67,750.88,71,751.54Z" transform="translate(191.56 -194.97)"/><path class="cls-3" d="M302.72,817.19a10.24,10.24,0,0,0-.61-1.13,5.31,5.31,0,0,0-5.09-2.47,5.21,5.21,0,0,0-2.31.87,5,5,0,0,0-1.82,2.33,4.81,4.81,0,0,0-.15,3,4.93,4.93,0,0,0,1.58,2.5,5.13,5.13,0,0,0,7.19-.66,5.32,5.32,0,0,0,1.18-3.12c0-.8-.11-1.3,0-1.3a2.67,2.67,0,0,1,.3,1.3,5.15,5.15,0,0,1-1.06,3.42,5.57,5.57,0,0,1-2.15,1.66,5.47,5.47,0,0,1-2.68.44A5.66,5.66,0,0,1,294,822.7a5.49,5.49,0,0,1-1.8-2.83,5.42,5.42,0,0,1,.18-3.33,5.6,5.6,0,0,1,2.1-2.61,5.65,5.65,0,0,1,5.27-.49,5.29,5.29,0,0,1,2.63,2.46A2.81,2.81,0,0,1,302.72,817.19Z" transform="translate(191.56 -194.97)"/><path class="cls-3" d="M743,870.74a10.62,10.62,0,0,1,.73-1.15l2.25-3.34c1.93-2.88,4.71-7,8.06-11.86l.26-.39.26.39,6.24,9,4.85,7.12.35.5h-.61c-6.54,0-12.25-.12-16.2-.18l-4.61-.09H743s.66,0,1.77-.06l4.7-.08c4-.06,9.52-.17,15.92-.18l-.28.5-4.88-7.11c-2.19-3.2-4.28-6.27-6.19-9.08h.52c-3.28,4.65-6.13,8.58-8.2,11.42l-2.43,3.34C743.35,870.29,743,870.73,743,870.74Z" transform="translate(191.56 -194.97)"/><path class="cls-3" d="M1064,391.26a10.62,10.62,0,0,1-.73,1.15l-2.25,3.34c-1.92,2.88-4.71,7.05-8.06,11.86l-.26.39-.26-.39-6.24-9-4.85-7.12-.35-.5h.61c6.54,0,12.26.12,16.2.18l4.61.09H1064s-.66,0-1.77.06l-4.7.08c-4,.07-9.52.17-15.92.18l.28-.5,4.88,7.11c2.19,3.19,4.28,6.27,6.19,9.08h-.52c3.28-4.65,6.13-8.58,8.2-11.42l2.43-3.34C1063.65,391.71,1064,391.27,1064,391.26Z" transform="translate(191.56 -194.97)"/><path class="cls-3" d="M88,347.1a7.8,7.8,0,0,1-.72-1.08l-1.8-2.95c-1.51-2.53-3.6-6.09-6.12-10.36l.56.15-14.24,8.48c0,.13.33-1.24.16-.66v.13l.15.24.27.51.57,1,1.1,1.94,2.13,3.78,3.87,6.91-.56-.15c4.24-2.44,7.83-4.45,10.38-5.86l3-1.63a5.13,5.13,0,0,1,1.15-.57,8.39,8.39,0,0,1-.92.64l-2.82,1.83c-2.45,1.54-6,3.76-10.39,6.36l-.36.2-.2-.35c-1.22-2.12-2.55-4.43-3.94-6.87L67.12,345,66,343.08l-.57-1-.27-.52-.15-.24v-.13c-.14.59.22-.78.18-.64l14.4-8.37L80,332l.2.35c2.5,4.47,4.52,8.22,5.89,10.79.63,1.19,1.15,2.16,1.56,3A4.92,4.92,0,0,1,88,347.1Z" transform="translate(191.56 -194.97)"/><path class="cls-3" d="M1218,1025a266.07,266.07,0,0,1,19-19c.12.13-4,4.48-9.27,9.73S1218.13,1025.12,1218,1025Z" transform="translate(191.56 -194.97)"/><path class="cls-3" d="M1237,1025c-.13.12-4.49-4-9.74-9.27A130.92,130.92,0,0,1,1218,1006a130.92,130.92,0,0,1,9.73,9.26C1233,1020.57,1237.12,1024.87,1237,1025Z" transform="translate(191.56 -194.97)"/><path class="cls-3" d="M415,1352.54a1.78,1.78,0,0,1-.25-.36l-.64-1-2.37-3.88-8.2-13.73.4.1-19.37,11.15c0,.11.24-.86.12-.45v.08l.11.16.18.33.39.66.76,1.29,1.49,2.59,2.88,5,5.24,9.06-.41-.12,14.06-7.85,4-2.2,1.08-.57.4-.19a12.61,12.61,0,0,1-1.31.83l-3.92,2.29-14.07,8.19-.26.16-.15-.26-5.31-9-2.9-5-1.5-2.59-.77-1.29-.38-.66-.18-.33-.11-.17v-.07c-.1.4.16-.57.14-.47l19.49-11,.25-.14.15.25,8.05,14.12,2.18,3.88Q414.67,1351.88,415,1352.54Z" transform="translate(191.56 -194.97)"/><path class="cls-3" d="M742.72,1418.19a10.24,10.24,0,0,0-.61-1.13,5.31,5.31,0,0,0-5.09-2.47,5.21,5.21,0,0,0-2.31.87,5,5,0,0,0-1.82,2.33,4.8,4.8,0,0,0-.15,3,4.93,4.93,0,0,0,1.58,2.5,5.06,5.06,0,0,0,2.75,1.16,5.15,5.15,0,0,0,2.45-.37,5.1,5.1,0,0,0,2-1.45,5.32,5.32,0,0,0,1.18-3.12c0-.8-.1-1.3,0-1.3a2.67,2.67,0,0,1,.3,1.3,5.15,5.15,0,0,1-1.06,3.42,5.57,5.57,0,0,1-2.15,1.66,5.49,5.49,0,0,1-2.69.44,5.69,5.69,0,0,1-3.12-1.28,5.54,5.54,0,0,1-1.79-2.83,5.42,5.42,0,0,1,.18-3.33A5.57,5.57,0,0,1,737,1414a5.67,5.67,0,0,1,2.7.42,5.29,5.29,0,0,1,2.63,2.46A2.81,2.81,0,0,1,742.72,1418.19Z" transform="translate(191.56 -194.97)"/><path class="cls-3" d="M1087,1392.74a10.62,10.62,0,0,1,.73-1.15l2.25-3.34c1.92-2.88,4.71-7,8.06-11.86l.26-.39.26.39,6.24,9,4.85,7.12.35.5h-.61c-6.54,0-12.26-.12-16.2-.18l-4.61-.09H1087s.66,0,1.77-.06l4.7-.08c4-.07,9.52-.17,15.92-.18l-.28.5-4.88-7.11c-2.19-3.2-4.28-6.27-6.19-9.08h.52c-3.28,4.65-6.13,8.58-8.2,11.42l-2.43,3.34C1087.35,1392.29,1087,1392.73,1087,1392.74Z" transform="translate(191.56 -194.97)"/><path class="cls-3" d="M1408,1247.26a10.62,10.62,0,0,1-.73,1.15l-2.25,3.34c-1.92,2.88-4.71,7-8.06,11.86l-.26.39-.26-.39-6.24-9-4.85-7.12-.35-.5h.61c6.54,0,12.26.12,16.2.18l4.61.09H1408s-.66,0-1.77.06l-4.7.08c-4,.07-9.52.17-15.92.18l.28-.5,4.88,7.11c2.19,3.2,4.28,6.27,6.19,9.08h-.52c3.28-4.65,6.13-8.58,8.2-11.42l2.43-3.34C1407.65,1247.71,1408,1247.27,1408,1247.26Z" transform="translate(191.56 -194.97)"/><path class="cls-3" d="M222,1455.1a7.8,7.8,0,0,1-.72-1.08l-1.8-3c-1.51-2.53-3.6-6.09-6.12-10.36l.56.15-14.24,8.48c0,.13.33-1.24.16-.66v.13l.15.24.27.51.57,1,1.1,1.94,2.13,3.78,3.87,6.91-.56-.15c4.25-2.44,7.83-4.45,10.38-5.86l3-1.63a5.6,5.6,0,0,1,1.15-.57,8.39,8.39,0,0,1-.92.64l-2.82,1.83c-2.45,1.54-6,3.76-10.39,6.36l-.36.2-.2-.35c-1.22-2.12-2.55-4.43-3.94-6.87l-2.16-3.75-1.1-2-.57-1-.27-.51-.15-.24v-.12c-.14.58.22-.79.18-.65l14.4-8.37.35-.2.19.35c2.5,4.47,4.52,8.22,5.89,10.79.63,1.19,1.15,2.16,1.56,3A4.6,4.6,0,0,1,222,1455.1Z" transform="translate(191.56 -194.97)"/><path class="cls-3" d="M639,1618a133.06,133.06,0,0,1,9.26-9.74A131.07,131.07,0,0,1,658,1599c.12.13-4,4.48-9.27,9.73S639.13,1618.12,639,1618Z" transform="translate(191.56 -194.97)"/><path class="cls-3" d="M658,1618c-.13.12-4.49-4-9.74-9.27A130.92,130.92,0,0,1,639,1599a130.92,130.92,0,0,1,9.73,9.26C654,1613.57,658.12,1617.87,658,1618Z" transform="translate(191.56 -194.97)"/><path class="cls-3" d="M55,1844.54a1.78,1.78,0,0,1-.25-.36l-.64-1-2.37-3.88-8.2-13.73.4.1-19.37,11.15c0,.11.24-.86.12-.45v.08l.11.16.18.33.39.66.76,1.29,1.49,2.59,2.88,5,5.24,9.06-.41-.12,14.06-7.85,4-2.2,1.08-.57.4-.19a12.61,12.61,0,0,1-1.31.83l-3.92,2.29-14.07,8.19-.26.16-.15-.26-5.31-9-2.9-5-1.5-2.59-.77-1.29-.38-.66-.18-.33-.11-.17v-.07c-.1.4.16-.57.14-.47l19.49-11,.25-.14.15.25,8,14.12,2.19,3.88Q54.67,1843.88,55,1844.54Z" transform="translate(191.56 -194.97)"/><path class="cls-3" d="M382.72,1910.19a10.24,10.24,0,0,0-.61-1.13,5.31,5.31,0,0,0-5.09-2.47,5.21,5.21,0,0,0-2.31.87,5,5,0,0,0-1.82,2.33,4.8,4.8,0,0,0-.15,3,4.93,4.93,0,0,0,1.58,2.5,5.06,5.06,0,0,0,2.75,1.16,5.15,5.15,0,0,0,2.45-.37,5.1,5.1,0,0,0,2-1.45,5.32,5.32,0,0,0,1.18-3.12c0-.8-.11-1.3,0-1.3a2.67,2.67,0,0,1,.3,1.3,5.15,5.15,0,0,1-1.06,3.42,5.57,5.57,0,0,1-2.15,1.66,5.47,5.47,0,0,1-2.68.44,5.66,5.66,0,0,1-3.12-1.28,5.49,5.49,0,0,1-1.8-2.83,5.42,5.42,0,0,1,.18-3.33A5.57,5.57,0,0,1,377,1906a5.67,5.67,0,0,1,2.7.42,5.29,5.29,0,0,1,2.63,2.46A2.81,2.81,0,0,1,382.72,1910.19Z" transform="translate(191.56 -194.97)"/><path class="cls-3" d="M727,1884.74a10.62,10.62,0,0,1,.73-1.15l2.25-3.34c1.93-2.88,4.71-7,8.06-11.86l.26-.39.26.39,6.24,9,4.85,7.12.35.5h-.61c-6.54,0-12.25-.12-16.2-.18l-4.61-.09H727s.66,0,1.77-.06l4.7-.08c4-.07,9.52-.17,15.92-.18l-.28.5-4.88-7.11c-2.19-3.2-4.28-6.27-6.19-9.08h.52c-3.28,4.65-6.13,8.58-8.2,11.42l-2.43,3.34C727.35,1884.29,727,1884.73,727,1884.74Z" transform="translate(191.56 -194.97)"/><path class="cls-3" d="M1048,1739.26a10.62,10.62,0,0,1-.73,1.15l-2.25,3.34c-1.92,2.88-4.71,7-8.06,11.86l-.26.39-.26-.39-6.24-9-4.85-7.12-.35-.5h.61c6.54,0,12.26.12,16.2.18l4.61.09H1048s-.66,0-1.77.06l-4.7.08c-4,.07-9.52.17-15.92.18l.28-.5,4.88,7.11c2.19,3.2,4.28,6.27,6.19,9.08h-.52c3.28-4.65,6.13-8.58,8.2-11.42l2.43-3.34C1047.65,1739.71,1048,1739.27,1048,1739.26Z" transform="translate(191.56 -194.97)"/><path class="cls-4" d="M1187.56,1710.54c-15.16-25.78,12.63-55.44,39.35-42l277.43,139.58a30,30,0,0,1,8.41,47.31l-120.07,128.16a30,30,0,0,1-47.76-5.31Z" transform="translate(191.56 -194.97)"/></svg>