<svg width="564" height="570" viewBox="0 0 564 570" fill="none" xmlns="http://www.w3.org/2000/svg">
<g filter="url(#filter0_d)">
<path fill-rule="evenodd" clip-rule="evenodd" d="M292.432 553.972C238.349 553.22 181.924 537.188 143.36 495.597C107.038 456.422 106.078 395.471 94.9244 340.956C84.9609 292.257 68.7517 243.338 81.9786 195.583C95.3436 147.329 131.362 113.092 166.901 81.0891C204.653 47.0924 243.612 7.92603 292.432 6.0672C341.88 4.18445 382.643 42.2775 424.46 71.2825C469.52 102.538 528.426 125.003 544.351 180.807C560.257 236.542 520.045 290.287 502.72 345.51C485.785 399.488 482.891 461.507 444.278 499.785C403.8 539.911 346.99 554.732 292.432 553.972Z" fill="#5CD9D8"/>
</g>
<g clip-path="url(#clip0)" filter="url(#filter1_d)">
<path d="M328 229.25L340.26 214.12L328 229.25Z" fill="white"/>
<path d="M340.26 214.12C338.424 216.798 336.444 219.375 334.33 221.84C332.35 224.418 330.237 226.891 328 229.25C329.842 226.572 331.821 223.992 333.93 221.52C335.912 218.946 338.025 216.476 340.26 214.12Z" fill="#E0E0E0"/>
<path d="M128.47 146.6L116.47 136.89L128.47 146.6Z" fill="white"/>
<path d="M116.49 136.89C118.645 138.3 120.703 139.854 122.65 141.54C124.703 143.092 126.648 144.782 128.47 146.6C126.313 145.192 124.255 143.639 122.31 141.95C120.26 140.395 118.315 138.704 116.49 136.89Z" fill="#E0E0E0"/>
<path d="M242.85 123.88C245.283 119.503 246.556 114.577 246.55 109.57C246.572 105.761 245.844 101.984 244.407 98.4568C242.969 94.9291 240.851 91.7192 238.173 89.0104C235.495 86.3016 232.309 84.1469 228.798 82.6695C225.287 81.1921 221.519 80.4209 217.71 80.3999C215.104 80.3961 212.51 80.7493 210 81.4499C216.101 83.2084 221.464 86.9027 225.282 91.9759C229.099 97.0491 231.163 103.226 231.163 109.575C231.163 115.924 229.099 122.101 225.282 127.174C221.464 132.247 216.101 135.942 210 137.7C213.856 138.781 217.897 139.038 221.859 138.456C225.822 137.874 229.618 136.464 233 134.32L246.56 139.56L242.85 123.88Z" fill="white"/>
<path d="M430.37 499.08C430.37 499.22 335.28 499.34 218.01 499.34C100.74 499.34 5.63 499.22 5.63 499.08C5.63 498.94 100.7 498.81 218.01 498.81C335.32 498.81 430.37 498.93 430.37 499.08Z" fill="#263238"/>
<path d="M120.09 467L120.9 491.88L127.22 511.38C127.328 511.712 127.366 512.063 127.333 512.41C127.3 512.758 127.196 513.095 127.027 513.4C126.858 513.706 126.629 513.974 126.352 514.187C126.076 514.4 125.759 514.554 125.42 514.64C125.025 514.741 124.612 514.746 124.215 514.653C123.819 514.561 123.45 514.375 123.14 514.11C119.14 510.68 104.51 498 104.55 496.18C104.55 494.06 101.94 469.98 101.94 469.98L120.09 467Z" fill="#FF725E"/>
<path d="M125.42 514.61L104.42 494.47L104.48 495.47C104.529 496.382 104.901 497.247 105.53 497.91C107.21 499.67 111.96 504.45 123.04 514.03C123.357 514.306 123.738 514.499 124.148 514.591C124.558 514.684 124.985 514.673 125.39 514.56L125.42 514.61Z" fill="#E0E0E0"/>
<path d="M109.11 486.16C109.431 486.368 109.663 486.688 109.761 487.058C109.859 487.427 109.816 487.82 109.64 488.16C109.447 488.497 109.128 488.745 108.754 488.848C108.379 488.951 107.978 488.901 107.64 488.71C107.3 488.491 107.055 488.154 106.951 487.763C106.848 487.373 106.894 486.958 107.08 486.6C107.319 486.281 107.673 486.068 108.066 486.004C108.46 485.941 108.863 486.033 109.19 486.26" fill="white"/>
<path d="M119.13 504.07C119.27 504.13 119.76 502.79 121.2 502.01C122.091 501.599 123.051 501.358 124.03 501.3C124.03 501.24 123.73 501.07 123.14 501.02C122.369 500.97 121.601 501.147 120.93 501.53C120.258 501.907 119.71 502.469 119.35 503.15C119.08 503.68 119.07 504.05 119.13 504.07Z" fill="#263238"/>
<path d="M121.09 507.3C121.776 506.854 122.491 506.453 123.23 506.1C124.024 505.904 124.828 505.757 125.64 505.66C125.245 505.438 124.802 505.316 124.349 505.304C123.896 505.291 123.447 505.39 123.04 505.59C121.6 506.1 121 507.24 121.09 507.3Z" fill="#263238"/>
<path d="M115.59 500C116.603 499.239 117.669 498.551 118.78 497.94C119.965 497.494 121.182 497.136 122.42 496.87C121.102 496.689 119.759 496.887 118.549 497.441C117.34 497.995 116.313 498.883 115.59 500Z" fill="#263238"/>
<path d="M114.71 492.44C114.79 492.58 116.13 491.93 117.91 491.77C119.69 491.61 121.14 491.95 121.18 491.77C120.176 491.192 119.001 490.986 117.86 491.19C116.697 491.227 115.583 491.669 114.71 492.44Z" fill="#263238"/>
<path d="M114.29 485.14C115.352 484.727 116.466 484.461 117.6 484.35C118.738 484.409 119.863 484.628 120.94 485C120.94 484.94 120.69 484.65 120.1 484.35C119.318 483.972 118.458 483.787 117.59 483.81C116.721 483.825 115.868 484.044 115.1 484.45C114.53 484.78 114.25 485.09 114.29 485.14Z" fill="#263238"/>
<path d="M117.48 483C117.557 482.671 117.557 482.329 117.48 482C117.347 481.144 117.048 480.322 116.6 479.58C116.31 479.014 115.848 478.556 115.28 478.27C115.084 478.192 114.868 478.177 114.663 478.23C114.458 478.282 114.275 478.397 114.14 478.56C113.887 478.887 113.769 479.299 113.81 479.71C113.913 480.542 114.303 481.311 114.913 481.886C115.522 482.461 116.314 482.806 117.15 482.86C117.981 482.902 118.805 482.695 119.518 482.266C120.231 481.836 120.799 481.204 121.15 480.45C121.237 480.26 121.281 480.054 121.281 479.845C121.281 479.636 121.237 479.43 121.15 479.24C121.043 479.057 120.881 478.914 120.687 478.829C120.492 478.745 120.277 478.724 120.07 478.77C119.466 478.937 118.917 479.261 118.48 479.71C117.836 480.277 117.297 480.954 116.89 481.71C116.718 481.976 116.605 482.276 116.56 482.59C117.153 481.619 117.884 480.74 118.73 479.98C119.13 479.607 119.614 479.336 120.14 479.19C120.253 479.164 120.372 479.175 120.478 479.222C120.584 479.269 120.673 479.349 120.73 479.45C120.776 479.578 120.795 479.714 120.787 479.85C120.778 479.986 120.742 480.119 120.68 480.24C120.357 480.88 119.858 481.414 119.242 481.779C118.625 482.144 117.916 482.325 117.2 482.3C116.494 482.248 115.826 481.959 115.306 481.479C114.785 481 114.441 480.359 114.33 479.66C114.295 479.375 114.366 479.086 114.53 478.85C114.602 478.759 114.7 478.693 114.812 478.663C114.924 478.632 115.042 478.638 115.15 478.68C115.633 478.917 116.032 479.298 116.29 479.77C116.876 480.767 117.279 481.861 117.48 483Z" fill="#263238"/>
<path d="M168.53 470.66L167.24 489.27C167.24 489.27 185.73 496.83 185.82 500.27L149.65 499.07L150.47 469.99L168.53 470.66Z" fill="#FF725E"/>
<path d="M156.11 487.33C155.75 487.42 155.437 487.641 155.232 487.95C155.027 488.259 154.944 488.633 155 489C155.082 489.355 155.296 489.666 155.599 489.868C155.902 490.071 156.271 490.15 156.63 490.09C157.003 489.989 157.325 489.753 157.534 489.427C157.742 489.102 157.823 488.711 157.76 488.33C157.638 487.97 157.382 487.67 157.045 487.495C156.707 487.32 156.315 487.282 155.95 487.39" fill="#E0E0E0"/>
<path d="M149.65 499.09L149.85 496.16L184.46 498.41C184.46 498.41 186.04 499.17 185.82 500.29L149.65 499.09Z" fill="#E0E0E0"/>
<path d="M167.84 489.11C167.84 489.28 166.94 489.33 166.05 489.87C165.16 490.41 164.68 491.14 164.52 491.06C164.36 490.98 164.65 489.98 165.74 489.34C166.83 488.7 167.88 489 167.84 489.11Z" fill="#263238"/>
<path d="M171.58 490.8C171.58 490.97 170.84 491.25 170.21 491.98C169.58 492.71 169.39 493.49 169.21 493.47C169.03 493.45 168.96 492.47 169.75 491.57C170.54 490.67 171.58 490.63 171.58 490.8Z" fill="#263238"/>
<path d="M173.58 495.41C173.42 495.41 173.2 494.56 173.69 493.6C174.18 492.64 175.01 492.29 175.08 492.44C175.15 492.59 174.63 493.09 174.24 493.88C173.85 494.67 173.76 495.4 173.58 495.41Z" fill="#263238"/>
<path d="M167.66 484.83C167.58 484.99 166.78 484.72 165.78 484.76C164.78 484.8 163.99 485.08 163.9 484.92C163.81 484.76 164.58 484.16 165.76 484.14C166.94 484.12 167.75 484.7 167.66 484.83Z" fill="#263238"/>
<path d="M167.85 481.07C167.239 481.224 166.597 481.2 166 481C165.349 480.867 164.717 480.652 164.12 480.36C163.773 480.187 163.439 479.99 163.12 479.77C162.919 479.655 162.74 479.506 162.59 479.33C162.477 479.202 162.411 479.039 162.402 478.869C162.393 478.698 162.442 478.53 162.54 478.39C162.634 478.271 162.754 478.175 162.891 478.109C163.028 478.043 163.178 478.009 163.33 478.01C163.557 478.016 163.783 478.053 164 478.12C164.385 478.231 164.76 478.375 165.12 478.55C165.721 478.844 166.271 479.233 166.75 479.7C167.56 480.51 167.83 481.17 167.75 481.21C167.67 481.25 167.27 480.7 166.44 480.03C165.961 479.627 165.43 479.29 164.86 479.03C164.537 478.887 164.202 478.77 163.86 478.68C163.48 478.56 163.15 478.55 163.05 478.68C162.95 478.81 163 478.77 163.05 478.88C163.165 479.006 163.296 479.117 163.44 479.21C163.743 479.416 164.057 479.606 164.38 479.78C164.931 480.08 165.511 480.324 166.11 480.51C166.701 480.66 167.282 480.847 167.85 481.07Z" fill="#263238"/>
<path d="M167.61 481.32C167.29 480.788 167.143 480.169 167.19 479.55C167.187 478.477 167.466 477.421 168 476.49C168.106 476.254 168.271 476.05 168.48 475.898C168.688 475.745 168.933 475.649 169.19 475.62C169.351 475.629 169.506 475.684 169.637 475.778C169.768 475.871 169.87 476.001 169.93 476.15C170.016 476.364 170.07 476.59 170.09 476.82C170.155 477.224 170.155 477.636 170.09 478.04C169.972 478.713 169.686 479.346 169.26 479.88C168.52 480.8 167.78 480.99 167.76 480.88C167.74 480.77 168.33 480.47 168.91 479.59C169.237 479.081 169.451 478.508 169.54 477.91C169.585 477.561 169.585 477.209 169.54 476.86C169.49 476.47 169.36 476.16 169.21 476.19C169.06 476.22 168.72 476.46 168.56 476.77C168.368 477.087 168.207 477.422 168.08 477.77C167.857 478.347 167.719 478.953 167.67 479.57C167.54 480.63 167.71 481.3 167.61 481.32Z" fill="#263238"/>
<path d="M94.17 287.02L99.51 487.06L128.05 486.21L134.85 280.2L94.17 287.02Z" fill="#263238"/>
<path d="M153.48 279.86C153.48 279.86 174.66 364.66 175.31 379.12C175.96 393.58 170.78 484 170.78 484H142.84L145.18 381L124 293.94L129.13 280.31L153.48 279.86Z" fill="#263238"/>
<path d="M136.24 290.27C136.251 290.363 136.251 290.457 136.24 290.55V291.34C136.24 292.08 136.18 293.09 136.13 294.39C136.01 297.07 135.83 300.89 135.62 305.59C135.13 315.08 134.46 328.13 133.72 342.59C132.98 357.05 132.2 370.04 131.72 379.53C131.44 384.23 131.2 388.04 131.04 390.73C130.95 392.02 130.88 393.04 130.83 393.73C130.83 394.05 130.78 394.32 130.76 394.52C130.771 394.61 130.771 394.7 130.76 394.79C130.749 394.7 130.749 394.61 130.76 394.52C130.76 394.31 130.76 394.05 130.76 393.73C130.76 392.99 130.83 391.97 130.88 390.68C131 388 131.18 384.18 131.39 379.48C131.88 369.99 132.55 356.94 133.28 342.48C134.01 328.02 134.8 315.03 135.33 305.54C135.61 300.84 135.84 297.03 136.01 294.35C136.1 293.06 136.17 292.04 136.22 291.3C136.22 290.98 136.27 290.72 136.29 290.51C136.26 290.433 136.243 290.352 136.24 290.27Z" fill="#455A64"/>
<path d="M133.1 171.12C133.1 171.12 143.47 222.56 143.62 237.05C143.77 251.54 148.86 279.86 148.86 279.86H104L103 201.49L99.8 178.12L106.54 168.5L133.1 171.12Z" fill="#F5F5F5"/>
<path d="M133.65 172.63C133.65 172.63 144.36 175.78 147.19 179.74C149.42 182.87 152.44 242.03 152.44 242.03L157 294.15L152.51 293.73L146.17 274.22L133.65 172.63Z" fill="#FF725E"/>
<path d="M147.19 179.74L177.43 207.49L214.64 195.43L222.06 211.06L182.35 229.06C176.68 231.48 173.12 230.15 169.18 226.99L148.35 210.31L147.19 179.74Z" fill="#FF725E"/>
<path d="M207.72 200.41C207.82 200.603 207.84 200.827 207.776 201.034C207.713 201.242 207.571 201.416 207.38 201.52C207.286 201.57 207.182 201.602 207.076 201.612C206.969 201.622 206.861 201.611 206.759 201.579C206.657 201.548 206.562 201.496 206.48 201.428C206.397 201.359 206.33 201.275 206.28 201.18C206.228 201.086 206.195 200.983 206.183 200.877C206.172 200.77 206.182 200.663 206.212 200.56C206.243 200.458 206.294 200.362 206.362 200.28C206.431 200.197 206.515 200.129 206.61 200.08C206.802 199.979 207.025 199.958 207.232 200.019C207.439 200.081 207.615 200.221 207.72 200.41Z" fill="#263238"/>
<path d="M207 201.64C206.917 201.655 206.833 201.655 206.75 201.64C206.644 201.608 206.545 201.555 206.459 201.485C206.373 201.415 206.302 201.328 206.25 201.23C206.15 201.032 206.129 200.803 206.19 200.59C206.259 200.379 206.407 200.203 206.603 200.099C206.798 199.995 207.027 199.97 207.24 200.03C207.454 200.095 207.634 200.243 207.74 200.44C207.844 200.637 207.866 200.867 207.8 201.08C207.769 201.187 207.717 201.286 207.646 201.372C207.576 201.458 207.489 201.529 207.39 201.58C207.267 201.633 207.133 201.654 207 201.64ZM207 200.01C206.871 200.011 206.745 200.042 206.63 200.1C206.447 200.202 206.311 200.37 206.25 200.57C206.19 200.77 206.211 200.986 206.31 201.17C206.41 201.354 206.578 201.492 206.779 201.552C206.979 201.612 207.196 201.589 207.38 201.49C207.471 201.443 207.552 201.378 207.617 201.299C207.682 201.22 207.731 201.128 207.76 201.03C207.821 200.827 207.799 200.608 207.7 200.42C207.633 200.293 207.532 200.187 207.408 200.113C207.285 200.039 207.144 200 207 200V200.01Z" fill="#263238"/>
<path d="M210.84 199.67C210.94 199.863 210.96 200.087 210.896 200.294C210.833 200.502 210.691 200.676 210.5 200.78C210.406 200.83 210.302 200.862 210.196 200.872C210.089 200.882 209.981 200.871 209.879 200.839C209.777 200.808 209.682 200.756 209.6 200.688C209.517 200.619 209.45 200.535 209.4 200.44C209.348 200.346 209.315 200.243 209.303 200.137C209.292 200.03 209.302 199.923 209.332 199.82C209.363 199.718 209.414 199.622 209.482 199.54C209.551 199.457 209.635 199.389 209.73 199.34C209.824 199.288 209.928 199.254 210.035 199.243C210.143 199.231 210.251 199.241 210.354 199.271C210.458 199.302 210.554 199.353 210.637 199.422C210.721 199.49 210.79 199.575 210.84 199.67Z" fill="#263238"/>
<path d="M210.12 200.9C210.037 200.915 209.953 200.915 209.87 200.9C209.764 200.868 209.665 200.815 209.579 200.745C209.493 200.675 209.422 200.588 209.37 200.49C209.267 200.292 209.246 200.062 209.312 199.848C209.377 199.635 209.524 199.456 209.72 199.35C209.918 199.247 210.148 199.226 210.362 199.292C210.575 199.357 210.754 199.504 210.86 199.7C210.964 199.897 210.986 200.127 210.92 200.34C210.855 200.554 210.707 200.734 210.51 200.84C210.386 200.889 210.253 200.909 210.12 200.9ZM210.12 199.26C209.991 199.265 209.864 199.299 209.75 199.36C209.566 199.46 209.429 199.628 209.369 199.829C209.309 200.029 209.331 200.246 209.43 200.43C209.478 200.523 209.544 200.604 209.625 200.669C209.706 200.735 209.8 200.783 209.9 200.81C210.002 200.849 210.11 200.866 210.219 200.861C210.327 200.856 210.434 200.828 210.531 200.78C210.629 200.732 210.715 200.664 210.785 200.581C210.855 200.498 210.907 200.402 210.938 200.297C210.969 200.193 210.979 200.084 210.966 199.976C210.952 199.868 210.917 199.764 210.862 199.67C210.807 199.577 210.733 199.496 210.645 199.432C210.557 199.368 210.456 199.323 210.35 199.3C210.272 199.275 210.192 199.262 210.11 199.26H210.12Z" fill="#263238"/>
<path d="M213.8 199.07C213.852 199.164 213.885 199.268 213.897 199.375C213.909 199.483 213.899 199.591 213.868 199.694C213.838 199.798 213.787 199.894 213.718 199.977C213.65 200.061 213.565 200.13 213.47 200.18C213.277 200.28 213.053 200.3 212.846 200.236C212.638 200.173 212.464 200.031 212.36 199.84C212.31 199.746 212.278 199.642 212.268 199.536C212.258 199.429 212.269 199.321 212.301 199.219C212.332 199.117 212.384 199.022 212.452 198.94C212.521 198.857 212.605 198.79 212.7 198.74C212.794 198.688 212.897 198.655 213.003 198.643C213.11 198.632 213.217 198.642 213.32 198.672C213.422 198.703 213.518 198.754 213.6 198.822C213.683 198.891 213.751 198.975 213.8 199.07Z" fill="#263238"/>
<path d="M213.09 200.3C213.007 200.315 212.923 200.315 212.84 200.3C212.637 200.235 212.467 200.096 212.363 199.91C212.259 199.725 212.229 199.507 212.28 199.3C212.311 199.195 212.363 199.097 212.434 199.012C212.504 198.928 212.592 198.859 212.69 198.81C212.787 198.757 212.894 198.724 213.004 198.713C213.114 198.701 213.225 198.712 213.331 198.743C213.436 198.775 213.535 198.827 213.621 198.897C213.706 198.967 213.778 199.053 213.83 199.15C213.933 199.348 213.954 199.578 213.888 199.792C213.823 200.005 213.676 200.184 213.48 200.29C213.352 200.322 213.219 200.325 213.09 200.3ZM213.09 198.67C212.961 198.671 212.835 198.702 212.72 198.76C212.536 198.859 212.399 199.028 212.339 199.229C212.279 199.429 212.301 199.646 212.4 199.83C212.447 199.921 212.511 200.002 212.591 200.068C212.67 200.133 212.761 200.182 212.86 200.21C213.063 200.271 213.282 200.249 213.47 200.15C213.654 200.05 213.791 199.882 213.851 199.681C213.911 199.481 213.889 199.264 213.79 199.08C213.72 198.953 213.618 198.848 213.492 198.776C213.367 198.703 213.225 198.667 213.08 198.67H213.09Z" fill="#263238"/>
<path d="M215.01 196.21L217.89 195.16L224.5 209.08L221.69 210.28L215.01 196.21Z" fill="#E0E0E0"/>
<path d="M148.16 190.71C148.261 191.221 148.318 191.739 148.33 192.26C148.44 193.36 148.59 194.78 148.77 196.5C149.18 200.17 149.77 205.06 150.35 210.5C150.93 215.94 151.44 220.91 151.66 224.5C151.78 226.3 151.83 227.76 151.84 228.77C151.877 229.29 151.86 229.813 151.79 230.33C151.696 229.818 151.646 229.3 151.64 228.78C151.57 227.78 151.46 226.32 151.29 224.53C150.97 220.95 150.44 216 149.83 210.53C149.22 205.06 148.7 200.13 148.4 196.53C148.25 194.73 148.17 193.27 148.13 192.26C148.089 191.744 148.099 191.224 148.16 190.71Z" fill="#263238"/>
<path d="M154.77 197.65C154.302 200.176 153.667 202.668 152.87 205.11C152.234 207.596 151.436 210.038 150.48 212.42C150.941 209.894 151.573 207.401 152.37 204.96C153.004 202.472 153.806 200.03 154.77 197.65Z" fill="#263238"/>
<path d="M177.11 216.86C176.785 216.479 176.556 216.027 176.44 215.54C175.696 213.235 175.853 210.734 176.88 208.54C177.061 208.073 177.344 207.652 177.71 207.31C177.105 208.831 176.702 210.425 176.51 212.05C176.5 213.673 176.702 215.29 177.11 216.86Z" fill="#263238"/>
<path d="M173.65 249.01L177.52 249.31L175.99 265.45L172.25 265.03L173.65 249.01Z" fill="#E0E0E0"/>
<path d="M106.54 169.62L85.67 182.93C83.2949 184.614 81.5258 187.018 80.6251 189.787C79.7244 192.556 79.7402 195.541 80.67 198.3L96.67 248.59L90.9 294.29L136.64 292.35L135.52 272.35L131.64 236.51C130.922 229.864 129.269 223.353 126.73 217.17L106.54 169.62Z" fill="#FF725E"/>
<path d="M84.74 201.05L105.61 244.73C106.442 246.471 107.654 248.003 109.156 249.215C110.658 250.426 112.412 251.285 114.29 251.73L172.21 265.45L173.69 248.59L129.48 232L107.24 189.32C106.438 187.783 105.33 186.426 103.983 185.333C102.637 184.24 101.081 183.435 99.4112 182.967C97.7417 182.498 95.9939 182.377 94.2756 182.609C92.5572 182.842 90.9048 183.424 89.42 184.32C86.6588 185.991 84.6379 188.651 83.7685 191.759C82.8991 194.867 83.2465 198.189 84.74 201.05Z" fill="#FF725E"/>
<path d="M173.69 248.59C173.607 248.583 173.526 248.563 173.45 248.53L172.77 248.3L170.15 247.36L160.45 243.79L127.76 231.57H127.67V231.47L123.82 223.85C120.2 216.79 116.59 210.14 113.21 204.14C111.52 201.14 109.89 198.31 108.35 195.67L106.11 191.85C105.75 191.23 105.39 190.64 105.01 190.09C104.652 189.538 104.258 189.01 103.83 188.51C102.339 186.734 100.428 185.359 98.27 184.51C96.6432 183.848 94.8955 183.534 93.14 183.59C91.6335 183.611 90.1558 184.006 88.84 184.74C88.9126 184.674 88.9932 184.617 89.08 184.57C89.3216 184.401 89.5795 184.257 89.85 184.14C90.8876 183.69 91.9997 183.435 93.13 183.39C94.9163 183.298 96.7019 183.584 98.37 184.23C100.594 185.084 102.568 186.484 104.11 188.3C104.552 188.805 104.96 189.34 105.33 189.9C105.73 190.47 106.1 191.06 106.45 191.68L108.72 195.48C110.28 198.147 111.917 200.967 113.63 203.94C117.03 209.94 120.63 216.57 124.29 223.64C125.62 226.25 126.92 228.82 128.13 231.28L127.99 231.15L160.62 243.53L170.26 247.24L172.85 248.24L173.52 248.51L173.69 248.59Z" fill="#263238"/>
<path d="M163.85 259.1C163.85 259.318 163.764 259.526 163.61 259.68C163.456 259.834 163.248 259.92 163.03 259.92C162.813 259.92 162.604 259.834 162.45 259.68C162.296 259.526 162.21 259.318 162.21 259.1C162.21 258.883 162.296 258.674 162.45 258.52C162.604 258.366 162.813 258.28 163.03 258.28C163.248 258.28 163.456 258.366 163.61 258.52C163.764 258.674 163.85 258.883 163.85 259.1Z" fill="#263238"/>
<path d="M163 259.94C162.834 259.94 162.671 259.891 162.533 259.798C162.395 259.706 162.288 259.575 162.224 259.421C162.16 259.268 162.144 259.099 162.176 258.936C162.209 258.773 162.289 258.624 162.406 258.506C162.524 258.389 162.673 258.309 162.836 258.276C162.999 258.244 163.168 258.26 163.321 258.324C163.475 258.388 163.606 258.495 163.698 258.633C163.791 258.771 163.84 258.934 163.84 259.1C163.84 259.323 163.752 259.536 163.594 259.694C163.436 259.852 163.223 259.94 163 259.94ZM163 258.31C162.844 258.31 162.691 258.356 162.561 258.443C162.431 258.53 162.33 258.653 162.27 258.798C162.21 258.942 162.195 259.101 162.225 259.254C162.256 259.407 162.331 259.548 162.441 259.659C162.552 259.769 162.693 259.844 162.846 259.875C162.999 259.905 163.158 259.89 163.302 259.83C163.447 259.77 163.57 259.669 163.657 259.539C163.744 259.409 163.79 259.256 163.79 259.1C163.79 258.89 163.707 258.69 163.559 258.541C163.41 258.393 163.21 258.31 163 258.31Z" fill="#263238"/>
<path d="M167 259.92C167 260.082 166.952 260.241 166.862 260.376C166.772 260.51 166.644 260.615 166.494 260.678C166.344 260.74 166.179 260.756 166.02 260.724C165.861 260.693 165.715 260.614 165.6 260.5C165.485 260.385 165.407 260.239 165.376 260.08C165.344 259.921 165.36 259.756 165.422 259.606C165.484 259.456 165.59 259.328 165.724 259.238C165.859 259.148 166.018 259.1 166.18 259.1C166.397 259.1 166.606 259.186 166.76 259.34C166.914 259.494 167 259.702 167 259.92Z" fill="#263238"/>
<path d="M166.13 260.76C165.964 260.76 165.801 260.711 165.663 260.618C165.525 260.526 165.418 260.395 165.354 260.241C165.29 260.088 165.274 259.919 165.306 259.756C165.339 259.593 165.419 259.443 165.536 259.326C165.654 259.209 165.803 259.129 165.966 259.096C166.129 259.064 166.298 259.08 166.451 259.144C166.605 259.207 166.736 259.315 166.828 259.453C166.921 259.591 166.97 259.754 166.97 259.92C166.967 260.142 166.878 260.354 166.721 260.511C166.564 260.668 166.352 260.757 166.13 260.76ZM166.13 259.13C165.974 259.13 165.821 259.176 165.691 259.263C165.561 259.35 165.46 259.473 165.4 259.618C165.34 259.762 165.325 259.921 165.355 260.074C165.386 260.227 165.461 260.368 165.571 260.479C165.682 260.589 165.823 260.664 165.976 260.695C166.129 260.725 166.288 260.71 166.432 260.65C166.577 260.59 166.7 260.489 166.787 260.359C166.874 260.229 166.92 260.076 166.92 259.92C166.92 259.71 166.837 259.509 166.689 259.361C166.541 259.213 166.34 259.13 166.13 259.13Z" fill="#263238"/>
<path d="M169.03 261.61C169.483 261.61 169.85 261.243 169.85 260.79C169.85 260.337 169.483 259.97 169.03 259.97C168.577 259.97 168.21 260.337 168.21 260.79C168.21 261.243 168.577 261.61 169.03 261.61Z" fill="#263238"/>
<path d="M169 261.63C168.834 261.63 168.671 261.581 168.533 261.488C168.395 261.396 168.288 261.265 168.224 261.111C168.16 260.958 168.144 260.789 168.176 260.626C168.209 260.463 168.289 260.313 168.406 260.196C168.524 260.079 168.673 259.999 168.836 259.966C168.999 259.934 169.168 259.95 169.321 260.014C169.475 260.077 169.606 260.185 169.698 260.323C169.791 260.461 169.84 260.624 169.84 260.79C169.837 261.012 169.748 261.224 169.591 261.381C169.434 261.538 169.222 261.627 169 261.63ZM169 260C168.844 260 168.691 260.046 168.561 260.133C168.431 260.22 168.33 260.343 168.27 260.488C168.21 260.632 168.195 260.791 168.225 260.944C168.256 261.097 168.331 261.238 168.441 261.349C168.552 261.459 168.693 261.534 168.846 261.565C168.999 261.595 169.158 261.58 169.302 261.52C169.447 261.46 169.57 261.359 169.657 261.229C169.744 261.099 169.79 260.946 169.79 260.79C169.79 260.58 169.707 260.379 169.559 260.231C169.41 260.083 169.21 260 169 260Z" fill="#263238"/>
<path d="M172.21 265.45C172.117 265.465 172.023 265.465 171.93 265.45L171.12 265.27L168 264.52L156.54 261.7C146.87 259.33 133.54 255.97 118.72 252.54C116.87 252.1 115.04 251.75 113.23 251.26C111.413 250.826 109.72 249.981 108.28 248.79C107.017 247.521 106 246.029 105.28 244.39L103.1 239.83L95.57 224L90.57 213.32C90.01 212.08 89.57 211.11 89.24 210.41L88.9 209.64C88.8583 209.557 88.8248 209.47 88.8 209.38C88.8 209.38 88.86 209.46 88.95 209.62C89.04 209.78 89.17 210.06 89.33 210.36L90.76 213.24C91.99 215.78 93.76 219.39 95.92 223.84C98.08 228.29 100.65 233.68 103.51 239.61C104.22 241.09 104.96 242.61 105.7 244.16C106.413 245.738 107.406 247.175 108.63 248.4C110.012 249.538 111.637 250.342 113.38 250.75C115.15 251.23 117 251.58 118.85 252.02C133.66 255.46 146.99 258.87 156.64 261.33C161.43 262.59 165.32 263.6 168.06 264.33L171.15 265.18L171.95 265.41L172.21 265.45Z" fill="#263238"/>
<path d="M125.43 262.72C125.43 262.72 125.21 262.95 124.74 263.3C124.27 263.65 123.6 264.13 122.74 264.71C120.506 266.252 118.087 267.509 115.54 268.45C112.962 269.383 110.192 269.661 107.48 269.26C106.663 269.121 105.865 268.89 105.1 268.57C104.812 268.478 104.544 268.332 104.31 268.14C105.366 268.458 106.442 268.708 107.53 268.89C110.18 269.182 112.862 268.863 115.37 267.96C117.876 267.022 120.278 265.829 122.54 264.4C123.464 263.774 124.429 263.213 125.43 262.72Z" fill="#263238"/>
<path d="M128 268.52C128.063 268.636 128.11 268.761 128.14 268.89C128.253 269.257 128.343 269.631 128.41 270.01C128.651 271.416 128.651 272.854 128.41 274.26C128.021 276.349 127.128 278.313 125.81 279.98C124.148 282.011 121.903 283.483 119.378 284.198C116.854 284.913 114.17 284.837 111.69 283.98C109.696 283.239 107.913 282.02 106.5 280.43C105.553 279.363 104.796 278.142 104.26 276.82C104.123 276.46 104.007 276.093 103.91 275.72C103.85 275.47 103.82 275.33 103.84 275.33C104.504 277.116 105.498 278.761 106.77 280.18C108.173 281.682 109.915 282.827 111.85 283.52C114.232 284.328 116.803 284.398 119.225 283.722C121.648 283.046 123.811 281.655 125.43 279.73C126.725 278.134 127.62 276.252 128.04 274.24C128.388 272.348 128.375 270.407 128 268.52Z" fill="#263238"/>
<path d="M108.79 129.81L108.92 167.07C108.929 168.569 109.242 170.051 109.84 171.426C110.438 172.801 111.309 174.04 112.4 175.068C113.491 176.097 114.779 176.893 116.187 177.409C117.595 177.925 119.093 178.15 120.59 178.07C123.423 177.917 126.091 176.684 128.043 174.625C129.996 172.566 131.086 169.838 131.09 167C131.09 164.19 131.09 161.85 131.09 161.56C131.09 161.56 140.57 160.64 141.22 151.25C141.54 146.71 141.42 137.31 141.22 128.8C141.121 124.393 139.365 120.185 136.301 117.015C133.237 113.846 129.091 111.948 124.69 111.7H123.78C114 111.66 108.5 120 108.79 129.81Z" fill="#B78876"/>
<path d="M131.11 161.41C126.768 161.242 122.573 159.787 119.06 157.23C119.06 157.23 121.57 164.16 130.99 163.84L131.11 161.41Z" fill="#AA6550"/>
<path d="M138.9 134.31C138.882 134.661 138.728 134.991 138.47 135.23C138.212 135.469 137.871 135.598 137.52 135.59C137.349 135.594 137.178 135.564 137.019 135.5C136.859 135.437 136.714 135.343 136.592 135.222C136.47 135.102 136.373 134.958 136.307 134.8C136.242 134.642 136.209 134.471 136.21 134.3C136.228 133.951 136.381 133.622 136.637 133.383C136.892 133.145 137.23 133.014 137.58 133.02C137.752 133.016 137.923 133.046 138.083 133.109C138.243 133.172 138.389 133.267 138.512 133.387C138.635 133.507 138.732 133.651 138.799 133.809C138.866 133.968 138.9 134.138 138.9 134.31Z" fill="#263238"/>
<path d="M139.16 132.72C138.99 132.89 138.01 132.08 136.57 132C135.13 131.92 134.02 132.58 133.88 132.4C133.74 132.22 133.99 132.01 134.47 131.7C135.121 131.303 135.878 131.114 136.64 131.16C137.392 131.199 138.11 131.48 138.69 131.96C139.12 132.32 139.25 132.65 139.16 132.72Z" fill="#263238"/>
<path d="M124.86 134.2C124.844 134.55 124.692 134.88 124.436 135.12C124.18 135.359 123.84 135.488 123.49 135.48C123.319 135.484 123.148 135.454 122.989 135.39C122.829 135.327 122.684 135.233 122.562 135.112C122.44 134.992 122.343 134.848 122.277 134.69C122.212 134.532 122.179 134.362 122.18 134.19C122.196 133.84 122.348 133.51 122.604 133.271C122.86 133.031 123.2 132.902 123.55 132.91C123.721 132.906 123.892 132.936 124.051 133C124.211 133.063 124.356 133.157 124.478 133.278C124.6 133.398 124.697 133.542 124.763 133.7C124.828 133.859 124.861 134.029 124.86 134.2Z" fill="#263238"/>
<path d="M124.79 132.4C124.61 132.56 123.64 131.75 122.19 131.67C120.74 131.59 119.65 132.26 119.5 132.07C119.35 131.88 119.62 131.68 120.1 131.37C120.747 130.971 121.502 130.786 122.26 130.84C123.013 130.879 123.734 131.155 124.32 131.63C124.74 132 124.87 132.32 124.79 132.4Z" fill="#263238"/>
<path d="M129.36 143.75C130.135 143.555 130.931 143.458 131.73 143.46C132.1 143.46 132.46 143.39 132.53 143.14C132.582 142.764 132.519 142.38 132.35 142.04C132.05 141.12 131.74 140.17 131.42 139.16C130.13 135.08 129.22 131.73 129.42 131.68C129.62 131.63 130.76 134.9 132.05 138.98C132.35 139.98 132.65 140.98 132.93 141.87C133.14 142.328 133.179 142.846 133.04 143.33C132.978 143.456 132.888 143.567 132.777 143.654C132.667 143.74 132.538 143.801 132.4 143.83C132.191 143.858 131.979 143.858 131.77 143.83C130.967 143.907 130.157 143.88 129.36 143.75Z" fill="#263238"/>
<path d="M125.37 129.4C125.2 129.79 123.77 129.52 122.07 129.63C120.37 129.74 118.96 130.12 118.76 129.75C118.67 129.58 118.93 129.22 119.5 128.87C120.261 128.437 121.115 128.193 121.99 128.16C122.864 128.106 123.738 128.26 124.54 128.61C125.15 128.89 125.44 129.22 125.37 129.4Z" fill="#263238"/>
<path d="M139 129.28C138.73 129.59 137.75 129.19 136.56 129.11C135.37 129.03 134.34 129.2 134.12 128.85C134.03 128.68 134.21 128.36 134.67 128.07C135.287 127.734 135.989 127.588 136.688 127.651C137.387 127.713 138.052 127.981 138.6 128.42C139 128.78 139.16 129.12 139 129.28Z" fill="#263238"/>
<path d="M109.16 136.81C109 136.73 102.81 134.53 102.65 140.97C102.49 147.41 108.98 146.24 109 146.06C109.02 145.88 109.16 136.81 109.16 136.81Z" fill="#B78876"/>
<path d="M107.09 143.57C107.09 143.57 106.98 143.64 106.79 143.73C106.521 143.841 106.219 143.841 105.95 143.73C105.541 143.456 105.213 143.078 104.998 142.635C104.784 142.193 104.691 141.701 104.73 141.21C104.726 140.657 104.846 140.111 105.08 139.61C105.148 139.411 105.262 139.231 105.413 139.085C105.565 138.938 105.749 138.831 105.95 138.77C106.08 138.738 106.217 138.754 106.336 138.815C106.455 138.875 106.549 138.976 106.6 139.1C106.68 139.28 106.6 139.41 106.67 139.42C106.74 139.43 106.81 139.31 106.77 139.05C106.733 138.89 106.646 138.746 106.52 138.64C106.435 138.571 106.338 138.52 106.233 138.489C106.128 138.458 106.019 138.448 105.91 138.46C105.641 138.508 105.388 138.626 105.178 138.801C104.967 138.977 104.806 139.204 104.71 139.46C104.423 140.009 104.275 140.62 104.28 141.24C104.233 141.813 104.357 142.387 104.636 142.889C104.916 143.391 105.338 143.798 105.85 144.06C106.017 144.109 106.193 144.121 106.365 144.097C106.537 144.073 106.703 144.013 106.85 143.92C107.08 143.72 107.12 143.58 107.09 143.57Z" fill="#AA6550"/>
<path d="M105.6 136.39C106.212 136.385 106.815 136.546 107.343 136.856C107.871 137.166 108.306 137.613 108.6 138.15C108.96 139.09 109 140.15 109.36 141.08C109.499 141.565 109.796 141.991 110.203 142.289C110.61 142.588 111.105 142.743 111.61 142.73C111.949 142.644 112.26 142.47 112.511 142.226C112.762 141.982 112.944 141.677 113.04 141.34C113.213 140.664 113.257 139.962 113.17 139.27C112.97 136.27 112.5 133.27 112.56 130.2C112.505 127.149 113.354 124.15 115 121.58C115.833 120.308 116.993 119.283 118.358 118.615C119.724 117.946 121.244 117.658 122.76 117.78C124.76 118.06 126.52 119.2 128.48 119.59C129.652 119.813 130.86 119.767 132.012 119.455C133.164 119.143 134.23 118.574 135.13 117.79C135.23 117.704 135.337 117.627 135.45 117.56C135.777 117.356 136.027 117.048 136.159 116.686C136.291 116.323 136.299 115.927 136.18 115.56C136.114 115.325 135.998 115.106 135.84 114.92C132.11 111.06 125.07 109.64 119.84 110.65C117.16 111.151 114.621 112.229 112.398 113.809C110.176 115.389 108.324 117.433 106.97 119.8C104.46 124.55 104.73 131.36 105.69 136.36" fill="#263238"/>
<path d="M126 144.88C126.24 144.88 126.24 146.43 127.58 147.54C128.92 148.65 130.58 148.48 130.58 148.7C130.58 148.92 130.21 149.01 129.5 149.02C128.583 149.039 127.69 148.731 126.98 148.15C126.3 147.592 125.863 146.793 125.76 145.92C125.67 145.26 125.85 144.87 126 144.88Z" fill="#263238"/>
<path d="M215.81 197.8C215.81 197.8 222.86 191.61 224.19 191.15C225.52 190.69 236.14 190.5 236.85 191.03C237.56 191.56 248.31 197.45 246.53 198.36C244.75 199.27 237.3 195 237.3 195L236.05 195.17C236.05 195.17 242.55 198.64 243.7 199.97C244.85 201.3 243.75 202.68 242.54 202.11C241.33 201.54 235.75 198.33 235.31 198.45C234.87 198.57 241.25 202.3 241.84 203C242.63 203.92 242.12 205.72 240.89 205.2C240.17 204.9 234.29 201 234.29 201C235.955 202.362 237.544 203.814 239.05 205.35C239.57 206.35 238.57 207.26 237.54 206.63C236.84 206.2 233.81 203.22 232.87 202.63C232.87 202.63 231.87 202.55 230.3 204.19C228.73 205.83 222.72 208.06 222.72 208.06L215.81 197.8Z" fill="#B78876"/>
<path d="M246.5 198.38C245.738 198.489 244.963 198.441 244.22 198.24C243.403 198.076 242.602 197.835 241.83 197.52C241 197.12 240.09 196.66 239.13 196.17L237.13 195.17H237.27C235.449 195.265 233.623 195.215 231.81 195.02C233.612 194.733 235.436 194.603 237.26 194.63H237.32H237.39L239.39 195.63L242 197C242.735 197.324 243.494 197.592 244.27 197.8C245.64 198.2 246.51 198.29 246.5 198.38Z" fill="#AA6550"/>
<path d="M218.43 199.59C218.72 200.001 219.132 200.311 219.608 200.474C220.084 200.637 220.599 200.646 221.08 200.5C222.08 200.29 222.95 199.76 223.91 199.5C226.8 198.67 230.01 200.21 232.85 199.24C233.25 199.1 233.69 198.81 233.65 198.4C233.61 197.99 233.17 197.82 232.8 197.7L223.32 194.7" fill="#B78876"/>
<path d="M223.32 194.66C223.682 194.681 224.039 194.756 224.38 194.88C225.05 195.06 226.01 195.34 227.2 195.69L231.36 196.95L232.56 197.32C232.94 197.47 233.49 197.5 233.85 198.09C233.92 198.241 233.943 198.409 233.916 198.573C233.89 198.737 233.814 198.889 233.7 199.01C233.513 199.212 233.279 199.367 233.02 199.46C232.554 199.622 232.071 199.729 231.58 199.78C229.792 199.808 228.004 199.711 226.23 199.49C225.48 199.45 224.729 199.521 224 199.7C223.33 199.88 222.71 200.18 222.12 200.39C221.651 200.612 221.139 200.728 220.62 200.728C220.101 200.728 219.589 200.612 219.12 200.39C218.48 200.02 218.38 199.56 218.4 199.57C218.635 199.826 218.912 200.039 219.22 200.2C219.671 200.364 220.152 200.431 220.631 200.397C221.11 200.363 221.577 200.227 222 200C222.62 199.711 223.254 199.454 223.9 199.23C224.674 199.012 225.477 198.918 226.28 198.95C228.03 199.137 229.79 199.22 231.55 199.2C231.989 199.147 232.421 199.05 232.84 198.91C233.23 198.77 233.5 198.49 233.38 198.31C233.26 198.13 232.84 197.94 232.38 197.82L231.18 197.43L227.06 196.05C225.89 195.65 224.94 195.32 224.29 195.05C223.95 194.965 223.624 194.834 223.32 194.66Z" fill="#AA6550"/>
<path d="M175.78 249.4L187.47 248.24C187.47 248.24 202.93 258.83 201.47 261.16C200.01 263.49 197.47 261.16 197.47 261.16C197.47 261.16 200.22 264.55 195.77 265.61C195.77 265.61 194.71 267.94 193.02 267.73H191.96C191.96 267.73 190.96 270.68 189.57 270.04C188.18 269.4 183.83 265.6 183.83 265.6L171.83 264.54L175.78 249.4Z" fill="#B78876"/>
<path d="M183.05 261.45C183.05 261.45 180.05 262.6 179.44 263.81C178.83 265.02 178.44 267.81 180.38 268.36C181.518 268.433 182.659 268.396 183.79 268.25L183.05 265.1C183.608 264.453 184.202 263.839 184.83 263.26C185.47 262.73 184.77 260.66 183.05 261.45Z" fill="#FFBE9D"/>
<path d="M186.42 263.05C186.42 263.05 183.42 264.2 182.81 265.4C182.634 265.753 182.539 266.142 182.532 266.537C182.526 266.932 182.608 267.323 182.773 267.682C182.939 268.041 183.182 268.359 183.486 268.611C183.79 268.863 184.147 269.044 184.53 269.14C185.561 269.222 186.597 269.188 187.62 269.04L187.3 268.43C186.7 267.25 186.44 266.29 187.5 265.5C187.56 265.5 188.16 264.9 188.2 264.86C188.351 264.611 188.414 264.319 188.38 264.03C188.346 263.741 188.217 263.471 188.013 263.264C187.809 263.056 187.542 262.923 187.253 262.884C186.965 262.845 186.672 262.904 186.42 263.05Z" fill="#FFBE9D"/>
<path d="M187.14 268.93C186.887 268.656 186.727 268.309 186.684 267.939C186.641 267.569 186.717 267.195 186.9 266.87C187.294 266.227 187.927 265.767 188.66 265.59C188.886 265.495 189.134 265.465 189.376 265.504C189.619 265.543 189.845 265.649 190.03 265.81C190.12 265.94 190.184 266.086 190.216 266.241C190.249 266.395 190.25 266.555 190.22 266.71C190.017 267.536 189.595 268.292 189 268.9C188.72 269.25 188.38 269.63 187.93 269.62C187.48 269.61 187.15 269.19 186.93 268.81" fill="#FFBE9D"/>
<path d="M123.96 174.67L126.59 173.68L128.86 177.75L127.59 182.1L124.91 182.76L122.24 179.39L123.96 174.67Z" fill="#FF725E"/>
<path d="M124.91 182.76C124.91 182.76 128.32 201.47 131.15 214.63C131.15 214.63 133.48 225.63 134.42 228.11C135.47 230.94 138.71 235.11 138.71 235.11L142 236.39L140 217.9L127.6 182.1L124.91 182.76Z" fill="#FF725E"/>
<g opacity="0.4">
<path opacity="0.4" d="M123.96 174.67L126.59 173.68L128.86 177.75L127.59 182.1L124.91 182.76L122.24 179.39L123.96 174.67Z" fill="black"/>
</g>
<g opacity="0.4">
<path opacity="0.4" d="M124.91 182.76C124.91 182.76 128.32 201.47 131.15 214.63C131.15 214.63 133.82 225.49 134.42 228.11C134.77 229.66 138.71 235.11 138.71 235.11L142 236.39L140 217.9L127.6 182.1L124.91 182.76Z" fill="black"/>
</g>
<path d="M108.18 163.3L123.96 174.67L120.55 184.05L106.19 169.27L108.18 163.3Z" fill="#F5F5F5"/>
<path d="M126.59 173.68L130.99 163.84L133.49 171.96L130.02 180.48L126.59 173.68Z" fill="#F5F5F5"/>
<path d="M124 174.67C123.97 174.917 123.91 175.158 123.82 175.39L123.18 177.39C122.62 179.06 121.8 181.39 120.81 184.17L120.68 184.55L120.4 184.25L116.73 180.19C113.87 177.02 111.3 174.13 109.47 172.02L107.31 169.5C107.028 169.195 106.78 168.859 106.57 168.5C106.895 168.749 107.193 169.03 107.46 169.34L109.74 171.74C111.65 173.74 114.26 176.64 117.11 179.81C118.4 181.25 119.63 182.63 120.77 183.89L120.36 183.97C121.36 181.23 122.26 178.9 122.9 177.25L123.67 175.34C123.747 175.102 123.859 174.876 124 174.67Z" fill="#263238"/>
<path d="M133.49 172C133.322 172.79 133.074 173.561 132.75 174.3C132.24 175.69 131.49 177.61 130.63 179.71L130.26 180.62L130 181.25L129.78 180.61C128.91 178.373 127.856 176.213 126.63 174.15C127.156 174.622 127.602 175.175 127.95 175.79C128.907 177.242 129.685 178.803 130.27 180.44H129.78C129.9 180.14 130.03 179.84 130.15 179.53C131.01 177.42 131.81 175.53 132.41 174.17C132.684 173.407 133.047 172.679 133.49 172Z" fill="#263238"/>
<path d="M334 468.07L340.08 492.21L350.4 509.92C350.576 510.222 350.688 510.557 350.73 510.904C350.771 511.251 350.741 511.603 350.64 511.937C350.54 512.272 350.372 512.583 350.146 512.85C349.921 513.117 349.643 513.335 349.33 513.49C348.97 513.678 348.571 513.776 348.165 513.776C347.759 513.776 347.36 513.678 347 513.49C342.36 510.99 325.36 501.7 325 499.91C324.6 497.84 316.89 474.91 316.89 474.91L334 468.07Z" fill="#FF725E"/>
<g opacity="0.6">
<path opacity="0.6" d="M349.37 513.49L324.61 498.26L324.89 499.26C325.13 500.14 325.676 500.906 326.43 501.42C328.43 502.79 334.11 506.42 346.96 513.42C347.331 513.617 347.745 513.72 348.165 513.72C348.585 513.72 348.999 513.617 349.37 513.42V513.49Z" fill="white"/>
</g>
<g opacity="0.6">
<path opacity="0.6" d="M327.39 489.16C327.747 489.294 328.041 489.555 328.216 489.893C328.392 490.231 328.436 490.621 328.34 490.99C328.218 491.351 327.962 491.651 327.625 491.828C327.288 492.005 326.896 492.045 326.53 491.94C326.152 491.799 325.839 491.523 325.654 491.164C325.469 490.805 325.425 490.39 325.53 490C325.694 489.634 325.996 489.346 326.37 489.2C326.744 489.054 327.161 489.062 327.53 489.22" fill="white"/>
</g>
<path d="M341 504.52C341.366 503.61 341.902 502.779 342.58 502.07C343.367 501.483 344.255 501.046 345.2 500.78C345.2 500.72 344.85 500.62 344.27 500.69C343.51 500.817 342.801 501.155 342.224 501.666C341.648 502.177 341.227 502.841 341.01 503.58C340.86 504.16 340.92 504.52 341 504.52Z" fill="#263238"/>
<path d="M343.58 507.26C343.73 507.34 344.28 506.34 345.42 505.64C346.156 505.283 346.91 504.966 347.68 504.69C347.247 504.562 346.789 504.54 346.345 504.625C345.902 504.711 345.485 504.901 345.13 505.18C343.84 506 343.44 507.23 343.58 507.26Z" fill="#263238"/>
<path d="M336.67 501.28C338.187 499.226 340.273 497.661 342.67 496.78C341.346 496.884 340.079 497.362 339.017 498.159C337.954 498.955 337.14 500.038 336.67 501.28Z" fill="#263238"/>
<path d="M334.2 494.1C334.31 494.22 335.48 493.3 337.2 492.77C338.92 492.24 340.39 492.26 340.4 492.1C339.296 491.745 338.101 491.795 337.03 492.24C335.899 492.512 334.898 493.17 334.2 494.1Z" fill="#263238"/>
<path d="M332.24 487.06C333.188 486.427 334.222 485.932 335.31 485.59C336.434 485.405 337.578 485.374 338.71 485.5C338.71 485.44 338.39 485.22 337.71 485.05C336.865 484.848 335.985 484.848 335.14 485.05C334.295 485.249 333.51 485.646 332.85 486.21C332.39 486.65 332.19 487 332.24 487.06Z" fill="#263238"/>
<path d="M334.89 484.26C334.89 483.942 334.818 483.627 334.68 483.34C334.368 482.53 333.899 481.789 333.3 481.16C332.899 480.665 332.348 480.315 331.73 480.16C331.521 480.126 331.307 480.159 331.119 480.254C330.93 480.35 330.777 480.502 330.68 480.69C330.505 481.059 330.476 481.481 330.6 481.87C330.875 482.662 331.418 483.334 332.136 483.768C332.854 484.203 333.7 484.373 334.53 484.25C335.347 484.109 336.105 483.728 336.706 483.157C337.308 482.586 337.727 481.849 337.91 481.04C337.953 480.836 337.952 480.625 337.907 480.422C337.862 480.219 337.774 480.027 337.65 479.86C337.507 479.705 337.319 479.6 337.112 479.559C336.906 479.517 336.692 479.542 336.5 479.63C335.943 479.923 335.474 480.357 335.14 480.89C334.631 481.59 334.252 482.376 334.02 483.21C333.908 483.507 333.861 483.824 333.88 484.14C334.253 483.068 334.782 482.057 335.45 481.14C335.76 480.69 336.176 480.323 336.66 480.07C336.765 480.021 336.883 480.008 336.996 480.031C337.11 480.054 337.213 480.114 337.29 480.2C337.362 480.315 337.41 480.444 337.43 480.578C337.451 480.712 337.444 480.849 337.41 480.98C337.229 481.679 336.849 482.311 336.317 482.799C335.784 483.287 335.122 483.61 334.41 483.73C333.705 483.83 332.986 483.686 332.373 483.323C331.761 482.959 331.29 482.397 331.04 481.73C330.944 481.462 330.944 481.168 331.04 480.9C331.092 480.795 331.176 480.709 331.281 480.655C331.385 480.601 331.504 480.582 331.62 480.6C332.139 480.732 332.606 481.018 332.96 481.42C333.768 482.243 334.422 483.205 334.89 484.26Z" fill="#263238"/>
<path d="M258.63 472.57L259.92 491.18C259.92 491.18 241.44 498.74 241.34 502.18L277.51 501L276.7 471.92L258.63 472.57Z" fill="#FF725E"/>
<path d="M271.05 489.24C271.403 489.334 271.709 489.556 271.909 489.863C272.108 490.169 272.187 490.539 272.13 490.9C272.051 491.257 271.837 491.57 271.534 491.775C271.231 491.979 270.861 492.06 270.5 492C270.127 491.899 269.805 491.663 269.596 491.337C269.388 491.012 269.307 490.621 269.37 490.24C269.494 489.879 269.752 489.579 270.091 489.404C270.43 489.229 270.824 489.192 271.19 489.3" fill="#E0E0E0"/>
<path d="M277.51 501L277.32 498.07L242.71 500.32C242.71 500.32 241.12 501.08 241.34 502.21L277.51 501Z" fill="#E0E0E0"/>
<path d="M259.33 491C259.33 491.17 260.23 491.23 261.11 491.76C261.99 492.29 262.49 493.03 262.65 492.96C262.81 492.89 262.51 491.87 261.43 491.23C260.35 490.59 259.29 490.86 259.33 491Z" fill="#263238"/>
<path d="M255.59 492.71C255.59 492.89 256.33 493.16 256.95 493.89C257.57 494.62 257.78 495.4 257.95 495.39C258.12 495.38 258.21 494.39 257.41 493.48C256.61 492.57 255.59 492.55 255.59 492.71Z" fill="#263238"/>
<path d="M253.58 497.33C253.75 497.33 253.96 496.47 253.48 495.52C253 494.57 252.15 494.21 252.08 494.36C252.01 494.51 252.54 495.01 252.93 495.79C253.32 496.57 253.41 497.31 253.58 497.33Z" fill="#263238"/>
<path d="M259.51 486.75C259.59 486.9 260.39 486.63 261.39 486.67C262.39 486.71 263.18 486.99 263.26 486.84C263.34 486.69 262.58 486.08 261.4 486.05C260.22 486.02 259.41 486.61 259.51 486.75Z" fill="#263238"/>
<path d="M259.32 483C259.919 483.134 260.543 483.109 261.13 482.93C261.777 482.79 262.405 482.571 263 482.28C263.348 482.109 263.682 481.912 264 481.69C264.204 481.576 264.387 481.427 264.54 481.25C264.651 481.121 264.716 480.959 264.725 480.788C264.734 480.618 264.687 480.45 264.59 480.31C264.496 480.191 264.376 480.095 264.239 480.029C264.102 479.963 263.952 479.929 263.8 479.93C263.569 479.935 263.339 479.975 263.12 480.05C262.737 480.153 262.365 480.294 262.01 480.47C261.409 480.764 260.859 481.153 260.38 481.62C259.56 482.43 259.3 483.1 259.38 483.13C259.46 483.16 259.85 482.62 260.68 481.95C261.165 481.55 261.699 481.214 262.27 480.95C262.593 480.805 262.927 480.688 263.27 480.6C263.65 480.49 263.97 480.47 264.08 480.6C264.19 480.73 264.08 480.69 264.08 480.8C263.964 480.929 263.829 481.04 263.68 481.13C263.378 481.341 263.064 481.535 262.74 481.71C262.188 482.001 261.613 482.245 261.02 482.44C260.439 482.58 259.87 482.767 259.32 483Z" fill="#263238"/>
<path d="M259.55 483.23C259.62 483.23 259.95 482.61 259.97 481.47C259.981 480.791 259.876 480.114 259.66 479.47C259.533 479.093 259.365 478.731 259.16 478.39C259.055 478.155 258.891 477.951 258.685 477.796C258.478 477.642 258.235 477.544 257.98 477.51C257.819 477.519 257.664 477.574 257.533 477.668C257.402 477.761 257.3 477.891 257.24 478.04C257.151 478.254 257.094 478.48 257.07 478.71C257.009 479.114 257.009 479.526 257.07 479.93C257.194 480.606 257.482 481.242 257.91 481.78C258.65 482.69 259.39 482.88 259.4 482.78C259.41 482.68 258.83 482.37 258.26 481.48C257.929 480.973 257.714 480.399 257.63 479.8C257.58 479.452 257.58 479.098 257.63 478.75C257.63 478.37 257.81 478.05 257.95 478.09C258.09 478.13 258.45 478.36 258.61 478.66C258.796 478.98 258.956 479.315 259.09 479.66C259.313 480.237 259.451 480.843 259.5 481.46C259.62 482.54 259.46 483.21 259.55 483.23Z" fill="#263238"/>
<path d="M248.76 270.14L254.58 486.7L283.12 485.84L280.92 299.98L317.28 491.01L343.05 484.28L309.78 270.56L248.76 270.14Z" fill="#263238"/>
<path d="M264.4 487C264.25 487 264.14 442.11 264.14 386.74C264.14 331.37 264.25 286.48 264.4 286.48C264.55 286.48 264.66 331.36 264.66 386.74C264.66 442.12 264.54 487 264.4 487Z" fill="#455A64"/>
<path d="M325.42 490.94C325.28 490.94 318.62 447.94 310.54 394.83C302.46 341.72 296 298.64 296.17 298.62C296.34 298.6 302.97 341.62 311.05 394.75C319.13 447.88 325.57 490.92 325.42 490.94Z" fill="#455A64"/>
<path d="M289.65 134.72C290.644 132.495 291.45 130.19 292.06 127.83C292.4 126.03 292.94 123.34 292.22 121.66C291.5 119.98 289.75 118.36 287.55 118.82C287.322 117.053 286.646 115.373 285.588 113.94C284.529 112.507 283.122 111.368 281.5 110.63C278.37 109.116 274.972 108.232 271.5 108.03C270.231 107.902 268.948 108.062 267.75 108.5C266.732 109.016 265.931 109.878 265.49 110.93C264.441 110.176 263.23 109.677 261.954 109.474C260.677 109.271 259.372 109.369 258.14 109.76C255.38 110.5 252.24 111.99 251.03 114.57C250.163 116.501 250.088 118.694 250.82 120.68C251.35 122.36 253.13 125 254.82 124.38" fill="#263238"/>
<path d="M275.74 181.43C274.085 181.396 272.453 181.03 270.943 180.353C269.432 179.676 268.073 178.702 266.946 177.489C265.819 176.277 264.947 174.85 264.383 173.293C263.818 171.737 263.573 170.083 263.66 168.43C263.83 164.98 263.99 162.19 263.99 162.19C263.99 162.19 254.57 160.97 254.22 151.59C253.87 142.21 254.96 120.65 254.96 120.65C260.238 118.233 266.066 117.269 271.841 117.858C277.616 118.447 283.129 120.567 287.81 124L289.22 125L288.35 169.31C288.319 170.934 287.968 172.536 287.317 174.024C286.666 175.513 285.728 176.858 284.557 177.984C283.386 179.109 282.005 179.993 280.492 180.584C278.979 181.176 277.364 181.463 275.74 181.43Z" fill="#FFBE9D"/>
<path d="M264 162.09C268.332 162.061 272.557 160.745 276.14 158.31C276.14 158.31 273.25 165.58 263.87 164.97L264 162.09Z" fill="#EB996E"/>
<path d="M288.31 134.75C288.47 134.68 294.71 132.68 294.66 139.1C294.61 145.52 288.19 144.15 288.18 143.96C288.17 143.77 288.31 134.75 288.31 134.75Z" fill="#FFBE9D"/>
<path d="M290.15 141.54C290.15 141.54 290.27 141.62 290.45 141.71C290.583 141.766 290.726 141.795 290.87 141.795C291.014 141.795 291.157 141.766 291.29 141.71C291.707 141.452 292.048 141.087 292.277 140.652C292.505 140.218 292.613 139.73 292.59 139.24C292.61 138.69 292.504 138.143 292.28 137.64C292.223 137.44 292.117 137.256 291.972 137.106C291.828 136.956 291.648 136.844 291.45 136.78C291.322 136.744 291.186 136.754 291.065 136.809C290.944 136.864 290.847 136.96 290.79 137.08C290.7 137.26 290.74 137.38 290.71 137.39C290.68 137.4 290.57 137.29 290.62 137.02C290.659 136.861 290.751 136.72 290.88 136.62C291.06 136.492 291.281 136.435 291.5 136.46C291.762 136.516 292.005 136.638 292.207 136.812C292.41 136.987 292.566 137.21 292.66 137.46C292.932 138.016 293.059 138.632 293.03 139.25C293.057 139.821 292.914 140.388 292.621 140.879C292.327 141.37 291.896 141.763 291.38 142.01C291.21 142.053 291.033 142.059 290.861 142.028C290.688 141.997 290.524 141.93 290.38 141.83C290.16 141.7 290.13 141.56 290.15 141.54Z" fill="#EB996E"/>
<path d="M257.39 135.32C257.398 135.669 257.541 136.002 257.789 136.248C258.037 136.495 258.371 136.635 258.72 136.64C258.891 136.649 259.061 136.625 259.222 136.567C259.383 136.509 259.531 136.42 259.656 136.305C259.782 136.189 259.884 136.05 259.955 135.894C260.026 135.739 260.065 135.571 260.07 135.4C260.065 135.05 259.923 134.716 259.674 134.469C259.426 134.222 259.09 134.083 258.74 134.08C258.57 134.072 258.4 134.098 258.239 134.156C258.079 134.214 257.932 134.303 257.806 134.419C257.681 134.534 257.579 134.673 257.508 134.828C257.437 134.982 257.396 135.15 257.39 135.32Z" fill="#263238"/>
<path d="M257.06 133.82C257.23 133.99 258.23 133.22 259.67 133.19C261.11 133.16 262.19 133.85 262.34 133.67C262.49 133.49 262.24 133.28 261.77 132.95C261.135 132.535 260.388 132.326 259.63 132.35C258.88 132.366 258.155 132.622 257.56 133.08C257.12 133.43 257 133.75 257.06 133.82Z" fill="#263238"/>
<path d="M271.51 135.31C271.52 135.658 271.664 135.988 271.912 136.232C272.16 136.476 272.492 136.615 272.84 136.62C273.011 136.631 273.182 136.607 273.344 136.55C273.505 136.493 273.653 136.404 273.779 136.288C273.906 136.172 274.007 136.032 274.077 135.876C274.148 135.72 274.186 135.551 274.19 135.38C274.185 135.032 274.044 134.699 273.798 134.452C273.551 134.206 273.218 134.065 272.87 134.06C272.698 134.052 272.527 134.078 272.366 134.137C272.204 134.195 272.056 134.285 271.929 134.401C271.803 134.518 271.701 134.658 271.629 134.814C271.557 134.97 271.516 135.138 271.51 135.31Z" fill="#263238"/>
<path d="M271.23 133.74C271.41 133.91 272.4 133.13 273.84 133.1C275.28 133.07 276.36 133.76 276.51 133.58C276.66 133.4 276.41 133.19 275.94 132.87C275.308 132.449 274.56 132.236 273.8 132.26C273.05 132.277 272.325 132.532 271.73 132.99C271.29 133.34 271.15 133.66 271.23 133.74Z" fill="#263238"/>
<path d="M266.27 144.55C265.504 144.334 264.715 144.213 263.92 144.19C263.55 144.19 263.2 144.1 263.13 143.85C263.097 143.47 263.173 143.088 263.35 142.75C263.68 141.85 264.02 140.91 264.35 139.92C265.76 135.92 266.77 132.59 266.61 132.53C266.45 132.47 265.17 135.7 263.76 139.72L262.76 142.57C262.538 143.019 262.481 143.533 262.6 144.02C262.661 144.145 262.748 144.256 262.855 144.346C262.962 144.435 263.086 144.501 263.22 144.54C263.426 144.59 263.638 144.613 263.85 144.61C264.656 144.7 265.47 144.68 266.27 144.55Z" fill="#263238"/>
<path d="M270.54 145.45C270.3 145.45 270.34 147 269.03 148.15C267.72 149.3 266.03 149.15 266.03 149.38C266.03 149.61 266.41 149.67 267.12 149.67C268.035 149.662 268.918 149.329 269.61 148.73C270.279 148.157 270.698 147.347 270.78 146.47C270.83 145.82 270.65 145.43 270.54 145.45Z" fill="#263238"/>
<path d="M270.72 128.1C270.87 128.49 272.31 128.27 274 128.43C275.69 128.59 277.08 129.01 277.29 128.66C277.39 128.49 277.14 128.12 276.58 127.76C275.838 127.304 274.998 127.034 274.13 126.97C273.26 126.886 272.383 127.01 271.57 127.33C271 127.6 270.66 127.91 270.72 128.1Z" fill="#263238"/>
<path d="M257.49 129.64C257.75 129.96 258.73 129.64 259.93 129.55C261.13 129.46 262.14 129.71 262.36 129.37C262.46 129.2 262.29 128.87 261.84 128.57C261.237 128.216 260.543 128.049 259.845 128.09C259.147 128.131 258.477 128.378 257.92 128.8C257.5 129.14 257.37 129.48 257.49 129.64Z" fill="#263238"/>
<path d="M289.72 125.74C289.66 128.48 290.35 131.51 289.93 134.2C289.87 134.61 288.85 135.72 288.76 136.12C288.27 138.51 287.31 139.55 285.84 137.12C285.27 136.19 284.84 133.58 284.62 132.52L282.7 123.91C280.527 125.108 278.091 125.75 275.61 125.78C274.372 125.777 273.155 125.459 272.073 124.855C270.992 124.252 270.082 123.383 269.43 122.33C268.868 123.32 268.09 124.17 267.154 124.817C266.218 125.465 265.148 125.893 264.024 126.07C262.899 126.247 261.749 126.168 260.66 125.839C259.57 125.51 258.569 124.939 257.73 124.17C257.29 124.827 256.619 125.295 255.85 125.48C255.081 125.665 254.271 125.555 253.58 125.17C252.91 124.747 252.391 124.122 252.098 123.385C251.805 122.648 251.754 121.838 251.95 121.07C252.54 118.77 254.95 117.47 257.22 116.74C266.07 113.89 275.99 115.74 284.12 120.2C285.332 120.817 286.444 121.613 287.42 122.56C288.36 123.56 289.66 124.68 289.73 126.04" fill="#263238"/>
<path d="M283 125C283.493 124.998 283.982 125.076 284.45 125.23C284.94 125.442 285.393 125.733 285.79 126.09C286.25 126.49 286.7 127.01 287.25 127.52C287.762 128.036 288.384 128.429 289.07 128.67C289.652 128.835 290.268 128.835 290.85 128.67C291.85 128.39 292.23 127.85 292.19 127.81C291.729 128.005 291.255 128.166 290.77 128.29C290.254 128.378 289.724 128.333 289.23 128.16C288.624 127.926 288.074 127.565 287.62 127.1C287.1 126.61 286.62 126.1 286.12 125.68C285.665 125.304 285.142 125.019 284.58 124.84C283.55 124.56 282.93 125 283 125Z" fill="#455A64"/>
<path d="M284.07 127.8C284.07 127.88 284.55 127.8 285.07 128.25C285.376 128.529 285.651 128.841 285.89 129.18C286.217 129.635 286.632 130.019 287.11 130.31C287.981 130.851 289.014 131.071 290.03 130.93C290.8 130.81 291.2 130.53 291.17 130.47C291.14 130.41 290.7 130.53 289.99 130.54C289.077 130.564 288.177 130.321 287.4 129.84C286.48 129.33 286.02 128.35 285.29 127.93C284.56 127.51 284 127.73 284.07 127.8Z" fill="#455A64"/>
<path d="M259.34 109.56C259.34 109.56 259.03 109.48 258.51 109.64C257.778 109.885 257.146 110.363 256.71 111C255.56 112.61 255.29 115.46 256.18 118.23C256.966 120.615 258.604 122.626 260.78 123.88C261.424 124.255 262.113 124.547 262.83 124.75C263.088 124.849 263.364 124.896 263.64 124.89C262.737 124.486 261.856 124.036 261 123.54C258.987 122.257 257.478 120.317 256.73 118.05C255.88 115.44 256.08 112.71 257.05 111.21C257.427 110.612 257.969 110.137 258.61 109.84C259.05 109.63 259.34 109.61 259.34 109.56Z" fill="#455A64"/>
<path d="M251.57 113.45C251.463 114.052 251.49 114.67 251.65 115.26C252.224 118.175 253.933 120.744 256.4 122.4C256.883 122.777 257.443 123.043 258.04 123.18C256.399 122.028 254.956 120.616 253.77 119C251.9 116.24 251.75 113.42 251.57 113.45Z" fill="#455A64"/>
<path d="M199.86 244.14L186.14 244.83C185.298 244.874 184.506 245.242 183.93 245.857C183.354 246.473 183.039 247.287 183.05 248.13C183.12 251.27 183.65 255.56 186.05 255.13L187.61 248.3L199 258.3C200.152 259.338 201.573 260.031 203.1 260.3L205.78 260.02L199.86 244.14Z" fill="#FFBE9D"/>
<path d="M265.47 170.65L258.3 173.02L254.74 232.57V285.4L298.77 290.27L299.28 214.09L296.44 176.18L289.71 168.14L265.47 170.65Z" fill="#E0E0E0"/>
<path d="M263.26 173.5V167.73L289.43 164.09L288.38 177.38L282.37 187.8L272.54 188.35L265.44 183.97L263.26 173.5Z" fill="#E0E0E0"/>
<path d="M265.61 172.83C265.387 171.968 265.336 171.071 265.46 170.19C265.416 169.301 265.541 168.412 265.83 167.57C266.053 168.432 266.104 169.329 265.98 170.21C266.024 171.099 265.899 171.988 265.61 172.83Z" fill="#263238"/>
<path d="M272.15 172.35C271.953 171.379 271.923 170.381 272.06 169.4C272.034 168.408 272.183 167.42 272.5 166.48C272.702 167.468 272.729 168.483 272.58 169.48C272.608 170.455 272.462 171.426 272.15 172.35Z" fill="#263238"/>
<path d="M278.48 171.69C278.308 170.657 278.308 169.603 278.48 168.57C278.471 167.523 278.636 166.482 278.97 165.49C279.136 166.523 279.136 167.577 278.97 168.61C278.974 169.656 278.808 170.696 278.48 171.69Z" fill="#263238"/>
<path d="M284.56 170.69C284.162 168.741 284.255 166.724 284.83 164.82C284.962 165.796 284.962 166.785 284.83 167.76C284.87 168.744 284.779 169.73 284.56 170.69Z" fill="#263238"/>
<path d="M281.65 195.86C281.581 196.208 281.463 196.545 281.3 196.86C281.05 197.48 280.66 198.36 280.15 199.44C279.15 201.59 277.62 204.52 275.76 207.64C273.9 210.76 272.05 213.5 270.64 215.42C269.94 216.42 269.36 217.15 268.94 217.67C268.74 217.955 268.505 218.214 268.24 218.44C268.881 217.326 269.582 216.248 270.34 215.21C271.67 213.21 273.46 210.49 275.34 207.38C277.22 204.27 278.75 201.38 279.85 199.27C280.39 198.103 280.991 196.965 281.65 195.86Z" fill="#263238"/>
<path d="M289.58 167.21L296.68 170.63L310.4 174C313.299 174.504 315.892 176.106 317.639 178.474C319.386 180.841 320.153 183.791 319.78 186.71L312.59 242.71L321.17 297.01L287.17 296.01L285.17 275.81V219.81L289.58 167.21Z" fill="#455A64"/>
<path d="M285.17 232.71C285.186 232.475 285.22 232.241 285.27 232.01C285.37 231.51 285.5 230.86 285.66 230.01L287.17 222.79L292.36 199.02C292.93 196.47 293.48 194.02 294.01 191.6L294.08 191.84L291.72 189.37L291.59 189.23L291.69 189.07L295.64 182.5V182.69L291.28 172.13C290.79 170.9 290.39 169.91 290.1 169.13C289.945 168.788 289.818 168.433 289.72 168.07C289.921 168.385 290.088 168.72 290.22 169.07L291.52 171.98L296 182.55L296.05 182.65L295.99 182.75C294.78 184.75 293.47 187 292.08 189.36V189.06L294.44 191.51L294.54 191.61V191.74C294.01 194.13 293.46 196.61 292.9 199.16C290.82 208.41 288.9 216.78 287.56 222.9C286.87 225.9 286.3 228.33 285.89 230.09L285.41 232.03C285.354 232.264 285.273 232.492 285.17 232.71Z" fill="#263238"/>
<path d="M200.44 241.88L230.52 225.11L245.09 185.8C246.099 183.085 247.656 180.606 249.663 178.517C251.671 176.429 254.087 174.776 256.76 173.66L260.63 172.05V275.54L261.4 300.06L245.1 295.18L253.42 245.9L250.54 221.65L247.69 233.38C247.189 235.461 246.272 237.42 244.995 239.138C243.719 240.856 242.108 242.299 240.26 243.38L209 259.62L200.44 241.88Z" fill="#455A64"/>
<path d="M200.8 242.64L198.27 243.4L205.39 260.38L208.71 259.09L200.8 242.64Z" fill="#E0E0E0"/>
<path d="M236 232.09C235.381 230.747 234.627 229.471 233.75 228.28C232.739 227.202 231.624 226.227 230.42 225.37C231.876 225.873 233.166 226.765 234.15 227.95C235.133 229.135 235.773 230.567 236 232.09Z" fill="#263238"/>
<path d="M204.05 242.1C204.05 242.17 203.9 242.3 203.88 242.59C203.86 242.88 204.05 243.22 204.45 243.1C204.526 243.082 204.595 243.045 204.651 242.991C204.707 242.937 204.747 242.869 204.768 242.795C204.788 242.72 204.788 242.641 204.768 242.566C204.747 242.491 204.706 242.424 204.65 242.37C204.48 242.13 204.26 242.12 204.25 242.04C204.24 241.96 204.53 241.82 204.91 242.1C205.02 242.187 205.107 242.298 205.166 242.425C205.225 242.552 205.254 242.69 205.25 242.83C205.234 243.009 205.162 243.179 205.046 243.317C204.93 243.455 204.774 243.554 204.6 243.6C204.448 243.653 204.285 243.662 204.129 243.626C203.972 243.589 203.829 243.51 203.716 243.396C203.603 243.282 203.525 243.138 203.49 242.981C203.455 242.824 203.466 242.661 203.52 242.51C203.69 242.06 204 242 204.05 242.1Z" fill="#263238"/>
<path d="M206.47 241.08C206.47 241.15 206.32 241.28 206.31 241.57C206.3 241.86 206.48 242.2 206.88 242.08C206.956 242.061 207.025 242.022 207.08 241.967C207.136 241.912 207.176 241.844 207.196 241.768C207.216 241.693 207.216 241.614 207.196 241.539C207.176 241.463 207.136 241.395 207.08 241.34C206.91 241.11 206.69 241.09 206.67 241.02C206.65 240.95 206.95 240.79 207.34 241.08C207.449 241.165 207.537 241.274 207.596 241.399C207.655 241.524 207.684 241.662 207.68 241.8C207.661 241.981 207.588 242.152 207.471 242.291C207.355 242.431 207.2 242.533 207.025 242.584C206.851 242.635 206.665 242.634 206.492 242.58C206.318 242.526 206.164 242.421 206.05 242.28C205.973 242.163 205.924 242.03 205.907 241.892C205.889 241.753 205.904 241.612 205.95 241.48C206.12 241 206.47 241 206.47 241.08Z" fill="#263238"/>
<path d="M260.63 234.3C260.562 234.096 260.518 233.884 260.5 233.67C260.43 233.19 260.33 232.58 260.22 231.82C259.99 230.15 259.68 227.82 259.3 225.03C258.56 219.23 257.56 211.32 256.45 202.59C256.3 201.35 256.15 200.13 256 198.92V198.86V198.8C256.76 196.87 257.5 195 258.2 193.21V193.4C257.44 191.67 256.71 190.01 256.03 188.4V188.33V188.25C257.37 183.44 258.49 179.39 259.29 176.47C259.69 175.09 260.01 173.99 260.24 173.17C260.339 172.774 260.469 172.386 260.63 172.01C260.577 172.412 260.494 172.81 260.38 173.2C260.18 174.03 259.9 175.15 259.55 176.54C258.79 179.47 257.73 183.54 256.48 188.37V188.22L258.69 193.16V193.25V193.35L256.5 199V198.87C256.65 200.07 256.8 201.3 256.96 202.54C257.96 211.28 258.96 219.19 259.65 224.99C259.97 227.82 260.23 230.13 260.41 231.81L260.59 233.66C260.629 233.871 260.643 234.086 260.63 234.3Z" fill="#263238"/>
<path d="M253.39 246.19C253.341 246.03 253.307 245.866 253.29 245.7C253.24 245.32 253.17 244.85 253.09 244.29C252.93 242.98 252.72 241.22 252.45 239.08C251.92 234.68 251.17 228.61 250.27 221.91C249.37 215.21 248.49 209.15 247.85 204.77C247.54 202.64 247.28 200.88 247.09 199.58C247.02 199.01 246.96 198.58 246.91 198.16C246.884 197.994 246.884 197.826 246.91 197.66C246.97 197.815 247.013 197.976 247.04 198.14C247.12 198.52 247.21 198.98 247.32 199.54C247.55 200.76 247.87 202.54 248.24 204.71C248.98 209.08 249.92 215.13 250.82 221.84C251.72 228.55 252.41 234.63 252.82 239.04C253.04 241.24 253.2 243.04 253.3 244.26C253.3 244.83 253.37 245.26 253.39 245.69C253.416 245.856 253.416 246.024 253.39 246.19Z" fill="#263238"/>
<path d="M249.24 283C249.432 283.309 249.664 283.591 249.93 283.84C250.311 284.147 250.756 284.362 251.233 284.469C251.71 284.577 252.205 284.574 252.68 284.46C253.375 284.241 254.009 283.862 254.53 283.353C255.051 282.844 255.445 282.22 255.68 281.53C256.229 279.789 256.513 277.975 256.52 276.15C256.737 274.341 256.549 272.507 255.97 270.78C255.331 269.442 254.398 268.266 253.24 267.34C252.458 266.67 251.759 265.908 251.16 265.07C250.926 264.776 250.759 264.435 250.67 264.07C250.67 264.07 250.88 264.41 251.32 264.97C251.973 265.745 252.7 266.455 253.49 267.09C254.732 268.016 255.734 269.226 256.41 270.62C257.051 272.406 257.266 274.316 257.04 276.2C257.031 278.08 256.724 279.947 256.13 281.73C255.859 282.474 255.414 283.144 254.834 283.683C254.253 284.222 253.553 284.615 252.79 284.83C252.261 284.953 251.71 284.943 251.186 284.8C250.663 284.656 250.183 284.385 249.79 284.01C249.587 283.807 249.421 283.571 249.3 283.31C249.24 283.08 249.22 283 249.24 283Z" fill="#263238"/>
<path d="M238.06 244.14C238.06 244.14 239.06 232.67 248.14 231.61C248.14 231.61 248.31 241 238.06 244.14Z" fill="#263238"/>
<path d="M286.74 287.09L313.19 304.39L316.19 302L317.6 263.23L292.41 244.14L288.95 245.33L286.74 287.09Z" fill="#FF725E"/>
<path d="M292.12 244.69L293.15 286.65H287.59L289.45 245.52L292.12 244.69Z" fill="#E0E0E0"/>
<path d="M300.44 296.29C300.687 296.882 301.103 297.388 301.637 297.744C302.171 298.1 302.798 298.29 303.44 298.29C303.488 298.303 303.533 298.327 303.571 298.36C303.609 298.393 303.64 298.434 303.66 298.48C303.908 298.935 304.27 299.317 304.71 299.59C305.149 299.864 305.653 300.019 306.17 300.04C307.175 300.038 308.159 299.754 309.01 299.22C310.39 298.38 312.85 292.86 312.85 292.86L318.68 279.86L308.88 277.21L296.42 281.09C296.42 281.32 293.5 293.09 293.5 293.09C294.21 293.258 294.957 293.163 295.601 292.82C296.245 292.478 296.743 291.913 297 291.23C297.633 289.805 298.368 288.428 299.2 287.11L300.13 292.42L296.58 293.63C296.465 294.188 296.556 294.768 296.835 295.264C297.114 295.761 297.564 296.139 298.1 296.33L300.44 296.29Z" fill="#FFBE9D"/>
<path d="M304.84 205.06L321.17 235.12L307.88 274.57L322.65 282.9L341.44 239C342.127 237.39 342.468 235.653 342.44 233.903C342.412 232.153 342.017 230.428 341.28 228.84L318.28 179.35L304.84 205.06Z" fill="#455A64"/>
<path d="M307.88 274.57L306.5 277.63L320.44 285.15L321.9 282.47L307.88 274.57Z" fill="#E0E0E0"/>
<path d="M307.88 274.57C307.88 274.57 307.88 274.5 307.88 274.37C307.88 274.24 307.98 274.03 308.05 273.79L308.76 271.56C309.41 269.56 310.33 266.77 311.47 263.27C313.83 256.19 317.12 246.33 320.88 235.04V235.25C318.98 232.02 317.02 228.61 315.05 225.09C311.45 218.66 308.15 212.46 305.32 206.73C303.92 203.86 302.62 201.12 301.52 198.49C300.439 196.043 299.972 193.369 300.16 190.7C300.248 188.506 300.74 186.346 301.61 184.33C302.298 182.818 303.28 181.458 304.5 180.33C305.266 179.617 306.145 179.036 307.1 178.61C307.421 178.457 307.756 178.333 308.1 178.24C306.814 178.769 305.635 179.528 304.62 180.48C303.441 181.615 302.503 182.975 301.86 184.48C301.032 186.471 300.571 188.595 300.5 190.75C300.347 193.358 300.824 195.965 301.89 198.35C303.01 200.96 304.32 203.69 305.73 206.55C308.57 212.26 311.89 218.44 315.49 224.86C317.49 228.38 319.4 231.79 321.29 235.02L321.35 235.12V235.23C317.51 246.5 314.17 256.34 311.76 263.4L309 271.62C308.66 272.55 308.4 273.28 308.21 273.82L307.99 274.39C307.958 274.453 307.922 274.513 307.88 274.57Z" fill="#263238"/>
<path d="M332.21 234.84C331.661 234.688 331.123 234.497 330.6 234.27C328.011 233.411 325.2 233.499 322.67 234.52C322.164 234.781 321.639 235.005 321.1 235.19C321.49 234.752 321.976 234.409 322.52 234.19C323.792 233.567 325.184 233.226 326.6 233.19C328.016 233.141 329.425 233.4 330.73 233.95C331.285 234.13 331.791 234.434 332.21 234.84Z" fill="#263238"/>
<path d="M301.57 197.91L313.3 237.17L314.96 224.26L301.57 197.91Z" fill="#263238"/>
<path d="M321 275.05C321 275.12 320.85 275.25 320.84 275.54C320.83 275.83 321.01 276.17 321.41 276.05C321.486 276.031 321.555 275.992 321.61 275.937C321.666 275.882 321.706 275.814 321.726 275.738C321.746 275.663 321.746 275.584 321.726 275.508C321.706 275.433 321.666 275.365 321.61 275.31C321.44 275.08 321.22 275.06 321.21 274.99C321.2 274.92 321.48 274.77 321.87 275.05C321.981 275.136 322.069 275.247 322.128 275.374C322.188 275.501 322.215 275.64 322.21 275.78C322.191 275.96 322.118 276.131 322 276.268C321.882 276.406 321.725 276.504 321.55 276.55C321.373 276.615 321.18 276.621 321 276.567C320.82 276.513 320.662 276.401 320.55 276.25C320.473 276.135 320.424 276.004 320.407 275.867C320.389 275.73 320.404 275.59 320.45 275.46C320.6 275 321 275 321 275.05Z" fill="#263238"/>
<path d="M322.13 272.22C322.13 272.29 321.98 272.42 321.97 272.72C321.957 272.796 321.963 272.874 321.988 272.946C322.013 273.019 322.056 273.084 322.113 273.135C322.171 273.186 322.24 273.222 322.315 273.238C322.39 273.255 322.468 273.252 322.542 273.23C322.615 273.208 322.682 273.168 322.736 273.113C322.789 273.058 322.828 272.99 322.848 272.916C322.868 272.841 322.868 272.763 322.849 272.689C322.83 272.614 322.793 272.546 322.74 272.49C322.57 272.25 322.34 272.24 322.33 272.16C322.32 272.08 322.61 271.94 323 272.22C323.109 272.307 323.197 272.418 323.256 272.545C323.315 272.672 323.344 272.81 323.34 272.95C323.336 273.078 323.305 273.204 323.247 273.319C323.19 273.434 323.109 273.535 323.009 273.616C322.909 273.696 322.793 273.754 322.669 273.786C322.544 273.817 322.415 273.821 322.289 273.798C322.162 273.775 322.043 273.724 321.938 273.651C321.833 273.577 321.745 273.481 321.681 273.37C321.616 273.259 321.577 273.136 321.564 273.008C321.552 272.88 321.568 272.751 321.61 272.63C321.78 272.18 322.13 272.15 322.13 272.22Z" fill="#263238"/>
<path d="M338.18 222.21C336.43 223.13 335.82 225.71 336.02 227.68C336.22 229.65 336.95 231.56 336.9 233.53C336.769 234.939 336.518 236.334 336.15 237.7C335.773 239.071 335.815 240.523 336.27 241.87C336.513 242.536 336.969 243.102 337.568 243.48C338.167 243.858 338.875 244.027 339.58 243.96L340.97 241.16C342.053 238.968 342.599 236.55 342.565 234.106C342.53 231.661 341.915 229.26 340.77 227.1L338.18 222.21Z" fill="#263238"/>
<path d="M423.8 433.3C424.7 430.19 426.63 427.17 429.6 425.89C432.57 424.61 436.29 425.31 439.46 426.47C442.63 427.63 445.75 429.16 449.12 429.37C452.49 429.58 456.28 427.98 457.29 424.76C458.24 421.76 456.42 418.5 454.13 416.3C451.712 413.987 448.752 412.319 445.521 411.446C442.291 410.574 438.893 410.526 435.639 411.308C432.386 412.089 429.38 413.674 426.897 415.917C424.415 418.161 422.535 420.992 421.43 424.15" fill="#FF725E"/>
<g opacity="0.5">
<path opacity="0.5" d="M423.8 433.3C424.7 430.19 426.63 427.17 429.6 425.89C432.57 424.61 436.29 425.31 439.46 426.47C442.63 427.63 445.75 429.16 449.12 429.37C452.49 429.58 456.28 427.98 457.29 424.76C458.24 421.76 456.42 418.5 454.13 416.3C451.712 413.987 448.752 412.319 445.521 411.446C442.291 410.574 438.893 410.526 435.639 411.308C432.386 412.089 429.38 413.674 426.897 415.917C424.415 418.161 422.535 420.992 421.43 424.15" fill="black"/>
</g>
<path d="M397.12 446.83C392.18 442.14 392.43 433.97 394.89 427.61C397.35 421.25 402.73 416.38 408.74 413.17C414.608 410.083 421.1 408.368 427.728 408.153C434.355 407.939 440.944 409.23 447 411.93C444.036 412.056 441.148 412.907 438.588 414.408C436.029 415.909 433.877 418.014 432.32 420.54C429.62 425.04 429.01 430.54 426.78 435.24C424.258 440.595 419.78 444.78 414.267 446.936C408.755 449.092 402.626 449.054 397.14 446.83" fill="#FF725E"/>
<path d="M394.74 418.63C389.27 412.17 388.55 401.81 389.35 393.38C390.15 384.95 392.11 376.48 390.78 368.12C389.99 363.17 388.07 358.45 387.42 353.47C386.77 348.49 387.69 342.88 391.55 339.67C395.97 335.98 402.95 336.85 407.55 340.32C412.15 343.79 414.83 349.22 416.78 354.64C421.06 366.56 422.63 379.77 419.11 391.93C415.59 404.09 407.34 414.93 395.22 418.63" fill="#FF725E"/>
<path d="M392.12 471.61C392.099 471.364 392.099 471.116 392.12 470.87C392.12 470.38 392.12 469.66 392.12 468.73C392.19 466.88 392.37 464.2 392.78 460.91C393.269 457.058 393.971 453.235 394.88 449.46C396.018 444.825 397.778 440.364 400.11 436.2C402.454 432.042 405.324 428.203 408.65 424.78C411.36 421.989 414.361 419.495 417.6 417.34C418.97 416.39 420.29 415.68 421.43 415.01C422.57 414.34 423.61 413.9 424.43 413.49L426.43 412.67C426.65 412.56 426.882 412.473 427.12 412.41C426.909 412.54 426.688 412.653 426.46 412.75L424.53 413.65C423.71 414.08 422.71 414.65 421.53 415.23C420.35 415.81 419.11 416.65 417.76 417.6C410.635 422.468 404.723 428.906 400.48 436.42C395.48 445.22 394.08 454.47 393.08 460.95C392.63 464.23 392.4 466.9 392.27 468.74L392.15 470.87C392.157 471.117 392.147 471.364 392.12 471.61Z" fill="#263238"/>
<path d="M344.94 393.16C334.82 399.27 334.85 404.82 336.54 410.07C338.23 415.32 344.44 418.96 349.54 417C352.45 415.89 354.54 413.36 356.36 410.81C358.18 408.26 359.85 405.55 362.36 403.72C364.87 401.89 368.54 401.2 371.08 403.01" fill="#FF725E"/>
<g opacity="0.5">
<path opacity="0.5" d="M344.94 393.16C334.82 399.27 334.85 404.82 336.54 410.07C338.23 415.32 344.44 418.96 349.54 417C352.45 415.89 354.54 413.36 356.36 410.81C358.18 408.26 359.85 405.55 362.36 403.72C364.87 401.89 368.54 401.2 371.08 403.01" fill="black"/>
</g>
<path d="M337.36 399.85C340.01 396.2 346.54 395.14 350.67 396.96C354.8 398.78 357.82 402.41 360.53 406.02C363.24 409.63 365.87 413.44 369.62 415.96C373.37 418.48 378.62 419.38 382.34 416.85C383.534 415.962 384.533 414.84 385.278 413.552C386.022 412.264 386.496 410.837 386.67 409.36C386.996 406.408 386.792 403.421 386.07 400.54C385.18 396.3 383.72 391.86 380.32 389.17C376.54 386.17 371.32 386.02 366.45 386.17C360.91 386.35 355.28 386.76 350.08 388.68C344.88 390.6 339.57 394.76 337.36 399.84" fill="#FF725E"/>
<path d="M383.71 463.51C383.698 463.434 383.698 463.356 383.71 463.28V462.63C383.71 462.02 383.71 461.18 383.62 460.12C383.55 457.9 383.46 454.75 383.35 450.88C383.24 447.01 383.07 442.34 382.79 437.19C382.51 432.04 382.12 426.38 381.34 420.49C380.991 417.618 380.409 414.778 379.6 412C378.057 407.111 375.689 402.522 372.6 398.43C371.298 396.757 369.867 395.189 368.32 393.74C366.064 391.657 363.514 389.918 360.75 388.58C360.26 388.35 359.82 388.13 359.44 387.97L358.44 387.59L357.83 387.34L357.63 387.25L357.85 387.3L358.47 387.5L359.47 387.85C359.86 387.99 360.3 388.2 360.8 388.42C363.619 389.712 366.222 391.429 368.52 393.51C370.098 394.95 371.553 396.518 372.87 398.2C374.38 400.14 375.718 402.208 376.87 404.38C378.152 406.774 379.21 409.281 380.03 411.87C380.827 414.669 381.395 417.529 381.73 420.42C382.51 426.33 382.88 432 383.15 437.16C383.42 442.32 383.53 446.96 383.61 450.86C383.69 454.76 383.72 457.92 383.73 460.1C383.73 461.17 383.73 462.01 383.73 462.62C383.73 462.88 383.73 463.1 383.73 463.27C383.73 463.44 383.71 463.51 383.71 463.51Z" fill="#263238"/>
<path d="M387.35 468.08C386.866 466.662 386.495 465.207 386.24 463.73C385.539 459.699 385.384 455.592 385.78 451.52C386.398 445.491 387.689 439.551 389.63 433.81C391.71 427.29 394.53 420.33 396.94 412.81C398.125 409.173 399.097 405.47 399.85 401.72C400.516 398.222 400.993 394.69 401.28 391.14C401.744 385.118 401.851 379.074 401.6 373.04C401.43 367.89 401.15 363.72 400.98 360.84C400.9 359.42 400.83 358.31 400.79 357.52C400.79 357.16 400.79 356.88 400.79 356.66C400.777 356.56 400.777 356.46 400.79 356.36C400.8 356.456 400.8 356.554 400.79 356.65C400.79 356.87 400.79 357.16 400.88 357.52C400.95 358.3 401.04 359.41 401.16 360.83C401.38 363.7 401.71 367.83 401.92 373.03C402.213 379.076 402.14 385.133 401.7 391.17C401.417 394.736 400.943 398.285 400.28 401.8C399.541 405.59 398.569 409.33 397.37 413C394.95 420.51 392.12 427.47 390.03 433.95C388.078 439.662 386.76 445.57 386.1 451.57C385.679 455.616 385.783 459.7 386.41 463.72C386.66 465.14 386.89 466.24 387.09 466.97C387.17 467.32 387.24 467.6 387.29 467.81C387.321 467.897 387.342 467.988 387.35 468.08Z" fill="#263238"/>
<path d="M412.44 472.65H364.92L363.83 463.5H412.44V472.65Z" fill="#455A64"/>
<path d="M370.02 471.61L375.96 499.05H401.78L407.34 471.61H370.02Z" fill="#455A64"/>
<path d="M412.44 472.65C412.44 472.78 401.99 472.85 389.11 472.81C376.23 472.77 365.77 472.65 365.77 472.52C365.77 472.39 376.22 472.32 389.11 472.36C402 472.4 412.44 472.53 412.44 472.65Z" fill="#455A64"/>
<path d="M404.28 486.2C402.994 485.226 401.59 484.419 400.1 483.8C398.476 483.167 396.753 482.828 395.01 482.8C392.872 482.801 390.751 483.187 388.75 483.94C386.59 484.68 384.56 485.53 382.59 486C380.841 486.372 379.039 486.426 377.27 486.16C376.079 485.986 374.925 485.622 373.85 485.08C373.565 484.921 373.292 484.744 373.03 484.55C372.85 484.42 372.76 484.34 372.77 484.33C372.78 484.32 373.17 484.56 373.93 484.92C375.01 485.389 376.151 485.699 377.32 485.84C379.048 486.062 380.802 485.978 382.5 485.59C384.4 485.12 386.43 484.25 388.61 483.51C390.659 482.741 392.832 482.358 395.02 482.38C396.809 482.438 398.571 482.824 400.22 483.52C401.331 483.979 402.374 484.588 403.32 485.33C403.575 485.526 403.818 485.737 404.05 485.96C404.22 486.1 404.29 486.18 404.28 486.2Z" fill="#263238"/>
<path d="M403.92 488C402.682 487.059 401.34 486.264 399.92 485.63C398.362 484.997 396.701 484.658 395.02 484.63C392.952 484.639 390.901 485.007 388.96 485.72C386.87 486.42 384.91 487.23 383.03 487.72C381.368 488.2 379.637 488.392 377.91 488.29C376.744 488.221 375.604 487.914 374.56 487.39C374.28 487.245 374.013 487.078 373.76 486.89C373.59 486.76 373.5 486.68 373.51 486.67C373.52 486.66 373.91 486.9 374.64 487.23C375.68 487.682 376.797 487.933 377.93 487.97C379.621 488.023 381.31 487.8 382.93 487.31C384.76 486.8 386.71 485.98 388.83 485.31C390.819 484.582 392.922 484.216 395.04 484.23C396.765 484.285 398.462 484.672 400.04 485.37C401.113 485.835 402.121 486.437 403.04 487.16C403.36 487.42 403.59 487.63 403.74 487.78C403.89 487.93 403.93 488 403.92 488Z" fill="white"/>
<path d="M404.75 484.38C403.423 483.371 401.983 482.519 400.46 481.84C398.804 481.13 397.038 480.707 395.24 480.59C393.033 480.547 390.839 480.934 388.78 481.73C386.699 482.547 384.572 483.241 382.41 483.81C380.59 484.121 378.73 484.121 376.91 483.81C375.684 483.617 374.493 483.239 373.38 482.69C373.079 482.537 372.792 482.36 372.52 482.16C372.34 482.02 372.25 481.94 372.26 481.93C372.27 481.92 372.67 482.18 373.46 482.53C374.576 483.02 375.753 483.357 376.96 483.53C378.743 483.794 380.558 483.76 382.33 483.43C384.469 482.842 386.575 482.141 388.64 481.33C390.752 480.512 393.007 480.127 395.27 480.2C398.359 480.451 401.308 481.594 403.76 483.49C404.025 483.696 404.279 483.916 404.52 484.15C404.68 484.28 404.77 484.37 404.75 484.38Z" fill="white"/>
<path d="M412.86 472.69C412.86 472.82 402.17 472.92 388.99 472.92C375.81 472.92 365.11 472.82 365.11 472.69C365.11 472.56 375.8 472.47 388.99 472.47C402.18 472.47 412.86 472.57 412.86 472.69Z" fill="#263238"/>
<path d="M49.71 462.25C51.42 464.69 54.71 463.88 56.29 462.39C57.87 460.9 58.48 458.75 59.07 456.69C60.42 451.98 61.79 447.04 60.78 442.25C60.5387 440.799 59.902 439.443 58.94 438.33C58.4558 437.785 57.8377 437.375 57.1466 437.142C56.4556 436.908 55.7157 436.86 55 437C53.32 437.44 52.28 439.08 51.53 440.64C49.3149 445.25 48.1535 450.295 48.13 455.41C47.9692 457.797 48.5302 460.176 49.74 462.24" fill="#FF725E"/>
<g opacity="0.2">
<path opacity="0.2" d="M49.71 462.25C51.42 464.69 54.71 463.88 56.29 462.39C57.87 460.9 58.48 458.75 59.07 456.69C60.42 451.98 61.79 447.04 60.78 442.25C60.5387 440.799 59.902 439.443 58.94 438.33C58.4558 437.785 57.8377 437.375 57.1466 437.142C56.4556 436.908 55.7157 436.86 55 437C53.32 437.44 52.28 439.08 51.53 440.64C49.3149 445.25 48.1535 450.295 48.13 455.41C47.9692 457.797 48.5302 460.176 49.74 462.24" fill="black"/>
</g>
<path d="M56.12 474.61C58.9853 473.265 62.2069 472.876 65.31 473.5C67.0037 473.643 68.6013 474.347 69.85 475.5C70.98 476.76 71.2 478.96 69.85 480.04C69.01 480.606 67.9982 480.861 66.99 480.76C64.56 480.76 61.87 480.31 59.93 481.76C58.82 482.59 58.08 483.98 56.76 484.39C56.0969 484.542 55.4024 484.475 54.7805 484.199C54.1586 483.923 53.6428 483.453 53.31 482.86C52.6856 481.64 52.5498 480.227 52.93 478.91C53.0925 477.995 53.4652 477.131 54.0188 476.384C54.5724 475.638 55.2917 475.031 56.12 474.61Z" fill="#FF725E"/>
<path d="M45.0001 465.75C45.8793 464.604 46.4647 463.261 46.7052 461.836C46.9458 460.412 46.8341 458.951 46.3801 457.58C45.4438 454.845 43.7686 452.422 41.5401 450.58C39.0113 448.325 36.0661 446.585 32.8701 445.46C31.6335 444.959 30.3026 444.734 28.9701 444.8C28.3033 444.842 27.6568 445.046 27.0869 445.394C26.517 445.743 26.0409 446.225 25.7001 446.8C24.7901 448.54 25.7001 450.65 26.6101 452.37C28.2836 455.392 30.1929 458.278 32.3201 461C34.0301 463.2 35.99 465.37 38.59 466.37C41.1901 467.37 43.8901 467.25 45.2701 465.44" fill="#FF725E"/>
<path d="M49.6 499.08C49.6853 498.716 49.7356 498.344 49.75 497.97C49.83 497.16 49.93 496.14 50.05 494.97C50.1971 493.479 50.4241 491.997 50.73 490.53C51.1236 488.743 51.662 486.99 52.34 485.29C52.9951 483.581 53.8908 481.975 55 480.52C55.9032 479.341 57.0579 478.377 58.38 477.7C59.2769 477.256 60.2391 476.959 61.23 476.82C61.6041 476.8 61.9755 476.746 62.34 476.66C61.9648 476.613 61.5852 476.613 61.21 476.66C60.172 476.735 59.1559 476.996 58.21 477.43C56.8171 478.089 55.5953 479.061 54.64 480.27C53.482 481.737 52.5484 483.368 51.87 485.11C51.1808 486.833 50.6453 488.613 50.27 490.43C49.9809 491.916 49.7838 493.419 49.68 494.93C49.58 496.21 49.54 497.26 49.53 497.93C49.5111 498.315 49.5346 498.7 49.6 499.08Z" fill="#263238"/>
<path d="M49.81 496.75C49.8229 496.577 49.8229 496.403 49.81 496.23C49.81 495.84 49.81 495.36 49.81 494.76C49.81 493.48 49.81 491.63 49.88 489.35C49.99 484.79 50.38 478.48 51.14 471.56C51.9 464.64 52.92 458.4 53.85 453.93C54.06 452.8 54.28 451.8 54.49 450.93C54.7 450.06 54.86 449.28 55.02 448.67L55.36 447.24C55.4167 447.076 55.4471 446.904 55.45 446.73C55.3776 446.884 55.3206 447.045 55.28 447.21C55.16 447.58 55.02 448.05 54.85 448.62C54.68 449.19 54.46 449.99 54.24 450.87C54.02 451.75 53.77 452.76 53.53 453.87C52.2686 459.698 51.3205 465.59 50.69 471.52C49.93 478.46 49.59 484.78 49.55 489.36C49.55 491.64 49.55 493.5 49.63 494.77C49.67 495.37 49.7 495.86 49.72 496.24C49.7278 496.413 49.7581 496.585 49.81 496.75Z" fill="#263238"/>
<path d="M49.84 484.56C49.8749 484.047 49.8749 483.533 49.84 483.02C49.78 482.02 49.64 480.6 49.37 478.85C49.0255 476.803 48.5681 474.777 48 472.78C47.329 470.328 46.4801 467.928 45.46 465.6C43.6987 461.312 41.1708 457.381 38 454C37.4535 453.418 36.8688 452.874 36.25 452.37C35.98 452.14 35.74 451.91 35.5 451.73L34.82 451.27C34.4109 450.957 33.976 450.679 33.52 450.44C35.0153 451.609 36.4348 452.871 37.77 454.22C40.8235 457.635 43.269 461.548 45 465.79C46.0079 468.101 46.863 470.477 47.56 472.9C48.22 475.13 48.66 477.18 49 478.9C49.34 480.62 49.5 482.04 49.61 483.02C49.6465 483.538 49.7234 484.053 49.84 484.56Z" fill="#263238"/>
<path d="M197.29 80.41C197.459 80.3923 197.63 80.3923 197.8 80.41H199.3C200.111 80.4252 200.92 80.5021 201.72 80.64C202.2 80.72 202.72 80.77 203.26 80.88L204.99 81.31C207.948 82.0873 210.758 83.344 213.31 85.03C219.464 89.1231 223.818 95.4173 225.477 102.62C227.136 109.823 225.974 117.387 222.23 123.76C219.025 129.187 214.148 133.429 208.33 135.85C205.266 137.117 202.003 137.835 198.69 137.97C195.282 138.181 191.864 137.757 188.61 136.72L188.31 136.62H188.54L171.69 142.46L171.01 142.7L171.22 142L175.6 128L175.67 128.34C172.674 124.988 170.502 120.981 169.328 116.641C168.155 112.3 168.011 107.746 168.91 103.34C169.657 99.6379 171.135 96.1224 173.26 93C175.072 90.3065 177.327 87.9397 179.93 86C182.008 84.3967 184.318 83.1187 186.78 82.21C187.755 81.8063 188.758 81.4721 189.78 81.21C190.633 80.9693 191.502 80.7889 192.38 80.67C193.17 80.56 193.87 80.44 194.47 80.39L196.01 80.34H197C197.106 80.3229 197.214 80.3229 197.32 80.34C197.215 80.3649 197.108 80.3816 197 80.39L196.07 80.46L194.55 80.57C193.95 80.64 193.26 80.77 192.48 80.9C191.614 81.0367 190.758 81.2339 189.92 81.49C188.897 81.7504 187.894 82.0846 186.92 82.49C185.796 82.9458 184.697 83.4633 183.63 84.04C182.439 84.7171 181.296 85.4755 180.21 86.31C177.677 88.2393 175.481 90.5742 173.71 93.22C171.643 96.3094 170.215 99.7808 169.51 103.43C168.659 107.733 168.821 112.176 169.984 116.406C171.147 120.636 173.278 124.537 176.21 127.8L176.35 127.95L176.29 128.14C174.897 132.64 173.447 137.307 171.94 142.14L171.47 141.69L188.3 136H188.42H188.54L188.83 136.09C192 137.097 195.329 137.511 198.65 137.31C201.879 137.179 205.06 136.485 208.05 135.26C213.731 132.905 218.498 128.776 221.64 123.49C225.301 117.251 226.452 109.854 224.86 102.797C223.269 95.741 219.054 89.5538 213.07 85.49C210.567 83.8067 207.813 82.5309 204.91 81.71L203.21 81.25C202.67 81.13 202.16 81.07 201.69 80.98C200.899 80.8193 200.096 80.719 199.29 80.68L197.8 80.56C197.626 80.5237 197.456 80.4735 197.29 80.41Z" fill="#FF725E"/>
<path d="M180.35 111.15L184.78 106.71L193.33 114.31L210.12 98.16L214.23 102.6L192.7 122.86L180.35 111.15Z" fill="#FF725E"/>
</g>
<defs>
<filter id="filter0_d" x="71.8558" y="0.855813" width="491.577" height="568.577" filterUnits="userSpaceOnUse" color-interpolation-filters="sRGB">
<feFlood flood-opacity="0" result="BackgroundImageFix"/>
<feColorMatrix in="SourceAlpha" type="matrix" values="0 0 0 0 0 0 0 0 0 0 0 0 0 0 0 0 0 0 127 0"/>
<feOffset dx="5.14419" dy="5.14419"/>
<feGaussianBlur stdDeviation="5.14419"/>
<feColorMatrix type="matrix" values="0 0 0 0 0.563559 0 0 0 0 0.572596 0 0 0 0 0.595833 0 0 0 0.2 0"/>
<feBlend mode="normal" in2="BackgroundImageFix" result="effect1_dropShadow"/>
<feBlend mode="normal" in="SourceGraphic" in2="effect1_dropShadow" result="shape"/>
</filter>
<filter id="filter1_d" x="0.855813" y="66.8558" width="472.577" height="463.577" filterUnits="userSpaceOnUse" color-interpolation-filters="sRGB">
<feFlood flood-opacity="0" result="BackgroundImageFix"/>
<feColorMatrix in="SourceAlpha" type="matrix" values="0 0 0 0 0 0 0 0 0 0 0 0 0 0 0 0 0 0 127 0"/>
<feOffset dx="5.14419" dy="5.14419"/>
<feGaussianBlur stdDeviation="5.14419"/>
<feColorMatrix type="matrix" values="0 0 0 0 0.563559 0 0 0 0 0.572596 0 0 0 0 0.595833 0 0 0 0.2 0"/>
<feBlend mode="normal" in2="BackgroundImageFix" result="effect1_dropShadow"/>
<feBlend mode="normal" in="SourceGraphic" in2="effect1_dropShadow" result="shape"/>
</filter>
<clipPath id="clip0">
<rect width="452" height="443" fill="white" transform="translate(6 72)"/>
</clipPath>
</defs>
</svg>
