<svg width="518" height="522" viewBox="0 0 518 522" fill="none" xmlns="http://www.w3.org/2000/svg">
<g filter="url(#filter0_d)">
<path fill-rule="evenodd" clip-rule="evenodd" d="M286.568 6.0252C340.651 6.71199 397.076 21.3392 435.64 59.2877C471.962 95.0313 472.922 150.643 484.076 200.383C494.039 244.816 510.248 289.451 497.021 333.023C483.656 377.05 447.638 408.288 412.099 437.488C374.347 468.507 335.388 504.243 286.568 505.939C237.12 507.657 196.357 472.9 154.54 446.436C109.48 417.918 50.5739 397.42 34.6485 346.505C18.7428 295.652 58.9551 246.614 76.2805 196.228C93.215 146.979 96.1091 90.3916 134.722 55.4664C175.2 18.8551 232.01 5.33237 286.568 6.0252Z" fill="#5CD9D8"/>
</g>
<g clip-path="url(#clip0)" filter="url(#filter1_d)">
<path d="M85.45 399.89H44.37V400.14H85.45V399.89Z" fill="#E6E6E6"/>
<path d="M37.0401 400.01H24.3501V400.26H37.0401V400.01Z" fill="#E6E6E6"/>
<path d="M352.67 403.38H345.7V403.63H352.67V403.38Z" fill="#E6E6E6"/>
<path d="M134.18 397.38H127.21V397.63H134.18V397.38Z" fill="#E6E6E6"/>
<path d="M258.03 395.63H210.57V395.88H258.03V395.63Z" fill="#E6E6E6"/>
<path d="M305.83 403.54H272.85V403.79H305.83V403.54Z" fill="#E6E6E6"/>
<path d="M267.3 403.54H238.72V403.79H267.3V403.54Z" fill="#E6E6E6"/>
<path d="M379.53 397.5H325.81V397.75H379.53V397.5Z" fill="#E6E6E6"/>
<path d="M271.06 238.43H25.14V247.33H271.06V238.43Z" fill="#E0E0E0"/>
<path d="M291.7 238.43H51.91V247.33H291.7V238.43Z" fill="#F5F5F5"/>
<path d="M89.9401 231.69L120.37 86.37H159.2L128.77 231.69H89.9401Z" fill="white"/>
<path d="M22.8101 226.57V140.5H37.8101C37.8101 140.5 46.4101 157.88 54.9901 177.86C57.254 183.178 58.1658 188.973 57.6442 194.729C57.1226 200.485 55.1837 206.022 52.0007 210.846C48.8178 215.67 44.4897 219.631 39.4031 222.374C34.3164 225.118 28.6295 226.56 22.8501 226.57H22.8101Z" fill="#E0E0E0"/>
<path d="M35.77 135.94H21.8C20.9716 135.94 20.3 136.612 20.3 137.44V139C20.3 139.828 20.9716 140.5 21.8 140.5H35.77C36.5985 140.5 37.27 139.828 37.27 139V137.44C37.27 136.612 36.5985 135.94 35.77 135.94Z" fill="#FAFAFA"/>
<path d="M280.57 226.57V140.5H265.57C265.57 140.5 256.97 157.88 248.39 177.86C246.126 183.178 245.214 188.973 245.736 194.729C246.257 200.485 248.196 206.022 251.379 210.846C254.562 215.67 258.89 219.631 263.977 222.374C269.064 225.118 274.751 226.56 280.53 226.57H280.57Z" fill="#E0E0E0"/>
<path d="M264.48 140.5H278.45C279.278 140.5 279.95 139.828 279.95 139V137.44C279.95 136.612 279.278 135.94 278.45 135.94H264.48C263.652 135.94 262.98 136.612 262.98 137.44V139C262.98 139.828 263.652 140.5 264.48 140.5Z" fill="#FAFAFA"/>
<path d="M392.67 209.76V110.24H340.9V209.76H392.67Z" fill="white"/>
<path d="M353.05 183.63C353.05 176.81 358.58 124.03 365.4 124.03H368.18C374.99 124.03 380.52 176.81 380.52 183.63C380.523 185.253 380.206 186.86 379.587 188.36C378.968 189.86 378.059 191.223 376.913 192.372C375.767 193.521 374.406 194.433 372.908 195.055C371.409 195.678 369.803 195.999 368.18 196H365.4C363.777 196 362.169 195.68 360.669 195.058C359.17 194.436 357.807 193.525 356.66 192.376C355.513 191.227 354.604 189.863 353.984 188.362C353.365 186.862 353.047 185.254 353.05 183.63Z" fill="#F5F5F5"/>
<path d="M179.63 388.4H191.09V369.2H167.62L179.63 388.4Z" fill="#FAFAFA"/>
<path d="M191.09 272.46H58.05V381.79H191.09V272.46Z" fill="#FAFAFA"/>
<path d="M69.51 388.4H58.05V369.2H81.52L69.51 388.4Z" fill="#FAFAFA"/>
<path d="M182.2 281.86H66.9401V322.1H182.2V281.86Z" fill="#F0F0F0"/>
<path d="M145.62 281.86H66.9401V322.1H145.62V281.86Z" fill="#E0E0E0"/>
<path d="M224 197.15H193.46C193.46 197.15 198.76 206.36 198.76 211.77C198.76 217.18 175.57 238.43 208.76 238.43C241.95 238.43 218.76 217.19 218.76 211.77C218.76 206.35 224 197.15 224 197.15Z" fill="#E0E0E0"/>
<path d="M145.62 222.54C145.62 231.28 157.16 238.43 171.27 238.43H184C198.11 238.43 209.65 231.28 209.65 222.54H145.62Z" fill="#EBEBEB"/>
<path d="M145.62 331.83H66.9401V372.07H145.62V331.83Z" fill="#E0E0E0"/>
<path d="M148.31 371.34H168.25V338.13H148.31V371.34Z" fill="white"/>
<path d="M165.15 371.86H166.51V338.65H165.15V371.86Z" fill="#E0E0E0"/>
<path d="M166.62 372.12H170.1C170.365 372.12 170.58 371.905 170.58 371.64V338.88C170.58 338.615 170.365 338.4 170.1 338.4H166.62C166.355 338.4 166.14 338.615 166.14 338.88V371.64C166.14 371.905 166.355 372.12 166.62 372.12Z" fill="#E6E6E6"/>
<path d="M166.14 353.98H170.58V346.1H166.14V353.98Z" fill="white"/>
<path d="M166.14 361.26H170.58V356.4H166.14V361.26Z" fill="white"/>
<path d="M147.3 372.12H165.27C165.535 372.12 165.75 371.905 165.75 371.64V338.88C165.75 338.615 165.535 338.4 165.27 338.4H147.3C147.035 338.4 146.82 338.615 146.82 338.88V371.64C146.82 371.905 147.035 372.12 147.3 372.12Z" fill="#E6E6E6"/>
<path d="M138.6 371.27H160.6V334.63H138.6V371.27Z" fill="white"/>
<path d="M157.18 371.83H158.67V335.19H157.18V371.83Z" fill="#E6E6E6"/>
<path d="M158.79 372.11H162.63C162.923 372.11 163.16 371.873 163.16 371.58V335.44C163.16 335.147 162.923 334.91 162.63 334.91H158.79C158.497 334.91 158.26 335.147 158.26 335.44V371.58C158.26 371.873 158.497 372.11 158.79 372.11Z" fill="#F0F0F0"/>
<path d="M158.26 348.03H163.16V346.76H158.26V348.03Z" fill="white"/>
<path d="M158.26 351.71H163.16V350.44H158.26V351.71Z" fill="white"/>
<path d="M158.26 355.38H163.16V354.11H158.26V355.38Z" fill="white"/>
<path d="M137.48 372.11H157.3C157.593 372.11 157.83 371.873 157.83 371.58V335.44C157.83 335.147 157.593 334.91 157.3 334.91H137.48C137.187 334.91 136.95 335.147 136.95 335.44V371.58C136.95 371.873 137.187 372.11 137.48 372.11Z" fill="#F0F0F0"/>
<path d="M110.95 364.29C115.539 364.29 119.26 360.57 119.26 355.98C119.26 351.391 115.539 347.67 110.95 347.67C106.361 347.67 102.64 351.391 102.64 355.98C102.64 360.57 106.361 364.29 110.95 364.29Z" fill="#FAFAFA"/>
<path d="M98.5901 366.45C102.18 366.45 105.09 363.54 105.09 359.95C105.09 356.36 102.18 353.45 98.5901 353.45C95.0002 353.45 92.0901 356.36 92.0901 359.95C92.0901 363.54 95.0002 366.45 98.5901 366.45Z" fill="#FAFAFA"/>
<path d="M124.38 365.81C128.97 365.81 132.69 362.089 132.69 357.5C132.69 352.91 128.97 349.19 124.38 349.19C119.791 349.19 116.07 352.91 116.07 357.5C116.07 362.089 119.791 365.81 124.38 365.81Z" fill="#FAFAFA"/>
<path d="M82 361.12C82 361.12 82.78 372.12 112.44 372.12C142.1 372.12 142.88 361.12 142.88 361.12H82Z" fill="#F0F0F0"/>
<path d="M347.2 295.94C340.47 285.6 325.48 277.64 309.54 276.74C303.27 276.39 327.54 289.37 336.84 302.67C344.09 313.01 351.75 330.13 354.02 339.52C353.81 320 353.94 306.28 347.2 295.94Z" fill="#E0E0E0"/>
<path d="M350.21 253.48C344.08 241.41 329.76 229.77 314.21 225.04C308.1 223.18 333.45 244.41 340.69 260.61C346.32 273.19 353.14 289.12 354.94 299.15C355.59 279.41 356.33 265.55 350.21 253.48Z" fill="#E0E0E0"/>
<path d="M335.15 357.32H370.95L371.98 348.03H334.12L335.15 357.32Z" fill="#F0F0F0"/>
<path d="M204 433.56C311.082 433.56 397.89 428.492 397.89 422.24C397.89 415.988 311.082 410.92 204 410.92C96.9175 410.92 10.11 415.988 10.11 422.24C10.11 428.492 96.9175 433.56 204 433.56Z" fill="#F5F5F5"/>
<path d="M383.39 102.79H24.62C22.0728 102.798 19.632 103.813 17.8299 105.613C16.0278 107.413 15.0105 109.853 15 112.4V351.86C15.0079 354.408 16.0243 356.849 17.827 358.65C19.6297 360.451 22.072 361.465 24.62 361.47H383.39C385.936 361.462 388.376 360.447 390.177 358.647C391.977 356.846 392.992 354.406 393 351.86V112.4C392.989 109.855 391.974 107.416 390.174 105.616C388.374 103.816 385.936 102.801 383.39 102.79Z" fill="#FF725E"/>
<path d="M15 127.65V351.86C15.0079 354.408 16.0243 356.849 17.827 358.65C19.6297 360.451 22.072 361.465 24.62 361.47H383.39C385.936 361.462 388.376 360.447 390.177 358.647C391.977 356.846 392.992 354.406 393 351.86V127.65H15Z" fill="#FF725E"/>
<path opacity="0.6" d="M15 127.65V351.86C15.0079 354.408 16.0243 356.849 17.827 358.65C19.6297 360.451 22.072 361.465 24.62 361.47H383.39C385.936 361.462 388.376 360.447 390.177 358.647C391.977 356.846 392.992 354.406 393 351.86V127.65H15Z" fill="white"/>
<path d="M16.78 127.65V343.23C16.7787 343.947 16.9187 344.656 17.192 345.319C17.4653 345.981 17.8666 346.583 18.3728 347.09C18.879 347.597 19.4802 348 20.1421 348.274C20.804 348.549 21.5135 348.69 22.23 348.69H385.77C386.487 348.69 387.196 348.549 387.858 348.274C388.52 348 389.121 347.597 389.627 347.09C390.133 346.583 390.535 345.981 390.808 345.319C391.081 344.656 391.221 343.947 391.22 343.23V127.65H16.78Z" fill="white"/>
<path d="M137.37 151.97H32.66V303.87H137.37V151.97Z" fill="#FF725E"/>
<path d="M135.66 151.97H30.95V303.87H135.66V151.97Z" fill="#FF725E"/>
<path opacity="0.2" d="M135.66 151.97H30.95V303.87H135.66V151.97Z" fill="white"/>
<path opacity="0.61" d="M86.44 118.33H35.66C34.8644 118.33 34.1013 118.014 33.5387 117.451C32.9761 116.889 32.66 116.126 32.66 115.33C32.66 114.534 32.9761 113.771 33.5387 113.209C34.1013 112.646 34.8644 112.33 35.66 112.33H86.44C87.2357 112.33 87.9987 112.646 88.5614 113.209C89.124 113.771 89.44 114.534 89.44 115.33C89.44 116.126 89.124 116.889 88.5614 117.451C87.9987 118.014 87.2357 118.33 86.44 118.33Z" fill="#F5F5F5"/>
<path opacity="0.61" d="M99.78 118.33H103.17C103.966 118.33 104.729 118.014 105.291 117.451C105.854 116.889 106.17 116.126 106.17 115.33C106.17 114.534 105.854 113.771 105.291 113.209C104.729 112.646 103.966 112.33 103.17 112.33H99.78C98.9844 112.33 98.2213 112.646 97.6587 113.209C97.0961 113.771 96.78 114.534 96.78 115.33C96.78 116.126 97.0961 116.889 97.6587 117.451C98.2213 118.014 98.9844 118.33 99.78 118.33Z" fill="#F5F5F5"/>
<path d="M114.66 291.91C110.51 285.91 112.71 279.91 114.83 274.17C116.95 268.43 118.98 262.93 115.13 257.34C111.28 251.75 105.46 251.69 99.3 251.63C93.14 251.57 86.8 251.5 82.66 245.48C78.52 239.46 80.66 233.48 82.83 227.74C85 222 86.98 216.51 83.12 210.92C79.26 205.33 73.46 205.27 67.3 205.2C61.14 205.13 54.81 205.07 50.66 199.06C46.51 193.05 48.66 187.06 50.84 181.32C53.02 175.58 54.98 170.09 51.13 164.5L51.95 163.93C56.1 169.93 53.95 175.93 51.77 181.67C49.59 187.41 47.63 192.9 51.48 198.49C55.33 204.08 61.15 204.14 67.31 204.2C73.47 204.26 79.8 204.33 83.95 210.35C88.1 216.37 85.95 222.35 83.77 228.09C81.59 233.83 79.63 239.32 83.48 244.91C87.33 250.5 93.15 250.56 99.31 250.63C105.47 250.7 111.8 250.76 115.95 256.77C120.1 262.78 117.95 268.77 115.77 274.51C113.59 280.25 111.63 285.75 115.48 291.34L114.66 291.91Z" fill="white"/>
<path d="M377.05 151.97H272.34V303.87H377.05V151.97Z" fill="#FF725E"/>
<path d="M375.34 151.97H270.64V303.87H375.34V151.97Z" fill="#FF725E"/>
<path opacity="0.6" d="M375.34 151.97H270.64V303.87H375.34V151.97Z" fill="white"/>
<path opacity="0.65" d="M334.66 182.3C334.65 190.162 332.872 197.922 329.457 205.004C326.042 212.086 321.078 218.309 314.932 223.212C308.786 228.115 301.616 231.573 293.952 233.33C286.289 235.087 278.328 235.097 270.66 233.36V152H325C331.296 160.848 334.673 171.441 334.66 182.3Z" fill="#FF725E"/>
<path d="M375.34 211V281.64C370.702 281.64 366.109 280.726 361.824 278.951C357.538 277.176 353.645 274.575 350.365 271.295C347.085 268.015 344.484 264.122 342.709 259.836C340.934 255.551 340.02 250.958 340.02 246.32C340.02 241.682 340.934 237.089 342.709 232.804C344.484 228.518 347.085 224.625 350.365 221.345C353.645 218.065 357.538 215.464 361.824 213.689C366.109 211.914 370.702 211 375.34 211Z" fill="white"/>
<path opacity="0.78" d="M345.36 303.87H276.16C277.794 295.9 282.13 288.739 288.434 283.596C294.738 278.454 302.624 275.645 310.76 275.645C318.896 275.645 326.782 278.454 333.086 283.596C339.39 288.739 343.726 295.9 345.36 303.87Z" fill="#FF725E"/>
<path d="M257.21 224.69H152.5V348.69H257.21V224.69Z" fill="#FF725E"/>
<path d="M255.5 224.69H150.79V348.69H255.5V224.69Z" fill="#FF725E"/>
<path opacity="0.5" d="M255.5 224.69H150.79V348.69H255.5V224.69Z" fill="white"/>
<path d="M203.15 238.17C209.136 238.17 214.877 240.548 219.109 244.781C223.342 249.013 225.72 254.754 225.72 260.74V348.69H180.58V260.74C180.58 254.754 182.958 249.013 187.191 244.781C191.423 240.548 197.164 238.17 203.15 238.17Z" fill="white"/>
<path d="M176.96 270.33H137.91V361.47H176.96V270.33Z" fill="#D5E1FD"/>
<path d="M64.2304 309.942L63.0497 326.7L64.0472 326.77L65.2279 310.012L64.2304 309.942Z" fill="#FF725E"/>
<path d="M62.494 334.573L61.9233 342.673L62.9209 342.743L63.4915 334.644L62.494 334.573Z" fill="#FF725E"/>
<path d="M166.23 422.24H61.52L72.25 270.33H176.96L166.23 422.24Z" fill="#FF725E"/>
<path opacity="0.5" d="M166.23 422.24H61.52L72.25 270.33H176.96L166.23 422.24Z" fill="black"/>
<path d="M164.53 422.24H59.8199L70.5499 270.33H175.25L164.53 422.24Z" fill="#FF725E"/>
<path d="M104.34 349.5C100.49 349.561 96.6714 348.807 93.1336 347.289C89.5958 345.77 86.4191 343.52 83.8119 340.687C81.2047 337.855 79.2259 334.502 78.0054 330.851C76.7849 327.2 76.3502 323.331 76.7299 319.5C78.0299 303.01 92.5099 289.6 109 289.6C112.849 289.539 116.668 290.292 120.206 291.811C123.744 293.33 126.921 295.58 129.528 298.413C132.135 301.245 134.114 304.598 135.334 308.249C136.555 311.9 136.99 315.769 136.61 319.6C135.31 336.08 120.83 349.5 104.34 349.5ZM109 290.61C92.9999 290.61 78.9999 303.61 77.7199 319.61C77.3526 323.303 77.771 327.033 78.9474 330.553C80.1239 334.073 82.0319 337.305 84.5461 340.035C87.0602 342.766 90.1237 344.933 93.5351 346.396C96.9466 347.858 100.629 348.582 104.34 348.52C120.34 348.52 134.34 335.52 135.61 319.52C135.979 315.827 135.562 312.098 134.387 308.578C133.211 305.057 131.304 301.826 128.791 299.095C126.277 296.364 123.215 294.197 119.804 292.734C116.393 291.272 112.711 290.548 109 290.61Z" fill="white"/>
<path d="M147.601 385.811C154.991 378.707 155.66 367.413 149.096 360.585C142.532 353.757 131.22 353.98 123.831 361.084C116.441 368.188 115.772 379.482 122.336 386.31C128.9 393.138 140.212 392.915 147.601 385.811Z" fill="white"/>
<path d="M255.5 127.65H150.79V208.58H255.5V127.65Z" fill="#FF725E"/>
<path opacity="0.5" d="M257.21 127.65H152.5V208.58H257.21V127.65Z" fill="black"/>
<path d="M217.83 127.65H173.33V195.83H217.83V127.65Z" fill="#FF725E"/>
<path d="M158.67 127.65C158.607 130.666 159.146 133.665 160.257 136.471C161.367 139.276 163.027 141.831 165.137 143.987C167.248 146.143 169.768 147.855 172.55 149.025C175.331 150.194 178.318 150.796 181.335 150.796C184.352 150.796 187.339 150.194 190.12 149.025C192.902 147.855 195.422 146.143 197.533 143.987C199.644 141.831 201.303 139.276 202.413 136.471C203.524 133.665 204.063 130.666 204 127.65H158.67Z" fill="#F0F0F0"/>
<path d="M212.44 127.65C212.55 132.249 214.453 136.623 217.745 139.837C221.037 143.051 225.455 144.85 230.055 144.85C234.655 144.85 239.073 143.051 242.365 139.837C245.656 136.623 247.56 132.249 247.67 127.65H212.44Z" fill="#F0F0F0"/>
<path opacity="0.5" d="M217.83 127.65H173.33V195.83H217.83V127.65Z" fill="white"/>
<path d="M198.87 192.66C198.99 193.24 198.78 193.77 198.4 193.85C198.02 193.93 197.61 193.53 197.49 192.95C197.37 192.37 197.58 191.83 197.96 191.75C198.34 191.67 198.75 192.08 198.87 192.66Z" fill="#263238"/>
<path d="M198.83 193.76C198.508 195.678 197.923 197.542 197.09 199.3C197.545 199.502 198.039 199.602 198.537 199.591C199.035 199.581 199.524 199.461 199.97 199.24L198.83 193.76Z" fill="#DE5753"/>
<path d="M197.34 189.11C197.281 189.109 197.223 189.094 197.171 189.067C197.118 189.039 197.074 188.999 197.04 188.95C196.991 188.872 196.976 188.777 196.996 188.687C197.017 188.598 197.072 188.519 197.15 188.47C197.63 188.196 198.169 188.043 198.722 188.024C199.274 188.005 199.822 188.12 200.32 188.36C200.363 188.377 200.402 188.403 200.434 188.436C200.467 188.469 200.492 188.508 200.509 188.551C200.526 188.594 200.534 188.64 200.532 188.687C200.531 188.733 200.52 188.778 200.5 188.82C200.461 188.903 200.391 188.967 200.305 188.999C200.219 189.031 200.124 189.028 200.04 188.99C199.644 188.804 199.21 188.712 198.773 188.723C198.336 188.733 197.907 188.845 197.52 189.05C197.468 189.089 197.405 189.11 197.34 189.11Z" fill="#263238"/>
<path d="M218.92 194.52C217.87 199.89 217.35 209.74 221.11 213.32C221.11 213.32 219.64 218.78 209.65 218.78C198.65 218.78 204.41 213.32 204.41 213.32C210.41 211.89 210.24 207.45 209.2 203.32L218.92 194.52Z" fill="#E4897B"/>
<path d="M218 187.4C219.05 194.61 220 198.78 217.19 203.19C212.92 209.82 203.45 208.39 200.27 201.63C197.4 195.55 196.17 184.77 202.55 180.48C203.957 179.542 205.579 178.976 207.264 178.834C208.949 178.693 210.643 178.982 212.186 179.673C213.729 180.364 215.072 181.436 216.089 182.787C217.106 184.138 217.763 185.726 218 187.4Z" fill="#E4897B"/>
<path d="M225.24 183.08C229.07 176.08 220.29 172.88 217.04 173.58C216.312 172.174 215.172 171.022 213.774 170.279C212.375 169.536 210.783 169.236 209.21 169.42C205.28 169.76 203.52 171.73 202.58 174.25C200.38 173.08 193.82 174.85 194.75 180.17C195.58 184.92 200.75 186.37 203.38 186.64C205.38 194.73 210.67 204.83 217.75 201.22C220.07 200.03 222.08 197.05 223.4 193.22C229 191.56 227.79 185.26 225.24 183.08Z" fill="#263238"/>
<path d="M208.78 191.47C208.74 193.29 208.104 195.046 206.97 196.47C205.46 198.31 203.74 197.3 203.34 195.17C202.98 193.25 203.34 189.98 205.24 188.91C207.14 187.84 208.79 189.29 208.78 191.47Z" fill="#E4897B"/>
<path d="M222.63 214.86C224.75 215.92 224.56 212.56 222.7 209.81C221.53 208.09 209.52 209.64 205.85 211.05C205.365 211.203 204.915 211.451 204.526 211.78C204.137 212.108 203.818 212.511 203.586 212.964C203.354 213.417 203.215 213.912 203.176 214.419C203.138 214.927 203.2 215.437 203.36 215.92L222.63 214.86Z" fill="#FF725E"/>
<path opacity="0.8" d="M222.63 214.86C224.75 215.92 224.56 212.56 222.7 209.81C221.53 208.09 209.52 209.64 205.85 211.05C205.365 211.203 204.915 211.451 204.526 211.78C204.137 212.108 203.818 212.511 203.586 212.964C203.354 213.417 203.215 213.912 203.176 214.419C203.138 214.927 203.2 215.437 203.36 215.92L222.63 214.86Z" fill="black"/>
<path d="M237.51 228.35C236.86 229.79 236.25 231.04 235.51 232.35C234.77 233.66 234.15 234.91 233.43 236.17C231.98 238.69 230.43 241.17 228.75 243.56C227.057 245.998 225.224 248.335 223.26 250.56C221.222 252.914 218.95 255.055 216.48 256.95C214.051 258.705 211.505 260.292 208.86 261.7C206.33 263.07 203.79 264.33 201.23 265.54C196.11 267.95 190.94 270.1 185.62 272.03L183.23 267.03L197.23 258.24C199.54 256.76 201.82 255.24 204.05 253.77C206.186 252.351 208.242 250.815 210.21 249.17C212.011 247.513 213.661 245.699 215.14 243.75C216.7 241.75 218.187 239.633 219.6 237.4C221 235.18 222.36 232.91 223.66 230.6C224.32 229.44 224.96 228.28 225.58 227.11L227.35 223.65L237.51 228.35Z" fill="#E4897B"/>
<path d="M239.75 219.41C242.75 225.82 233.16 246.06 233.16 246.06L216.78 238.46C218.562 232.716 220.789 227.119 223.44 221.72C227.72 213.23 236.71 212.86 239.75 219.41Z" fill="#FF725E"/>
<path d="M247.16 416C246.849 416.041 246.534 416.02 246.232 415.938C245.929 415.855 245.647 415.713 245.4 415.52C245.313 415.399 245.266 415.254 245.266 415.105C245.266 414.956 245.313 414.811 245.4 414.69C245.457 414.586 245.536 414.496 245.631 414.425C245.726 414.355 245.834 414.305 245.95 414.28C247.02 414.04 249.05 415.42 249.14 415.48C249.166 415.502 249.186 415.529 249.198 415.561C249.21 415.592 249.214 415.626 249.21 415.66C249.203 415.692 249.187 415.721 249.164 415.744C249.141 415.767 249.112 415.783 249.08 415.79C248.449 415.926 247.806 415.996 247.16 416ZM246.24 414.6H246.03C245.962 414.614 245.899 414.643 245.843 414.684C245.788 414.726 245.742 414.779 245.71 414.84C245.55 415.12 245.64 415.24 245.71 415.28C246.03 415.7 247.53 415.7 248.62 415.52C247.905 415.044 247.091 414.736 246.24 414.62V414.6Z" fill="#FF725E"/>
<path d="M249 415.82H248.91C248.15 415.4 246.68 413.82 246.84 412.98C246.865 412.852 246.933 412.736 247.034 412.653C247.134 412.569 247.259 412.522 247.39 412.52C247.522 412.506 247.655 412.518 247.782 412.556C247.909 412.594 248.027 412.656 248.13 412.74C248.99 413.44 249.13 415.56 249.13 415.65C249.134 415.682 249.129 415.714 249.114 415.742C249.1 415.771 249.078 415.794 249.05 415.81L249 415.82ZM247.51 412.82H247.44C247.21 412.82 247.19 412.96 247.18 413C247.09 413.48 248.03 414.7 248.78 415.27C248.75 414.453 248.479 413.663 248 413C247.94 412.944 247.869 412.901 247.792 412.873C247.714 412.846 247.632 412.834 247.55 412.84L247.51 412.82Z" fill="#FF725E"/>
<path d="M257.51 415.64H250.17L243.4 398.63H250.74L257.51 415.64Z" fill="#E4897B"/>
<path d="M249.59 414.79H257.84C257.986 414.79 258.129 414.84 258.242 414.933C258.355 415.027 258.432 415.156 258.46 415.3L259.92 421.83C259.953 421.989 259.95 422.153 259.911 422.311C259.871 422.469 259.797 422.615 259.693 422.74C259.59 422.865 259.459 422.965 259.311 423.033C259.163 423.1 259.002 423.133 258.84 423.13C255.96 423.08 254.56 422.91 250.93 422.91C248.7 422.91 244.1 423.15 241.01 423.15C237.92 423.15 237.53 420.15 238.79 419.82C244.45 418.58 246.58 416.87 248.39 415.25C248.719 414.953 249.147 414.789 249.59 414.79Z" fill="#263238"/>
<path d="M250.75 398.64H243.4L248.27 410.86L255.07 409.48L250.75 398.64Z" fill="#CE6F64"/>
<path d="M209.88 278.86C209.88 278.86 208.41 308.62 202.97 334.86C201.25 343.17 202.38 352.07 207.25 359.02C221.56 379.43 244.25 406.61 244.25 406.61L256.14 405.28C256.14 405.28 236.85 369.56 227 351.83C224.76 347.83 222.78 344.17 224.47 339.83C240.8 298.38 231.97 278.83 231.97 278.83L209.88 278.86Z" fill="#13191C"/>
<path opacity="0.5" d="M209.88 278.86C209.88 278.86 208.41 308.62 202.97 334.86C201.25 343.17 202.38 352.07 207.25 359.02C221.56 379.43 244.25 406.61 244.25 406.61L256.14 405.28C256.14 405.28 236.85 369.56 227 351.83C224.76 347.83 222.78 344.17 224.47 339.83C240.8 298.38 231.97 278.83 231.97 278.83L209.88 278.86Z" fill="black"/>
<path d="M184.93 266.23L179.55 265.39L181.49 274.57C181.49 274.57 185.61 274.06 187.36 270.96L184.93 266.23Z" fill="#E4897B"/>
<path d="M173.13 266.28L175.08 273.79L181.49 274.57L179.55 265.39L173.13 266.28Z" fill="#E4897B"/>
<path d="M199.65 225.62C197.34 230.19 194.92 234.62 192.4 239.11C189.88 243.6 187.27 247.95 184.51 252.3L183.51 253.93L182.79 254.93L182.04 255.93C181.078 257.074 180.032 258.143 178.91 259.13C176.858 260.94 174.672 262.591 172.37 264.07C167.965 266.941 163.313 269.414 158.47 271.46L155.75 266.66C159.65 263.66 163.6 260.5 167.21 257.29C168.963 255.744 170.632 254.105 172.21 252.38C172.929 251.604 173.597 250.782 174.21 249.92L174.57 249.34L174.87 248.79L175.75 247.14C180.43 238.3 185.03 229.27 189.84 220.45L199.65 225.62Z" fill="#E4897B"/>
<path opacity="0.3" d="M231 220.72L234.7 242.67C233.82 244.74 233.2 246.06 233.2 246.06L216.82 238.46C216.82 238.46 224.18 225.67 231 220.72Z" fill="black"/>
<path d="M189.94 228.37L196.01 243.37L189.94 252.2C189.34 244.268 189.34 236.302 189.94 228.37Z" fill="#1F2D43"/>
<path d="M157.49 266.4L149.8 265.46L150.1 274.36C150.1 274.36 156.15 274.89 159.41 270.92L157.49 266.4Z" fill="#E4897B"/>
<path d="M142.15 267.57L145.21 274.79L150.1 274.36L149.8 265.46L142.15 267.57Z" fill="#E4897B"/>
<path opacity="0.1" d="M207.67 304.58L219.05 291C219.48 297.09 215.8 319.87 203.18 333.87C205.19 324 206.64 313.59 207.67 304.58Z" fill="black"/>
<path d="M198.2 415.64H190.85L188.71 398.63H196.05L198.2 415.64Z" fill="#E4897B"/>
<path d="M187.64 416C186.7 416 185.79 415.87 185.49 415.45C185.412 415.339 185.37 415.206 185.37 415.07C185.37 414.934 185.412 414.801 185.49 414.69C185.549 414.588 185.628 414.498 185.722 414.428C185.817 414.357 185.925 414.307 186.04 414.28C187.27 413.95 189.83 415.41 189.94 415.47C189.97 415.489 189.995 415.515 190.011 415.547C190.027 415.579 190.033 415.615 190.03 415.65C190.024 415.685 190.008 415.717 189.982 415.742C189.957 415.768 189.925 415.784 189.89 415.79C189.148 415.929 188.395 415.999 187.64 416ZM186.48 414.58C186.367 414.565 186.253 414.565 186.14 414.58C186.07 414.594 186.003 414.622 185.944 414.664C185.886 414.705 185.837 414.758 185.8 414.82C185.68 415.04 185.73 415.14 185.8 415.2C186.13 415.66 187.99 415.69 189.36 415.5C188.468 415.016 187.489 414.71 186.48 414.6V414.58Z" fill="#FF725E"/>
<path d="M189.87 415.82H189.79C188.91 415.43 187.15 413.82 187.29 413.01C187.29 412.81 187.45 412.57 187.93 412.52C188.108 412.495 188.29 412.509 188.463 412.561C188.635 412.612 188.795 412.701 188.93 412.82C189.86 413.58 190.06 415.56 190.07 415.65C190.071 415.68 190.066 415.71 190.053 415.738C190.041 415.766 190.023 415.79 190 415.81C189.959 415.829 189.913 415.832 189.87 415.82ZM188.07 412.82H188C187.69 412.82 187.67 412.98 187.66 413.02C187.58 413.52 188.77 414.77 189.66 415.31C189.566 414.472 189.217 413.683 188.66 413.05C188.494 412.912 188.285 412.838 188.07 412.84V412.82Z" fill="#FF725E"/>
<path d="M190.65 414.79H198.65C198.796 414.79 198.939 414.84 199.052 414.933C199.165 415.027 199.242 415.156 199.27 415.3L200.72 421.83C200.756 421.987 200.757 422.15 200.721 422.307C200.685 422.464 200.613 422.611 200.512 422.736C200.411 422.862 200.282 422.962 200.137 423.03C199.991 423.099 199.831 423.133 199.67 423.13C196.77 423.08 192.59 422.91 188.95 422.91C184.7 422.91 181.03 423.15 176.04 423.15C173.04 423.15 172.19 420.15 173.45 419.82C179.2 418.56 183.89 418.43 188.86 415.37C189.388 415.009 190.01 414.807 190.65 414.79Z" fill="#263238"/>
<path d="M196.05 398.64H188.7L190.28 411.03L197.49 409.92L196.05 398.64Z" fill="#CE6F64"/>
<path d="M240.9 404.8L243.23 409.62L257.56 405.94L256.42 401.47L240.9 404.8Z" fill="#263238"/>
<path d="M192.67 278.86C192.67 278.86 186.52 299.42 176.36 325.86C173.05 334.46 171.77 342.74 174.07 350.02C181.2 372.62 187.36 406.61 187.36 406.61L199.61 405.28C199.61 405.28 200.08 370.61 195.74 352.74C193.51 343.57 194.27 340.23 196.55 337.2C227.76 295.69 219.38 278.89 219.38 278.89L192.67 278.86Z" fill="#263238"/>
<path opacity="0.5" d="M192.67 278.86C192.67 278.86 186.52 299.42 176.36 325.86C173.05 334.46 171.77 342.74 174.07 350.02C181.2 372.62 187.36 406.61 187.36 406.61L199.61 405.28C199.61 405.28 200.08 370.61 195.74 352.74C193.51 343.57 194.27 340.23 196.55 337.2C227.76 295.69 219.38 278.89 219.38 278.89L192.67 278.86Z" fill="black"/>
<path d="M185.24 404.53L185.88 409.41L200.34 406.96L200.77 402.5L185.24 404.53Z" fill="#263238"/>
<path d="M193.11 215.36C193.11 215.36 185.29 224.2 192.67 278.86H232C232.27 272.86 228.48 243.41 234.3 214.98C229.957 214.144 225.565 213.589 221.15 213.32C215.588 213 210.012 213 204.45 213.32C200.623 213.708 196.832 214.39 193.11 215.36Z" fill="#FF725E"/>
<path d="M202.67 220.21C205.09 226.81 195.37 246.83 195.37 246.83L177.77 238C180.025 231.999 182.914 226.256 186.39 220.87C191.65 213.13 200 213 202.67 220.21Z" fill="#FF725E"/>
<path d="M202.67 220.21C205.09 226.81 195.37 246.83 195.37 246.83L177.77 238C180.025 231.999 182.914 226.256 186.39 220.87C191.65 213.13 200 213 202.67 220.21Z" fill="#FF725E"/>
</g>
<defs>
<filter id="filter0_d" x="25.8558" y="0.855813" width="491.577" height="520.577" filterUnits="userSpaceOnUse" color-interpolation-filters="sRGB">
<feFlood flood-opacity="0" result="BackgroundImageFix"/>
<feColorMatrix in="SourceAlpha" type="matrix" values="0 0 0 0 0 0 0 0 0 0 0 0 0 0 0 0 0 0 127 0"/>
<feOffset dx="5.14419" dy="5.14419"/>
<feGaussianBlur stdDeviation="5.14419"/>
<feColorMatrix type="matrix" values="0 0 0 0 0.563559 0 0 0 0 0.572596 0 0 0 0 0.595833 0 0 0 0.2 0"/>
<feBlend mode="normal" in2="BackgroundImageFix" result="effect1_dropShadow"/>
<feBlend mode="normal" in="SourceGraphic" in2="effect1_dropShadow" result="shape"/>
</filter>
<filter id="filter1_d" x="-5.14419" y="97.8558" width="432.577" height="351.577" filterUnits="userSpaceOnUse" color-interpolation-filters="sRGB">
<feFlood flood-opacity="0" result="BackgroundImageFix"/>
<feColorMatrix in="SourceAlpha" type="matrix" values="0 0 0 0 0 0 0 0 0 0 0 0 0 0 0 0 0 0 127 0"/>
<feOffset dx="5.14419" dy="5.14419"/>
<feGaussianBlur stdDeviation="5.14419"/>
<feColorMatrix type="matrix" values="0 0 0 0 0.563559 0 0 0 0 0.572596 0 0 0 0 0.595833 0 0 0 0.2 0"/>
<feBlend mode="normal" in2="BackgroundImageFix" result="effect1_dropShadow"/>
<feBlend mode="normal" in="SourceGraphic" in2="effect1_dropShadow" result="shape"/>
</filter>
<clipPath id="clip0">
<rect width="412" height="331" fill="white" transform="translate(0 103)"/>
</clipPath>
</defs>
</svg>
