<svg width="472" height="479" viewBox="0 0 472 479" fill="none" xmlns="http://www.w3.org/2000/svg">
<g filter="url(#filter0_d)">
<circle cx="231" cy="238" r="225" fill="#5CD9D8"/>
</g>
<g clip-path="url(#clip0)" filter="url(#filter1_d)">
<path d="M296.14 17.82C295.93 17.63 298.03 15.09 300.82 12.17C303.61 9.24997 306.06 7.03997 306.26 7.23997C306.46 7.43997 304.37 9.96997 301.58 12.89C298.79 15.81 296.34 18 296.14 17.82Z" fill="white"/>
<path d="M306.26 17.82C306.06 18.02 303.62 15.82 300.82 12.89C298.02 9.95998 295.93 7.43998 296.14 7.23998C296.35 7.03998 298.78 9.23998 301.58 12.17C304.38 15.1 306.47 17.63 306.26 17.82Z" fill="white"/>
<path d="M447.84 424.13C447.84 424.27 378.4 424.39 292.77 424.39C207.14 424.39 137.67 424.27 137.67 424.13C137.67 423.99 207.1 423.87 292.77 423.87C378.44 423.87 447.84 424 447.84 424.13Z" fill="#263238"/>
<path d="M380.18 301.71C364.73 290.92 361.23 270.89 361.84 252.88C361.94 249.88 361.61 246.7 363.04 244.07C364.47 241.44 367.81 239.63 370.5 240.89C372.73 241.94 373.7 244.54 374.95 246.69C376.618 249.554 379.062 251.887 382 253.42C383.91 254.42 386.28 255.02 388.17 253.98C390.77 252.55 391.07 248.98 391.05 245.98C391.05 240.4 391.017 234.827 390.95 229.26C390.771 226.271 391.075 223.272 391.85 220.38C392.78 217.54 394.85 214.91 397.68 214.11C400.51 213.31 404.04 214.96 404.68 217.88C404.791 219.117 404.821 220.359 404.77 221.6C404.85 222.85 405.43 224.22 406.6 224.6C407.77 224.98 408.99 224.11 409.89 223.23C412.97 220.23 415.07 216.32 417.02 212.46C418.97 208.6 420.88 204.63 423.68 201.34C426.48 198.05 430.35 195.44 434.68 195.19C439.01 194.94 443.52 197.6 444.6 201.8C445.68 206 443.23 210.29 440.6 213.7C436.632 218.762 431.954 223.224 426.71 226.95C425.687 227.509 424.87 228.382 424.38 229.44C423.73 231.44 425.62 233.44 427.59 234.07C429.82 234.81 432.24 234.58 434.59 234.86C436.94 235.14 439.44 236.16 440.33 238.36C441.55 241.42 438.99 244.62 436.48 246.72C431.44 250.92 425.717 254.225 419.56 256.49C417.36 257.29 415.05 258 413.27 259.54C411.49 261.08 410.43 263.77 411.5 265.88C412.57 267.99 415.32 268.66 417.63 268.23C419.94 267.8 421.99 266.56 424.19 265.73C428.3 264.18 433.6 264.46 436.19 268.01C436.993 269.233 437.501 270.625 437.674 272.077C437.848 273.53 437.682 275.002 437.19 276.38C436.19 279.121 434.649 281.634 432.66 283.77C426.111 291.595 417.601 297.541 408 301C398.47 304.3 389.64 305.2 380.17 301.73" fill="#FF725E"/>
<path d="M440.2 197.66C440.2 197.66 440.11 197.76 439.91 197.94L439.02 198.73C438.24 199.43 437.09 200.45 435.64 201.8C431.529 205.617 427.712 209.739 424.22 214.13C421.99 216.9 419.68 220.04 417.22 223.45C414.76 226.86 412.22 230.54 409.7 234.45C407.014 238.573 404.553 242.839 402.33 247.23C401.17 249.52 400.15 251.91 399.1 254.35L396 261.8C391.914 271.184 388.355 280.789 385.34 290.57C382.912 298.573 381.238 306.785 380.34 315.1C379.759 320.711 379.665 326.362 380.06 331.99C380.22 333.99 380.37 335.52 380.51 336.56C380.57 337.06 380.61 337.46 380.65 337.75V338.16C380.607 338.03 380.577 337.896 380.56 337.76C380.51 337.47 380.45 337.08 380.37 336.58C380.19 335.58 380 334 379.82 332C379.338 326.362 379.371 320.692 379.92 315.06C380.762 306.71 382.4 298.459 384.81 290.42C387.8 280.612 391.349 270.982 395.44 261.58L398.62 254.16C399.67 251.73 400.7 249.32 401.87 247.02C404.109 242.616 406.589 238.34 409.3 234.21C411.86 230.21 414.44 226.59 416.87 223.21C419.3 219.83 421.65 216.67 423.87 213.91C427.397 209.53 431.266 205.438 435.44 201.67C436.92 200.34 438.1 199.34 438.9 198.67L439.83 197.92C439.944 197.821 440.068 197.734 440.2 197.66Z" fill="#263238"/>
<path d="M402 247C401.859 246.588 401.762 246.162 401.71 245.73C401.55 244.9 401.37 243.73 401.16 242.21C400.73 239.21 400.29 235.1 399.82 230.55C399.35 226 398.82 221.88 398.38 218.91C398.15 217.43 397.95 216.24 397.81 215.41C397.701 214.985 397.644 214.549 397.64 214.11C397.813 214.511 397.937 214.93 398.01 215.36C398.23 216.18 398.48 217.36 398.76 218.85C399.33 221.85 399.89 225.93 400.36 230.49C400.83 235.05 401.23 239.05 401.54 242.16C401.69 243.56 401.82 244.75 401.92 245.7C401.998 246.129 402.025 246.565 402 247Z" fill="#263238"/>
<path d="M440.48 239.82C439.994 239.926 439.498 239.986 439 240C438 240.09 436.58 240.21 434.82 240.41C431.3 240.79 426.46 241.49 421.15 242.49C415.84 243.49 411.07 244.62 407.64 245.49C405.93 245.93 404.55 246.33 403.64 246.6C403.154 246.773 402.652 246.893 402.14 246.96C402.603 246.728 403.084 246.537 403.58 246.39C404.52 246.06 405.88 245.6 407.58 245.11C410.99 244.11 415.76 242.92 421.09 241.9C425.605 241.037 430.161 240.403 434.74 240C436.51 239.85 437.94 239.79 438.94 239.77C439.454 239.735 439.97 239.752 440.48 239.82Z" fill="#263238"/>
<path d="M385.3 289.72C385.194 289.575 385.106 289.417 385.04 289.25L384.38 287.86C383.81 286.65 383.04 284.86 382.12 282.67C380.26 278.27 377.89 272.11 375.37 265.27C372.85 258.43 370.53 252.27 368.77 247.82C367.91 245.66 367.2 243.89 366.67 242.57L366.11 241.14C366.033 240.975 365.979 240.8 365.95 240.62C366.057 240.765 366.144 240.923 366.21 241.09L366.87 242.48C367.43 243.69 368.21 245.48 369.13 247.67C370.99 252.07 373.36 258.23 375.88 265.07C378.4 271.91 380.72 278.07 382.48 282.52C383.34 284.68 384.05 286.45 384.57 287.77C384.8 288.34 384.99 288.77 385.14 289.2C385.218 289.365 385.272 289.54 385.3 289.72Z" fill="#263238"/>
<path d="M436.38 273.25C436.22 273.342 436.049 273.412 435.87 273.46L434.39 273.96L428.92 275.73C424.3 277.23 417.92 279.37 410.92 281.73C403.92 284.09 397.51 286.19 392.86 287.59C390.54 288.3 388.65 288.84 387.34 289.2L385.83 289.59C385.655 289.646 385.474 289.683 385.29 289.7C385.451 289.608 385.622 289.537 385.8 289.49L387.28 288.99L392.75 287.22C397.37 285.72 403.75 283.58 410.75 281.22C417.75 278.86 424.15 276.76 428.8 275.36C431.13 274.65 433.01 274.11 434.33 273.75L435.84 273.36C436.016 273.304 436.197 273.267 436.38 273.25Z" fill="#263238"/>
<path d="M415.54 30.68L410.39 32.52L408.18 25.79C404.12 13.38 391.18 6.79001 379.29 10.98C367.4 15.17 361.07 28.78 365.13 41.19L367.34 47.92L362.17 49.77C360.199 50.5347 358.598 52.0296 357.7 53.9441C356.803 55.8587 356.677 58.0455 357.35 60.05L371.68 103.84C371.978 104.832 372.472 105.755 373.133 106.552C373.794 107.35 374.608 108.007 375.528 108.483C376.448 108.96 377.454 109.247 378.487 109.327C379.52 109.407 380.558 109.279 381.54 108.95L434.91 89.86C436.908 89.0967 438.531 87.5885 439.44 85.6526C440.348 83.7167 440.47 81.5041 439.78 79.48L425.44 35.69C425.135 34.7005 424.634 33.7825 423.966 32.991C423.298 32.1995 422.478 31.5505 421.554 31.083C420.63 30.6154 419.621 30.3387 418.588 30.2695C417.555 30.2003 416.518 30.3399 415.54 30.68ZM374.86 37.68C373.766 34.4532 373.962 30.928 375.409 27.8429C376.855 24.7577 379.44 22.3521 382.62 21.13C384.191 20.5926 385.854 20.3772 387.509 20.4964C389.165 20.6156 390.78 21.0672 392.257 21.8241C393.735 22.581 395.044 23.6277 396.108 24.9018C397.172 26.176 397.969 27.6514 398.45 29.24L400.65 35.97L377.06 44.41L374.86 37.68ZM404.86 76.54L408.52 87.72C408.588 87.9442 408.566 88.1856 408.46 88.3942C408.354 88.6028 408.171 88.7624 407.95 88.84L402.82 90.67C402.616 90.7266 402.398 90.702 402.212 90.6013C402.025 90.5007 401.885 90.3318 401.82 90.13L398.13 79C396.096 78.8892 394.143 78.1594 392.535 76.9083C390.927 75.6573 389.739 73.9448 389.13 72C388.261 69.4289 388.419 66.6211 389.573 64.1644C390.727 61.7076 392.786 59.7925 395.32 58.82C396.571 58.3925 397.896 58.2213 399.215 58.3166C400.533 58.4118 401.819 58.7716 402.996 59.3744C404.173 59.9772 405.216 60.8108 406.064 61.8254C406.911 62.84 407.546 64.0149 407.93 65.28C408.574 67.2556 408.627 69.3759 408.083 71.3812C407.54 73.3865 406.423 75.1898 404.87 76.57L404.86 76.54Z" fill="#FF725E"/>
<path d="M410.16 32.4C410.16 32.54 400.61 36.13 388.73 40.4C376.85 44.67 367.16 48.1 367.11 48C367.06 47.9 376.66 44.28 388.55 40C400.44 35.72 410.11 32.27 410.16 32.4Z" fill="#263238"/>
<path d="M421.5 34.24C421.544 34.3268 421.581 34.4171 421.61 34.51C421.69 34.71 421.78 34.97 421.9 35.29C422.16 36.02 422.52 37.03 422.97 38.29L426.81 49.47C428.41 54.21 430.32 59.83 432.44 66.07C433.44 69.2 434.62 72.46 435.72 75.89C436.309 77.6576 436.563 79.5193 436.47 81.38C436.385 82.3477 436.11 83.2891 435.66 84.15C435.18 85.0081 434.538 85.7653 433.77 86.38C432.225 87.5078 430.51 88.3821 428.69 88.97L423.54 90.82L413.79 94.31L397.28 100.19L386.13 104.11L383.13 105.11L382.33 105.37C382.245 105.408 382.154 105.432 382.06 105.44C382.06 105.44 382.14 105.44 382.31 105.32L383.09 105.01L386.09 103.88L397.18 99.8L413.66 93.8L423.39 90.28L428.54 88.42C430.309 87.856 431.974 87.0083 433.47 85.91C434.185 85.3396 434.782 84.6367 435.23 83.84C435.654 83.0438 435.909 82.169 435.98 81.27C436.072 79.4772 435.828 77.683 435.26 75.98C434.18 72.58 433.04 69.29 432.01 66.16C429.93 59.91 428.01 54.27 426.49 49.53C424.97 44.79 423.69 40.98 422.81 38.3C422.39 36.99 422.07 35.97 421.81 35.23L421.57 34.43C421.54 34.3694 421.517 34.3057 421.5 34.24Z" fill="#263238"/>
<path d="M393.34 20.45C393.34 20.45 392.81 20.19 391.83 19.79C390.433 19.2533 388.956 18.9558 387.46 18.91C385.243 18.834 383.037 19.2507 381 20.13C378.524 21.225 376.406 22.9961 374.89 25.24C373.365 27.4775 372.546 30.1217 372.54 32.83C372.561 35.0497 372.898 37.2552 373.54 39.38C374.06 41.2 374.6 42.65 374.96 43.66C375.173 44.173 375.347 44.7012 375.48 45.24C375.196 44.7604 374.959 44.2547 374.77 43.73C374.36 42.73 373.77 41.31 373.19 39.48C372.478 37.3329 372.091 35.0915 372.04 32.83C372.014 30.0194 372.852 27.2686 374.44 24.95C376.009 22.6241 378.213 20.7983 380.79 19.69C382.891 18.8058 385.166 18.4158 387.44 18.55C388.969 18.6279 390.47 18.9837 391.87 19.6C392.245 19.7728 392.606 19.9733 392.95 20.2C393.093 20.2625 393.224 20.3469 393.34 20.45Z" fill="#263238"/>
<path d="M393.8 59.58C393.96 59.4833 394.127 59.3997 394.3 59.33C394.801 59.1041 395.319 58.9202 395.85 58.78C396.693 58.5312 397.563 58.3835 398.44 58.34C399.634 58.2758 400.829 58.4562 401.95 58.87C404.51 59.77 406.86 62.38 408.02 65.87C408.577 67.7429 408.577 69.7371 408.02 71.61C407.403 73.6428 406.298 75.4934 404.8 77L404.86 76.73C406.19 80.38 407.64 84.34 409.14 88.47L409.23 88.72L408.98 88.81L406.69 89.57L401.69 91.24L401.44 91.32L401.36 91.07C399.99 86.93 398.49 83.07 397.36 79.28L397.58 79.45C395.625 79.2876 393.761 78.5539 392.22 77.34C390.826 76.2662 389.683 74.9011 388.87 73.34C388.137 71.9556 387.772 70.4061 387.81 68.84C387.857 67.2395 388.256 65.6689 388.981 64.2409C389.705 62.8129 390.736 61.5628 392 60.58C392.521 60.1576 393.105 59.8201 393.73 59.58C393.165 59.9152 392.618 60.279 392.09 60.67C390.702 61.8449 389.638 63.3564 389 65.06C388.453 66.3447 388.197 67.7345 388.251 69.1298C388.305 70.525 388.666 71.8911 389.31 73.13C390.109 74.6318 391.225 75.942 392.58 76.97C394.05 78.1238 395.828 78.8194 397.69 78.97H397.86L397.91 79.12C399.01 82.84 400.52 86.73 401.91 90.89L401.58 90.73L406.58 89.06L408.86 88.29L408.7 88.63C407.21 84.5 405.77 80.53 404.45 76.88V76.73L404.57 76.61C406.024 75.1659 407.108 73.3924 407.73 71.44C408.261 69.6484 408.261 67.7416 407.73 65.95C406.64 62.59 404.39 60.04 401.95 59.14C400.87 58.7235 399.717 58.5297 398.56 58.57C397.697 58.5898 396.838 58.7072 396 58.92C394.51 59.29 393.81 59.63 393.8 59.58Z" fill="#263238"/>
<path d="M362.89 348.32L263 347.86C257.231 347.828 251.711 345.508 247.652 341.41C243.592 337.311 241.326 331.769 241.35 326L242.41 75.59C242.422 72.732 242.997 69.9044 244.102 67.2688C245.207 64.6332 246.821 62.2412 248.851 60.2296C250.881 58.218 253.288 56.6263 255.933 55.5453C258.579 54.4644 261.412 53.9155 264.27 53.93L364.15 54.39C369.918 54.4191 375.44 56.7365 379.501 60.8333C383.562 64.9302 385.831 70.4714 385.81 76.24L384.75 326.64C384.738 329.499 384.163 332.327 383.058 334.964C381.953 337.601 380.34 339.994 378.31 342.007C376.28 344.021 373.873 345.614 371.228 346.697C368.582 347.78 365.749 348.332 362.89 348.32Z" fill="#455A64"/>
<path d="M364 63H344.64C344.008 63.0117 343.385 63.1477 342.806 63.4003C342.227 63.6529 341.703 64.0172 341.265 64.4722C340.826 64.9272 340.482 65.4641 340.251 66.0523C340.02 66.6404 339.908 67.2683 339.92 67.9V71.41C339.932 72.0412 339.819 72.6685 339.588 73.2561C339.357 73.8437 339.013 74.3799 338.574 74.8342C338.136 75.2884 337.612 75.6517 337.033 75.9032C336.454 76.1547 335.831 76.2896 335.2 76.3L297.46 76.13C296.183 76.0959 294.972 75.5566 294.093 74.6303C293.213 73.7041 292.738 72.4667 292.77 71.19V67.68C292.802 66.4049 292.328 65.169 291.45 64.2431C290.573 63.3171 289.365 62.7766 288.09 62.74H281.28L264.33 62.66C260.298 62.636 256.421 64.2105 253.548 67.0387C250.675 69.867 249.039 73.7185 249 77.75L248 322.17C247.991 324.17 248.375 326.152 249.132 328.004C249.889 329.855 251.003 331.539 252.411 332.96C253.819 334.381 255.493 335.51 257.337 336.284C259.181 337.058 261.16 337.461 263.16 337.47L362.84 337.93C364.841 337.939 366.825 337.554 368.677 336.797C370.53 336.039 372.215 334.924 373.637 333.516C375.058 332.107 376.189 330.432 376.963 328.587C377.737 326.741 378.141 324.761 378.15 322.76L379.15 78.34C379.174 74.2971 377.591 70.4102 374.75 67.5337C371.91 64.6571 368.043 63.0264 364 63Z" fill="white"/>
<path d="M350.5 305.43L276.38 305.11C275.61 305.11 274.99 304.27 275 303.25L275.08 283.86C275.08 282.86 275.71 282 276.48 282L350.6 282.34C351.027 282.414 351.408 282.649 351.665 282.998C351.923 283.346 352.035 283.781 351.98 284.21L351.91 303.58C351.91 304.61 351.27 305.44 350.5 305.43Z" fill="#FF725E"/>
<path d="M298.496 297.049C299.952 297.049 300.619 296.333 300.619 295.496C300.619 293.422 297.114 294.365 297.114 292.804C297.114 292.235 297.577 291.772 298.618 291.772C299.122 291.772 299.692 291.926 300.179 292.243L300.383 291.763C299.927 291.446 299.261 291.259 298.618 291.259C297.171 291.259 296.52 291.983 296.52 292.821C296.52 294.927 300.025 293.967 300.025 295.528C300.025 296.089 299.562 296.537 298.496 296.537C297.748 296.537 297.025 296.244 296.618 295.845L296.382 296.309C296.805 296.748 297.643 297.049 298.496 297.049ZM301.93 297H302.531V291.308H301.93V297ZM308.392 296.073C307.953 296.39 307.449 296.512 306.904 296.512C305.505 296.512 304.473 295.504 304.473 294.154C304.473 292.796 305.505 291.796 306.912 291.796C307.579 291.796 308.148 291.991 308.628 292.463L309.002 292.081C308.498 291.536 307.75 291.259 306.888 291.259C305.148 291.259 303.879 292.487 303.879 294.154C303.879 295.821 305.148 297.049 306.88 297.049C307.668 297.049 308.433 296.805 308.969 296.325V294.154H308.392V296.073ZM314.836 291.308V295.927L311.168 291.308H310.672V297H311.274V292.381L314.933 297H315.429V291.308H314.836ZM321.708 297.049C323.164 297.049 324.042 296.203 324.042 294.569V291.308H323.456V294.544C323.456 295.894 322.822 296.512 321.708 296.512C320.602 296.512 319.968 295.894 319.968 294.544V291.308H319.366V294.569C319.366 296.203 320.253 297.049 321.708 297.049ZM327.985 291.308H325.855V297H326.457V295.203H327.985C329.433 295.203 330.311 294.471 330.311 293.26C330.311 292.04 329.433 291.308 327.985 291.308ZM327.969 294.674H326.457V291.829H327.969C329.107 291.829 329.709 292.349 329.709 293.26C329.709 294.154 329.107 294.674 327.969 294.674Z" fill="#E8E8E3"/>
<path d="M291.254 134.85L265.534 134.733L265.513 139.453L291.232 139.57L291.254 134.85Z" fill="#FF725E"/>
<path opacity="0.1" d="M291.254 134.85L265.534 134.733L265.513 139.453L291.232 139.57L291.254 134.85Z" fill="black"/>
<path d="M366.65 163.83C366.852 163.81 367.05 163.762 367.24 163.69C367.517 163.582 367.757 163.398 367.934 163.159C368.111 162.92 368.217 162.636 368.24 162.34C368.24 160.75 368.24 158.43 368.24 155.45C368.24 153.96 368.24 152.29 368.24 150.45C368.24 150 368.24 149.53 368.24 149.06C368.305 148.604 368.206 148.14 367.96 147.75C367.822 147.563 367.643 147.411 367.437 147.305C367.23 147.199 367.002 147.143 366.77 147.14H365.21H350.76L267.12 146.83C266.906 146.826 266.694 146.874 266.502 146.97C266.311 147.066 266.145 147.207 266.02 147.38C265.778 147.771 265.686 148.236 265.76 148.69C265.76 149.69 265.76 150.69 265.76 151.69C265.76 153.69 265.76 155.69 265.76 157.69C265.76 158.69 265.76 159.69 265.76 160.69C265.718 161.156 265.718 161.624 265.76 162.09C265.812 162.29 265.91 162.475 266.045 162.631C266.18 162.787 266.35 162.91 266.54 162.99C266.737 163.068 266.948 163.106 267.16 163.1H272.25L294.46 163.22L332.06 163.45L357.41 163.65L364.3 163.73H366.09C366.5 163.73 366.7 163.73 366.7 163.73H366.09H364.3H357.41H332.06L294.46 163.61L272.25 163.52H267.16C266.88 163.531 266.6 163.484 266.34 163.38C266.077 163.268 265.842 163.097 265.655 162.88C265.468 162.663 265.333 162.407 265.26 162.13C265.202 161.868 265.182 161.598 265.2 161.33V160.59C265.2 159.59 265.2 158.59 265.2 157.59C265.2 155.59 265.2 153.59 265.2 151.59C265.2 150.59 265.2 149.59 265.2 148.59C265.181 148.324 265.181 148.056 265.2 147.79C265.237 147.496 265.351 147.217 265.53 146.98C265.702 146.739 265.931 146.542 266.195 146.408C266.46 146.274 266.753 146.206 267.05 146.21L350.69 146.67L365.14 146.77H366.7C366.975 146.77 367.245 146.837 367.489 146.964C367.733 147.091 367.942 147.275 368.1 147.5C368.382 147.935 368.496 148.457 368.42 148.97C368.42 149.44 368.42 149.91 368.42 150.36C368.42 152.18 368.42 153.85 368.42 155.36C368.42 158.36 368.35 160.66 368.33 162.26C368.305 162.568 368.194 162.862 368.008 163.108C367.822 163.354 367.569 163.542 367.28 163.65C367.091 163.767 366.872 163.83 366.65 163.83Z" fill="#E0E0E0"/>
<path d="M320.3 151.85H273.26V156.26H320.3V151.85Z" fill="#FF725E"/>
<path opacity="0.2" d="M320.3 151.85H273.26V156.26H320.3V151.85Z" fill="white"/>
<path d="M291.079 177.909L265.359 177.792L265.337 182.512L291.057 182.629L291.079 177.909Z" fill="#FF725E"/>
<path opacity="0.1" d="M291.079 177.909L265.359 177.792L265.337 182.512L291.057 182.629L291.079 177.909Z" fill="black"/>
<path d="M366 206.89C366.202 206.865 366.402 206.828 366.6 206.78C366.879 206.691 367.136 206.543 367.353 206.347C367.571 206.15 367.743 205.909 367.86 205.64C368.017 205.236 368.079 204.802 368.04 204.37C368.04 203.89 368.04 203.37 368.04 202.79C368.04 201.63 368.04 200.31 368.04 198.79V192.44C368.087 191.98 367.986 191.517 367.75 191.12C367.503 190.712 367.115 190.41 366.66 190.27C366.162 190.181 365.654 190.154 365.15 190.19H350.76L267.41 189.88C266.961 189.881 266.529 190.045 266.192 190.341C265.856 190.637 265.638 191.045 265.58 191.49C265.58 192.44 265.58 193.49 265.58 194.49C265.58 196.49 265.58 198.49 265.58 200.49C265.58 201.49 265.58 202.49 265.58 203.49C265.543 203.957 265.563 204.428 265.64 204.89C265.765 205.295 266.022 205.647 266.37 205.89C266.739 206.124 267.173 206.236 267.61 206.21H269H271.89L294.02 206.32L331.49 206.55L356.75 206.75L363.62 206.83H365.41H366.01H365.41H363.62H356.75H331.49L294 206.79L271.87 206.71H267.52C266.979 206.742 266.442 206.598 265.99 206.3C265.535 205.985 265.203 205.522 265.05 204.99C264.96 204.482 264.933 203.965 264.97 203.45C264.97 202.45 264.97 201.45 264.97 200.45C264.97 198.45 264.97 196.45 264.97 194.45C264.97 193.45 264.97 192.45 264.97 191.45C265.043 190.878 265.322 190.353 265.754 189.972C266.187 189.591 266.743 189.38 267.32 189.38L350.67 189.84L365.06 189.95C365.596 189.917 366.133 189.954 366.66 190.06C367.179 190.23 367.618 190.586 367.89 191.06C368.148 191.5 368.261 192.012 368.21 192.52C368.21 192.99 368.21 193.45 368.21 193.91C368.21 195.72 368.21 197.38 368.21 198.91C368.21 200.44 368.21 201.73 368.21 202.91C368.21 203.48 368.21 204.01 368.21 204.5C368.246 204.947 368.174 205.397 368 205.81C367.87 206.086 367.682 206.331 367.449 206.527C367.216 206.724 366.944 206.868 366.65 206.95C366.431 206.968 366.211 206.948 366 206.89Z" fill="#E0E0E0"/>
<path d="M290.885 222.838L265.165 222.721L265.143 227.441L290.863 227.558L290.885 222.838Z" fill="#FF725E"/>
<path opacity="0.1" d="M290.885 222.838L265.165 222.721L265.143 227.441L290.863 227.558L290.885 222.838Z" fill="black"/>
<path d="M365.8 251.8C366.002 251.776 366.202 251.739 366.4 251.69C366.678 251.602 366.934 251.455 367.151 251.26C367.368 251.066 367.542 250.827 367.66 250.56C367.817 250.156 367.878 249.722 367.84 249.29C367.84 248.8 367.84 248.29 367.84 247.7C367.84 246.55 367.84 245.22 367.84 243.7V237.35C367.887 236.89 367.786 236.427 367.55 236.03C367.297 235.63 366.911 235.332 366.46 235.19C365.962 235.098 365.455 235.067 364.95 235.1H350.56L267.21 234.79C266.761 234.791 266.329 234.955 265.992 235.251C265.656 235.547 265.438 235.955 265.38 236.4C265.38 237.4 265.38 238.4 265.38 239.4C265.38 241.4 265.38 243.4 265.38 245.4C265.38 246.4 265.38 247.4 265.38 248.4C265.343 248.864 265.363 249.331 265.44 249.79C265.56 250.198 265.818 250.552 266.17 250.79C266.537 251.03 266.973 251.142 267.41 251.11H271.76L293.89 251.23L331.36 251.46L356.62 251.66L363.49 251.74H365.28C365.68 251.74 365.88 251.74 365.88 251.74C365.88 251.74 365.68 251.74 365.28 251.74H363.49H356.62H331.36L293.89 251.63L271.76 251.54H267.41C266.868 251.576 266.33 251.432 265.88 251.13C265.425 250.815 265.093 250.352 264.94 249.82C264.85 249.312 264.823 248.795 264.86 248.28C264.86 247.28 264.86 246.28 264.86 245.28C264.86 243.28 264.86 241.28 264.86 239.28C264.86 238.28 264.86 237.28 264.86 236.23C264.93 235.659 265.207 235.134 265.638 234.752C266.069 234.371 266.624 234.16 267.2 234.16L350.55 234.62L364.94 234.73C365.476 234.697 366.013 234.734 366.54 234.84C367.059 235.01 367.498 235.366 367.77 235.84C368.028 236.28 368.141 236.792 368.09 237.3C368.09 237.77 368.09 238.24 368.09 238.69C368.09 240.5 368.09 242.16 368.09 243.69C368.09 245.22 368.09 246.51 368.09 247.69C368.09 248.26 368.09 248.79 368.09 249.28C368.128 249.727 368.056 250.177 367.88 250.59C367.75 250.866 367.562 251.111 367.329 251.307C367.096 251.504 366.824 251.648 366.53 251.73C366.295 251.81 366.045 251.834 365.8 251.8Z" fill="#E0E0E0"/>
<path d="M319.296 196.157L272.256 195.943L272.236 200.353L319.276 200.567L319.296 196.157Z" fill="#FF725E"/>
<path opacity="0.2" d="M319.296 196.157L272.256 195.943L272.236 200.353L319.276 200.567L319.296 196.157Z" fill="white"/>
<path d="M276.51 243.64C276.48 244.042 276.333 244.427 276.087 244.746C275.841 245.066 275.506 245.306 275.125 245.437C274.744 245.568 274.332 245.585 273.942 245.484C273.551 245.384 273.198 245.171 272.928 244.872C272.657 244.572 272.48 244.201 272.419 243.802C272.358 243.403 272.415 242.995 272.584 242.629C272.752 242.262 273.024 241.953 273.367 241.74C273.709 241.527 274.107 241.419 274.51 241.43C275.067 241.461 275.589 241.71 275.964 242.124C276.338 242.538 276.534 243.083 276.51 243.64Z" fill="#FF725E"/>
<path d="M282.88 243.67C282.899 243.952 282.861 244.235 282.767 244.501C282.672 244.768 282.524 245.012 282.331 245.218C282.139 245.425 281.905 245.59 281.646 245.703C281.387 245.815 281.107 245.873 280.825 245.873C280.542 245.873 280.263 245.815 280.003 245.703C279.744 245.59 279.511 245.425 279.318 245.218C279.126 245.012 278.977 244.768 278.883 244.501C278.789 244.235 278.75 243.952 278.77 243.67C278.75 243.388 278.789 243.105 278.883 242.839C278.977 242.572 279.126 242.328 279.318 242.122C279.511 241.915 279.744 241.75 280.003 241.637C280.263 241.525 280.542 241.467 280.825 241.467C281.107 241.467 281.387 241.525 281.646 241.637C281.905 241.75 282.139 241.915 282.331 242.122C282.524 242.328 282.672 242.572 282.767 242.839C282.861 243.105 282.899 243.388 282.88 243.67Z" fill="#FF725E"/>
<path d="M289.26 243.7C289.23 244.102 289.083 244.487 288.837 244.806C288.591 245.126 288.256 245.366 287.875 245.497C287.494 245.628 287.082 245.645 286.692 245.544C286.301 245.444 285.948 245.231 285.678 244.932C285.407 244.632 285.23 244.261 285.169 243.862C285.108 243.463 285.165 243.055 285.334 242.689C285.502 242.322 285.774 242.013 286.117 241.8C286.459 241.587 286.857 241.479 287.26 241.49C287.816 241.524 288.337 241.774 288.711 242.187C289.085 242.6 289.282 243.143 289.26 243.7Z" fill="#FF725E"/>
<path d="M295.63 243.73C295.6 244.132 295.453 244.517 295.207 244.836C294.961 245.156 294.626 245.396 294.245 245.527C293.864 245.658 293.452 245.675 293.062 245.574C292.671 245.474 292.318 245.261 292.048 244.962C291.777 244.662 291.6 244.291 291.539 243.892C291.478 243.493 291.535 243.085 291.704 242.719C291.872 242.352 292.144 242.043 292.487 241.83C292.829 241.617 293.227 241.509 293.63 241.52C294.186 241.554 294.707 241.804 295.081 242.217C295.455 242.63 295.652 243.173 295.63 243.73Z" fill="#FF725E"/>
<path d="M302 243.75C301.972 244.153 301.827 244.539 301.582 244.86C301.337 245.18 301.003 245.422 300.621 245.555C300.24 245.688 299.828 245.705 299.437 245.606C299.045 245.506 298.692 245.294 298.42 244.995C298.149 244.696 297.971 244.324 297.909 243.925C297.847 243.526 297.904 243.118 298.072 242.751C298.24 242.384 298.513 242.074 298.856 241.861C299.198 241.647 299.596 241.539 300 241.55C300.554 241.584 301.074 241.832 301.447 242.243C301.821 242.654 302.019 243.195 302 243.75Z" fill="#FF725E"/>
<path d="M308.38 243.78C308.352 244.181 308.209 244.565 307.966 244.885C307.723 245.205 307.392 245.447 307.014 245.581C306.635 245.716 306.225 245.736 305.835 245.641C305.445 245.546 305.091 245.338 304.817 245.044C304.544 244.75 304.362 244.383 304.294 243.987C304.226 243.591 304.276 243.184 304.437 242.816C304.597 242.448 304.862 242.135 305.199 241.915C305.535 241.695 305.928 241.579 306.33 241.58C306.893 241.601 307.425 241.844 307.809 242.256C308.194 242.669 308.399 243.217 308.38 243.78Z" fill="#FF725E"/>
<path d="M314.75 243.81C314.769 244.092 314.731 244.375 314.637 244.641C314.542 244.908 314.394 245.152 314.201 245.358C314.009 245.565 313.775 245.73 313.516 245.843C313.257 245.955 312.977 246.013 312.695 246.013C312.412 246.013 312.133 245.955 311.873 245.843C311.614 245.73 311.381 245.565 311.188 245.358C310.996 245.152 310.847 244.908 310.753 244.641C310.659 244.375 310.62 244.092 310.64 243.81C310.62 243.528 310.659 243.245 310.753 242.979C310.847 242.712 310.996 242.468 311.188 242.262C311.381 242.055 311.614 241.89 311.873 241.777C312.133 241.665 312.412 241.607 312.695 241.607C312.977 241.607 313.257 241.665 313.516 241.777C313.775 241.89 314.009 242.055 314.201 242.262C314.394 242.468 314.542 242.712 314.637 242.979C314.731 243.245 314.769 243.528 314.75 243.81Z" fill="#FF725E"/>
<path d="M321.12 243.84C321.092 244.241 320.949 244.625 320.706 244.945C320.463 245.265 320.132 245.507 319.754 245.641C319.375 245.776 318.965 245.796 318.575 245.701C318.185 245.606 317.831 245.398 317.557 245.104C317.284 244.81 317.102 244.443 317.034 244.047C316.966 243.651 317.016 243.244 317.177 242.876C317.337 242.508 317.602 242.195 317.938 241.975C318.275 241.755 318.668 241.639 319.07 241.64C319.633 241.661 320.165 241.904 320.549 242.316C320.934 242.729 321.139 243.277 321.12 243.84Z" fill="#FF725E"/>
<path d="M327.49 243.87C327.462 244.273 327.317 244.659 327.072 244.98C326.827 245.3 326.493 245.542 326.111 245.675C325.73 245.808 325.318 245.825 324.927 245.726C324.535 245.626 324.182 245.414 323.91 245.115C323.639 244.816 323.461 244.444 323.399 244.045C323.337 243.646 323.394 243.238 323.562 242.871C323.73 242.504 324.003 242.194 324.346 241.981C324.688 241.767 325.086 241.659 325.49 241.67C326.044 241.704 326.564 241.952 326.937 242.363C327.311 242.774 327.509 243.315 327.49 243.87Z" fill="#FF725E"/>
<g opacity="0.2">
<path opacity="0.2" d="M276.51 243.64C276.48 244.042 276.333 244.427 276.087 244.746C275.841 245.066 275.506 245.306 275.125 245.437C274.744 245.568 274.332 245.585 273.942 245.484C273.551 245.384 273.198 245.171 272.928 244.872C272.657 244.572 272.48 244.201 272.419 243.802C272.358 243.403 272.415 242.995 272.584 242.629C272.752 242.262 273.024 241.953 273.367 241.74C273.709 241.527 274.107 241.419 274.51 241.43C275.067 241.461 275.589 241.71 275.964 242.124C276.338 242.538 276.534 243.083 276.51 243.64Z" fill="white"/>
<path opacity="0.2" d="M282.88 243.67C282.899 243.952 282.861 244.235 282.767 244.501C282.672 244.768 282.524 245.012 282.331 245.218C282.139 245.425 281.905 245.59 281.646 245.703C281.387 245.815 281.107 245.873 280.825 245.873C280.542 245.873 280.263 245.815 280.003 245.703C279.744 245.59 279.511 245.425 279.318 245.218C279.126 245.012 278.977 244.768 278.883 244.501C278.789 244.235 278.75 243.952 278.77 243.67C278.75 243.388 278.789 243.105 278.883 242.839C278.977 242.572 279.126 242.328 279.318 242.122C279.511 241.915 279.744 241.75 280.003 241.637C280.263 241.525 280.542 241.467 280.825 241.467C281.107 241.467 281.387 241.525 281.646 241.637C281.905 241.75 282.139 241.915 282.331 242.122C282.524 242.328 282.672 242.572 282.767 242.839C282.861 243.105 282.899 243.388 282.88 243.67Z" fill="white"/>
<path opacity="0.2" d="M289.26 243.7C289.23 244.102 289.083 244.487 288.837 244.806C288.591 245.126 288.256 245.366 287.875 245.497C287.494 245.628 287.082 245.645 286.692 245.544C286.301 245.444 285.948 245.231 285.678 244.932C285.407 244.632 285.23 244.261 285.169 243.862C285.108 243.463 285.165 243.055 285.334 242.689C285.502 242.322 285.774 242.013 286.117 241.8C286.459 241.587 286.857 241.479 287.26 241.49C287.816 241.524 288.337 241.774 288.711 242.187C289.085 242.6 289.282 243.143 289.26 243.7Z" fill="white"/>
<path opacity="0.2" d="M295.63 243.73C295.6 244.132 295.453 244.517 295.207 244.836C294.961 245.156 294.626 245.396 294.245 245.527C293.864 245.658 293.452 245.675 293.062 245.574C292.671 245.474 292.318 245.261 292.048 244.962C291.777 244.662 291.6 244.291 291.539 243.892C291.478 243.493 291.535 243.085 291.704 242.719C291.872 242.352 292.144 242.043 292.487 241.83C292.829 241.617 293.227 241.509 293.63 241.52C294.186 241.554 294.707 241.804 295.081 242.217C295.455 242.63 295.652 243.173 295.63 243.73Z" fill="white"/>
<path opacity="0.2" d="M302 243.75C301.972 244.153 301.827 244.539 301.582 244.86C301.337 245.18 301.003 245.422 300.621 245.555C300.24 245.688 299.828 245.705 299.437 245.606C299.045 245.506 298.692 245.294 298.42 244.995C298.149 244.696 297.971 244.324 297.909 243.925C297.847 243.526 297.904 243.118 298.072 242.751C298.24 242.384 298.513 242.074 298.855 241.861C299.198 241.647 299.596 241.539 300 241.55C300.554 241.584 301.073 241.832 301.447 242.243C301.821 242.654 302.019 243.195 302 243.75Z" fill="white"/>
<path opacity="0.2" d="M308.38 243.78C308.352 244.181 308.209 244.565 307.966 244.885C307.723 245.205 307.392 245.447 307.014 245.581C306.635 245.716 306.225 245.736 305.835 245.641C305.445 245.546 305.091 245.338 304.817 245.044C304.544 244.75 304.362 244.383 304.294 243.987C304.226 243.591 304.276 243.184 304.437 242.816C304.597 242.448 304.862 242.135 305.199 241.915C305.535 241.695 305.928 241.579 306.33 241.58C306.893 241.601 307.425 241.844 307.809 242.256C308.194 242.669 308.399 243.217 308.38 243.78Z" fill="white"/>
<path opacity="0.2" d="M314.75 243.81C314.769 244.092 314.731 244.375 314.637 244.641C314.542 244.908 314.394 245.152 314.201 245.358C314.009 245.565 313.775 245.73 313.516 245.843C313.257 245.955 312.977 246.013 312.695 246.013C312.412 246.013 312.133 245.955 311.873 245.843C311.614 245.73 311.381 245.565 311.188 245.358C310.996 245.152 310.847 244.908 310.753 244.641C310.659 244.375 310.62 244.092 310.64 243.81C310.62 243.528 310.659 243.245 310.753 242.979C310.847 242.712 310.996 242.468 311.188 242.262C311.381 242.055 311.614 241.89 311.873 241.777C312.133 241.665 312.412 241.607 312.695 241.607C312.977 241.607 313.257 241.665 313.516 241.777C313.775 241.89 314.009 242.055 314.201 242.262C314.394 242.468 314.542 242.712 314.637 242.979C314.731 243.245 314.769 243.528 314.75 243.81Z" fill="white"/>
<path opacity="0.2" d="M321.12 243.84C321.092 244.241 320.949 244.625 320.706 244.945C320.463 245.265 320.132 245.507 319.754 245.641C319.375 245.776 318.965 245.796 318.575 245.701C318.185 245.606 317.831 245.398 317.557 245.104C317.284 244.81 317.102 244.443 317.034 244.047C316.966 243.651 317.016 243.244 317.177 242.876C317.337 242.508 317.602 242.195 317.938 241.975C318.275 241.755 318.668 241.639 319.07 241.64C319.633 241.661 320.165 241.904 320.549 242.316C320.934 242.729 321.139 243.277 321.12 243.84Z" fill="white"/>
<path opacity="0.2" d="M327.49 243.87C327.462 244.273 327.317 244.659 327.072 244.98C326.827 245.3 326.493 245.542 326.111 245.675C325.73 245.808 325.318 245.825 324.927 245.726C324.535 245.626 324.182 245.414 323.91 245.115C323.639 244.816 323.461 244.444 323.399 244.045C323.337 243.646 323.394 243.238 323.562 242.871C323.73 242.504 324.003 242.194 324.345 241.981C324.688 241.767 325.086 241.659 325.49 241.67C326.044 241.704 326.563 241.952 326.937 242.363C327.311 242.774 327.509 243.315 327.49 243.87Z" fill="white"/>
</g>
<path d="M318.44 99.51C319.134 99.2041 319.724 98.7006 320.135 98.0623C320.545 97.424 320.759 96.679 320.75 95.92C320.776 95.4266 320.701 94.9331 320.53 94.4695C320.359 94.006 320.095 93.5821 319.755 93.2237C319.415 92.8653 319.006 92.5799 318.552 92.3849C318.098 92.1898 317.609 92.0892 317.115 92.0892C316.621 92.0892 316.132 92.1898 315.678 92.3849C315.224 92.5799 314.814 92.8653 314.474 93.2237C314.134 93.5821 313.871 94.006 313.7 94.4695C313.529 94.9331 313.454 95.4266 313.48 95.92C313.465 96.6866 313.677 97.4405 314.09 98.0865C314.503 98.7326 315.098 99.2418 315.8 99.55C310.2 100.39 310.45 106.47 310.45 106.47L323.69 106.53C323.69 106.53 324 100.34 318.44 99.51Z" fill="#FF725E"/>
<path opacity="0.1" d="M318.44 99.51C319.134 99.2041 319.724 98.7006 320.135 98.0623C320.545 97.424 320.759 96.679 320.75 95.92C320.776 95.4266 320.701 94.9331 320.53 94.4695C320.359 94.006 320.095 93.5821 319.755 93.2237C319.415 92.8653 319.006 92.5799 318.552 92.3849C318.098 92.1898 317.609 92.0892 317.115 92.0892C316.621 92.0892 316.132 92.1898 315.678 92.3849C315.224 92.5799 314.814 92.8653 314.474 93.2237C314.134 93.5821 313.871 94.006 313.7 94.4695C313.529 94.9331 313.454 95.4266 313.48 95.92C313.465 96.6866 313.677 97.4405 314.09 98.0865C314.503 98.7326 315.098 99.2418 315.8 99.55C310.2 100.39 310.45 106.47 310.45 106.47L323.69 106.53C323.69 106.53 324 100.34 318.44 99.51Z" fill="black"/>
<path d="M339.954 110.451L292.765 110.237L292.739 115.877L339.929 116.091L339.954 110.451Z" fill="#FF725E"/>
<path opacity="0.2" d="M339.954 110.451L292.765 110.237L292.739 115.877L339.929 116.091L339.954 110.451Z" fill="white"/>
<path d="M215.15 419.34V410.79L199.82 410.68L199.69 423.61L200.64 423.68C204.87 423.95 222.16 424.35 225 423.47C228.16 422.49 215.15 419.34 215.15 419.34Z" fill="#FF725E"/>
<path d="M225.36 422.67C225.36 422.81 219.62 422.93 212.55 422.93C205.48 422.93 199.74 422.81 199.74 422.67C199.74 422.53 205.48 422.41 212.55 422.41C219.62 422.41 225.36 422.53 225.36 422.67Z" fill="#263238"/>
<path d="M215.42 421.09C215.29 421.02 215.42 420.57 215.73 420.09C216.04 419.61 216.46 419.41 216.56 419.51C216.66 419.61 216.45 419.99 216.15 420.4C215.85 420.81 215.55 421.16 215.42 421.09Z" fill="#263238"/>
<path d="M216.4 421.65C216.26 421.65 216.33 421.09 216.63 420.56C216.93 420.03 217.33 419.71 217.44 419.79C217.55 419.87 217.37 420.32 217.09 420.79C216.81 421.26 216.53 421.7 216.4 421.65Z" fill="#263238"/>
<path d="M204.36 422.63C204.3 422.63 204.07 422.45 203.74 422.07C203.337 421.582 202.888 421.133 202.4 420.73C201.92 420.346 201.347 420.095 200.74 420C200.27 419.94 199.97 420 199.94 419.94C199.91 419.88 200.2 419.67 200.75 419.63C201.476 419.615 202.184 419.855 202.75 420.31C203.28 420.742 203.728 421.267 204.07 421.86C204.3 422.3 204.42 422.59 204.36 422.63Z" fill="#263238"/>
<path d="M215.47 419.48C215.54 419.6 215.28 419.9 214.84 420.06C214.4 420.22 214.01 420.16 213.99 420.06C213.97 419.96 214.28 419.75 214.66 419.61C215.04 419.47 215.39 419.36 215.47 419.48Z" fill="#263238"/>
<path d="M215.23 418.65C215.23 418.8 214.83 418.92 214.31 418.93C213.79 418.94 213.38 418.82 213.39 418.68C213.4 418.54 213.81 418.41 214.31 418.4C214.81 418.39 215.21 418.51 215.23 418.65Z" fill="#263238"/>
<path d="M252.9 419.34V410.79L237.57 410.68L237.44 423.48L238.39 423.55C242.62 423.82 259.92 424.35 262.75 423.47C265.91 422.49 252.9 419.34 252.9 419.34Z" fill="#FF725E"/>
<path d="M263.11 422.69C263.11 422.83 257.38 422.95 250.3 422.95C243.22 422.95 237.5 422.83 237.5 422.69C237.5 422.55 243.23 422.43 250.3 422.43C257.37 422.43 263.11 422.55 263.11 422.69Z" fill="#263238"/>
<path d="M253.17 421.09C253.05 421.02 253.17 420.57 253.48 420.09C253.79 419.61 254.21 419.41 254.31 419.51C254.41 419.61 254.2 419.99 253.9 420.4C253.6 420.81 253.3 421.16 253.17 421.09Z" fill="#263238"/>
<path d="M254.15 421.65C254.02 421.65 254.08 421.09 254.39 420.56C254.7 420.03 255.09 419.71 255.2 419.79C255.31 419.87 255.12 420.32 254.84 420.79C254.56 421.26 254.29 421.7 254.15 421.65Z" fill="#263238"/>
<path d="M242.11 422.63C242.05 422.63 241.83 422.45 241.49 422.07C241.087 421.582 240.638 421.133 240.15 420.73C239.67 420.346 239.097 420.095 238.49 420C238.03 419.94 237.72 420 237.69 419.94C237.66 419.88 237.95 419.67 238.5 419.63C239.226 419.615 239.934 419.855 240.5 420.31C241.033 420.739 241.481 421.265 241.82 421.86C242.05 422.3 242.17 422.59 242.11 422.63Z" fill="#263238"/>
<path d="M253.22 419.48C253.29 419.6 253.03 419.9 252.59 420.06C252.15 420.22 251.76 420.16 251.74 420.06C251.72 419.96 252.03 419.75 252.41 419.61C252.79 419.47 253.14 419.36 253.22 419.48Z" fill="#263238"/>
<path d="M253 418.65C253 418.8 252.6 418.92 252.08 418.93C251.56 418.94 251.16 418.82 251.17 418.68C251.18 418.54 251.58 418.41 252.08 418.4C252.58 418.39 253 418.51 253 418.65Z" fill="#263238"/>
<path d="M309.38 165.44C308.98 165.03 307.99 165.23 307.99 165.23C308.089 164.654 308.089 164.066 307.99 163.49C307.81 162.93 306.55 163.04 306.55 163.04C306.492 162.568 306.492 162.092 306.55 161.62C306.56 161.515 306.538 161.41 306.486 161.319C306.434 161.228 306.355 161.155 306.26 161.11C305.664 160.867 305.023 160.751 304.38 160.77C303.61 160.22 306.73 155.85 307.89 154.45C309.05 153.05 308.84 151.96 307.81 151.96C307.1 151.96 303.46 156.16 302.34 157.57C301.22 158.98 298.25 162.9 298.15 159.77C298.05 156.64 296.79 154.28 296 153.88C295.21 153.48 294.37 154.42 294.8 155.29C295.178 156.278 295.413 157.315 295.5 158.37C295.609 159.21 295.571 160.063 295.39 160.89C295.058 162.43 294.607 163.941 294.04 165.41H293.96C293.96 165.41 272.14 186.34 270.56 187.83C269.15 189.17 240.79 186.24 235.1 185.64C233.166 185.357 231.214 185.223 229.26 185.24C226.79 185.35 226.35 185.7 223.89 185.73C217.677 185.799 211.479 186.344 205.35 187.36C202.575 187.832 199.982 189.057 197.855 190.901C195.729 192.746 194.149 195.139 193.29 197.82C187.56 215.72 174.58 258.09 172.29 281.89C170.56 285.028 168.997 288.256 167.61 291.56C166 295.94 166.39 296.09 166.93 296.19C168.39 296.46 170.05 288.6 170.67 290.5C171.29 292.4 167.52 299.87 169.05 300.09C171.05 300.37 172.64 292.09 172.83 291.43C173.02 290.77 174.01 290.98 173.83 291.6C173.54 292.48 170.73 301.81 172.69 302.11C173.77 302.27 173.89 300.3 173.89 300.3C173.89 300.3 175.89 291.37 176.8 291.55C177.71 291.73 176.74 297 176.28 298.76C175.82 300.52 176.46 301.41 177.4 300.98C178.04 300.68 179.57 295.33 179.99 293.59C180.41 291.85 181.46 287.03 182.87 289.82C184.28 292.61 186.42 294.23 187.3 294.27C187.498 294.247 187.685 294.165 187.837 294.035C187.988 293.905 188.097 293.733 188.15 293.541C188.203 293.348 188.197 293.144 188.132 292.955C188.068 292.766 187.949 292.601 187.79 292.48C187.033 291.741 186.383 290.899 185.86 289.98C185.393 289.264 185.055 288.472 184.86 287.64C184.457 285.981 184.222 284.286 184.16 282.58L184 281.58C186.24 270.49 192.69 237.94 202 217.15L205.82 225.01L207.48 230.83L197.3 255.96L240.72 255.39L234.24 230.45L242.11 204.45C250.62 204.64 272.47 204.96 276.11 203.31C280.69 201.31 304.38 171.39 304.38 171.39C305.924 170.19 307.403 168.908 308.81 167.55C308.81 167.55 310.25 166.34 309.38 165.44Z" fill="#FFBE9D"/>
<path d="M195.39 237.39C196.65 233.09 203.12 211.83 203.12 211.83C203.12 211.83 206.3 229.16 205.46 231.25C204.687 233.039 203.774 234.765 202.73 236.41C195.39 247.58 196.35 253.17 196.35 253.17L240.7 251.82C240.8 245.62 237.13 231.2 236.37 228.9C235.61 226.6 238.14 219.07 238.14 219.07C238.14 219.07 243.14 213.98 242.96 211.36C242.865 209.007 242.574 206.665 242.09 204.36L269.09 205.36L268.24 187.06L229.46 183.18C228.11 186.99 215.9 185.12 215.9 185.12C202.72 185.56 201.9 187.98 196.42 192.24C190.94 196.5 181.87 233.06 181.87 233.06L195.39 237.39Z" fill="#FF725E"/>
<path d="M221.61 233.06C220.841 233.197 220.059 233.238 219.28 233.18C217.83 233.18 215.84 233.08 213.65 232.86C211.46 232.64 209.48 232.33 208.07 232.05C207.292 231.95 206.53 231.755 205.8 231.47C206.582 231.47 207.362 231.544 208.13 231.69C209.55 231.87 211.52 232.12 213.7 232.34C215.88 232.56 217.86 232.71 219.29 232.81C220.069 232.82 220.846 232.904 221.61 233.06Z" fill="#263238"/>
<path d="M224.65 229.29C223.881 229.667 223.068 229.945 222.23 230.12C218.24 231.168 214.124 231.656 210 231.57C209.147 231.598 208.293 231.517 207.46 231.33C208.302 231.224 209.151 231.18 210 231.2C211.57 231.15 213.73 231.04 216.11 230.76C218.49 230.48 220.61 230.08 222.11 229.76C222.943 229.538 223.792 229.38 224.65 229.29Z" fill="#263238"/>
<path d="M239.57 212.47C239.55 213.232 239.446 213.99 239.26 214.73C239 216.12 238.6 218.02 238.09 220.1C237.58 222.18 237.09 224.1 236.65 225.4C236.473 226.144 236.211 226.865 235.87 227.55C235.926 226.79 236.067 226.039 236.29 225.31C236.67 223.75 237.1 221.95 237.58 219.98C238.06 218.01 238.52 216.21 238.9 214.65C239.035 213.899 239.26 213.167 239.57 212.47Z" fill="#263238"/>
<path d="M195.86 234.84C193.546 234.483 191.263 233.951 189.03 233.25C186.748 232.716 184.508 232.014 182.33 231.15C184.642 231.513 186.925 232.044 189.16 232.74C191.443 233.272 193.682 233.974 195.86 234.84Z" fill="#263238"/>
<path d="M242.57 204.14C242.193 204.205 241.807 204.205 241.43 204.14C240.385 204.033 239.36 203.787 238.38 203.41C236.744 202.795 235.255 201.845 234.008 200.621C232.761 199.396 231.784 197.924 231.14 196.3C230.428 194.513 230.124 192.59 230.25 190.67C230.295 189.087 230.768 187.545 231.62 186.21C232.219 185.31 233.114 184.649 234.15 184.34C234.427 184.264 234.713 184.227 235 184.23C235.2 184.23 235.3 184.23 235.3 184.23C235.3 184.23 234.88 184.23 234.21 184.5C233.26 184.851 232.454 185.509 231.92 186.37C230.56 188.51 230.18 192.42 231.63 196.07C232.305 197.791 233.361 199.336 234.72 200.59C235.833 201.616 237.115 202.441 238.51 203.03C239.819 203.547 241.18 203.919 242.57 204.14Z" fill="#263238"/>
<path d="M265.88 205C265.63 201.933 265.55 198.855 265.64 195.78C265.562 192.707 265.655 189.632 265.92 186.57C266.17 189.633 266.25 192.708 266.16 195.78C266.244 198.856 266.15 201.935 265.88 205Z" fill="#263238"/>
<path d="M229.2 184.3C229.31 182.07 229.54 179.55 229.54 179.55C229.54 179.55 235.06 178.94 235.39 173.24C235.72 167.54 235.39 154.39 235.39 154.39L225.39 149.27L214.29 158L216 186.5L226.18 187.15C226.958 187.172 227.713 186.884 228.279 186.349C228.845 185.815 229.176 185.078 229.2 184.3Z" fill="#FFBE9D"/>
<path d="M230.19 168.73C230.19 168.73 230.19 168.84 230.1 168.97C230.026 169.064 229.929 169.139 229.82 169.188C229.71 169.237 229.59 169.258 229.47 169.25C228.83 169.25 228.21 168.51 227.99 167.65C227.885 167.233 227.885 166.797 227.99 166.38C228.01 166.198 228.076 166.024 228.181 165.874C228.286 165.724 228.426 165.602 228.59 165.52C228.724 165.464 228.875 165.464 229.01 165.52C229.11 165.569 229.19 165.65 229.24 165.75C229.31 165.92 229.24 166.03 229.24 166.02C229.24 166.01 229.24 165.92 229.14 165.82C229.088 165.748 229.011 165.699 228.924 165.68C228.837 165.662 228.747 165.676 228.67 165.72C228.547 165.794 228.445 165.898 228.374 166.022C228.302 166.146 228.263 166.287 228.26 166.43C228.176 166.802 228.176 167.188 228.26 167.56C228.46 168.34 229 168.97 229.48 169.03C229.574 169.043 229.669 169.036 229.761 169.01C229.852 168.984 229.937 168.94 230.01 168.88C230.13 168.8 230.17 168.72 230.19 168.73Z" fill="#EB996E"/>
<path d="M238.82 151.31C238.05 148.69 235.26 147.39 232.72 146.67C228.85 145.57 224.67 145.09 220.89 146.48C217.11 147.87 212.57 150.31 212.57 154.48C210.34 154.3 209.06 156.25 208.18 158.67C207.617 160.144 207.28 161.695 207.18 163.27C206.9 168.73 205.37 176.27 201.83 180.27C199.83 182.5 197.06 184.04 195.92 186.82C194.92 189.23 195.44 192.09 194.51 194.53C193.68 196.68 191.85 198.21 190.51 200.08C189.145 202.201 188.341 204.635 188.175 207.152C188.009 209.669 188.485 212.188 189.56 214.47C190.642 216.694 192.166 218.674 194.038 220.29C195.91 221.906 198.092 223.124 200.45 223.87C205.121 225.291 210.102 225.34 214.8 224.01C218.326 223.167 221.615 221.536 224.42 219.24C227.29 216.896 229.262 213.632 230 210C230.71 205.92 229.57 201.77 228.72 197.71C226.06 184.88 226.82 184.21 230.18 172.3C230.26 172.09 230.3 171.87 230.36 171.66C230.42 171.45 230.45 171.35 230.49 171.19C230.585 170.719 230.636 170.24 230.64 169.76C230.149 169.942 229.616 169.981 229.105 169.871C228.593 169.761 228.123 169.508 227.75 169.14C227.376 168.748 227.116 168.262 226.996 167.734C226.876 167.206 226.902 166.655 227.07 166.14C227.306 165.577 227.657 165.07 228.102 164.651C228.546 164.232 229.074 163.912 229.65 163.71C230.76 163.25 231.95 163.01 233.04 162.5C235.35 161.4 236.95 159.12 238.04 156.73C238.936 155.074 239.213 153.152 238.82 151.31Z" fill="#263238"/>
<path d="M230.59 169C230.801 169.312 230.976 169.648 231.11 170C231.41 170.63 231.81 171.52 232.25 172.55L232.33 172.74H232.12L231.12 172.83C230.43 172.83 229.85 172.96 229.17 172.95C229.111 172.937 229.056 172.909 229.01 172.868C228.965 172.828 228.93 172.777 228.91 172.72C228.88 172.629 228.88 172.531 228.91 172.44C228.933 172.305 228.963 172.172 229 172.04L229.18 171.33C229.27 170.856 229.411 170.394 229.6 169.95C229.581 170.433 229.511 170.912 229.39 171.38L229.25 172.09C229.2 172.33 229.11 172.7 229.25 172.67C229.75 172.67 230.46 172.56 231.12 172.52L232.12 172.43L231.99 172.65C231.56 171.65 231.2 170.71 230.99 170.06C230.806 169.728 230.671 169.371 230.59 169Z" fill="#FF725E"/>
<path d="M196.35 253.17L240.7 251.82L260 327.16L256.45 413.58H233L235.87 329L218.72 276.55L221.36 416.93L197.66 417.28L195.17 285.33C195.06 281.66 193.86 273.39 194.31 269.75L196.35 253.17Z" fill="#263238"/>
<path d="M224.62 277.62C223.894 277.666 223.165 277.622 222.45 277.49C221.11 277.33 219.28 277.05 217.27 276.65C215.26 276.25 213.46 275.79 212.16 275.42C211.465 275.267 210.793 275.025 210.16 274.7C210.16 274.55 213.42 275.33 217.42 276.14C221.42 276.95 224.64 277.47 224.62 277.62Z" fill="#455A64"/>
<path d="M256.21 408.84C256.21 408.98 250.9 409.1 244.35 409.1C237.8 409.1 232.48 408.98 232.48 408.84C232.48 408.7 237.79 408.58 244.35 408.58C250.91 408.58 256.21 408.69 256.21 408.84Z" fill="#455A64"/>
<path d="M221.15 413.28C221.15 413.43 215.99 413.54 209.63 413.54C203.27 413.54 198.12 413.43 198.12 413.28C198.12 413.13 203.28 413.02 209.63 413.02C215.98 413.02 221.15 413.14 221.15 413.28Z" fill="#455A64"/>
<path d="M218.09 412.92C217.95 412.92 217.33 382.25 216.7 344.42C216.07 306.59 215.7 275.9 215.83 275.9C215.96 275.9 216.6 306.56 217.22 344.41C217.84 382.26 218.24 412.92 218.09 412.92Z" fill="#455A64"/>
<path d="M253.06 408.84C253.049 408.704 253.049 408.566 253.06 408.43V407.23C253.06 406.15 253.14 404.6 253.2 402.63C253.34 398.63 253.54 392.82 253.79 385.7C254.33 371.38 255.09 351.64 255.92 329.85C255.92 329.64 255.92 329.44 255.92 329.26V329.33C250.67 308.33 245.92 289.27 242.47 275.48L238.47 259.17C238.01 257.26 237.66 255.77 237.41 254.73C237.29 254.24 237.21 253.86 237.14 253.57C237.101 253.44 237.077 253.306 237.07 253.17C237.122 253.296 237.162 253.427 237.19 253.56C237.27 253.84 237.37 254.22 237.51 254.7C237.78 255.7 238.17 257.22 238.67 259.12C239.67 262.98 241.08 268.54 242.84 275.39C246.32 289.17 251.12 308.18 256.44 329.21V329.28C256.44 329.46 256.44 329.67 256.44 329.87C255.55 351.66 254.74 371.39 254.15 385.71C253.84 392.84 253.58 398.61 253.4 402.63C253.3 404.63 253.22 406.15 253.17 407.23C253.17 407.74 253.11 408.14 253.1 408.43C253.101 408.568 253.088 408.705 253.06 408.84Z" fill="#455A64"/>
<path d="M245.41 327.5C243.726 328.054 241.99 328.439 240.23 328.65C238.07 329.02 236.23 329.28 235.4 329.32V329.12C235.67 329.2 235.81 329.25 235.81 329.29C235.81 329.33 235.64 329.29 235.36 329.29H234.76L235.36 329.11C236.14 328.88 237.98 328.5 240.14 328.11C241.872 327.734 243.638 327.53 245.41 327.5Z" fill="#455A64"/>
<path d="M245 330.37C243.44 330.441 241.877 330.371 240.33 330.16C238.768 330.128 237.212 329.957 235.68 329.65C238.805 329.395 241.951 329.638 245 330.37Z" fill="#455A64"/>
<path opacity="0.2" d="M196.16 254.76C196.685 255.434 197.347 255.991 198.101 256.392C198.856 256.794 199.687 257.031 200.54 257.09C202.326 257.302 204.133 257.268 205.91 256.99C217.36 255.72 229.49 254.55 240.7 251.82C226.19 252.63 210.86 252.36 196.35 253.17L196.2 254.41" fill="black"/>
<g opacity="0.2">
<path opacity="0.2" d="M211.11 275.21L219.29 306.95L218.72 276.55L211.11 275.21Z" fill="black"/>
</g>
</g>
<defs>
<filter id="filter0_d" x="0.855813" y="7.85581" width="470.577" height="470.577" filterUnits="userSpaceOnUse" color-interpolation-filters="sRGB">
<feFlood flood-opacity="0" result="BackgroundImageFix"/>
<feColorMatrix in="SourceAlpha" type="matrix" values="0 0 0 0 0 0 0 0 0 0 0 0 0 0 0 0 0 0 127 0"/>
<feOffset dx="5.14419" dy="5.14419"/>
<feGaussianBlur stdDeviation="5.14419"/>
<feColorMatrix type="matrix" values="0 0 0 0 0.563559 0 0 0 0 0.572596 0 0 0 0 0.595833 0 0 0 0.2 0"/>
<feBlend mode="normal" in2="BackgroundImageFix" result="effect1_dropShadow"/>
<feBlend mode="normal" in="SourceGraphic" in2="effect1_dropShadow" result="shape"/>
</filter>
<filter id="filter1_d" x="139.856" y="-5.14419" width="326.577" height="444.577" filterUnits="userSpaceOnUse" color-interpolation-filters="sRGB">
<feFlood flood-opacity="0" result="BackgroundImageFix"/>
<feColorMatrix in="SourceAlpha" type="matrix" values="0 0 0 0 0 0 0 0 0 0 0 0 0 0 0 0 0 0 127 0"/>
<feOffset dx="5.14419" dy="5.14419"/>
<feGaussianBlur stdDeviation="5.14419"/>
<feColorMatrix type="matrix" values="0 0 0 0 0.563559 0 0 0 0 0.572596 0 0 0 0 0.595833 0 0 0 0.2 0"/>
<feBlend mode="normal" in2="BackgroundImageFix" result="effect1_dropShadow"/>
<feBlend mode="normal" in="SourceGraphic" in2="effect1_dropShadow" result="shape"/>
</filter>
<clipPath id="clip0">
<rect width="306" height="424" fill="white" transform="translate(145)"/>
</clipPath>
</defs>
</svg>
