<svg xmlns="http://www.w3.org/2000/svg" height="512px" viewBox="0 0 48 48" width="512px"><g><g id="18-dashboard,-gauge,-performance,-speed,-speedometer" fill="none" fill-rule="evenodd"><path id="Shape" d="m24 10c9.9411255 0 18 8.0588745 18 18 0 3.1862388-.8298304 6.2539017-2.3837314 8.9574388-.2895791.503821-.8533334.6992081-1.3938367.4085866l-3.4641017-2c-.4782926-.2761424-.6421677-.8877328-.3660254-1.3660254.256418-.4441289.8456506-.6556343 1.3660254-.3660254l2.5746005 1.4856333c.94421-1.8965777 1.5036459-3.9681615 1.6363007-6.1190334l-2.9692314-.0005745c-.5522847 0-1-.4477153-1-1 0-.5128358.4197346-.9992969 1-1l2.9693014.0007031c-.134846-2.1882392-.7095261-4.2574825-1.6367243-6.1204138l-2.5742469 1.4857361c-.4782926.2761424-1.089883.1122672-1.3660254-.3660254-.2564179-.4441289-.1474638-1.0560683.3660254-1.3660254l2.572019-1.4859148c-1.1801234-1.7736269-2.7047821-3.2982856-4.478409-4.478409l-1.4859148 2.572019c-.2761424.4782926-.8877328.6421677-1.3660254.3660254-.4441289-.256418-.651329-.8754119-.3660254-1.3660254l1.4857361-2.5742469c-1.8626469-.9270566-3.9315426-1.5017027-6.1194113-1.6366625l-.0002994 2.9692396c0 .5522847-.4477153 1-1 1-.5128358 0-.9992969-.4235457-1-1l.0007031-2.9693014c-2.1882392.134846-4.2574825.7095261-6.1204138 1.6367243l1.4857361 2.5742469c.2761424.4782926.1122672 1.089883-.3660254 1.3660254-.4441289.2564179-1.0205506.1374954-1.3660254-.3660254l-1.4859148-2.572019c-1.7736269 1.1801234-3.2982856 2.7047821-4.478409 4.478409l2.572019 1.4859148c.4782926.2761424.6421677.8877328.3660254 1.3660254-.256418.4441289-.7862778.653658-1.3660254.3660254l-2.57424687-1.4857361c-.92719821 1.8629313-1.50187829 3.9321746-1.63672429 6.1204138l2.96930136-.0007031c.5522847 0 1 .4477153 1 1 0 .5128358-.4179321 1.0009122-1 1l-2.96921089.0009122c.13269654 2.1508316.6921602 4.2224032 1.63645189 6.1190358l2.5744288-1.4859734c.4782926-.2761424 1.089883-.1122672 1.3660254.3660254.2564179.4441289.1442039 1.0738927-.3660254 1.3660254l-3.46410166 2c-.44412887.2564179-1.06294969.1689797-1.4061762-.4300896-1.54601342-2.6984195-2.37139194-5.7582384-2.37139194-8.9359358 0-9.9411255 8.0588745-18 18-18zm6.7765858 10.2886621c.435973.270052.6304164.862358.3235362 1.3767077l-3.9807781 6.4267459c1.1463192.9162115 1.8806561 2.3262911 1.8806561 3.9078843 0 2.7614237-2.2385763 5-5 5s-5-2.2385763-5-5 2.2385763-5 5-5c.4610851 0 .9075931.062412 1.3315368.1792488l4.0683412-6.5670505c.2908253-.4695094.9071983-.6143615 1.3767078-.3235362zm-6.7765858 8.7113379c-1.6568542 0-3 1.3431458-3 3s1.3431458 3 3 3 3-1.3431458 3-3-1.3431458-3-3-3z" fill="#5CD9D8" fill-rule="nonzero" data-original="#000000" class="active-path" data-old_color="rgb(0,0,0)"/></g></g> </svg>
