<svg id="Layer_1" data-name="Layer 1" xmlns="http://www.w3.org/2000/svg" viewBox="-6 -4 30 34"><defs><style>.cls-1{fill:#5cd9d8;}</style></defs><title>portfolio</title><path class="cls-1" d="M18.5,23H5.5A2.41,2.41,0,0,1,3,20.71V3.29A2.41,2.41,0,0,1,5.5,1h13A2.41,2.41,0,0,1,21,3.29V20.71A2.41,2.41,0,0,1,18.5,23ZM5.5,1.92A1.44,1.44,0,0,0,4,3.29V20.71a1.44,1.44,0,0,0,1.5,1.37h13A1.44,1.44,0,0,0,20,20.71V3.29a1.44,1.44,0,0,0-1.5-1.37Z" transform="translate(-3 -1)"/><path class="cls-1" d="M17.5,16.58H6.5a.46.46,0,1,1,0-.91h11a.46.46,0,1,1,0,.91Z" transform="translate(-3 -1)"/><path class="cls-1" d="M17.5,12.92H6.5a.46.46,0,1,1,0-.92h11a.46.46,0,1,1,0,.92Z" transform="translate(-3 -1)"/><path class="cls-1" d="M17.5,20.25H6.5a.46.46,0,1,1,0-.92h11a.46.46,0,1,1,0,.92Z" transform="translate(-3 -1)"/><path class="cls-1" d="M10.5,9.25h-2A1.44,1.44,0,0,1,7,7.88V5.12A1.44,1.44,0,0,1,8.5,3.75h2a.48.48,0,0,1,.5.46.48.48,0,0,1-.5.46h-2a.48.48,0,0,0-.5.45V7.88a.48.48,0,0,0,.5.45h2a.46.46,0,1,1,0,.92Z" transform="translate(-3 -1)"/><path class="cls-1" d="M15,9.25a.5.5,0,0,1-.48-.33L13,4.34a.45.45,0,0,1,.34-.57.51.51,0,0,1,.62.31L15,7.2l1-3.12a.51.51,0,0,1,.62-.31.45.45,0,0,1,.34.57l-1.5,4.58A.49.49,0,0,1,15,9.25Z" transform="translate(-3 -1)"/></svg>