<svg id="Layer_1" data-name="Layer 1" xmlns="http://www.w3.org/2000/svg" viewBox="0 0 20 20"><defs><style>.cls-1{fill:#5cd9d8;}</style></defs><title>collaboration</title><path class="cls-1" d="M19.42,3.56h-1.8V2.62a.62.62,0,0,0-1.24,0v.94H7.62V2.62a.62.62,0,0,0-1.24,0v.94H4.58A2.59,2.59,0,0,0,2,6.14V19.42A2.59,2.59,0,0,0,4.58,22H19.42A2.59,2.59,0,0,0,22,19.42V6.14A2.59,2.59,0,0,0,19.42,3.56ZM4.58,4.81h1.8v.63a.62.62,0,0,0,1.24,0V4.81h8.76v.63a.62.62,0,0,0,1.24,0V4.81h1.8a1.34,1.34,0,0,1,1.33,1.33V7.62H3.25V6.14A1.34,1.34,0,0,1,4.58,4.81ZM19.42,20.75H4.58a1.34,1.34,0,0,1-1.33-1.33V8.88h17.5V19.42A1.34,1.34,0,0,1,19.42,20.75Z" transform="translate(-2 -2)"/></svg>