<svg width="512px" height="512px" viewBox="0 0 32 32" fill="none" xmlns="http://www.w3.org/2000/svg">
<path d="M22.125 11.25H15.375C15.2755 11.25 15.1802 11.2895 15.1098 11.3598C15.0395 11.4302 15 11.5255 15 11.625V14.25H8.625C8.52554 14.25 8.43016 14.2895 8.35983 14.3598C8.28951 14.4302 8.25 14.5255 8.25 14.625V17.25H1.875C1.77554 17.25 1.68016 17.2895 1.60984 17.3598C1.53951 17.4302 1.5 17.5255 1.5 17.625V22.875C1.5 22.9745 1.53951 23.0698 1.60984 23.1402C1.68016 23.2105 1.77554 23.25 1.875 23.25H22.125C22.2245 23.25 22.3198 23.2105 22.3902 23.1402C22.4605 23.0698 22.5 22.9745 22.5 22.875V11.625C22.5 11.5255 22.4605 11.4302 22.3902 11.3598C22.3198 11.2895 22.2245 11.25 22.125 11.25ZM9 15H15V22.5H9V15ZM2.25 18H8.25V22.5H2.25V18ZM21.75 22.5H15.75V12H21.75V22.5Z" fill="#5CD9D8" stroke="#5CD9D8" stroke-width="0.3"/>
<path d="M22.4804 3.2978C22.4585 3.23242 22.419 3.17434 22.3663 3.12994C22.3136 3.08554 22.2496 3.05654 22.1814 3.04612L20.3064 2.75962L19.4643 0.96567C19.434 0.901195 19.386 0.846671 19.3259 0.808477C19.2658 0.770283 19.196 0.75 19.1248 0.75C19.0536 0.75 18.9838 0.770283 18.9237 0.808477C18.8636 0.846671 18.8156 0.901195 18.7854 0.96567L17.9436 2.75962L16.0686 3.04612C16.0004 3.0565 15.9364 3.08549 15.8836 3.1299C15.8308 3.17432 15.7913 3.23243 15.7694 3.29784C15.7475 3.36326 15.7441 3.43344 15.7595 3.50068C15.7749 3.56792 15.8086 3.6296 15.8568 3.67894L17.2246 5.08087L16.9012 7.06486C16.89 7.13422 16.8985 7.20532 16.9258 7.27008C16.9531 7.33483 16.998 7.39062 17.0554 7.4311C17.1128 7.47157 17.1804 7.4951 17.2506 7.499C17.3207 7.50291 17.3906 7.48703 17.4521 7.45317L19.1248 6.52856L20.7975 7.45317C20.8591 7.48722 20.929 7.50325 20.9993 7.49942C21.0696 7.4956 21.1374 7.47207 21.1949 7.43154C21.2524 7.39101 21.2974 7.3351 21.3247 7.27022C21.3519 7.20533 21.3604 7.13408 21.349 7.06462L21.0256 5.08064L22.3935 3.6787C22.4416 3.62933 22.4751 3.56766 22.4905 3.50047C22.5058 3.43327 22.5023 3.36315 22.4804 3.2978ZM20.3564 4.69223C20.3154 4.73424 20.2849 4.78528 20.2672 4.84126C20.2495 4.89723 20.2452 4.95657 20.2547 5.0145L20.4844 6.42309L19.3062 5.77195C19.2507 5.74126 19.1883 5.72515 19.1248 5.72515C19.0614 5.72515 18.9989 5.74126 18.9434 5.77195L17.7652 6.42323L17.9949 5.01464C18.0043 4.95671 18 4.89737 17.9824 4.8414C17.9647 4.78543 17.9341 4.73438 17.8931 4.69237L16.9029 3.6773L18.2545 3.47105C18.3154 3.46174 18.373 3.43759 18.4223 3.40073C18.4716 3.36387 18.5111 3.31543 18.5373 3.25969L19.1248 2.00761L19.7124 3.25945C19.7386 3.31519 19.778 3.36363 19.8274 3.40049C19.8767 3.43736 19.9343 3.46151 19.9952 3.47081L21.3467 3.67706L20.3564 4.69223Z" fill="#5CD9D8" stroke="#5CD9D8" stroke-width="0.3"/>
<path d="M1.875 12.375H6C6.06964 12.375 6.1379 12.3556 6.19713 12.319C6.25637 12.2824 6.30425 12.23 6.33539 12.1677L7.73175 9.37501H12.75C12.8136 9.37501 12.8762 9.35883 12.9318 9.328C12.9874 9.29717 13.0343 9.25269 13.068 9.19876L14.943 6.19875C14.9957 6.11441 15.0128 6.01259 14.9904 5.91568C14.968 5.81877 14.9081 5.73471 14.8237 5.682C14.7394 5.62929 14.6376 5.61224 14.5407 5.6346C14.4438 5.65697 14.3597 5.71691 14.307 5.80125L12.5422 8.62501H7.5C7.43036 8.62501 7.3621 8.6444 7.30287 8.68101C7.24363 8.71762 7.19575 8.77001 7.16461 8.83229L5.76825 11.625H1.875C1.77554 11.625 1.68016 11.6645 1.60984 11.7348C1.53951 11.8052 1.5 11.9006 1.5 12C1.5 12.0995 1.53951 12.1949 1.60984 12.2652C1.68016 12.3355 1.77554 12.375 1.875 12.375Z" fill="#5CD9D8" stroke="#5CD9D8" stroke-width="0.3"/>
</svg>
