<svg width="125" height="54" viewBox="0 0 125 54" fill="none" xmlns="http://www.w3.org/2000/svg">
<g opacity="0.1">
<circle cx="2.10345" cy="51.3449" r="2.10345" transform="rotate(-90 2.10345 51.3449)" fill="#5CD9D8"/>
<circle cx="2.10345" cy="43.138" r="2.10345" transform="rotate(-90 2.10345 43.138)" fill="#5CD9D8"/>
<circle cx="2.10345" cy="34.9311" r="2.10345" transform="rotate(-90 2.10345 34.9311)" fill="#5CD9D8"/>
<circle cx="2.10345" cy="26.7242" r="2.10345" transform="rotate(-90 2.10345 26.7242)" fill="#5CD9D8"/>
<circle cx="2.10345" cy="18.5173" r="2.10345" transform="rotate(-90 2.10345 18.5173)" fill="#5CD9D8"/>
<circle cx="2.10345" cy="10.3104" r="2.10345" transform="rotate(-90 2.10345 10.3104)" fill="#5CD9D8"/>
<circle cx="2.10345" cy="2.10346" r="2.10345" transform="rotate(-90 2.10345 2.10346)" fill="#5CD9D8"/>
<circle cx="8.41369" cy="51.3449" r="2.10345" transform="rotate(-90 8.41369 51.3449)" fill="#5CD9D8"/>
<circle cx="8.41369" cy="43.138" r="2.10345" transform="rotate(-90 8.41369 43.138)" fill="#5CD9D8"/>
<circle cx="8.41369" cy="34.9311" r="2.10345" transform="rotate(-90 8.41369 34.9311)" fill="#5CD9D8"/>
<circle cx="8.41369" cy="26.7242" r="2.10345" transform="rotate(-90 8.41369 26.7242)" fill="#5CD9D8"/>
<circle cx="8.41369" cy="18.5173" r="2.10345" transform="rotate(-90 8.41369 18.5173)" fill="#5CD9D8"/>
<circle cx="8.41369" cy="10.3104" r="2.10345" transform="rotate(-90 8.41369 10.3104)" fill="#5CD9D8"/>
<circle cx="8.41369" cy="2.10346" r="2.10345" transform="rotate(-90 8.41369 2.10346)" fill="#5CD9D8"/>
<circle cx="14.7242" cy="51.3449" r="2.10345" transform="rotate(-90 14.7242 51.3449)" fill="#5CD9D8"/>
<circle cx="14.7242" cy="43.138" r="2.10345" transform="rotate(-90 14.7242 43.138)" fill="#5CD9D8"/>
<circle cx="14.7242" cy="34.9311" r="2.10345" transform="rotate(-90 14.7242 34.9311)" fill="#5CD9D8"/>
<circle cx="14.7242" cy="26.7242" r="2.10345" transform="rotate(-90 14.7242 26.7242)" fill="#5CD9D8"/>
<circle cx="14.7242" cy="18.5173" r="2.10345" transform="rotate(-90 14.7242 18.5173)" fill="#5CD9D8"/>
<circle cx="14.7242" cy="10.3104" r="2.10345" transform="rotate(-90 14.7242 10.3104)" fill="#5CD9D8"/>
<circle cx="14.7242" cy="2.10346" r="2.10345" transform="rotate(-90 14.7242 2.10346)" fill="#5CD9D8"/>
<circle cx="21.0345" cy="51.3449" r="2.10345" transform="rotate(-90 21.0345 51.3449)" fill="#5CD9D8"/>
<circle cx="21.0345" cy="43.138" r="2.10345" transform="rotate(-90 21.0345 43.138)" fill="#5CD9D8"/>
<circle cx="21.0345" cy="34.9311" r="2.10345" transform="rotate(-90 21.0345 34.9311)" fill="#5CD9D8"/>
<circle cx="21.0345" cy="26.7242" r="2.10345" transform="rotate(-90 21.0345 26.7242)" fill="#5CD9D8"/>
<circle cx="21.0345" cy="18.5173" r="2.10345" transform="rotate(-90 21.0345 18.5173)" fill="#5CD9D8"/>
<circle cx="21.0345" cy="10.3104" r="2.10345" transform="rotate(-90 21.0345 10.3104)" fill="#5CD9D8"/>
<circle cx="21.0345" cy="2.10346" r="2.10345" transform="rotate(-90 21.0345 2.10346)" fill="#5CD9D8"/>
<circle cx="27.345" cy="51.3449" r="2.10345" transform="rotate(-90 27.345 51.3449)" fill="#5CD9D8"/>
<circle cx="27.345" cy="43.138" r="2.10345" transform="rotate(-90 27.345 43.138)" fill="#5CD9D8"/>
<circle cx="27.345" cy="34.9311" r="2.10345" transform="rotate(-90 27.345 34.9311)" fill="#5CD9D8"/>
<circle cx="27.345" cy="26.7242" r="2.10345" transform="rotate(-90 27.345 26.7242)" fill="#5CD9D8"/>
<circle cx="27.345" cy="18.5173" r="2.10345" transform="rotate(-90 27.345 18.5173)" fill="#5CD9D8"/>
<circle cx="27.345" cy="10.3104" r="2.10345" transform="rotate(-90 27.345 10.3104)" fill="#5CD9D8"/>
<circle cx="27.345" cy="2.10346" r="2.10345" transform="rotate(-90 27.345 2.10346)" fill="#5CD9D8"/>
<circle cx="33.6552" cy="51.3449" r="2.10345" transform="rotate(-90 33.6552 51.3449)" fill="#5CD9D8"/>
<circle cx="33.6552" cy="43.138" r="2.10345" transform="rotate(-90 33.6552 43.138)" fill="#5CD9D8"/>
<circle cx="33.6552" cy="34.9311" r="2.10345" transform="rotate(-90 33.6552 34.9311)" fill="#5CD9D8"/>
<circle cx="33.6552" cy="26.7242" r="2.10345" transform="rotate(-90 33.6552 26.7242)" fill="#5CD9D8"/>
<circle cx="33.6552" cy="18.5173" r="2.10345" transform="rotate(-90 33.6552 18.5173)" fill="#5CD9D8"/>
<circle cx="33.6552" cy="10.3104" r="2.10345" transform="rotate(-90 33.6552 10.3104)" fill="#5CD9D8"/>
<circle cx="33.6552" cy="2.10346" r="2.10345" transform="rotate(-90 33.6552 2.10346)" fill="#5CD9D8"/>
<circle cx="39.9654" cy="51.3449" r="2.10345" transform="rotate(-90 39.9654 51.3449)" fill="#5CD9D8"/>
<circle cx="39.9654" cy="43.138" r="2.10345" transform="rotate(-90 39.9654 43.138)" fill="#5CD9D8"/>
<circle cx="39.9654" cy="34.9311" r="2.10345" transform="rotate(-90 39.9654 34.9311)" fill="#5CD9D8"/>
<circle cx="39.9654" cy="26.7242" r="2.10345" transform="rotate(-90 39.9654 26.7242)" fill="#5CD9D8"/>
<circle cx="39.9654" cy="18.5173" r="2.10345" transform="rotate(-90 39.9654 18.5173)" fill="#5CD9D8"/>
<circle cx="39.9654" cy="10.3104" r="2.10345" transform="rotate(-90 39.9654 10.3104)" fill="#5CD9D8"/>
<circle cx="39.9654" cy="2.10346" r="2.10345" transform="rotate(-90 39.9654 2.10346)" fill="#5CD9D8"/>
<circle cx="46.2759" cy="51.3449" r="2.10345" transform="rotate(-90 46.2759 51.3449)" fill="#5CD9D8"/>
<circle cx="46.2759" cy="43.138" r="2.10345" transform="rotate(-90 46.2759 43.138)" fill="#5CD9D8"/>
<circle cx="46.2759" cy="34.9311" r="2.10345" transform="rotate(-90 46.2759 34.9311)" fill="#5CD9D8"/>
<circle cx="46.2759" cy="26.7242" r="2.10345" transform="rotate(-90 46.2759 26.7242)" fill="#5CD9D8"/>
<circle cx="46.2759" cy="18.5173" r="2.10345" transform="rotate(-90 46.2759 18.5173)" fill="#5CD9D8"/>
<circle cx="46.2759" cy="10.3104" r="2.10345" transform="rotate(-90 46.2759 10.3104)" fill="#5CD9D8"/>
<circle cx="46.2759" cy="2.10346" r="2.10345" transform="rotate(-90 46.2759 2.10346)" fill="#5CD9D8"/>
<circle cx="52.5862" cy="51.3449" r="2.10345" transform="rotate(-90 52.5862 51.3449)" fill="#5CD9D8"/>
<circle cx="52.5862" cy="43.138" r="2.10345" transform="rotate(-90 52.5862 43.138)" fill="#5CD9D8"/>
<circle cx="52.5862" cy="34.9311" r="2.10345" transform="rotate(-90 52.5862 34.9311)" fill="#5CD9D8"/>
<circle cx="52.5862" cy="26.7242" r="2.10345" transform="rotate(-90 52.5862 26.7242)" fill="#5CD9D8"/>
<circle cx="52.5862" cy="18.5173" r="2.10345" transform="rotate(-90 52.5862 18.5173)" fill="#5CD9D8"/>
<circle cx="52.5862" cy="10.3104" r="2.10345" transform="rotate(-90 52.5862 10.3104)" fill="#5CD9D8"/>
<circle cx="52.5862" cy="2.10346" r="2.10345" transform="rotate(-90 52.5862 2.10346)" fill="#5CD9D8"/>
<circle cx="58.8964" cy="51.3449" r="2.10345" transform="rotate(-90 58.8964 51.3449)" fill="#5CD9D8"/>
<circle cx="58.8964" cy="43.138" r="2.10345" transform="rotate(-90 58.8964 43.138)" fill="#5CD9D8"/>
<circle cx="58.8964" cy="34.9311" r="2.10345" transform="rotate(-90 58.8964 34.9311)" fill="#5CD9D8"/>
<circle cx="58.8964" cy="26.7242" r="2.10345" transform="rotate(-90 58.8964 26.7242)" fill="#5CD9D8"/>
<circle cx="58.8964" cy="18.5173" r="2.10345" transform="rotate(-90 58.8964 18.5173)" fill="#5CD9D8"/>
<circle cx="58.8964" cy="10.3104" r="2.10345" transform="rotate(-90 58.8964 10.3104)" fill="#5CD9D8"/>
<circle cx="58.8964" cy="2.10346" r="2.10345" transform="rotate(-90 58.8964 2.10346)" fill="#5CD9D8"/>
</g>
<g opacity="0.1">
<circle cx="66.1034" cy="51.3449" r="2.10345" transform="rotate(-90 66.1034 51.3449)" fill="#5CD9D8"/>
<circle cx="66.1034" cy="43.138" r="2.10345" transform="rotate(-90 66.1034 43.138)" fill="#5CD9D8"/>
<circle cx="66.1034" cy="34.9311" r="2.10345" transform="rotate(-90 66.1034 34.9311)" fill="#5CD9D8"/>
<circle cx="66.1034" cy="26.7242" r="2.10345" transform="rotate(-90 66.1034 26.7242)" fill="#5CD9D8"/>
<circle cx="66.1034" cy="18.5173" r="2.10345" transform="rotate(-90 66.1034 18.5173)" fill="#5CD9D8"/>
<circle cx="66.1034" cy="10.3104" r="2.10345" transform="rotate(-90 66.1034 10.3104)" fill="#5CD9D8"/>
<circle cx="66.1034" cy="2.10346" r="2.10345" transform="rotate(-90 66.1034 2.10346)" fill="#5CD9D8"/>
<circle cx="72.4137" cy="51.3449" r="2.10345" transform="rotate(-90 72.4137 51.3449)" fill="#5CD9D8"/>
<circle cx="72.4137" cy="43.138" r="2.10345" transform="rotate(-90 72.4137 43.138)" fill="#5CD9D8"/>
<circle cx="72.4137" cy="34.9311" r="2.10345" transform="rotate(-90 72.4137 34.9311)" fill="#5CD9D8"/>
<circle cx="72.4137" cy="26.7242" r="2.10345" transform="rotate(-90 72.4137 26.7242)" fill="#5CD9D8"/>
<circle cx="72.4137" cy="18.5173" r="2.10345" transform="rotate(-90 72.4137 18.5173)" fill="#5CD9D8"/>
<circle cx="72.4137" cy="10.3104" r="2.10345" transform="rotate(-90 72.4137 10.3104)" fill="#5CD9D8"/>
<circle cx="72.4137" cy="2.10346" r="2.10345" transform="rotate(-90 72.4137 2.10346)" fill="#5CD9D8"/>
<circle cx="78.7242" cy="51.3449" r="2.10345" transform="rotate(-90 78.7242 51.3449)" fill="#5CD9D8"/>
<circle cx="78.7242" cy="43.138" r="2.10345" transform="rotate(-90 78.7242 43.138)" fill="#5CD9D8"/>
<circle cx="78.7242" cy="34.9311" r="2.10345" transform="rotate(-90 78.7242 34.9311)" fill="#5CD9D8"/>
<circle cx="78.7242" cy="26.7242" r="2.10345" transform="rotate(-90 78.7242 26.7242)" fill="#5CD9D8"/>
<circle cx="78.7242" cy="18.5173" r="2.10345" transform="rotate(-90 78.7242 18.5173)" fill="#5CD9D8"/>
<circle cx="78.7242" cy="10.3104" r="2.10345" transform="rotate(-90 78.7242 10.3104)" fill="#5CD9D8"/>
<circle cx="78.7242" cy="2.10346" r="2.10345" transform="rotate(-90 78.7242 2.10346)" fill="#5CD9D8"/>
<circle cx="85.0345" cy="51.3449" r="2.10345" transform="rotate(-90 85.0345 51.3449)" fill="#5CD9D8"/>
<circle cx="85.0345" cy="43.138" r="2.10345" transform="rotate(-90 85.0345 43.138)" fill="#5CD9D8"/>
<circle cx="85.0345" cy="34.9311" r="2.10345" transform="rotate(-90 85.0345 34.9311)" fill="#5CD9D8"/>
<circle cx="85.0345" cy="26.7242" r="2.10345" transform="rotate(-90 85.0345 26.7242)" fill="#5CD9D8"/>
<circle cx="85.0345" cy="18.5173" r="2.10345" transform="rotate(-90 85.0345 18.5173)" fill="#5CD9D8"/>
<circle cx="85.0345" cy="10.3104" r="2.10345" transform="rotate(-90 85.0345 10.3104)" fill="#5CD9D8"/>
<circle cx="85.0345" cy="2.10346" r="2.10345" transform="rotate(-90 85.0345 2.10346)" fill="#5CD9D8"/>
<circle cx="91.345" cy="51.3449" r="2.10345" transform="rotate(-90 91.345 51.3449)" fill="#5CD9D8"/>
<circle cx="91.345" cy="43.138" r="2.10345" transform="rotate(-90 91.345 43.138)" fill="#5CD9D8"/>
<circle cx="91.345" cy="34.9311" r="2.10345" transform="rotate(-90 91.345 34.9311)" fill="#5CD9D8"/>
<circle cx="91.345" cy="26.7242" r="2.10345" transform="rotate(-90 91.345 26.7242)" fill="#5CD9D8"/>
<circle cx="91.345" cy="18.5173" r="2.10345" transform="rotate(-90 91.345 18.5173)" fill="#5CD9D8"/>
<circle cx="91.345" cy="10.3104" r="2.10345" transform="rotate(-90 91.345 10.3104)" fill="#5CD9D8"/>
<circle cx="91.345" cy="2.10346" r="2.10345" transform="rotate(-90 91.345 2.10346)" fill="#5CD9D8"/>
<circle cx="97.6552" cy="51.3449" r="2.10345" transform="rotate(-90 97.6552 51.3449)" fill="#5CD9D8"/>
<circle cx="97.6552" cy="43.138" r="2.10345" transform="rotate(-90 97.6552 43.138)" fill="#5CD9D8"/>
<circle cx="97.6552" cy="34.9311" r="2.10345" transform="rotate(-90 97.6552 34.9311)" fill="#5CD9D8"/>
<circle cx="97.6552" cy="26.7242" r="2.10345" transform="rotate(-90 97.6552 26.7242)" fill="#5CD9D8"/>
<circle cx="97.6552" cy="18.5173" r="2.10345" transform="rotate(-90 97.6552 18.5173)" fill="#5CD9D8"/>
<circle cx="97.6552" cy="10.3104" r="2.10345" transform="rotate(-90 97.6552 10.3104)" fill="#5CD9D8"/>
<circle cx="97.6552" cy="2.10346" r="2.10345" transform="rotate(-90 97.6552 2.10346)" fill="#5CD9D8"/>
<circle cx="103.965" cy="51.3449" r="2.10345" transform="rotate(-90 103.965 51.3449)" fill="#5CD9D8"/>
<circle cx="103.965" cy="43.138" r="2.10345" transform="rotate(-90 103.965 43.138)" fill="#5CD9D8"/>
<circle cx="103.965" cy="34.9311" r="2.10345" transform="rotate(-90 103.965 34.9311)" fill="#5CD9D8"/>
<circle cx="103.965" cy="26.7242" r="2.10345" transform="rotate(-90 103.965 26.7242)" fill="#5CD9D8"/>
<circle cx="103.965" cy="18.5173" r="2.10345" transform="rotate(-90 103.965 18.5173)" fill="#5CD9D8"/>
<circle cx="103.965" cy="10.3104" r="2.10345" transform="rotate(-90 103.965 10.3104)" fill="#5CD9D8"/>
<circle cx="103.965" cy="2.10346" r="2.10345" transform="rotate(-90 103.965 2.10346)" fill="#5CD9D8"/>
<circle cx="110.276" cy="51.3449" r="2.10345" transform="rotate(-90 110.276 51.3449)" fill="#5CD9D8"/>
<circle cx="110.276" cy="43.138" r="2.10345" transform="rotate(-90 110.276 43.138)" fill="#5CD9D8"/>
<circle cx="110.276" cy="34.9311" r="2.10345" transform="rotate(-90 110.276 34.9311)" fill="#5CD9D8"/>
<circle cx="110.276" cy="26.7242" r="2.10345" transform="rotate(-90 110.276 26.7242)" fill="#5CD9D8"/>
<circle cx="110.276" cy="18.5173" r="2.10345" transform="rotate(-90 110.276 18.5173)" fill="#5CD9D8"/>
<circle cx="110.276" cy="10.3104" r="2.10345" transform="rotate(-90 110.276 10.3104)" fill="#5CD9D8"/>
<circle cx="110.276" cy="2.10346" r="2.10345" transform="rotate(-90 110.276 2.10346)" fill="#5CD9D8"/>
<circle cx="116.586" cy="51.3449" r="2.10345" transform="rotate(-90 116.586 51.3449)" fill="#5CD9D8"/>
<circle cx="116.586" cy="43.138" r="2.10345" transform="rotate(-90 116.586 43.138)" fill="#5CD9D8"/>
<circle cx="116.586" cy="34.9311" r="2.10345" transform="rotate(-90 116.586 34.9311)" fill="#5CD9D8"/>
<circle cx="116.586" cy="26.7242" r="2.10345" transform="rotate(-90 116.586 26.7242)" fill="#5CD9D8"/>
<circle cx="116.586" cy="18.5173" r="2.10345" transform="rotate(-90 116.586 18.5173)" fill="#5CD9D8"/>
<circle cx="116.586" cy="10.3104" r="2.10345" transform="rotate(-90 116.586 10.3104)" fill="#5CD9D8"/>
<circle cx="116.586" cy="2.10346" r="2.10345" transform="rotate(-90 116.586 2.10346)" fill="#5CD9D8"/>
<circle cx="122.896" cy="51.3449" r="2.10345" transform="rotate(-90 122.896 51.3449)" fill="#5CD9D8"/>
<circle cx="122.896" cy="43.138" r="2.10345" transform="rotate(-90 122.896 43.138)" fill="#5CD9D8"/>
<circle cx="122.896" cy="34.9311" r="2.10345" transform="rotate(-90 122.896 34.9311)" fill="#5CD9D8"/>
<circle cx="122.896" cy="26.7242" r="2.10345" transform="rotate(-90 122.896 26.7242)" fill="#5CD9D8"/>
<circle cx="122.896" cy="18.5173" r="2.10345" transform="rotate(-90 122.896 18.5173)" fill="#5CD9D8"/>
<circle cx="122.896" cy="10.3104" r="2.10345" transform="rotate(-90 122.896 10.3104)" fill="#5CD9D8"/>
<circle cx="122.896" cy="2.10346" r="2.10345" transform="rotate(-90 122.896 2.10346)" fill="#5CD9D8"/>
</g>
</svg>
