<svg width="1024" height="677" viewBox="0 0 1024 677" fill="none" xmlns="http://www.w3.org/2000/svg">
<path d="M335 91.9971C337.922 88.5988 341.013 85.3499 344.262 82.2625C347.346 79.0096 350.595 75.9179 353.997 73C354.125 73.1276 349.978 77.4782 344.734 82.7346C339.491 87.991 335.127 92.1247 335 91.9971Z" fill="#5CD9D8"/>
<path d="M353.997 91.9971C353.869 92.1247 349.506 87.9783 344.262 82.7346C341.013 79.6476 337.922 76.3986 335 73C338.398 75.9218 341.647 79.0132 344.734 82.2625C349.953 87.57 354.125 91.8696 353.997 91.9971Z" fill="#5CD9D8"/>
<path d="M30.9998 641.542C30.9047 641.429 30.8214 641.308 30.7512 641.179L30.11 640.145L27.7414 636.265L19.5363 622.53L19.9419 622.634L0.574288 633.782C0.574288 633.885 0.809835 632.915 0.692059 633.329V633.407L0.796752 633.575L0.979958 633.898L1.37255 634.558L2.13155 635.851C2.62882 636.713 3.1261 637.575 3.62338 638.438L6.50236 643.404L11.7368 652.457L11.3312 652.34L25.3858 644.49L29.4033 642.292L30.4764 641.723L30.882 641.529C30.4628 641.83 30.0258 642.106 29.5734 642.356L25.6475 644.645L11.5798 652.845L11.3181 653L11.1742 652.741L5.86114 643.688L2.95599 638.735C2.45871 637.873 1.96143 637.011 1.46415 636.149L0.692059 634.855L0.312557 634.196L0.12935 633.872L0.0246575 633.704V633.627C-0.0800325 634.028 0.181701 633.058 0.155528 633.161L19.654 622.142L19.9027 622L20.0466 622.246L28.0947 636.368L30.2801 640.248C30.5411 640.668 30.7812 641.099 30.9998 641.542Z" fill="#5CD9D8"/>
<path d="M262.716 485.189C262.716 485.189 262.532 484.747 262.111 484.059C261.501 483.071 260.574 482.313 259.478 481.903C258.698 481.603 257.855 481.497 257.024 481.594C256.193 481.692 255.399 481.989 254.712 482.462C253.876 483.037 253.239 483.851 252.886 484.794C252.532 485.737 252.481 486.765 252.737 487.738C252.994 488.711 253.547 489.583 254.321 490.237C255.096 490.891 256.054 491.295 257.069 491.396C257.903 491.476 258.744 491.352 259.518 491.035C260.292 490.718 260.974 490.217 261.505 489.578C262.228 488.691 262.644 487.598 262.69 486.461C262.69 485.656 262.585 485.163 262.69 485.163C262.898 485.564 263.002 486.01 262.993 486.461C263.058 487.688 262.68 488.898 261.926 489.876C261.365 490.599 260.628 491.171 259.784 491.539C258.94 491.907 258.015 492.058 257.095 491.98C255.945 491.881 254.855 491.433 253.975 490.697C253.094 489.961 252.466 488.975 252.177 487.872C251.889 486.77 251.953 485.607 252.362 484.543C252.772 483.478 253.505 482.565 254.462 481.929C255.229 481.422 256.112 481.111 257.032 481.025C257.951 480.938 258.878 481.08 259.728 481.436C260.869 481.932 261.8 482.804 262.361 483.903C262.584 484.296 262.706 484.738 262.716 485.189Z" fill="#5CD9D8"/>
<path d="M487.002 676.743C487.219 676.342 487.464 675.956 487.734 675.587L489.983 672.246C491.905 669.367 494.69 665.204 498.037 660.386L498.298 660L498.56 660.386L504.796 669.38L509.647 676.499L510 677H509.385C502.848 677 497.134 676.884 493.186 676.82L488.584 676.73C487.525 676.73 486.963 676.73 487.002 676.73C487.041 676.73 487.655 676.73 488.767 676.666L493.474 676.589C497.474 676.525 502.992 676.422 509.385 676.409L509.111 676.91L504.234 669.804C502.037 666.605 499.945 663.534 498.037 660.72H498.56C495.278 665.371 492.428 669.303 490.362 672.143L487.93 675.484C487.355 676.293 487.028 676.73 487.002 676.743Z" fill="#5CD9D8"/>
<path d="M1024 59.257C1023.78 59.6581 1023.54 60.0445 1023.27 60.4135L1021.02 63.7544C1019.09 66.6327 1016.31 70.7959 1012.96 75.6145L1012.7 76L1012.44 75.6145L1006.2 66.6198L1001.35 59.5011L1001 59H1001.61C1008.15 59 1013.87 59.1156 1017.81 59.1799L1022.42 59.2698C1023.47 59.2698 1024.04 59.2698 1024 59.2698C1023.96 59.2698 1023.34 59.2699 1022.23 59.3341L1017.53 59.4112C1013.53 59.4754 1008.01 59.5782 1001.61 59.5911L1001.89 59.09L1006.77 66.1958C1008.96 69.3953 1011.05 72.4664 1012.96 75.2804H1012.44C1015.72 70.6289 1018.57 66.6969 1020.64 63.8571L1023.07 60.5162C1023.64 59.7067 1023.97 59.2699 1024 59.257Z" fill="#5CD9D8"/>
<path d="M47.9998 15.0962C47.7287 14.7584 47.4878 14.3966 47.2799 14.0152L45.4801 11.0657C43.9682 8.53742 41.8804 4.98317 39.3606 0.714474L39.9186 0.861071L25.6819 9.34352C25.6819 9.47176 26.0059 8.09769 25.8439 8.68395V8.81221L25.9879 9.05038L26.2579 9.56336L26.8338 10.5527L27.9317 12.4947L30.0555 16.2687L33.9251 23.1756L33.3672 23.029C37.6148 20.5924 41.1965 18.5771 43.7522 17.1664L46.7579 15.5359C47.1207 15.305 47.507 15.1146 47.9098 14.968C47.6181 15.2021 47.3115 15.4163 46.9919 15.6091L44.1662 17.4412C41.7184 18.9801 38.1367 21.1969 33.7811 23.7984L33.4212 24L33.2232 23.6519C31.9993 21.5267 30.6674 19.2183 29.2816 16.7817L27.1217 13.0259L26.0239 11.0839L25.4479 10.0947L25.1779 9.58169L25.034 9.34352V9.21526C24.89 9.80152 25.2499 8.42746 25.2139 8.57403L39.6126 0.2015L39.9546 0L40.1526 0.348096C42.6543 4.81832 44.6701 8.57402 46.038 11.1389C46.6679 12.3297 47.1899 13.3007 47.6039 14.1252C47.7716 14.4325 47.9044 14.7583 47.9998 15.0962Z" fill="#5CD9D8"/>
</svg>
