<svg width="588" height="551" viewBox="0 0 588 551" fill="none" xmlns="http://www.w3.org/2000/svg">
<path d="M334.98 184.509L334.533 186.017L334.124 187.295C333.843 188.151 333.536 188.944 333.229 189.762C332.616 191.359 331.951 192.918 331.223 194.465C329.805 197.539 328.205 200.527 326.43 203.411C325.548 204.855 324.615 206.248 323.67 207.641C322.724 209.034 321.714 210.376 320.654 211.692C318.574 214.353 316.342 216.892 313.97 219.296L313.471 219.807C312.784 220.513 311.968 221.081 311.069 221.481C308.406 222.646 305.512 223.184 302.608 223.053C300.08 222.917 297.597 222.332 295.273 221.328C293.325 220.505 291.484 219.45 289.79 218.184C288.27 217.074 286.83 215.857 285.483 214.542C283.035 212.092 280.827 209.413 278.889 206.542C277.943 205.161 277.074 203.743 276.243 202.311C275.413 200.88 274.697 199.449 273.917 197.8C273.409 196.726 273.29 195.508 273.583 194.356C273.875 193.204 274.559 192.19 275.519 191.488C276.478 190.786 277.651 190.44 278.838 190.51C280.024 190.58 281.15 191.061 282.02 191.87L282.352 192.177L285.47 195.04C286.531 196.011 287.617 196.944 288.704 197.838C290.761 199.584 292.939 201.181 295.222 202.618C297.007 203.808 298.988 204.674 301.075 205.174C301.605 205.324 302.167 205.324 302.698 205.174C302.873 205.096 303.017 204.961 303.107 204.791L300.167 207.015C301.79 204.816 303.362 202.593 304.807 200.292C306.251 197.992 307.631 195.615 308.922 193.225C310.212 190.835 311.401 188.369 312.5 185.902C313.062 184.624 313.561 183.423 314.072 182.196L315.35 178.847L315.708 177.927C316.728 175.57 318.598 173.683 320.946 172.642C323.294 171.601 325.948 171.481 328.38 172.307C330.812 173.134 332.844 174.845 334.071 177.101C335.299 179.357 335.633 181.993 335.006 184.483L334.98 184.509Z" fill="#263238"/>
<path d="M277.534 197.864L268.895 194.861L267.08 183.026C267.08 183.026 281.56 186.86 281.496 193.838L277.534 197.864Z" fill="#CE7A63"/>
<path d="M328.424 136.213C322.788 134.232 315.005 127.485 318.059 118.756C320.385 112.136 328.999 111.548 332.386 113.529C335.772 115.51 335.913 111.446 340.245 109.886C344.578 108.327 347.632 112.251 349.83 114.308C352.029 116.366 354.597 114.807 357.856 114.947C361.115 115.088 363.441 119.356 361.626 122.475C358.431 127.945 363.71 131.421 359.709 135.689C353.818 141.888 358.431 147.971 350.124 154.144C345.076 157.927 330.737 150.987 328.424 136.213Z" fill="#263238"/>
<path d="M328.322 141.99C328.112 142.115 327.875 142.189 327.632 142.207C327.208 142.243 326.788 142.109 326.463 141.837C326.137 141.564 325.933 141.173 325.894 140.75C325.612 138.214 325.944 135.647 326.86 133.265C327.776 130.884 329.25 128.757 331.159 127.063C331.324 126.931 331.514 126.834 331.717 126.777C331.92 126.72 332.133 126.704 332.343 126.73C332.552 126.756 332.754 126.824 332.937 126.929C333.12 127.035 333.28 127.176 333.408 127.344C333.539 127.508 333.637 127.697 333.695 127.899C333.754 128.101 333.771 128.313 333.748 128.522C333.724 128.731 333.659 128.933 333.557 129.117C333.455 129.301 333.317 129.463 333.153 129.593C331.659 130.952 330.513 132.648 329.808 134.54C329.103 136.432 328.861 138.465 329.101 140.469C329.127 140.77 329.068 141.073 328.93 141.341C328.792 141.61 328.581 141.835 328.322 141.99Z" fill="#263238"/>
<path d="M319.133 171.729C319.133 171.729 307.797 200.74 318.558 254.799H369.946C370.304 246.914 365.345 208.433 372.95 171.269C367.268 170.176 361.522 169.451 355.748 169.096C348.473 168.674 341.181 168.674 333.907 169.096C328.921 169.585 323.981 170.466 319.133 171.729Z" fill="white"/>
<path d="M353.588 144.418C352.208 151.447 350.84 164.329 355.748 169.02C355.748 169.02 347.517 175.691 338.865 182.439C336.953 180.818 335.492 178.731 334.624 176.38C333.755 174.029 333.508 171.494 333.907 169.02C341.741 167.154 341.575 161.352 340.182 155.869L353.588 144.418Z" fill="#CE7A63"/>
<path opacity="0.2" d="M348.131 149.134L340.194 155.907C340.533 157.163 340.76 158.446 340.872 159.741C343.428 162.169 347.977 156.022 348.297 152.891C348.465 151.639 348.409 150.366 348.131 149.134Z" fill="black"/>
<path d="M353.498 132.597C353.856 142.13 354.546 147.69 350.252 153.045C343.773 161.07 331.657 157.888 328.462 148.648C325.587 140.341 325.485 126.155 334.392 121.478C336.346 120.436 338.534 119.911 340.748 119.953C342.962 119.994 345.129 120.6 347.043 121.714C348.957 122.828 350.555 124.412 351.684 126.317C352.814 128.221 353.439 130.383 353.498 132.597Z" fill="#CE7A63"/>
<path d="M353.243 141.415C350.623 146.527 347.607 130.36 348.374 127.664C339.108 130.22 324.897 129.376 325.996 122.909C327.274 115.612 335.76 115.331 345.166 116.225C360.693 117.721 356.08 135.868 353.243 141.415Z" fill="#263238"/>
<path d="M348.655 142.322C348.414 142.336 348.173 142.292 347.952 142.194C347.758 142.11 347.583 141.988 347.436 141.835C347.289 141.683 347.174 141.503 347.097 141.306C347.02 141.109 346.982 140.898 346.986 140.687C346.99 140.475 347.036 140.267 347.121 140.073C348.088 137.712 349.607 135.618 351.55 133.966C353.494 132.313 355.805 131.151 358.291 130.577C358.706 130.503 359.134 130.595 359.481 130.834C359.828 131.074 360.066 131.441 360.144 131.855C360.212 132.269 360.117 132.694 359.878 133.039C359.64 133.385 359.277 133.625 358.866 133.708C356.899 134.195 355.077 135.144 353.552 136.478C352.027 137.812 350.843 139.492 350.099 141.376C349.977 141.658 349.775 141.897 349.518 142.065C349.262 142.233 348.961 142.323 348.655 142.322Z" fill="#263238"/>
<path d="M358.253 139.306C357.748 141.602 356.421 143.634 354.521 145.019C352.029 146.757 350.061 144.622 350.124 141.619C350.188 138.923 351.569 134.782 354.355 134.245C357.141 133.708 358.879 136.482 358.253 139.306Z" fill="#CE7A63"/>
<path d="M313.344 496.341C312.155 496.635 310.966 496.75 310.455 496.341C310.325 496.22 310.235 496.062 310.198 495.888C310.161 495.714 310.18 495.533 310.251 495.37C310.294 495.223 310.368 495.087 310.467 494.97C310.566 494.854 310.688 494.759 310.826 494.692C312.27 493.887 315.938 494.935 316.104 494.986C316.151 494.998 316.193 495.025 316.223 495.063C316.253 495.101 316.269 495.149 316.269 495.197C316.269 495.246 316.253 495.293 316.223 495.331C316.193 495.369 316.151 495.396 316.104 495.408C315.212 495.798 314.289 496.11 313.344 496.341ZM311.452 494.897C311.31 494.93 311.172 494.982 311.043 495.05C310.959 495.091 310.884 495.148 310.822 495.218C310.761 495.288 310.714 495.37 310.685 495.459C310.583 495.779 310.685 495.894 310.749 495.958C311.324 496.456 313.676 495.894 315.35 495.216C314.083 494.86 312.76 494.751 311.452 494.897Z" fill="#263238"/>
<path d="M316.091 495.382H316.002C314.724 495.165 312.066 493.695 311.989 492.596C311.989 492.341 312.078 491.983 312.666 491.778C313.086 491.635 313.545 491.663 313.944 491.855C315.35 492.532 316.181 494.986 316.219 495.088C316.241 495.123 316.252 495.163 316.252 495.203C316.252 495.244 316.241 495.284 316.219 495.319C316.184 495.352 316.139 495.374 316.091 495.382ZM312.947 492.162H312.82C312.423 492.29 312.436 492.456 312.449 492.507C312.449 493.171 314.366 494.373 315.67 494.782C315.321 493.754 314.659 492.86 313.778 492.226C313.516 492.112 313.224 492.09 312.947 492.162Z" fill="#263238"/>
<path d="M330.06 498.424L320.436 499.843L320.743 477.784L330.367 476.379L330.06 498.424Z" fill="#CE7A63"/>
<path d="M318.992 494.143H331.606C331.792 494.138 331.973 494.202 332.114 494.322C332.256 494.442 332.348 494.611 332.373 494.795L333.651 503.293C333.676 503.506 333.656 503.722 333.592 503.927C333.528 504.132 333.421 504.321 333.278 504.482C333.136 504.642 332.961 504.771 332.765 504.859C332.57 504.947 332.358 504.993 332.143 504.993C328.373 504.929 322.954 504.712 318.213 504.712C312.679 504.712 307.708 505.006 301.215 505.006C297.292 505.006 296.563 501.287 298.187 500.686C305.446 497.964 309.331 497.504 316.679 494.884C317.404 494.511 318.186 494.26 318.992 494.143Z" fill="#263238"/>
<path opacity="0.2" d="M320.743 477.797L320.577 489.159L330.213 487.74L330.379 476.379L320.743 477.797Z" fill="black"/>
<path d="M325.127 494.82C325.063 490.743 326.341 484.187 316.181 488.2C310.123 490.577 318.341 497.568 318.341 497.568L325.127 494.82Z" fill="#263238"/>
<path d="M318.558 254.761C318.558 254.761 313.446 332.169 314.89 359.697C316.296 385.781 317.088 459.777 317.267 479.19C317.274 479.78 317.407 480.362 317.656 480.898C317.905 481.433 318.265 481.909 318.713 482.294C319.16 482.68 319.684 482.966 320.25 483.134C320.816 483.301 321.411 483.347 321.996 483.267L328.795 482.347C329.702 482.223 330.544 481.805 331.191 481.156C331.837 480.507 332.253 479.664 332.373 478.756C336.769 444.492 341.996 391.634 343.134 363.339C344.412 331.044 352.361 254.709 352.361 254.709L318.558 254.761Z" fill="#5CD9D8"/>
<path opacity="0.2" d="M318.558 254.761C318.558 254.761 313.446 332.169 314.89 359.697C316.296 385.781 317.088 459.777 317.267 479.19C317.274 479.78 317.407 480.362 317.656 480.898C317.905 481.433 318.265 481.909 318.713 482.294C319.16 482.68 319.684 482.966 320.25 483.134C320.816 483.301 321.411 483.347 321.996 483.267L328.795 482.347C329.702 482.223 330.544 481.805 331.191 481.156C331.837 480.507 332.253 479.664 332.373 478.756C336.769 444.492 341.996 391.634 343.134 363.339C344.412 331.044 352.361 254.709 352.361 254.709L318.558 254.761Z" fill="white"/>
<path d="M382.713 495.076C381.602 495.574 380.451 495.906 379.863 495.561C379.713 495.469 379.597 495.331 379.53 495.168C379.463 495.005 379.45 494.825 379.493 494.654C379.507 494.499 379.554 494.35 379.631 494.215C379.708 494.081 379.814 493.964 379.94 493.874C381.218 492.826 385.052 493.21 385.18 493.223C385.227 493.226 385.272 493.244 385.308 493.273C385.345 493.303 385.371 493.343 385.384 493.389C385.394 493.434 385.391 493.48 385.375 493.523C385.359 493.566 385.331 493.604 385.295 493.632C384.479 494.189 383.615 494.672 382.713 495.076ZM380.592 493.989C380.461 494.053 380.336 494.13 380.221 494.219C380.143 494.273 380.077 494.343 380.028 494.425C379.98 494.506 379.95 494.598 379.94 494.692C379.94 495.012 380.017 495.127 380.094 495.165C380.745 495.561 382.956 494.577 384.49 493.632C383.18 493.499 381.856 493.62 380.592 493.989Z" fill="#263238"/>
<path d="M385.193 493.657C383.915 493.657 381.026 492.699 380.758 491.625C380.694 491.382 380.758 491.012 381.282 490.705C381.473 490.594 381.685 490.523 381.905 490.496C382.125 490.47 382.348 490.489 382.56 490.552C384.068 490.973 385.333 493.223 385.384 493.325C385.403 493.36 385.413 493.4 385.413 493.44C385.413 493.48 385.403 493.52 385.384 493.555C385.361 493.584 385.332 493.608 385.299 493.625C385.266 493.643 385.23 493.654 385.193 493.657ZM381.525 491.101H381.41C381.052 491.306 381.09 491.459 381.103 491.51C381.269 492.149 383.327 493.005 384.682 493.184C384.158 492.228 383.35 491.46 382.368 490.986C382.105 490.916 381.825 490.938 381.576 491.05L381.525 491.101Z" fill="#263238"/>
<path d="M400.094 494.219L391.02 497.299L385.001 475.97L394.062 472.89L400.094 494.219Z" fill="#CE7A63"/>
<path opacity="0.2" d="M342.405 282.442C339.76 293.037 340.463 337.064 343.198 361.883C343.849 347.352 345.69 324.948 347.556 304.373L342.405 282.442Z" fill="black"/>
<path d="M387.531 492.124L399.954 489.887C400.139 489.85 400.332 489.88 400.498 489.971C400.664 490.062 400.793 490.209 400.861 490.385L404.12 498.437C404.199 498.632 404.234 498.843 404.221 499.054C404.208 499.264 404.147 499.469 404.044 499.654C403.941 499.838 403.798 499.996 403.625 500.118C403.452 500.239 403.255 500.32 403.046 500.354C399.327 500.967 393.934 501.709 389.27 502.552C383.825 503.536 383.787 503.83 377.397 505.006C373.563 505.709 371.914 502.22 373.358 501.338C379.851 497.402 378.79 497.133 385.384 493.274C386.027 492.768 386.754 492.378 387.531 492.124Z" fill="#263238"/>
<path opacity="0.2" d="M385.001 475.982L388.107 486.973L397.18 483.893L394.075 472.902L385.001 475.982Z" fill="black"/>
<path d="M336.795 254.761C336.795 254.761 343.415 332.182 348.514 359.697C353.422 386.177 375.621 461.605 382.164 478.743C382.544 479.743 383.296 480.558 384.263 481.018C385.23 481.477 386.337 481.546 387.353 481.209L393.909 479.075C394.872 478.76 395.688 478.105 396.203 477.233C396.718 476.36 396.898 475.329 396.708 474.334C390.19 440.684 379.812 391.507 377.231 363.339C374.279 331.044 369.946 254.709 369.946 254.709L336.795 254.761Z" fill="#5CD9D8"/>
<path opacity="0.2" d="M336.795 254.761C336.795 254.761 343.415 332.182 348.514 359.697C353.422 386.177 375.621 461.605 382.164 478.743C382.544 479.743 383.296 480.558 384.263 481.018C385.23 481.477 386.337 481.546 387.353 481.209L393.909 479.075C394.872 478.76 395.688 478.105 396.203 477.233C396.718 476.36 396.898 475.329 396.708 474.334C390.19 440.684 379.812 391.507 377.231 363.339C374.279 331.044 369.946 254.709 369.946 254.709L336.795 254.761Z" fill="white"/>
<path d="M339.402 136.661C339.479 137.44 339.134 138.105 338.622 138.156C338.111 138.207 337.651 137.619 337.574 136.878C337.498 136.137 337.843 135.447 338.354 135.395C338.865 135.344 339.325 135.894 339.402 136.661Z" fill="#263238"/>
<path d="M330.686 137.53C330.763 138.296 330.418 138.961 329.906 139.012C329.395 139.063 328.935 138.475 328.858 137.734C328.782 136.993 329.127 136.29 329.638 136.239C330.149 136.188 330.609 136.75 330.686 137.53Z" fill="#263238"/>
<path d="M333.498 137.632C332.809 140.082 331.786 142.426 330.456 144.597C331.021 144.921 331.65 145.117 332.299 145.172C332.948 145.227 333.602 145.14 334.213 144.916L333.498 137.632Z" fill="#BA4D3C"/>
<path d="M336.629 146.833C336.57 146.837 336.512 146.818 336.466 146.78C336.421 146.742 336.392 146.688 336.386 146.629C336.382 146.599 336.385 146.568 336.393 146.539C336.402 146.51 336.416 146.482 336.435 146.458C336.454 146.435 336.477 146.415 336.504 146.4C336.531 146.386 336.56 146.377 336.59 146.373C337.551 146.302 338.482 146.004 339.306 145.505C340.13 145.005 340.824 144.317 341.332 143.498C341.359 143.444 341.407 143.403 341.464 143.384C341.522 143.365 341.584 143.369 341.639 143.396C341.69 143.425 341.729 143.473 341.748 143.529C341.767 143.586 341.764 143.648 341.741 143.702C341.201 144.595 340.456 145.346 339.566 145.89C338.677 146.435 337.669 146.759 336.629 146.833Z" fill="#263238"/>
<path d="M341.741 133.593C341.67 133.599 341.6 133.59 341.534 133.565C341.467 133.541 341.407 133.503 341.357 133.453C340.987 133.012 340.516 132.666 339.985 132.444C339.454 132.221 338.877 132.129 338.303 132.175C338.184 132.193 338.063 132.165 337.966 132.096C337.868 132.027 337.801 131.922 337.779 131.804C337.768 131.745 337.769 131.685 337.782 131.626C337.794 131.568 337.819 131.513 337.853 131.464C337.888 131.415 337.932 131.374 337.983 131.342C338.034 131.31 338.09 131.289 338.15 131.28C338.862 131.205 339.581 131.302 340.248 131.562C340.915 131.822 341.51 132.238 341.984 132.775C342.028 132.817 342.063 132.868 342.088 132.924C342.112 132.98 342.124 133.04 342.124 133.101C342.124 133.162 342.112 133.223 342.088 133.279C342.063 133.335 342.028 133.385 341.984 133.427C341.921 133.505 341.836 133.563 341.741 133.593Z" fill="#263238"/>
<path d="M326.469 134.82C326.401 134.834 326.332 134.834 326.264 134.82C326.155 134.77 326.07 134.679 326.027 134.567C325.984 134.455 325.986 134.33 326.034 134.22C326.311 133.554 326.744 132.964 327.295 132.5C327.846 132.035 328.501 131.709 329.204 131.549C329.267 131.527 329.334 131.519 329.4 131.525C329.467 131.532 329.531 131.553 329.589 131.587C329.646 131.621 329.696 131.667 329.734 131.722C329.771 131.777 329.797 131.84 329.808 131.905C329.82 131.971 329.816 132.039 329.799 132.103C329.781 132.168 329.75 132.228 329.707 132.279C329.664 132.33 329.611 132.371 329.55 132.4C329.49 132.428 329.424 132.443 329.357 132.443C328.801 132.579 328.286 132.844 327.853 133.217C327.419 133.59 327.081 134.061 326.865 134.59C326.826 134.661 326.768 134.719 326.698 134.76C326.629 134.8 326.549 134.821 326.469 134.82Z" fill="#263238"/>
<path d="M357.077 167.422C362.086 167.422 374.164 167.691 375.339 172.164C376.515 176.637 375.224 183.883 373.627 188.139C375.978 194.631 375.224 204.216 372.988 207.206C375.442 214.44 373.844 219.769 372.349 222.325C373.525 225.2 374.585 233.405 372.783 237.444C374.266 243.195 375.966 252.78 373.307 254.709C369.691 257.265 360.067 258.543 353.268 256.933C346.469 255.323 349.14 241.597 349.664 238.402C346.687 234.466 349.882 222.644 349.882 222.644C348.386 219.347 350.623 206.989 350.623 206.989C348.821 204.011 351.16 187.819 351.16 187.819C349.217 184.573 348.374 167.422 357.077 167.422Z" fill="#263238"/>
<path d="M320.283 170.4C324.219 168.662 337.408 165.505 334.852 168.981C331.146 174.029 333.421 179.346 331.223 185.595C333.165 191.564 332.501 201.315 330.699 204.765C332.299 209.771 332.137 215.175 330.239 220.076C331.197 222.632 332.079 230.645 330.584 235.092C331.862 240.511 332.833 251.438 330.584 253.904C328.965 255.688 326.819 256.908 324.459 257.389C322.098 257.869 319.646 257.584 317.459 256.575C314.328 255.297 312.935 244.843 314.481 241.239C311.439 234.607 313.919 224.779 313.919 224.779C310.979 219.667 313.254 208.944 313.254 208.944C310.34 199.436 313.919 188.918 313.919 188.918C312.347 186.068 314.008 173.173 320.283 170.4Z" fill="#263238"/>
<path d="M328.961 171.576C328.437 171.187 328.011 170.683 327.716 170.102C327.421 169.521 327.265 168.879 327.261 168.227C327.251 167.79 327.327 167.356 327.486 166.949C327.644 166.542 327.882 166.17 328.185 165.855C328.488 165.54 328.85 165.288 329.251 165.114C329.652 164.94 330.083 164.847 330.52 164.84C332.016 164.965 333.47 165.4 334.788 166.118C336.795 167.103 337.536 168.01 337.626 169.492C337.715 170.975 334.06 176.189 332.054 174.949C330.047 173.71 330.085 172.854 328.961 171.576Z" fill="#263238"/>
<path opacity="0.2" d="M367.735 189.851C368.732 185.544 371.263 185.927 373.78 187.691L373.601 188.19C375.953 194.682 375.199 204.267 372.962 207.257C373.103 207.666 373.231 208.075 373.346 208.535C370.215 205.468 365.869 197.979 367.735 189.851Z" fill="black"/>
<path d="M368.17 200.369L359.671 204.254L358.84 231.705L335.747 246.581L361.601 255.86L368.617 282.404L377.129 278.531L381.883 235.233L368.17 200.369Z" fill="#5CD9D8"/>
<path opacity="0.3" d="M368.17 200.369L359.671 204.254L358.84 231.705L335.747 246.581L361.601 255.86L368.617 282.404L377.129 278.531L381.883 235.233L368.17 200.369Z" fill="black"/>
<path d="M421.36 258.339L412.849 262.224L385.423 260.69L396.899 252.946L421.36 258.339Z" fill="#5CD9D8"/>
<path opacity="0.3" d="M421.36 258.339L412.849 262.224L385.423 260.69L396.899 252.946L421.36 258.339Z" fill="black"/>
<path d="M368.17 200.369L389.461 217.724L415.826 210.031L405.896 235.642L421.36 258.339L393.934 256.805L377.129 278.531L370.1 251.975L344.258 242.696L367.339 227.82L368.17 200.369Z" fill="#5CD9D8"/>
<path d="M381.55 254.939L381.359 263.617L391.583 263.042C391.583 263.042 392.963 257.611 387.084 253.828L381.55 254.939Z" fill="#CE7A63"/>
<path d="M384.643 272.307L391.723 268.231L391.595 263.042L381.359 263.617L384.643 272.307Z" fill="#CE7A63"/>
<path d="M375.684 171.908C376.515 172.675 377.141 173.263 377.831 173.94C378.522 174.617 379.109 175.218 379.825 175.934C381.103 177.275 382.381 178.656 383.659 180.049C386.158 182.908 388.509 185.894 390.701 188.995C393.017 192.235 395.073 195.653 396.848 199.219C398.985 203.347 400.353 207.829 400.887 212.446C400.965 213.129 401.004 213.816 401.002 214.504V215.577V216.318L400.784 219.219C400.554 221.124 400.324 223.053 400.005 224.855C399.413 228.501 398.637 232.114 397.679 235.68C395.84 242.692 393.403 249.533 390.394 256.128C389.903 257.239 389.033 258.138 387.939 258.666C386.845 259.193 385.599 259.314 384.424 259.006C383.25 258.699 382.223 257.983 381.527 256.987C380.832 255.992 380.514 254.781 380.63 253.572V253.368C381.18 246.62 381.908 239.744 382.279 233.073C382.535 229.725 382.637 226.415 382.713 223.181C382.713 221.558 382.713 219.973 382.713 218.389L382.611 216.088V215.526V215.283C382.585 215.102 382.546 214.923 382.496 214.746C381.832 212.498 380.869 210.349 379.633 208.356C378.076 205.808 376.369 203.354 374.521 201.008C372.592 198.554 370.521 196.113 368.374 193.711C367.301 192.509 366.189 191.333 365.09 190.145L363.428 188.394L361.856 186.771L361.601 186.503C359.778 184.585 358.77 182.036 358.788 179.39C358.806 176.745 359.848 174.21 361.697 172.317C363.545 170.424 366.055 169.321 368.699 169.24C371.343 169.159 373.916 170.106 375.876 171.882L375.684 171.908Z" fill="#263238"/>
<path d="M360.911 170.451C362.189 170.272 362.521 167.281 361.499 165.339C360.668 163.741 357.665 163.959 354.981 164.649C352.821 165.13 350.754 165.959 348.859 167.103C346.15 168.598 347.134 170.4 347.76 171.818C348.386 173.237 349.575 176.496 352.131 174.77C354.687 173.045 359.122 170.719 360.911 170.451Z" fill="#263238"/>
<path d="M393.142 491.561C392.95 487.484 394.024 480.903 383.991 485.171C377.998 487.727 386.42 494.475 386.42 494.475L393.142 491.561Z" fill="#263238"/>
<path d="M267.489 173.812H281.215C281.596 173.826 281.964 173.956 282.27 174.184C282.576 174.412 282.805 174.728 282.927 175.09L290.11 200.65C290.156 200.799 290.167 200.957 290.14 201.111C290.114 201.265 290.051 201.41 289.958 201.535C289.864 201.66 289.742 201.76 289.602 201.829C289.462 201.897 289.307 201.931 289.151 201.928H275.413C275.034 201.908 274.67 201.776 274.368 201.548C274.065 201.321 273.837 201.008 273.713 200.65L266.53 175.09C266.481 174.941 266.468 174.782 266.493 174.627C266.518 174.472 266.581 174.326 266.675 174.2C266.769 174.074 266.892 173.973 267.034 173.906C267.176 173.838 267.332 173.806 267.489 173.812Z" fill="#5CD9D8"/>
<path d="M274.965 191.039L272.09 181.033L267.08 183.026L268.895 194.861L274.965 191.039Z" fill="#CE7A63"/>
<path opacity="0.3" d="M282.314 174.732C282.449 174.74 282.578 174.79 282.683 174.875C282.788 174.96 282.865 175.075 282.902 175.205L290.097 200.65C290.119 200.703 290.127 200.76 290.121 200.817C290.114 200.873 290.093 200.927 290.06 200.973C290.026 201.02 289.982 201.056 289.93 201.08C289.878 201.104 289.821 201.115 289.764 201.11C289.631 201.105 289.502 201.057 289.396 200.975C289.291 200.892 289.214 200.779 289.177 200.65L282.007 175.167C281.994 175.118 281.991 175.066 282 175.016C282.009 174.966 282.029 174.919 282.058 174.877C282.087 174.836 282.126 174.801 282.17 174.776C282.214 174.751 282.263 174.736 282.314 174.732Z" fill="black"/>
<path d="M221.827 185H196.254V186.278H221.827V185Z" fill="#5CD9D8"/>
<path d="M232.23 132.903H81.3366C75.8101 132.903 71.3299 137.384 71.3299 142.91V167.754C71.3299 173.281 75.8101 177.761 81.3366 177.761H232.23C237.757 177.761 242.237 173.281 242.237 167.754V142.91C242.237 137.384 237.757 132.903 232.23 132.903Z" fill="#5CD9D8"/>
<path d="M136.118 149L138.317 153.46L143.237 154.163L139.671 157.639L140.515 162.534L136.118 160.221L131.722 162.534L132.566 157.639L129 154.163L133.92 153.46L136.118 149Z" fill="white"/>
<path d="M156.081 149L158.279 153.46L163.199 154.163L159.634 157.639L160.477 162.534L156.081 160.221L151.685 162.534L152.528 157.639L148.962 154.163L153.883 153.46L156.081 149Z" fill="white"/>
<path d="M176.043 149L178.241 153.46L183.162 154.163L179.609 157.639L180.44 162.534L176.043 160.221L171.647 162.534L172.49 157.639L168.925 154.163L173.845 153.46L176.043 149Z" fill="white"/>
<path d="M196.006 149L198.204 153.46L203.124 154.163L199.571 157.639L200.402 162.534L196.006 160.221L191.609 162.534L192.453 157.639L188.887 154.163L193.807 153.46L196.006 149Z" fill="white"/>
<path d="M215.968 149L218.166 153.46L223.086 154.163L219.534 157.639L220.364 162.534L215.968 160.221L211.572 162.534L212.415 157.639L208.849 154.163L213.77 153.46L215.968 149Z" fill="white"/>
<path d="M237.598 159.166L226.862 177.761H253.7L237.598 159.166Z" fill="#5CD9D8"/>
<path opacity="0.2" d="M102.5 170.681C110.977 170.681 117.849 163.809 117.849 155.332C117.849 146.855 110.977 139.983 102.5 139.983C94.0234 139.983 87.1515 146.855 87.1515 155.332C87.1515 163.809 94.0234 170.681 102.5 170.681Z" fill="white"/>
<path d="M115.178 155.332C115.181 158.152 114.243 160.893 112.512 163.12C110.782 165.346 108.357 166.932 105.624 167.624C102.89 168.317 100.003 168.077 97.4208 166.943C94.8387 165.809 92.7088 163.846 91.3689 161.364C90.3562 159.516 89.8286 157.44 89.8353 155.332C89.7814 153.634 90.0692 151.943 90.6817 150.359C91.2943 148.774 92.219 147.329 93.401 146.109C94.5829 144.889 95.9981 143.919 97.5623 143.256C99.1265 142.593 100.808 142.252 102.507 142.252C104.205 142.252 105.887 142.593 107.451 143.256C109.015 143.919 110.43 144.889 111.612 146.109C112.794 147.329 113.719 148.774 114.332 150.359C114.944 151.943 115.232 153.634 115.178 155.332Z" fill="white"/>
<path d="M113.644 161.364C112.558 163.371 110.95 165.047 108.989 166.215C107.029 167.383 104.789 168 102.507 168C100.225 168 97.9849 167.383 96.0244 166.215C94.0638 165.047 92.4553 163.371 91.3689 161.364C94.6665 159.164 98.5422 157.989 102.507 157.989C106.471 157.989 110.347 159.164 113.644 161.364Z" fill="#408CFF"/>
<path d="M108.149 151C108.149 152.117 107.818 153.209 107.197 154.138C106.576 155.067 105.694 155.791 104.662 156.219C103.63 156.646 102.494 156.758 101.398 156.54C100.303 156.322 99.296 155.784 98.506 154.994C97.716 154.204 97.178 153.198 96.9601 152.102C96.7421 151.006 96.854 149.87 97.2815 148.838C97.7091 147.806 98.4331 146.924 99.362 146.303C100.291 145.682 101.383 145.351 102.5 145.351C103.243 145.349 103.978 145.494 104.664 145.778C105.35 146.061 105.973 146.477 106.498 147.002C107.023 147.527 107.439 148.15 107.722 148.836C108.006 149.522 108.151 150.258 108.149 151Z" fill="#B55B52"/>
</svg>
