<svg id="Layer_1" data-name="Layer 1" xmlns="http://www.w3.org/2000/svg" viewBox="0 0 1388 677"><defs><style>.cls-1{fill:#5cd9d8;}.cls-2{fill:#fff;}.cls-3{opacity:0.1;}</style></defs><title>screen-one</title><path class="cls-1" d="M616,92a133.06,133.06,0,0,1,9.26-9.74A131.07,131.07,0,0,1,635,73c.12.13-4,4.48-9.27,9.73S616.13,92.12,616,92Z"/><path class="cls-1" d="M635,92c-.13.12-4.49-4-9.74-9.27A130.92,130.92,0,0,1,616,73a130.92,130.92,0,0,1,9.73,9.26C631,87.57,635.12,91.87,635,92Z"/><path class="cls-1" d="M312,641.54a1.78,1.78,0,0,1-.25-.36l-.64-1-2.37-3.88-8.2-13.74.4.1-19.37,11.15c0,.11.24-.87.12-.45v.08l.11.17.18.32.39.66.76,1.29,1.49,2.59,2.88,5,5.24,9.06-.41-.12,14.06-7.85,4-2.2,1.08-.57.4-.19a12.61,12.61,0,0,1-1.31.83l-3.92,2.29-14.07,8.19-.26.16-.15-.26-5.31-9-2.9-5-1.5-2.58-.77-1.3-.38-.65-.18-.33-.11-.17v-.07c-.1.4.16-.57.14-.47l19.49-11,.25-.14.15.25,8.05,14.12,2.18,3.88Q311.67,640.88,312,641.54Z"/><path class="cls-1" d="M543.72,485.19a10.24,10.24,0,0,0-.61-1.13,5.31,5.31,0,0,0-5.09-2.47,5.21,5.21,0,0,0-2.31.87,5,5,0,0,0-1.82,2.33,4.81,4.81,0,0,0-.15,2.95,4.93,4.93,0,0,0,1.58,2.5,5.06,5.06,0,0,0,2.75,1.16,5.12,5.12,0,0,0,5.62-4.94c0-.8-.1-1.3,0-1.3a2.67,2.67,0,0,1,.3,1.3,5.15,5.15,0,0,1-1.06,3.42,5.57,5.57,0,0,1-2.15,1.66,5.49,5.49,0,0,1-2.69.44A5.69,5.69,0,0,1,535,490.7a5.5,5.5,0,0,1-1.79-2.83,5.42,5.42,0,0,1,.18-3.33A5.57,5.57,0,0,1,538,481a5.67,5.67,0,0,1,2.7.42,5.29,5.29,0,0,1,2.63,2.46A2.81,2.81,0,0,1,543.72,485.19Z"/><path class="cls-1" d="M768,676.74a10.62,10.62,0,0,1,.73-1.15l2.25-3.34c1.93-2.88,4.71-7,8.06-11.86l.26-.39.26.39,6.24,9,4.85,7.12.35.5h-.61c-6.54,0-12.26-.12-16.2-.18l-4.61-.09H768s.66,0,1.77-.06l4.7-.08c4-.06,9.52-.17,15.92-.18l-.28.5-4.88-7.11c-2.19-3.2-4.28-6.27-6.19-9.08h.52c-3.28,4.65-6.13,8.58-8.2,11.42l-2.43,3.34C768.35,676.29,768,676.73,768,676.74Z"/><path class="cls-1" d="M1305,59.26a10.62,10.62,0,0,1-.73,1.15L1302,63.75c-1.93,2.88-4.71,7-8.06,11.86l-.26.39-.26-.39-6.24-9-4.85-7.12L1282,59h.61c6.54,0,12.26.12,16.2.18l4.61.09H1305s-.66,0-1.77.06l-4.7.08c-4,.07-9.52.17-15.92.18l.28-.5,4.88,7.11c2.19,3.2,4.28,6.27,6.19,9.08h-.52c3.28-4.65,6.13-8.58,8.2-11.42l2.43-3.34C1304.64,59.71,1305,59.27,1305,59.26Z"/><path class="cls-1" d="M329,15.1a7.8,7.8,0,0,1-.72-1.08l-1.8-2.95C325,8.54,322.88,5,320.36.71l.56.15L306.68,9.34c0,.13.33-1.24.16-.66v.13l.15.24.27.51.57,1,1.1,1.94,2.12,3.78,3.87,6.91-.55-.15c4.24-2.44,7.83-4.45,10.38-5.86l3-1.63a5.6,5.6,0,0,1,1.15-.57,8.39,8.39,0,0,1-.92.64l-2.82,1.83c-2.45,1.54-6,3.76-10.39,6.36l-.36.2-.2-.35c-1.22-2.12-2.55-4.43-3.94-6.87L308.12,13,307,11.08l-.57-1-.27-.51L306,9.34V9.22c-.14.58.22-.79.18-.65L320.61.2,321,0l.2.35c2.5,4.47,4.52,8.22,5.89,10.79.63,1.19,1.15,2.16,1.56,3A4.6,4.6,0,0,1,329,15.1Z"/><path class="cls-2" d="M145.18,481.2a6.68,6.68,0,0,1-4.5-1.4,5.38,5.38,0,0,1-1.72-4c0-.39,0-1,0-1.84s0-1.45,0-1.84a5.15,5.15,0,0,1,1.74-3.92,6.8,6.8,0,0,1,4.48-1.38,8.13,8.13,0,0,1,3.3.62,5.29,5.29,0,0,1,2.16,1.58,3.38,3.38,0,0,1,.8,2,.39.39,0,0,1-.14.3.41.41,0,0,1-.3.12h-2.92a.73.73,0,0,1-.32-.06.44.44,0,0,1-.2-.22,2.52,2.52,0,0,0-.82-1,2.47,2.47,0,0,0-1.56-.44c-1.59,0-2.42.84-2.5,2.52,0,.37,0,.95,0,1.74s0,1.35,0,1.74c.08,1.76.93,2.64,2.56,2.64a2.79,2.79,0,0,0,1.88-.6,2.34,2.34,0,0,0,.72-1.88v-.38H146a.49.49,0,0,1-.36-.14.57.57,0,0,1-.14-.38v-1.48a.49.49,0,0,1,.14-.36.44.44,0,0,1,.36-.16h5a.44.44,0,0,1,.36.16.49.49,0,0,1,.14.36v2.28a5.42,5.42,0,0,1-.78,2.94,5.08,5.08,0,0,1-2.22,1.88A8,8,0,0,1,145.18,481.2Zm13.39,0a5.29,5.29,0,0,1-3.78-1.3,5.22,5.22,0,0,1-1.44-3.78v-.7a4.83,4.83,0,0,1,5.2-5,5.39,5.39,0,0,1,2.86.7,4.28,4.28,0,0,1,1.77,1.88,6.22,6.22,0,0,1,.59,2.76v.48a.51.51,0,0,1-.14.36.49.49,0,0,1-.36.14h-6.39v.14a2.61,2.61,0,0,0,.46,1.52,1.39,1.39,0,0,0,1.21.58,1.59,1.59,0,0,0,.83-.2,3.54,3.54,0,0,0,.58-.52.78.78,0,0,1,.28-.26.81.81,0,0,1,.36-.06h2.47a.43.43,0,0,1,.31.12.33.33,0,0,1,.13.28,1.88,1.88,0,0,1-.6,1.2,4.64,4.64,0,0,1-1.7,1.18A6.44,6.44,0,0,1,158.57,481.2Zm1.69-6.46v0a2.34,2.34,0,0,0-.47-1.54,1.45,1.45,0,0,0-1.24-.58,1.48,1.48,0,0,0-1.23.58,2.39,2.39,0,0,0-.44,1.54v0ZM171.13,481q-4.14,0-4.14-3.94v-3.84h-1.56a.57.57,0,0,1-.38-.14.49.49,0,0,1-.14-.36V471.1a.49.49,0,0,1,.14-.36.57.57,0,0,1,.38-.14H167v-3.3a.49.49,0,0,1,.14-.36.56.56,0,0,1,.36-.14h2.32a.48.48,0,0,1,.5.5v3.3h2.5a.49.49,0,0,1,.36.14.44.44,0,0,1,.16.36v1.62a.44.44,0,0,1-.16.36.49.49,0,0,1-.36.14h-2.5v3.56c0,1,.38,1.48,1.14,1.48H173a.48.48,0,0,1,.5.5v1.74a.56.56,0,0,1-.14.36.49.49,0,0,1-.36.14Zm13,.2a7,7,0,0,1-2.72-.46,4.1,4.1,0,0,1-1.6-1.1,2,2,0,0,1-.52-1.14.42.42,0,0,1,.14-.32.53.53,0,0,1,.34-.14H182a.28.28,0,0,1,.22.1c.16.11.28.19.36.26a7.3,7.3,0,0,0,.76.48,2.23,2.23,0,0,0,.82.14,1.74,1.74,0,0,0,.94-.22.73.73,0,0,0,.38-.66.69.69,0,0,0-.2-.54,1.79,1.79,0,0,0-.72-.38,12.42,12.42,0,0,0-1.64-.42,5.73,5.73,0,0,1-2.56-1.1,2.66,2.66,0,0,1-.88-2.08,2.7,2.7,0,0,1,.52-1.56,3.74,3.74,0,0,1,1.54-1.2,6,6,0,0,1,2.46-.46,6.46,6.46,0,0,1,2.48.44,4,4,0,0,1,1.6,1.08,1.74,1.74,0,0,1,.56,1.14.41.41,0,0,1-.14.32.39.39,0,0,1-.3.14h-2.08a.51.51,0,0,1-.3-.1,3,3,0,0,1-.46-.3,3.32,3.32,0,0,0-.64-.4,1.78,1.78,0,0,0-.74-.14,1.39,1.39,0,0,0-.84.24.76.76,0,0,0-.3.62.81.81,0,0,0,.16.5,1.89,1.89,0,0,0,.72.4,13.8,13.8,0,0,0,1.64.38,5.29,5.29,0,0,1,2.82,1.2,2.71,2.71,0,0,1,.9,2,2.75,2.75,0,0,1-1.32,2.38A6.54,6.54,0,0,1,184.08,481.2Zm12.24-.2q-4.14,0-4.14-3.94v-3.84h-1.56a.57.57,0,0,1-.38-.14.49.49,0,0,1-.14-.36V471.1a.49.49,0,0,1,.14-.36.57.57,0,0,1,.38-.14h1.56v-3.3a.49.49,0,0,1,.14-.36.56.56,0,0,1,.36-.14H195a.48.48,0,0,1,.5.5v3.3H198a.49.49,0,0,1,.36.14.44.44,0,0,1,.16.36v1.62a.44.44,0,0,1-.16.36.49.49,0,0,1-.36.14h-2.5v3.56c0,1,.38,1.48,1.14,1.48h1.54a.48.48,0,0,1,.5.5v1.74a.56.56,0,0,1-.14.36.49.49,0,0,1-.36.14Zm7.34.2a4.55,4.55,0,0,1-1.94-.4,3.44,3.44,0,0,1-1.36-1.12,2.8,2.8,0,0,1-.48-1.58,2.63,2.63,0,0,1,1.12-2.22,7.1,7.1,0,0,1,3.12-1.16l2.5-.38v-.28a1.66,1.66,0,0,0-.32-1.12,1.41,1.41,0,0,0-1.08-.36,1.56,1.56,0,0,0-.76.16,3.24,3.24,0,0,0-.62.44,3.31,3.31,0,0,1-.42.32.22.22,0,0,1-.22.16H201a.49.49,0,0,1-.34-.12.38.38,0,0,1-.1-.32,2.13,2.13,0,0,1,.52-1.2,4.05,4.05,0,0,1,1.56-1.14,6.26,6.26,0,0,1,2.6-.48,5.21,5.21,0,0,1,3.64,1.1,3.78,3.78,0,0,1,1.18,2.92v6.08a.56.56,0,0,1-.14.36.52.52,0,0,1-.36.14h-2.32a.52.52,0,0,1-.36-.14.51.51,0,0,1-.14-.36v-.7a3.42,3.42,0,0,1-1.24,1A4.26,4.26,0,0,1,203.66,481.2Zm.94-2.28a1.94,1.94,0,0,0,1.48-.6,2.47,2.47,0,0,0,.58-1.76v-.28l-1.7.3q-1.8.32-1.8,1.26a.94.94,0,0,0,.42.8A1.77,1.77,0,0,0,204.6,478.92ZM213,481a.52.52,0,0,1-.36-.14.49.49,0,0,1-.14-.36v-9.4a.49.49,0,0,1,.14-.36.52.52,0,0,1,.36-.14h2.3a.44.44,0,0,1,.36.16.43.43,0,0,1,.16.34v.8a3.68,3.68,0,0,1,3-1.3h.88a.49.49,0,0,1,.36.14.45.45,0,0,1,.14.36v2.06a.51.51,0,0,1-.14.36.49.49,0,0,1-.36.14h-1.94a1.73,1.73,0,0,0-1.28.46,1.71,1.71,0,0,0-.44,1.26v5.12a.44.44,0,0,1-.16.36.49.49,0,0,1-.36.14Zm14.1,0c-2.75,0-4.14-1.31-4.14-3.94v-3.84h-1.56a.59.59,0,0,1-.38-.14.49.49,0,0,1-.14-.36V471.1a.49.49,0,0,1,.14-.36.59.59,0,0,1,.38-.14H223v-3.3a.49.49,0,0,1,.14-.36.56.56,0,0,1,.36-.14h2.33a.52.52,0,0,1,.36.14.49.49,0,0,1,.14.36v3.3h2.5a.52.52,0,0,1,.36.14.47.47,0,0,1,.16.36v1.62a.47.47,0,0,1-.16.36.52.52,0,0,1-.36.14h-2.5v3.56c0,1,.38,1.48,1.14,1.48H229a.49.49,0,0,1,.36.14.45.45,0,0,1,.14.36v1.74a.51.51,0,0,1-.14.36.49.49,0,0,1-.36.14Zm9,.2a5.28,5.28,0,0,1-3.78-1.3,5.14,5.14,0,0,1-1.44-3.78v-.7a5.1,5.1,0,0,1,1.46-3.68,5.19,5.19,0,0,1,3.74-1.34,5.41,5.41,0,0,1,2.86.7,4.26,4.26,0,0,1,1.76,1.88,6.09,6.09,0,0,1,.6,2.76v.48a.56.56,0,0,1-.14.36.49.49,0,0,1-.36.14h-6.4v.14a2.77,2.77,0,0,0,.46,1.52,1.41,1.41,0,0,0,1.22.58,1.56,1.56,0,0,0,.82-.2,3.18,3.18,0,0,0,.58-.52.87.87,0,0,1,.28-.26.84.84,0,0,1,.36-.06h2.48a.41.41,0,0,1,.3.12.34.34,0,0,1,.14.28,1.93,1.93,0,0,1-.6,1.2,4.72,4.72,0,0,1-1.7,1.18A6.51,6.51,0,0,1,236.15,481.2Zm1.68-6.46v0a2.34,2.34,0,0,0-.46-1.54,1.46,1.46,0,0,0-1.24-.58,1.5,1.5,0,0,0-1.24.58,2.45,2.45,0,0,0-.44,1.54v0Zm9.48,6.46a3.91,3.91,0,0,1-3.06-1.22,5.5,5.5,0,0,1-1.18-3.48l0-.7,0-.72a5.28,5.28,0,0,1,1.18-3.42,4.3,4.3,0,0,1,6-.08V467.3a.45.45,0,0,1,.14-.36.49.49,0,0,1,.36-.14h2.44a.52.52,0,0,1,.36.14.49.49,0,0,1,.14.36v13.2a.56.56,0,0,1-.14.36.52.52,0,0,1-.36.14h-2.26a.52.52,0,0,1-.36-.14.51.51,0,0,1-.14-.36v-.64A3.84,3.84,0,0,1,247.31,481.2Zm1.1-2.68a1.62,1.62,0,0,0,1.34-.56,2.72,2.72,0,0,0,.5-1.48c0-.17,0-.43,0-.76s0-.57,0-.74a2.25,2.25,0,0,0-.5-1.36,1.68,1.68,0,0,0-1.34-.54,1.59,1.59,0,0,0-1.36.56,2.9,2.9,0,0,0-.46,1.54,9.62,9.62,0,0,0,0,1.24,2.9,2.9,0,0,0,.46,1.54A1.59,1.59,0,0,0,248.41,478.52Z"/><g class="cls-3"><circle class="cls-1" cx="1265.1" cy="588.34" r="2.1"/><circle class="cls-1" cx="1265.1" cy="580.14" r="2.1"/><circle class="cls-1" cx="1265.1" cy="571.93" r="2.1"/><circle class="cls-1" cx="1265.1" cy="563.72" r="2.1"/><circle class="cls-1" cx="1265.1" cy="555.52" r="2.1"/><circle class="cls-1" cx="1265.1" cy="547.31" r="2.1"/><circle class="cls-1" cx="1265.1" cy="539.1" r="2.1"/><circle class="cls-1" cx="1271.41" cy="588.34" r="2.1"/><circle class="cls-1" cx="1271.41" cy="580.14" r="2.1"/><circle class="cls-1" cx="1271.41" cy="571.93" r="2.1"/><circle class="cls-1" cx="1271.41" cy="563.72" r="2.1"/><circle class="cls-1" cx="1271.41" cy="555.52" r="2.1"/><circle class="cls-1" cx="1271.41" cy="547.31" r="2.1"/><circle class="cls-1" cx="1271.41" cy="539.1" r="2.1"/><circle class="cls-1" cx="1277.72" cy="588.34" r="2.1"/><circle class="cls-1" cx="1277.72" cy="580.14" r="2.1"/><circle class="cls-1" cx="1277.72" cy="571.93" r="2.1"/><circle class="cls-1" cx="1277.72" cy="563.72" r="2.1"/><circle class="cls-1" cx="1277.72" cy="555.52" r="2.1"/><circle class="cls-1" cx="1277.72" cy="547.31" r="2.1"/><circle class="cls-1" cx="1277.72" cy="539.1" r="2.1"/><circle class="cls-1" cx="1284.03" cy="588.34" r="2.1"/><circle class="cls-1" cx="1284.03" cy="580.14" r="2.1"/><circle class="cls-1" cx="1284.03" cy="571.93" r="2.1"/><circle class="cls-1" cx="1284.03" cy="563.72" r="2.1"/><circle class="cls-1" cx="1284.03" cy="555.52" r="2.1"/><circle class="cls-1" cx="1284.03" cy="547.31" r="2.1"/><circle class="cls-1" cx="1284.03" cy="539.1" r="2.1"/><circle class="cls-1" cx="1290.34" cy="588.34" r="2.1"/><circle class="cls-1" cx="1290.34" cy="580.14" r="2.1"/><circle class="cls-1" cx="1290.34" cy="571.93" r="2.1"/><circle class="cls-1" cx="1290.34" cy="563.72" r="2.1"/><circle class="cls-1" cx="1290.34" cy="555.52" r="2.1"/><circle class="cls-1" cx="1290.34" cy="547.31" r="2.1"/><circle class="cls-1" cx="1290.34" cy="539.1" r="2.1"/><circle class="cls-1" cx="1296.66" cy="588.34" r="2.1"/><circle class="cls-1" cx="1296.66" cy="580.14" r="2.1"/><circle class="cls-1" cx="1296.66" cy="571.93" r="2.1"/><circle class="cls-1" cx="1296.66" cy="563.72" r="2.1"/><circle class="cls-1" cx="1296.66" cy="555.52" r="2.1"/><circle class="cls-1" cx="1296.66" cy="547.31" r="2.1"/><circle class="cls-1" cx="1296.66" cy="539.1" r="2.1"/><circle class="cls-1" cx="1302.97" cy="588.34" r="2.1"/><circle class="cls-1" cx="1302.97" cy="580.14" r="2.1"/><circle class="cls-1" cx="1302.97" cy="571.93" r="2.1"/><circle class="cls-1" cx="1302.97" cy="563.72" r="2.1"/><circle class="cls-1" cx="1302.97" cy="555.52" r="2.1"/><circle class="cls-1" cx="1302.97" cy="547.31" r="2.1"/><circle class="cls-1" cx="1302.97" cy="539.1" r="2.1"/><circle class="cls-1" cx="1309.28" cy="588.34" r="2.1"/><circle class="cls-1" cx="1309.28" cy="580.14" r="2.1"/><circle class="cls-1" cx="1309.28" cy="571.93" r="2.1"/><circle class="cls-1" cx="1309.28" cy="563.72" r="2.1"/><circle class="cls-1" cx="1309.28" cy="555.52" r="2.1"/><circle class="cls-1" cx="1309.28" cy="547.31" r="2.1"/><circle class="cls-1" cx="1309.28" cy="539.1" r="2.1"/><circle class="cls-1" cx="1315.59" cy="588.34" r="2.1"/><circle class="cls-1" cx="1315.59" cy="580.14" r="2.1"/><circle class="cls-1" cx="1315.59" cy="571.93" r="2.1"/><circle class="cls-1" cx="1315.59" cy="563.72" r="2.1"/><circle class="cls-1" cx="1315.59" cy="555.52" r="2.1"/><circle class="cls-1" cx="1315.59" cy="547.31" r="2.1"/><circle class="cls-1" cx="1315.59" cy="539.1" r="2.1"/><circle class="cls-1" cx="1321.9" cy="588.34" r="2.1"/><circle class="cls-1" cx="1321.9" cy="580.14" r="2.1"/><circle class="cls-1" cx="1321.9" cy="571.93" r="2.1"/><circle class="cls-1" cx="1321.9" cy="563.72" r="2.1"/><circle class="cls-1" cx="1321.9" cy="555.52" r="2.1"/><circle class="cls-1" cx="1321.9" cy="547.31" r="2.1"/><circle class="cls-1" cx="1321.9" cy="539.1" r="2.1"/></g><g class="cls-3"><circle class="cls-1" cx="1329.1" cy="588.34" r="2.1"/><circle class="cls-1" cx="1329.1" cy="580.14" r="2.1"/><circle class="cls-1" cx="1329.1" cy="571.93" r="2.1"/><circle class="cls-1" cx="1329.1" cy="563.72" r="2.1"/><circle class="cls-1" cx="1329.1" cy="555.52" r="2.1"/><circle class="cls-1" cx="1329.1" cy="547.31" r="2.1"/><circle class="cls-1" cx="1329.1" cy="539.1" r="2.1"/><circle class="cls-1" cx="1335.41" cy="588.34" r="2.1"/><circle class="cls-1" cx="1335.41" cy="580.14" r="2.1"/><circle class="cls-1" cx="1335.41" cy="571.93" r="2.1"/><circle class="cls-1" cx="1335.41" cy="563.72" r="2.1"/><circle class="cls-1" cx="1335.41" cy="555.52" r="2.1"/><circle class="cls-1" cx="1335.41" cy="547.31" r="2.1"/><circle class="cls-1" cx="1335.41" cy="539.1" r="2.1"/><circle class="cls-1" cx="1341.72" cy="588.34" r="2.1"/><circle class="cls-1" cx="1341.72" cy="580.14" r="2.1"/><circle class="cls-1" cx="1341.72" cy="571.93" r="2.1"/><circle class="cls-1" cx="1341.72" cy="563.72" r="2.1"/><circle class="cls-1" cx="1341.72" cy="555.52" r="2.1"/><circle class="cls-1" cx="1341.72" cy="547.31" r="2.1"/><circle class="cls-1" cx="1341.72" cy="539.1" r="2.1"/><circle class="cls-1" cx="1348.03" cy="588.34" r="2.1"/><circle class="cls-1" cx="1348.03" cy="580.14" r="2.1"/><circle class="cls-1" cx="1348.03" cy="571.93" r="2.1"/><circle class="cls-1" cx="1348.03" cy="563.72" r="2.1"/><circle class="cls-1" cx="1348.03" cy="555.52" r="2.1"/><circle class="cls-1" cx="1348.03" cy="547.31" r="2.1"/><circle class="cls-1" cx="1348.03" cy="539.1" r="2.1"/><circle class="cls-1" cx="1354.34" cy="588.34" r="2.1"/><circle class="cls-1" cx="1354.34" cy="580.14" r="2.1"/><circle class="cls-1" cx="1354.34" cy="571.93" r="2.1"/><circle class="cls-1" cx="1354.34" cy="563.72" r="2.1"/><circle class="cls-1" cx="1354.34" cy="555.52" r="2.1"/><circle class="cls-1" cx="1354.34" cy="547.31" r="2.1"/><circle class="cls-1" cx="1354.34" cy="539.1" r="2.1"/><circle class="cls-1" cx="1360.66" cy="588.34" r="2.1"/><circle class="cls-1" cx="1360.66" cy="580.14" r="2.1"/><circle class="cls-1" cx="1360.66" cy="571.93" r="2.1"/><circle class="cls-1" cx="1360.66" cy="563.72" r="2.1"/><circle class="cls-1" cx="1360.66" cy="555.52" r="2.1"/><circle class="cls-1" cx="1360.66" cy="547.31" r="2.1"/><circle class="cls-1" cx="1360.66" cy="539.1" r="2.1"/><circle class="cls-1" cx="1366.97" cy="588.34" r="2.1"/><circle class="cls-1" cx="1366.97" cy="580.14" r="2.1"/><circle class="cls-1" cx="1366.97" cy="571.93" r="2.1"/><circle class="cls-1" cx="1366.97" cy="563.72" r="2.1"/><circle class="cls-1" cx="1366.97" cy="555.52" r="2.1"/><circle class="cls-1" cx="1366.97" cy="547.31" r="2.1"/><circle class="cls-1" cx="1366.97" cy="539.1" r="2.1"/><circle class="cls-1" cx="1373.28" cy="588.34" r="2.1"/><circle class="cls-1" cx="1373.28" cy="580.14" r="2.1"/><circle class="cls-1" cx="1373.28" cy="571.93" r="2.1"/><circle class="cls-1" cx="1373.28" cy="563.72" r="2.1"/><circle class="cls-1" cx="1373.28" cy="555.52" r="2.1"/><circle class="cls-1" cx="1373.28" cy="547.31" r="2.1"/><circle class="cls-1" cx="1373.28" cy="539.1" r="2.1"/><circle class="cls-1" cx="1379.59" cy="588.34" r="2.1"/><circle class="cls-1" cx="1379.59" cy="580.14" r="2.1"/><circle class="cls-1" cx="1379.59" cy="571.93" r="2.1"/><circle class="cls-1" cx="1379.59" cy="563.72" r="2.1"/><circle class="cls-1" cx="1379.59" cy="555.52" r="2.1"/><circle class="cls-1" cx="1379.59" cy="547.31" r="2.1"/><circle class="cls-1" cx="1379.59" cy="539.1" r="2.1"/><circle class="cls-1" cx="1385.9" cy="588.34" r="2.1"/><circle class="cls-1" cx="1385.9" cy="580.14" r="2.1"/><circle class="cls-1" cx="1385.9" cy="571.93" r="2.1"/><circle class="cls-1" cx="1385.9" cy="563.72" r="2.1"/><circle class="cls-1" cx="1385.9" cy="555.52" r="2.1"/><circle class="cls-1" cx="1385.9" cy="547.31" r="2.1"/><circle class="cls-1" cx="1385.9" cy="539.1" r="2.1"/></g><path class="cls-1" d="M20,383a7.88,7.88,0,0,1-1.38,1.56l-4,4c-3.42,3.34-8.18,7.91-13.47,12.92l-.13.11v-.68c5.37,4.93,10.13,9.4,13.58,12.67l4,3.91A7.81,7.81,0,0,1,20,419a9.09,9.09,0,0,1-1.63-1.26c-1.16-1-2.57-2.24-4.24-3.7C10.55,410.9,5.71,406.49.36,401.6L0,401.27l.36-.34.12-.13c5.37-5,10.15-9.48,13.67-12.7l4.22-3.78A9.81,9.81,0,0,1,20,383Z"/></svg>