<svg id="Layer_1" data-name="Layer 1" xmlns="http://www.w3.org/2000/svg" xmlns:xlink="http://www.w3.org/1999/xlink" viewBox="0 0 1440 567"><defs><style>.cls-1{fill:#24b2b1;}.cls-2{fill:#fff;}.cls-3{fill:none;}.cls-4{fill:url(#linear-gradient);}</style><linearGradient id="linear-gradient" x1="639.91" y1="216.71" x2="706.12" y2="144.1" gradientTransform="matrix(1, 0, 0, -1, 0, 568)" gradientUnits="userSpaceOnUse"><stop offset="0" stop-color="#24b2b1" stop-opacity="0.5"/><stop offset="1" stop-color="#5cd9d8" stop-opacity="0.3"/></linearGradient></defs><title>screen-three</title><rect class="cls-1" width="1440" height="567"/><path class="cls-2" d="M679,61a133.06,133.06,0,0,1,9.26-9.74A131.07,131.07,0,0,1,698,42c.12.13-4,4.48-9.27,9.73S679.13,61.12,679,61Z"/><path class="cls-2" d="M698,61c-.13.12-4.49-4-9.74-9.27A130.92,130.92,0,0,1,679,42a130.92,130.92,0,0,1,9.73,9.26C694,56.57,698.12,60.87,698,61Z"/><path class="cls-2" d="M1305,360.54a1.78,1.78,0,0,1-.25-.36l-.64-1-2.37-3.87-8.2-13.74.4.1-19.37,11.15c0,.11.24-.86.12-.45v.08l.11.17.18.32.39.66.76,1.29,1.49,2.59,2.88,5,5.24,9.06-.41-.12,14.06-7.85,4-2.2,1.08-.57.4-.19a12.61,12.61,0,0,1-1.31.83l-3.92,2.28-14.07,8.21-.26.15-.15-.26-5.31-9.05-2.9-5-1.5-2.58-.77-1.29-.38-.66-.18-.33-.11-.17v-.07c-.1.4.16-.57.14-.47l19.49-11,.25-.14.15.25,8,14.12,2.19,3.88Q1304.67,359.88,1305,360.54Z"/><path class="cls-2" d="M876.72,384.19a10.24,10.24,0,0,0-.61-1.13,5.31,5.31,0,0,0-5.09-2.47,5.21,5.21,0,0,0-2.31.87,5,5,0,0,0-1.82,2.33,4.81,4.81,0,0,0-.15,2.95,4.93,4.93,0,0,0,1.58,2.5,5.06,5.06,0,0,0,2.75,1.16,5.12,5.12,0,0,0,5.62-4.94c0-.8-.1-1.3,0-1.3a2.67,2.67,0,0,1,.3,1.3,5.15,5.15,0,0,1-1.06,3.42,5.57,5.57,0,0,1-2.15,1.66,5.49,5.49,0,0,1-2.69.44A5.69,5.69,0,0,1,868,389.7a5.5,5.5,0,0,1-1.79-2.83,5.42,5.42,0,0,1,.18-3.33A5.57,5.57,0,0,1,871,380a5.67,5.67,0,0,1,2.7.42,5.29,5.29,0,0,1,2.63,2.46A2.81,2.81,0,0,1,876.72,384.19Z"/><path class="cls-2" d="M51,325.74a10.62,10.62,0,0,1,.73-1.15L54,321.25c1.92-2.88,4.71-7.05,8.06-11.86l.26-.39.26.39,6.24,9,4.85,7.12.35.5h-.61c-6.54,0-12.26-.12-16.2-.18l-4.61-.09H51s.66,0,1.77-.06l4.7-.08c4-.07,9.52-.17,15.92-.18l-.28.5-4.88-7.11C66,315.61,64,312.53,62,309.72h.52c-3.28,4.65-6.13,8.58-8.2,11.42l-2.43,3.34C51.35,325.29,51,325.73,51,325.74Z"/><path class="cls-2" d="M1226,88.26a10.62,10.62,0,0,1-.73,1.15L1223,92.75c-1.92,2.88-4.71,7-8.06,11.86l-.26.39-.26-.39-6.24-9-4.85-7.12L1203,88h.61c6.54,0,12.26.12,16.2.18l4.61.09H1226s-.66,0-1.77.06l-4.7.08c-4,.07-9.52.17-15.92.18l.28-.5,4.88,7.11c2.19,3.2,4.28,6.27,6.19,9.08h-.52c3.28-4.65,6.13-8.58,8.2-11.42l2.43-3.34C1225.65,88.71,1226,88.27,1226,88.26Z"/><path class="cls-2" d="M470,435.1a7.8,7.8,0,0,1-.72-1.08l-1.8-2.95c-1.51-2.53-3.6-6.09-6.12-10.36l.56.15-14.24,8.48c0,.13.33-1.24.16-.66v.13l.15.24.27.51.57,1,1.1,1.94,2.13,3.78,3.86,6.91-.55-.15c4.24-2.44,7.83-4.45,10.38-5.86l3-1.63a5.13,5.13,0,0,1,1.15-.57,8.39,8.39,0,0,1-.92.64l-2.82,1.83c-2.45,1.54-6,3.76-10.39,6.36l-.36.2-.2-.35c-1.22-2.12-2.55-4.43-3.94-6.87L449.12,433l-1.1-1.95-.57-1-.27-.52-.15-.24v-.13c-.14.59.22-.78.18-.64l14.4-8.37.34-.2.2.35c2.5,4.47,4.52,8.22,5.89,10.79.63,1.19,1.15,2.16,1.56,3A4.92,4.92,0,0,1,470,435.1Z"/><circle class="cls-3" cx="136" cy="282" r="16"/><path class="cls-4" d="M796.58,459.44a10,10,0,0,1-10.85,14.61L599.44,434.17a10,10,0,0,1-5.93-15.75l94.31-126.95a10,10,0,0,1,16.79,1.13Z"/></svg>