<svg width="23" height="24" viewBox="0 0 23 24" fill="none" xmlns="http://www.w3.org/2000/svg">
<path d="M22.9998 15.0962C22.7287 14.7584 22.4878 14.3966 22.2799 14.0152L20.4801 11.0657C18.9682 8.53742 16.8804 4.98317 14.3606 0.714474L14.9186 0.861071L0.681899 9.34352C0.681899 9.47176 1.00586 8.09769 0.843878 8.68395V8.81221L0.987895 9.05038L1.25786 9.56336L1.83382 10.5527L2.93169 12.4947L5.05548 16.2687L8.92511 23.1756L8.36717 23.029C12.6148 20.5924 16.1965 18.5771 18.7522 17.1664L21.7579 15.5359C22.1207 15.305 22.507 15.1146 22.9098 14.968C22.6181 15.2021 22.3115 15.4163 21.9919 15.6091L19.1662 17.4412C16.7184 18.9801 13.1367 21.1969 8.78115 23.7984L8.42116 24L8.2232 23.6519C6.99932 21.5267 5.66744 19.2183 4.28157 16.7817L2.12174 13.0259L1.02387 11.0839L0.447912 10.0947L0.177948 9.58169L0.0339858 9.34352V9.21526C-0.110001 9.80152 0.249922 8.42746 0.213925 8.57403L14.6126 0.2015L14.9546 0L15.1526 0.348096C17.6543 4.81832 19.6701 8.57402 21.038 11.1389C21.6679 12.3297 22.1899 13.3007 22.6039 14.1252C22.7716 14.4325 22.9044 14.7583 22.9998 15.0962Z" fill="#5CD9D8"/>
</svg>
